<svg width="575" height="73" viewBox="0 0 575 73" fill="none" xmlns="http://www.w3.org/2000/svg">
<g clip-path="url(#clip0_105_34)">
<path d="M798.407 -0.763947H0V72.7768H798.407V-0.763947Z" fill="#29518C"/>
<path d="M798.407 -0.763947H0V72.7768H798.407V-0.763947Z" fill="#29518C"/>
<path d="M798.407 39.5453H83.8325V42.7781H798.407V39.5453Z" fill="white"/>
<path d="M28.9423 33.2918H0V36.7468H28.9423V33.2918Z" fill="white"/>
<path d="M58.5698 13.4671C44.8423 13.4671 33.7295 24.4587 33.7295 38.0365C33.7295 51.6144 44.8423 62.606 58.5698 62.606C72.2974 62.606 83.4102 51.6144 83.4102 38.0365C83.4102 24.4587 72.2974 13.4671 58.5698 13.4671ZM58.3522 60.2354C46.1497 60.2354 36.3443 50.3212 36.3443 38.4678C36.3443 26.3984 46.1497 16.4844 58.3522 16.4844C70.5544 16.4844 80.3598 26.1829 80.3598 38.2521C80.3598 50.3212 70.5544 60.2354 58.3522 60.2354Z" fill="white"/>
<path d="M87.5504 39.5453V42.7781H67.2858L62.71 66.9168L54.2119 21.8724L51.5971 36.7433H28.7178V33.2953H48.9823L54.2119 5.92382L62.4919 52.6923L64.8891 39.5453H87.5504Z" fill="white"/>
<path d="M37.4252 32.5515H33.9321V33.2918H37.4252V32.5515Z" fill="#29518C"/>
<path d="M36.9261 36.7468H33.4331V37.4871H36.9261V36.7468Z" fill="#29518C"/>
<path d="M83.8329 38.721H79.8408V39.5453H83.8329V38.721Z" fill="#29518C"/>
<path d="M83.3338 42.7781H79.3418V43.6024H83.3338V42.7781Z" fill="#29518C"/>
<path d="M96.8749 14.7418V15.4367C97.4922 15.4472 97.9792 15.5473 98.336 15.7368C98.6928 15.9264 98.9453 16.1791 99.0945 16.4949C99.2437 16.8055 99.318 17.153 99.318 17.5373C99.318 17.79 99.2781 18.0427 99.1983 18.2954C99.1239 18.5429 98.9932 18.7693 98.807 18.9746C98.6209 19.1746 98.3704 19.3379 98.0565 19.4642C97.7427 19.5906 97.3485 19.659 96.8749 19.6695V20.5382H96.1643V19.6695C95.6798 19.659 95.2781 19.5906 94.9587 19.4642C94.6449 19.3326 94.3973 19.1641 94.2162 18.9588C94.0351 18.7482 93.9073 18.5192 93.833 18.2718C93.7586 18.0243 93.7212 17.7795 93.7212 17.5373C93.7212 17.2583 93.7611 16.9951 93.841 16.7476C93.9263 16.4949 94.062 16.2738 94.2481 16.0843C94.4398 15.8895 94.6928 15.7342 95.0066 15.6184C95.3205 15.5025 95.7067 15.442 96.1643 15.4367V14.7418H96.8749ZM96.1643 16.0369C95.7387 16.0474 95.3979 16.1159 95.1424 16.2422C94.8924 16.3686 94.7137 16.5423 94.6074 16.7634C94.5011 16.9793 94.4477 17.2346 94.4477 17.5294C94.4477 17.84 94.5061 18.1112 94.6234 18.3428C94.7456 18.5692 94.9323 18.7456 95.1823 18.8719C95.4378 18.9983 95.7651 19.0694 96.1643 19.0852V16.0369ZM96.8749 19.0852C97.2846 19.0694 97.6149 18.9957 97.8649 18.864C98.1204 18.7324 98.3041 18.5534 98.4158 18.327C98.5331 18.0954 98.5915 17.8295 98.5915 17.5294C98.5915 17.2294 98.5381 16.9714 98.4318 16.7555C98.3255 16.5344 98.1469 16.3633 97.8969 16.2422C97.6469 16.1159 97.306 16.0474 96.8749 16.0369V19.0852ZM103.691 20.4592H100.505V14.8208H103.691V15.4446H101.224V17.2057H103.547V17.8216H101.224V19.8354H103.691V20.4592ZM108.782 14.8208V19.8275H109.509V21.9439H108.822V20.4592H104.902V21.9439H104.215V19.8275H104.654C104.846 19.5011 105.027 19.1351 105.197 18.7298C105.373 18.3244 105.527 17.9006 105.66 17.4584C105.794 17.0109 105.902 16.5634 105.988 16.1159C106.073 15.6684 106.126 15.2367 106.147 14.8208H108.782ZM106.778 15.4604C106.757 15.7658 106.704 16.1106 106.618 16.4949C106.539 16.8793 106.435 17.2741 106.307 17.6795C106.185 18.0796 106.046 18.4666 105.892 18.8403C105.743 19.2141 105.583 19.5432 105.413 19.8275H108.072V15.4604H106.778ZM113.648 20.4592H110.462V14.8208H113.648V15.4446H111.181V17.2057H113.504V17.8216H111.181V19.8354H113.648V20.4592ZM116.407 14.8208C117.152 14.8208 117.695 14.9655 118.036 15.2551C118.377 15.5447 118.547 15.9527 118.547 16.4791C118.547 16.7108 118.507 16.9345 118.427 17.1504C118.353 17.361 118.228 17.5505 118.052 17.719C117.877 17.8874 117.642 18.0217 117.35 18.1217C117.057 18.2165 116.697 18.2639 116.272 18.2639H115.617V20.4592H114.898V14.8208H116.407ZM116.344 15.4288H115.617V17.6558H116.192C116.554 17.6558 116.855 17.6189 117.094 17.5452C117.334 17.4663 117.512 17.3425 117.629 17.1741C117.746 17.0056 117.805 16.7845 117.805 16.5107C117.805 16.1475 117.687 15.8764 117.453 15.6973C117.219 15.5183 116.849 15.4288 116.344 15.4288ZM122.912 20.4592L122.225 18.714H119.966L119.287 20.4592H118.561L120.788 14.7971H121.435L123.654 20.4592H122.912ZM121.371 16.3765C121.355 16.3344 121.328 16.258 121.291 16.1475C121.254 16.0369 121.216 15.9237 121.179 15.8079C121.147 15.6868 121.121 15.5947 121.1 15.5315C121.073 15.6368 121.044 15.7447 121.012 15.8553C120.985 15.9606 120.956 16.058 120.924 16.1475C120.897 16.237 120.873 16.3133 120.852 16.3765L120.205 18.0822H122.01L121.371 16.3765ZM128.538 20.4592H127.82V15.4446H126.015C125.978 15.7342 125.938 16.0395 125.896 16.3607C125.853 16.6766 125.808 16.9898 125.76 17.3004C125.717 17.611 125.674 17.9032 125.632 18.177C125.589 18.4508 125.547 18.6903 125.504 18.8956C125.435 19.2484 125.35 19.5485 125.249 19.7959C125.147 20.0433 125.012 20.2302 124.842 20.3566C124.676 20.4829 124.458 20.5461 124.186 20.5461C124.096 20.5461 124.003 20.5356 123.907 20.5145C123.817 20.4987 123.737 20.4776 123.668 20.4513V19.8591C123.726 19.8854 123.793 19.9091 123.868 19.9301C123.942 19.9459 124.022 19.9538 124.107 19.9538C124.267 19.9538 124.392 19.8906 124.482 19.7643C124.578 19.6327 124.652 19.4721 124.706 19.2826C124.759 19.0878 124.804 18.8956 124.842 18.7061C124.874 18.5534 124.91 18.3507 124.953 18.098C124.996 17.84 125.041 17.54 125.089 17.1978C125.142 16.8556 125.195 16.4844 125.249 16.0843C125.307 15.6789 125.363 15.2577 125.416 14.8208H128.538V20.4592ZM130.087 20.4592V14.8208H130.806V17.2057H131.876C132.408 17.2057 132.831 17.2767 133.145 17.4189C133.459 17.561 133.685 17.7532 133.824 17.9954C133.962 18.2376 134.031 18.5087 134.031 18.8088C134.031 19.1404 133.954 19.43 133.8 19.6774C133.651 19.9248 133.424 20.117 133.121 20.2539C132.818 20.3908 132.431 20.4592 131.963 20.4592H130.087ZM131.892 19.8512C132.355 19.8512 132.703 19.7669 132.937 19.5985C133.171 19.4247 133.289 19.1615 133.289 18.8088C133.289 18.5666 133.23 18.3744 133.113 18.2323C133.001 18.0848 132.834 17.9796 132.61 17.9164C132.392 17.8532 132.118 17.8216 131.788 17.8216H130.806V19.8512H131.892ZM139.569 20.4592H138.85V17.8295H135.928V20.4592H135.209V14.8208H135.928V17.2057H138.85V14.8208H139.569V20.4592ZM146.102 17.6321C146.102 18.0691 146.046 18.4666 145.934 18.8246C145.822 19.1773 145.655 19.4826 145.431 19.7406C145.212 19.9986 144.939 20.196 144.609 20.3329C144.284 20.4697 143.906 20.5382 143.475 20.5382C143.028 20.5382 142.639 20.4697 142.309 20.3329C141.979 20.1907 141.705 19.9933 141.487 19.7406C141.268 19.4826 141.106 19.1746 141 18.8167C140.893 18.4587 140.84 18.0612 140.84 17.6242C140.84 17.0451 140.936 16.5397 141.128 16.108C141.319 15.6763 141.609 15.3394 141.998 15.0972C142.392 14.855 142.887 14.7339 143.483 14.7339C144.052 14.7339 144.531 14.855 144.92 15.0972C145.308 15.3341 145.601 15.671 145.798 16.108C146 16.5397 146.102 17.0477 146.102 17.6321ZM141.599 17.6321C141.599 18.1059 141.665 18.5139 141.798 18.8561C141.931 19.1983 142.136 19.4616 142.413 19.6458C142.695 19.8301 143.049 19.9222 143.475 19.9222C143.906 19.9222 144.257 19.8301 144.529 19.6458C144.805 19.4616 145.01 19.1983 145.144 18.8561C145.276 18.5139 145.343 18.1059 145.343 17.6321C145.343 16.9214 145.194 16.366 144.896 15.9658C144.598 15.5605 144.127 15.3578 143.483 15.3578C143.052 15.3578 142.695 15.4499 142.413 15.6342C142.136 15.8132 141.931 16.0738 141.798 16.416C141.665 16.7529 141.599 17.1583 141.599 17.6321ZM150.551 20.4592H147.365V14.8208H150.551V15.4446H148.084V17.2057H150.407V17.8216H148.084V19.8354H150.551V20.4592ZM157.148 14.8208V15.4525H154.649V20.4592H153.93V14.8208H157.148ZM162.935 17.6321C162.935 18.0691 162.879 18.4666 162.767 18.8246C162.656 19.1773 162.488 19.4826 162.264 19.7406C162.046 19.9986 161.772 20.196 161.442 20.3329C161.117 20.4697 160.739 20.5382 160.308 20.5382C159.861 20.5382 159.473 20.4697 159.143 20.3329C158.813 20.1907 158.538 19.9933 158.32 19.7406C158.102 19.4826 157.94 19.1746 157.833 18.8167C157.727 18.4587 157.674 18.0612 157.674 17.6242C157.674 17.0451 157.769 16.5397 157.961 16.108C158.153 15.6763 158.443 15.3394 158.831 15.0972C159.225 14.855 159.72 14.7339 160.316 14.7339C160.886 14.7339 161.365 14.855 161.753 15.0972C162.142 15.3341 162.435 15.671 162.632 16.108C162.834 16.5397 162.935 17.0477 162.935 17.6321ZM158.432 17.6321C158.432 18.1059 158.498 18.5139 158.632 18.8561C158.765 19.1983 158.97 19.4616 159.246 19.6458C159.528 19.8301 159.883 19.9222 160.308 19.9222C160.739 19.9222 161.091 19.8301 161.362 19.6458C161.639 19.4616 161.844 19.1983 161.977 18.8561C162.11 18.5139 162.177 18.1059 162.177 17.6321C162.177 16.9214 162.027 16.366 161.73 15.9658C161.432 15.5605 160.961 15.3578 160.316 15.3578C159.885 15.3578 159.528 15.4499 159.246 15.6342C158.97 15.8132 158.765 16.0738 158.632 16.416C158.498 16.7529 158.432 17.1583 158.432 17.6321ZM166.642 15.3657C166.338 15.3657 166.064 15.4183 165.819 15.5236C165.574 15.6236 165.367 15.7737 165.197 15.9737C165.026 16.1685 164.896 16.4081 164.805 16.6924C164.715 16.9714 164.67 17.2873 164.67 17.64C164.67 18.1033 164.742 18.5061 164.885 18.8482C165.034 19.1904 165.252 19.4537 165.54 19.6379C165.833 19.8222 166.197 19.9143 166.634 19.9143C166.884 19.9143 167.121 19.8933 167.344 19.8512C167.568 19.8091 167.786 19.7564 167.999 19.6932V20.3092C167.786 20.3882 167.565 20.446 167.336 20.4829C167.113 20.5198 166.844 20.5382 166.53 20.5382C165.95 20.5382 165.466 20.4197 165.077 20.1828C164.688 19.9459 164.396 19.609 164.199 19.172C164.007 18.7351 163.911 18.2218 163.911 17.6321C163.911 17.2057 163.97 16.8161 164.087 16.4633C164.209 16.1106 164.385 15.8053 164.614 15.5473C164.848 15.2893 165.135 15.0919 165.476 14.955C165.817 14.8129 166.208 14.7418 166.65 14.7418C166.943 14.7418 167.225 14.7708 167.496 14.8287C167.767 14.8866 168.009 14.9682 168.223 15.0735L167.935 15.6736C167.759 15.5947 167.562 15.5236 167.344 15.4604C167.131 15.3973 166.897 15.3657 166.642 15.3657ZM171.63 18.8561C171.46 19.2299 171.287 19.5432 171.111 19.7959C170.941 20.0433 170.739 20.2302 170.505 20.3566C170.27 20.4776 169.973 20.5382 169.61 20.5382C169.462 20.5382 169.32 20.5277 169.187 20.5066C169.059 20.4855 168.943 20.4566 168.836 20.4197V19.7169C168.943 19.7643 169.057 19.8038 169.179 19.8354C169.302 19.8617 169.43 19.8749 169.562 19.8749C169.759 19.8749 169.927 19.8485 170.065 19.7959C170.209 19.738 170.334 19.6458 170.441 19.5195C170.552 19.3931 170.656 19.2247 170.752 19.0141L168.556 14.8208H169.347L170.936 17.9243C170.957 17.9612 170.979 18.0059 171 18.0585C171.021 18.1059 171.042 18.1559 171.063 18.2086C171.09 18.2612 171.111 18.3112 171.127 18.3586H171.159C171.175 18.3218 171.191 18.2797 171.207 18.2323C171.229 18.1796 171.247 18.1296 171.263 18.0822C171.284 18.0296 171.303 17.9849 171.319 17.948L172.692 14.8208H173.451L171.63 18.8561ZM177.668 14.8208V19.8275H178.395V21.9439H177.708V20.4592H173.788V21.9439H173.101V19.8275H173.54C173.732 19.5011 173.913 19.1351 174.083 18.7298C174.259 18.3244 174.413 17.9006 174.546 17.4584C174.68 17.0109 174.788 16.5634 174.874 16.1159C174.959 15.6684 175.012 15.2367 175.033 14.8208H177.668ZM175.664 15.4604C175.643 15.7658 175.59 16.1106 175.505 16.4949C175.425 16.8793 175.321 17.2741 175.193 17.6795C175.071 18.0796 174.932 18.4666 174.778 18.8403C174.629 19.2141 174.469 19.5432 174.299 19.8275H176.958V15.4604H175.664ZM182.925 20.4592L182.238 18.714H179.979L179.3 20.4592H178.573L180.801 14.7971H181.448L183.667 20.4592H182.925ZM181.384 16.3765C181.368 16.3344 181.341 16.258 181.304 16.1475C181.267 16.0369 181.23 15.9237 181.192 15.8079C181.16 15.6868 181.134 15.5947 181.112 15.5315C181.086 15.6368 181.056 15.7447 181.025 15.8553C180.998 15.9606 180.969 16.058 180.937 16.1475C180.91 16.237 180.886 16.3133 180.865 16.3765L180.218 18.0822H182.023L181.384 16.3765ZM185.956 14.8208C186.701 14.8208 187.244 14.9655 187.585 15.2551C187.926 15.5447 188.096 15.9527 188.096 16.4791C188.096 16.7108 188.056 16.9345 187.976 17.1504C187.902 17.361 187.777 17.5505 187.601 17.719C187.425 17.8874 187.191 18.0217 186.898 18.1217C186.605 18.2165 186.246 18.2639 185.82 18.2639H185.166V20.4592H184.447V14.8208H185.956ZM185.892 15.4288H185.166V17.6558H185.741C186.102 17.6558 186.403 17.6189 186.643 17.5452C186.882 17.4663 187.06 17.3425 187.178 17.1741C187.295 17.0056 187.353 16.7845 187.353 16.5107C187.353 16.1475 187.236 15.8764 187.002 15.6973C186.768 15.5183 186.398 15.4288 185.892 15.4288ZM191.725 15.3657C191.421 15.3657 191.147 15.4183 190.902 15.5236C190.657 15.6236 190.45 15.7737 190.28 15.9737C190.109 16.1685 189.979 16.4081 189.888 16.6924C189.798 16.9714 189.753 17.2873 189.753 17.64C189.753 18.1033 189.824 18.5061 189.968 18.8482C190.117 19.1904 190.335 19.4537 190.623 19.6379C190.915 19.8222 191.28 19.9143 191.717 19.9143C191.967 19.9143 192.204 19.8933 192.427 19.8512C192.651 19.8091 192.869 19.7564 193.082 19.6932V20.3092C192.869 20.3882 192.648 20.446 192.419 20.4829C192.196 20.5198 191.927 20.5382 191.613 20.5382C191.033 20.5382 190.548 20.4197 190.16 20.1828C189.771 19.9459 189.478 19.609 189.282 19.172C189.09 18.7351 188.994 18.2218 188.994 17.6321C188.994 17.2057 189.053 16.8161 189.17 16.4633C189.292 16.1106 189.468 15.8053 189.697 15.5473C189.931 15.2893 190.218 15.0919 190.559 14.955C190.899 14.8129 191.291 14.7418 191.733 14.7418C192.025 14.7418 192.308 14.7708 192.579 14.8287C192.85 14.8866 193.092 14.9682 193.306 15.0735L193.018 15.6736C192.842 15.5947 192.645 15.5236 192.427 15.4604C192.214 15.3973 191.98 15.3657 191.725 15.3657ZM196.13 20.4592H195.412V15.4446H193.631V14.8208H197.903V15.4446H196.13V20.4592ZM200.391 14.8208C200.865 14.8208 201.262 14.8655 201.581 14.955C201.905 15.0445 202.148 15.1919 202.308 15.3973C202.472 15.6026 202.555 15.8764 202.555 16.2185C202.555 16.4397 202.512 16.6371 202.427 16.8108C202.347 16.9793 202.225 17.1214 202.06 17.2373C201.9 17.3478 201.703 17.4242 201.469 17.4663V17.5058C201.709 17.5426 201.924 17.611 202.116 17.7111C202.313 17.8111 202.467 17.9533 202.579 18.1375C202.691 18.3218 202.747 18.5613 202.747 18.8561C202.747 19.1983 202.667 19.4905 202.507 19.7327C202.347 19.9696 202.118 20.1512 201.821 20.2776C201.528 20.3987 201.176 20.4592 200.767 20.4592H198.763V14.8208H200.391ZM200.535 17.2215C201.025 17.2215 201.36 17.1451 201.541 16.9924C201.722 16.8345 201.813 16.6029 201.813 16.2975C201.813 15.9869 201.701 15.7658 201.477 15.6342C201.259 15.4973 200.907 15.4288 200.423 15.4288H199.481V17.2215H200.535ZM199.481 17.8137V19.8591H200.631C201.136 19.8591 201.488 19.7617 201.685 19.5669C201.881 19.3721 201.98 19.1167 201.98 18.8009C201.98 18.6008 201.935 18.4271 201.844 18.2797C201.759 18.1322 201.613 18.0191 201.405 17.9401C201.203 17.8558 200.926 17.8137 200.575 17.8137H199.481ZM207.141 20.4592H203.955V14.8208H207.141V15.4446H204.674V17.2057H206.997V17.8216H204.674V19.8354H207.141V20.4592ZM212.751 20.4592H212.033V17.8295H209.11V20.4592H208.392V14.8208H209.11V17.2057H212.033V14.8208H212.751V20.4592ZM218.669 20.4592H217.95V17.8295H215.028V20.4592H214.31V14.8208H215.028V17.2057H217.95V14.8208H218.669V20.4592ZM225.201 17.6321C225.201 18.0691 225.145 18.4666 225.034 18.8246C224.922 19.1773 224.754 19.4826 224.531 19.7406C224.313 19.9986 224.039 20.196 223.708 20.3329C223.384 20.4697 223.006 20.5382 222.575 20.5382C222.128 20.5382 221.739 20.4697 221.409 20.3329C221.079 20.1907 220.805 19.9933 220.587 19.7406C220.369 19.4826 220.206 19.1746 220.1 18.8167C219.993 18.4587 219.94 18.0612 219.94 17.6242C219.94 17.0451 220.036 16.5397 220.227 16.108C220.419 15.6763 220.709 15.3394 221.098 15.0972C221.492 14.855 221.987 14.7339 222.583 14.7339C223.152 14.7339 223.632 14.855 224.02 15.0972C224.408 15.3341 224.701 15.671 224.898 16.108C225.101 16.5397 225.201 17.0477 225.201 17.6321ZM220.698 17.6321C220.698 18.1059 220.765 18.5139 220.898 18.8561C221.031 19.1983 221.236 19.4616 221.513 19.6458C221.795 19.8301 222.149 19.9222 222.575 19.9222C223.006 19.9222 223.357 19.8301 223.629 19.6458C223.905 19.4616 224.111 19.1983 224.243 18.8561C224.377 18.5139 224.443 18.1059 224.443 17.6321C224.443 16.9214 224.294 16.366 223.996 15.9658C223.698 15.5605 223.227 15.3578 222.583 15.3578C222.151 15.3578 221.795 15.4499 221.513 15.6342C221.236 15.8132 221.031 16.0738 220.898 16.416C220.765 16.7529 220.698 17.1583 220.698 17.6321ZM229.651 20.4592H226.465V14.8208H229.651V15.4446H227.183V17.2057H229.507V17.8216H227.183V19.8354H229.651V20.4592ZM233.03 20.4592V14.8208H236.416V15.4446H233.749V17.2057H234.595C235.165 17.2057 235.606 17.2767 235.921 17.4189C236.234 17.5557 236.452 17.7453 236.575 17.9875C236.697 18.2244 236.759 18.4982 236.759 18.8088C236.759 19.1509 236.689 19.4458 236.551 19.6932C236.418 19.9406 236.2 20.1302 235.897 20.2618C235.593 20.3934 235.194 20.4592 234.699 20.4592H233.03ZM234.627 19.8512C235.138 19.8512 235.497 19.7669 235.705 19.5985C235.913 19.4247 236.016 19.1615 236.016 18.8088C236.016 18.5666 235.965 18.3744 235.865 18.2323C235.769 18.0848 235.609 17.9796 235.386 17.9164C235.167 17.8532 234.875 17.8216 234.507 17.8216H233.749V19.8512H234.627ZM245.072 17.6321C245.072 18.0691 245.019 18.4666 244.912 18.8246C244.806 19.1825 244.646 19.4905 244.433 19.7485C244.22 20.0012 243.957 20.196 243.643 20.3329C243.334 20.4697 242.972 20.5382 242.557 20.5382C242.014 20.5382 241.556 20.4276 241.184 20.2065C240.816 19.9854 240.534 19.6721 240.337 19.2668C240.141 18.8614 240.031 18.3823 240.01 17.8295H238.661V20.4592H237.942V14.8208H238.661V17.2057H240.026C240.063 16.7055 240.181 16.2712 240.377 15.9027C240.574 15.5289 240.854 15.2419 241.215 15.0419C241.578 14.8366 242.019 14.7339 242.541 14.7339C243.089 14.7339 243.55 14.855 243.922 15.0972C244.3 15.3341 244.585 15.671 244.776 16.108C244.973 16.5397 245.072 17.0477 245.072 17.6321ZM240.76 17.6321C240.76 18.1059 240.822 18.5139 240.944 18.8561C241.072 19.1983 241.266 19.4616 241.527 19.6458C241.793 19.8301 242.129 19.9222 242.533 19.9222C242.948 19.9222 243.286 19.8301 243.547 19.6458C243.813 19.4616 244.007 19.1983 244.13 18.8561C244.257 18.5139 244.321 18.1059 244.321 17.6321C244.321 17.1583 244.26 16.7529 244.138 16.416C244.015 16.0738 243.824 15.8132 243.563 15.6342C243.302 15.4499 242.964 15.3578 242.549 15.3578C242.139 15.3578 241.801 15.4499 241.535 15.6342C241.269 15.8132 241.072 16.0738 240.944 16.416C240.822 16.7529 240.76 17.1583 240.76 17.6321ZM250.024 14.8208V19.8275H250.75V21.9439H250.064V20.4592H246.144V21.9439H245.457V19.8275H245.896C246.088 19.5011 246.269 19.1351 246.439 18.7298C246.615 18.3244 246.769 17.9006 246.902 17.4584C247.035 17.0109 247.144 16.5634 247.229 16.1159C247.315 15.6684 247.368 15.2367 247.389 14.8208H250.024ZM248.02 15.4604C247.998 15.7658 247.946 16.1106 247.86 16.4949C247.78 16.8793 247.677 17.2741 247.549 17.6795C247.427 18.0796 247.288 18.4666 247.134 18.8403C246.984 19.2141 246.825 19.5432 246.655 19.8275H249.313V15.4604H248.02ZM253.228 17.561L251.017 14.8208H251.815L253.995 17.5531V14.8208H254.682V17.5531L256.861 14.8208H257.66L255.448 17.5531L257.732 20.4592H256.909L254.682 17.6005V20.4592H253.995V17.6005L251.759 20.4592H250.937L253.228 17.561ZM261.704 20.4592H258.518V14.8208H261.704V15.4446H259.237V17.2057H261.56V17.8216H259.237V19.8354H261.704V20.4592ZM264.759 20.4592H264.04V15.4446H262.26V14.8208H266.531V15.4446H264.759V20.4592ZM271.751 20.4592H271.032V17.8295H268.11V20.4592H267.391V14.8208H268.11V17.2057H271.032V14.8208H271.751V20.4592ZM278.283 17.6321C278.283 18.0691 278.227 18.4666 278.115 18.8246C278.004 19.1773 277.836 19.4826 277.612 19.7406C277.394 19.9986 277.12 20.196 276.79 20.3329C276.466 20.4697 276.087 20.5382 275.656 20.5382C275.209 20.5382 274.821 20.4697 274.491 20.3329C274.161 20.1907 273.887 19.9933 273.668 19.7406C273.45 19.4826 273.288 19.1746 273.181 18.8167C273.075 18.4587 273.022 18.0612 273.022 17.6242C273.022 17.0451 273.117 16.5397 273.309 16.108C273.501 15.6763 273.791 15.3394 274.179 15.0972C274.573 14.855 275.068 14.7339 275.664 14.7339C276.234 14.7339 276.713 14.855 277.101 15.0972C277.49 15.3341 277.783 15.671 277.98 16.108C278.182 16.5397 278.283 17.0477 278.283 17.6321ZM273.78 17.6321C273.78 18.1059 273.847 18.5139 273.98 18.8561C274.113 19.1983 274.318 19.4616 274.594 19.6458C274.877 19.8301 275.231 19.9222 275.656 19.9222C276.087 19.9222 276.439 19.8301 276.71 19.6458C276.987 19.4616 277.192 19.1983 277.325 18.8561C277.458 18.5139 277.525 18.1059 277.525 17.6321C277.525 16.9214 277.376 16.366 277.077 15.9658C276.78 15.5605 276.308 15.3578 275.664 15.3578C275.233 15.3578 274.877 15.4499 274.594 15.6342C274.318 15.8132 274.113 16.0738 273.98 16.416C273.847 16.7529 273.78 17.1583 273.78 17.6321ZM282.732 20.4592H279.546V14.8208H282.732V15.4446H280.265V17.2057H282.588V17.8216H280.265V19.8354H282.732V20.4592ZM288.499 18.8561C288.328 19.2299 288.156 19.5432 287.98 19.7959C287.809 20.0433 287.607 20.2302 287.373 20.3566C287.139 20.4776 286.841 20.5382 286.479 20.5382C286.33 20.5382 286.189 20.5277 286.056 20.5066C285.928 20.4855 285.811 20.4566 285.705 20.4197V19.7169C285.811 19.7643 285.925 19.8038 286.048 19.8354C286.17 19.8617 286.298 19.8749 286.431 19.8749C286.628 19.8749 286.796 19.8485 286.934 19.7959C287.078 19.738 287.203 19.6458 287.309 19.5195C287.421 19.3931 287.525 19.2247 287.621 19.0141L285.425 14.8208H286.216L287.805 17.9243C287.825 17.9612 287.847 18.0059 287.868 18.0585C287.889 18.1059 287.911 18.1559 287.932 18.2086C287.959 18.2612 287.98 18.3112 287.996 18.3586H288.028C288.044 18.3218 288.06 18.2797 288.076 18.2323C288.097 18.1796 288.116 18.1296 288.132 18.0822C288.153 18.0296 288.172 17.9849 288.188 17.948L289.561 14.8208H290.319L288.499 18.8561ZM295.118 20.4592H294.399V18.1454C294.09 18.2507 293.801 18.3375 293.529 18.406C293.263 18.4692 292.965 18.5008 292.635 18.5008C292.102 18.5008 291.69 18.3797 291.397 18.1375C291.104 17.8901 290.958 17.5347 290.958 17.0714V14.8208H291.677V16.9688C291.677 17.2741 291.757 17.5031 291.916 17.6558C292.081 17.8032 292.345 17.8769 292.707 17.8769C293.021 17.8769 293.303 17.8479 293.553 17.79C293.803 17.7321 294.085 17.6532 294.399 17.5531V14.8208H295.118V20.4592ZM298.178 14.8208C298.923 14.8208 299.466 14.9655 299.807 15.2551C300.147 15.5447 300.318 15.9527 300.318 16.4791C300.318 16.7108 300.278 16.9345 300.198 17.1504C300.123 17.361 299.998 17.5505 299.823 17.719C299.647 17.8874 299.412 18.0217 299.12 18.1217C298.827 18.2165 298.468 18.2639 298.042 18.2639H297.387V20.4592H296.669V14.8208H298.178ZM298.114 15.4288H297.387V17.6558H297.962C298.324 17.6558 298.625 17.6189 298.864 17.5452C299.104 17.4663 299.282 17.3425 299.399 17.1741C299.516 17.0056 299.575 16.7845 299.575 16.5107C299.575 16.1475 299.458 15.8764 299.224 15.6973C298.989 15.5183 298.619 15.4288 298.114 15.4288ZM304.688 20.4592H301.503V14.8208H304.688V15.4446H302.221V17.2057H304.545V17.8216H302.221V19.8354H304.688V20.4592ZM307.464 17.561L305.253 14.8208H306.051L308.231 17.5531V14.8208H308.917V17.5531L311.097 14.8208H311.895L309.684 17.5531L311.967 20.4592H311.145L308.917 17.6005V20.4592H308.231V17.6005L305.995 20.4592H305.173L307.464 17.561ZM316.594 14.8208V19.8275H317.321V21.9439H316.634V20.4592H312.714V21.9439H312.027V19.8275H312.466C312.658 19.5011 312.839 19.1351 313.009 18.7298C313.185 18.3244 313.339 17.9006 313.472 17.4584C313.606 17.0109 313.714 16.5634 313.8 16.1159C313.885 15.6684 313.938 15.2367 313.959 14.8208H316.594ZM314.59 15.4604C314.569 15.7658 314.516 16.1106 314.43 16.4949C314.351 16.8793 314.247 17.2741 314.119 17.6795C313.997 18.0796 313.858 18.4666 313.704 18.8403C313.555 19.2141 313.395 19.5432 313.225 19.8275H315.883V15.4604H314.59ZM321.46 20.4592H318.274V14.8208H321.46V15.4446H318.993V17.2057H321.316V17.8216H318.993V19.8354H321.46V20.4592ZM327.07 20.4592H326.351V17.8295H323.429V20.4592H322.71V14.8208H323.429V17.2057H326.351V14.8208H327.07V20.4592ZM328.637 14.8208H329.307V17.9164C329.307 18.048 329.304 18.1928 329.299 18.3507C329.299 18.5034 329.296 18.6561 329.291 18.8088C329.286 18.9614 329.278 19.0983 329.267 19.2194C329.262 19.3352 329.256 19.4247 329.251 19.4879H329.283L332.421 14.8208H333.219V20.4592H332.549V17.3952C332.549 17.253 332.551 17.1004 332.557 16.9372C332.562 16.7687 332.567 16.6081 332.573 16.4555C332.583 16.2975 332.591 16.158 332.597 16.0369C332.602 15.9158 332.607 15.8263 332.613 15.7684H332.581L329.435 20.4592H328.637V14.8208ZM337.942 20.4592H334.757V14.8208H337.942V15.4446H335.475V17.2057H337.799V17.8216H335.475V19.8354H337.942V20.4592ZM345.681 20.4592H344.962V17.8295H342.04V20.4592H341.322V14.8208H342.04V17.2057H344.962V14.8208H345.681V20.4592ZM350.817 20.4592L350.13 18.714H347.871L347.192 20.4592H346.465L348.693 14.7971H349.34L351.559 20.4592H350.817ZM349.276 16.3765C349.26 16.3344 349.233 16.258 349.196 16.1475C349.159 16.0369 349.121 15.9237 349.084 15.8079C349.052 15.6868 349.025 15.5947 349.004 15.5315C348.977 15.6368 348.949 15.7447 348.917 15.8553C348.89 15.9606 348.861 16.058 348.829 16.1475C348.802 16.237 348.778 16.3133 348.757 16.3765L348.11 18.0822H349.915L349.276 16.3765ZM354.726 18.8561C354.556 19.2299 354.383 19.5432 354.207 19.7959C354.037 20.0433 353.835 20.2302 353.6 20.3566C353.366 20.4776 353.068 20.5382 352.706 20.5382C352.557 20.5382 352.416 20.5277 352.283 20.5066C352.155 20.4855 352.038 20.4566 351.932 20.4197V19.7169C352.038 19.7643 352.153 19.8038 352.275 19.8354C352.398 19.8617 352.525 19.8749 352.658 19.8749C352.855 19.8749 353.023 19.8485 353.161 19.7959C353.305 19.738 353.43 19.6458 353.536 19.5195C353.648 19.3931 353.752 19.2247 353.848 19.0141L351.652 14.8208H352.443L354.031 17.9243C354.053 17.9612 354.074 18.0059 354.095 18.0585C354.117 18.1059 354.138 18.1559 354.159 18.2086C354.186 18.2612 354.207 18.3112 354.223 18.3586H354.255C354.271 18.3218 354.287 18.2797 354.303 18.2323C354.324 18.1796 354.343 18.1296 354.359 18.0822C354.38 18.0296 354.399 17.9849 354.415 17.948L355.788 14.8208H356.546L354.726 18.8561ZM361.481 20.4592H360.619L358.04 17.6005V20.4592H357.321V14.8208H358.04V17.5531L360.555 14.8208H361.369L358.894 17.561L361.481 20.4592ZM362.264 14.8208H362.935V17.9164C362.935 18.048 362.933 18.1928 362.927 18.3507C362.927 18.5034 362.925 18.6561 362.919 18.8088C362.914 18.9614 362.906 19.0983 362.895 19.2194C362.89 19.3352 362.885 19.4247 362.879 19.4879H362.911L366.049 14.8208H366.847V20.4592H366.177V17.3952C366.177 17.253 366.18 17.1004 366.185 16.9372C366.19 16.7687 366.196 16.6081 366.201 16.4555C366.212 16.2975 366.22 16.158 366.225 16.0369C366.23 15.9158 366.236 15.8263 366.241 15.7684H366.209L363.063 20.4592H362.264V14.8208Z" fill="white"/>
<path d="M99.2777 24.7157V25.7581C100.212 25.7818 100.954 25.9437 101.505 26.2438C102.064 26.536 102.463 26.915 102.703 27.3809C102.95 27.8469 103.074 28.3562 103.074 28.909C103.074 29.2644 103.01 29.6276 102.883 29.9988C102.763 30.37 102.555 30.7135 102.26 31.0294C101.972 31.3373 101.585 31.59 101.098 31.7875C100.611 31.9849 100.004 32.0915 99.2777 32.1073V33.4103H97.649V32.1073C96.9144 32.0915 96.2997 31.9849 95.8046 31.7875C95.3176 31.59 94.9304 31.3334 94.643 31.0175C94.3555 30.7016 94.1519 30.3621 94.0322 29.9988C93.9124 29.6276 93.8525 29.2644 93.8525 28.909C93.8525 28.4984 93.9204 28.1075 94.0561 27.7363C94.1919 27.3652 94.4074 27.0335 94.7028 26.7413C94.9983 26.4491 95.3895 26.2161 95.8765 26.0424C96.3635 25.8687 96.9544 25.7739 97.649 25.7581V24.7157H99.2777ZM97.649 27.1559C97.13 27.1796 96.7148 27.2704 96.4034 27.4283C96.1001 27.5784 95.8805 27.7797 95.7448 28.0324C95.617 28.2852 95.5531 28.5734 95.5531 28.8972C95.5531 29.2525 95.625 29.5645 95.7687 29.833C95.9204 30.0936 96.148 30.3028 96.4514 30.4608C96.7627 30.6108 97.1619 30.6977 97.649 30.7214V27.1559ZM99.2777 30.7214C99.7647 30.6977 100.16 30.6108 100.463 30.4608C100.775 30.3028 101.002 30.0936 101.146 29.833C101.298 29.5645 101.374 29.2525 101.374 28.8972C101.374 28.5734 101.306 28.2852 101.17 28.0324C101.042 27.7797 100.823 27.5784 100.511 27.4283C100.208 27.2704 99.7967 27.1796 99.2777 27.1559V30.7214ZM109.617 33.2918H104.695V24.8342H109.617V26.303H106.503V28.1627H109.402V29.6316H106.503V31.8112H109.617V33.2918ZM118.091 24.8342V31.7993H119.229V35.7557H117.48V33.2918H112.127V35.7557H110.379V31.7993H111.037C111.261 31.3571 111.476 30.8912 111.684 30.4015C111.892 29.9119 112.083 29.3868 112.259 28.8261C112.442 28.2654 112.606 27.6573 112.75 27.0019C112.894 26.3385 113.013 25.616 113.109 24.8342H118.091ZM114.546 26.3267C114.49 26.7373 114.411 27.1756 114.307 27.6415C114.203 28.0996 114.079 28.5694 113.935 29.0512C113.8 29.5329 113.648 30.0067 113.48 30.4726C113.313 30.9385 113.133 31.3808 112.941 31.7993H116.283V26.3267H114.546ZM125.464 33.2918H120.542V24.8342H125.464V26.303H122.351V28.1627H125.249V29.6316H122.351V31.8112H125.464V33.2918ZM129.974 24.8342C131.076 24.8342 131.879 25.0711 132.382 25.5449C132.893 26.0108 133.148 26.6544 133.148 27.4757C133.148 27.8469 133.092 28.2022 132.98 28.5418C132.869 28.8735 132.681 29.1736 132.418 29.4421C132.162 29.7027 131.823 29.908 131.4 30.058C130.976 30.2081 130.454 30.2831 129.831 30.2831H129.052V33.2918H127.244V24.8342H129.974ZM129.879 26.303H129.052V28.8143H129.651C129.994 28.8143 130.29 28.7708 130.537 28.684C130.785 28.5971 130.976 28.4589 131.112 28.2694C131.248 28.0798 131.316 27.835 131.316 27.5349C131.316 27.1164 131.2 26.8084 130.968 26.611C130.737 26.4057 130.374 26.303 129.879 26.303ZM139.401 33.2918L138.778 31.2781H135.665L135.042 33.2918H133.09L136.108 24.7986H138.323L141.353 33.2918H139.401ZM137.725 27.8074C137.685 27.6731 137.633 27.5033 137.569 27.298C137.505 27.0927 137.441 26.8834 137.377 26.6702C137.313 26.457 137.261 26.2714 137.222 26.1135C137.182 26.2714 137.126 26.4688 137.054 26.7058C136.99 26.9348 136.926 27.1559 136.862 27.3691C136.806 27.5744 136.762 27.7205 136.73 27.8074L136.12 29.7737H138.347L137.725 27.8074ZM149.203 33.2918H147.394V26.3267H145.298C145.25 26.69 145.199 27.0848 145.143 27.5112C145.095 27.9377 145.039 28.372 144.975 28.8143C144.919 29.2486 144.859 29.6632 144.795 30.058C144.732 30.445 144.668 30.7885 144.604 31.0886C144.5 31.5782 144.36 31.9967 144.185 32.3442C144.017 32.6917 143.781 32.9562 143.478 33.1379C143.183 33.3195 142.795 33.4103 142.316 33.4103C142.157 33.4103 142.005 33.3985 141.861 33.3748C141.718 33.3511 141.582 33.3195 141.454 33.28V31.8112C141.558 31.8427 141.658 31.8704 141.753 31.8941C141.857 31.9178 141.969 31.9296 142.089 31.9296C142.248 31.9296 142.38 31.8783 142.484 31.7756C142.588 31.673 142.68 31.4992 142.759 31.2544C142.839 31.0017 142.919 30.6543 142.999 30.212C143.039 30.0225 143.087 29.754 143.143 29.4065C143.199 29.0512 143.262 28.6366 143.334 28.1627C143.414 27.681 143.494 27.1598 143.574 26.5991C143.654 26.0306 143.73 25.4422 143.801 24.8342H149.203V33.2918ZM151.36 33.2918V24.8342H153.168V28.0798H153.887C154.693 28.0798 155.352 28.1904 155.863 28.4115C156.382 28.6326 156.765 28.9367 157.013 29.3236C157.26 29.7106 157.384 30.1528 157.384 30.6503C157.384 31.2031 157.26 31.6769 157.013 32.0718C156.765 32.4666 156.382 32.7706 155.863 32.9839C155.344 33.1892 154.673 33.2918 153.851 33.2918H151.36ZM153.779 31.823C154.33 31.823 154.761 31.7361 155.072 31.5624C155.392 31.3887 155.551 31.0846 155.551 30.6503C155.551 30.3502 155.472 30.1212 155.312 29.9633C155.16 29.8053 154.941 29.6987 154.653 29.6434C154.374 29.5803 154.034 29.5487 153.635 29.5487H153.168V31.823H153.779ZM166.003 33.2918H164.195V29.6434H160.805V33.2918H158.997V24.8342H160.805V28.1509H164.195V24.8342H166.003V33.2918ZM168.154 33.2918V24.8342H169.963V28.0798H170.55C171.34 28.0798 171.991 28.1904 172.502 28.4115C173.013 28.6326 173.388 28.9367 173.627 29.3236C173.875 29.7106 173.999 30.1528 173.999 30.6503C173.999 31.2031 173.875 31.6769 173.627 32.0718C173.38 32.4666 172.997 32.7706 172.478 32.9839C171.967 33.1892 171.304 33.2918 170.49 33.2918H168.154ZM170.442 31.823C170.977 31.823 171.396 31.7361 171.699 31.5624C172.011 31.3887 172.166 31.0846 172.166 30.6503C172.166 30.3502 172.094 30.1212 171.951 29.9633C171.815 29.8053 171.611 29.6987 171.34 29.6434C171.068 29.5803 170.741 29.5487 170.358 29.5487H169.963V31.823H170.442ZM175.041 33.2918V24.8342H176.849V33.2918H175.041ZM185.894 22.0505C185.854 22.4611 185.738 22.8244 185.547 23.1403C185.355 23.4482 185.056 23.6891 184.648 23.8628C184.241 24.0366 183.694 24.1234 183.008 24.1234C182.305 24.1234 181.754 24.0405 181.355 23.8747C180.964 23.7009 180.684 23.4601 180.517 23.1521C180.349 22.8441 180.249 22.4769 180.217 22.0505H181.81C181.85 22.4848 181.962 22.773 182.145 22.9152C182.329 23.0573 182.628 23.1284 183.044 23.1284C183.387 23.1284 183.666 23.0534 183.882 22.9034C184.105 22.7454 184.237 22.4611 184.277 22.0505H185.894ZM179.008 24.8342H180.636V28.9209C180.636 29.1183 180.632 29.3394 180.624 29.5842C180.616 29.829 180.608 30.0699 180.6 30.3068C180.592 30.5358 180.584 30.7372 180.577 30.9109C180.569 31.0767 180.561 31.1912 180.553 31.2544H180.588L184.541 24.8342H186.708V33.2918H185.092V29.2288C185.092 29.0156 185.096 28.7827 185.103 28.53C185.111 28.2694 185.119 28.0206 185.127 27.7837C185.143 27.5468 185.155 27.3415 185.163 27.1677C185.179 26.9861 185.191 26.8676 185.199 26.8124H185.151L181.187 33.2918H179.008V24.8342ZM190.902 24.8342H192.531V28.9209C192.531 29.1183 192.527 29.3394 192.519 29.5842C192.511 29.829 192.503 30.0699 192.495 30.3068C192.487 30.5358 192.479 30.7372 192.471 30.9109C192.463 31.0767 192.455 31.1912 192.447 31.2544H192.483L196.435 24.8342H198.603V33.2918H196.986V29.2288C196.986 29.0156 196.99 28.7827 196.998 28.53C197.006 28.2694 197.014 28.0206 197.022 27.7837C197.038 27.5468 197.05 27.3415 197.058 27.1677C197.074 26.9861 197.086 26.8676 197.094 26.8124H197.046L193.082 33.2918H190.902V24.8342ZM204.39 26.2082C204.047 26.2082 203.739 26.2754 203.468 26.4096C203.204 26.5439 202.981 26.7373 202.797 26.99C202.614 27.2349 202.474 27.5349 202.378 27.8903C202.29 28.2457 202.246 28.6445 202.246 29.0867C202.246 29.6869 202.318 30.2002 202.462 30.6266C202.614 31.0452 202.849 31.365 203.168 31.5861C203.488 31.8072 203.895 31.9178 204.39 31.9178C204.741 31.9178 205.089 31.8783 205.432 31.7993C205.783 31.7203 206.162 31.6098 206.57 31.4676V32.972C206.194 33.1221 205.823 33.2326 205.456 33.3037C205.089 33.3748 204.677 33.4103 204.222 33.4103C203.344 33.4103 202.618 33.2326 202.043 32.8773C201.476 32.514 201.057 32.0086 200.785 31.361C200.514 30.7056 200.378 29.9435 200.378 29.0749C200.378 28.4352 200.466 27.8508 200.641 27.3217C200.817 26.7847 201.073 26.3227 201.408 25.9358C201.751 25.5488 202.17 25.2488 202.665 25.0355C203.168 24.8223 203.743 24.7157 204.39 24.7157C204.813 24.7157 205.236 24.771 205.659 24.8815C206.091 24.9842 206.502 25.1264 206.893 25.308L206.306 26.765C205.987 26.6149 205.663 26.4846 205.336 26.3741C205.017 26.2635 204.701 26.2082 204.39 26.2082ZM211.782 26.2082C211.438 26.2082 211.131 26.2754 210.86 26.4096C210.596 26.5439 210.373 26.7373 210.189 26.99C210.005 27.2349 209.866 27.5349 209.77 27.8903C209.682 28.2457 209.638 28.6445 209.638 29.0867C209.638 29.6869 209.71 30.2002 209.854 30.6266C210.005 31.0452 210.241 31.365 210.56 31.5861C210.88 31.8072 211.287 31.9178 211.782 31.9178C212.133 31.9178 212.48 31.8783 212.824 31.7993C213.175 31.7203 213.554 31.6098 213.961 31.4676V32.972C213.586 33.1221 213.215 33.2326 212.848 33.3037C212.48 33.3748 212.069 33.4103 211.614 33.4103C210.736 33.4103 210.009 33.2326 209.434 32.8773C208.868 32.514 208.448 32.0086 208.177 31.361C207.905 30.7056 207.77 29.9435 207.77 29.0749C207.77 28.4352 207.858 27.8508 208.033 27.3217C208.209 26.7847 208.464 26.3227 208.8 25.9358C209.143 25.5488 209.562 25.2488 210.057 25.0355C210.56 24.8223 211.135 24.7157 211.782 24.7157C212.205 24.7157 212.628 24.771 213.051 24.8815C213.482 24.9842 213.894 25.1264 214.285 25.308L213.698 26.765C213.379 26.6149 213.055 26.4846 212.728 26.3741C212.409 26.2635 212.093 26.2082 211.782 26.2082ZM222.545 33.2918H220.736V26.3267H218.641C218.593 26.69 218.541 27.0848 218.485 27.5112C218.437 27.9377 218.381 28.372 218.317 28.8143C218.261 29.2486 218.201 29.6632 218.138 30.058C218.074 30.445 218.01 30.7885 217.946 31.0886C217.842 31.5782 217.702 31.9967 217.527 32.3442C217.359 32.6917 217.124 32.9562 216.82 33.1379C216.525 33.3195 216.138 33.4103 215.659 33.4103C215.499 33.4103 215.347 33.3985 215.203 33.3748C215.06 33.3511 214.924 33.3195 214.796 33.28V31.8112C214.9 31.8427 215 31.8704 215.096 31.8941C215.199 31.9178 215.311 31.9296 215.431 31.9296C215.591 31.9296 215.722 31.8783 215.826 31.7756C215.93 31.673 216.022 31.4992 216.102 31.2544C216.181 31.0017 216.261 30.6543 216.341 30.212C216.381 30.0225 216.429 29.754 216.485 29.4065C216.541 29.0512 216.605 28.6366 216.676 28.1627C216.756 27.681 216.836 27.1598 216.916 26.5991C216.996 26.0306 217.072 25.4422 217.144 24.8342H222.545V33.2918ZM229.624 33.2918H224.702V24.8342H229.624V26.303H226.51V28.1627H229.409V29.6316H226.51V31.8112H229.624V33.2918ZM238.098 24.8342V31.7993H239.235V35.7557H237.487V33.2918H232.134V35.7557H230.385V31.7993H231.044C231.267 31.3571 231.483 30.8912 231.691 30.4015C231.898 29.9119 232.09 29.3868 232.265 28.8261C232.449 28.2654 232.613 27.6573 232.756 27.0019C232.9 26.3385 233.02 25.616 233.116 24.8342H238.098ZM234.553 26.3267C234.497 26.7373 234.417 27.1756 234.313 27.6415C234.21 28.0996 234.086 28.5694 233.942 29.0512C233.806 29.5329 233.655 30.0067 233.487 30.4726C233.319 30.9385 233.14 31.3808 232.948 31.7993H236.289V26.3267H234.553ZM248.309 29.0512C248.309 29.7066 248.226 30.3028 248.058 30.8398C247.898 31.3689 247.651 31.827 247.315 32.2139C246.988 32.6009 246.565 32.897 246.046 33.1023C245.535 33.3076 244.932 33.4103 244.237 33.4103C243.543 33.4103 242.936 33.3076 242.417 33.1023C241.906 32.8891 241.483 32.593 241.148 32.2139C240.82 31.827 240.573 31.365 240.405 30.828C240.245 30.291 240.166 29.6948 240.166 29.0393C240.166 28.1627 240.309 27.4007 240.597 26.7531C240.892 26.1056 241.339 25.6041 241.938 25.2488C242.545 24.8855 243.315 24.7039 244.249 24.7039C245.176 24.7039 245.938 24.8855 246.537 25.2488C247.136 25.6041 247.579 26.1095 247.866 26.765C248.162 27.4125 248.309 28.1746 248.309 29.0512ZM242.07 29.0512C242.07 29.6434 242.146 30.1528 242.297 30.5792C242.449 31.0057 242.685 31.3334 243.004 31.5624C243.323 31.7914 243.735 31.9059 244.237 31.9059C244.756 31.9059 245.172 31.7914 245.483 31.5624C245.802 31.3334 246.034 31.0057 246.178 30.5792C246.329 30.1528 246.405 29.6434 246.405 29.0512C246.405 28.1588 246.238 27.4599 245.902 26.9545C245.567 26.4491 245.016 26.1964 244.249 26.1964C243.738 26.1964 243.323 26.3109 243.004 26.5399C242.685 26.7689 242.449 27.0967 242.297 27.5231C242.146 27.9495 242.07 28.4589 242.07 29.0512ZM252.74 24.8342C253.498 24.8342 254.133 24.9052 254.644 25.0474C255.163 25.1816 255.55 25.4067 255.805 25.7226C256.069 26.0306 256.201 26.4491 256.201 26.9782C256.201 27.2941 256.149 27.5823 256.045 27.8429C255.941 28.1035 255.789 28.3167 255.59 28.4826C255.398 28.6484 255.163 28.755 254.883 28.8024V28.8616C255.171 28.9169 255.43 29.0156 255.662 29.1578C255.893 29.2999 256.077 29.5052 256.213 29.7737C256.348 30.0422 256.416 30.3976 256.416 30.8398C256.416 31.3531 256.288 31.7954 256.033 32.1665C255.785 32.5298 255.426 32.8101 254.955 33.0076C254.484 33.1971 253.925 33.2918 253.278 33.2918H250.081V24.8342H252.74ZM252.943 28.1864C253.47 28.1864 253.833 28.1035 254.033 27.9377C254.241 27.7718 254.344 27.531 254.344 27.2151C254.344 26.8913 254.225 26.6584 253.985 26.5162C253.746 26.3741 253.366 26.303 252.847 26.303H251.889V28.1864H252.943ZM251.889 29.6079V31.8112H253.075C253.618 31.8112 253.997 31.7085 254.213 31.5032C254.428 31.29 254.536 31.0096 254.536 30.6621C254.536 30.4489 254.488 30.2633 254.392 30.1054C254.304 29.9475 254.149 29.8251 253.925 29.7382C253.702 29.6513 253.398 29.6079 253.015 29.6079H251.889ZM263.361 33.2918L262.738 31.2781H259.624L259.002 33.2918H257.049L260.067 24.7986H262.283L265.313 33.2918H263.361ZM261.684 27.8074C261.644 27.6731 261.592 27.5033 261.529 27.298C261.465 27.0927 261.401 26.8834 261.337 26.6702C261.273 26.457 261.221 26.2714 261.181 26.1135C261.141 26.2714 261.085 26.4688 261.014 26.7058C260.95 26.9348 260.886 27.1559 260.822 27.3691C260.766 27.5744 260.722 27.7205 260.69 27.8074L260.079 29.7737H262.307L261.684 27.8074ZM268.847 33.2918H267.039V26.3267H264.716V24.8342H271.171V26.3267H268.847V33.2918ZM277.411 33.2918H272.489V24.8342H277.411V26.303H274.298V28.1627H277.196V29.6316H274.298V31.8112H277.411V33.2918ZM285.957 33.2918H284.149V26.3267H282.053C282.005 26.69 281.953 27.0848 281.897 27.5112C281.849 27.9377 281.794 28.372 281.73 28.8143C281.674 29.2486 281.614 29.6632 281.55 30.058C281.486 30.445 281.422 30.7885 281.358 31.0886C281.255 31.5782 281.115 31.9967 280.939 32.3442C280.772 32.6917 280.536 32.9562 280.233 33.1379C279.937 33.3195 279.55 33.4103 279.071 33.4103C278.911 33.4103 278.76 33.3985 278.616 33.3748C278.472 33.3511 278.336 33.3195 278.209 33.28V31.8112C278.313 31.8427 278.412 31.8704 278.508 31.8941C278.612 31.9178 278.724 31.9296 278.843 31.9296C279.003 31.9296 279.135 31.8783 279.239 31.7756C279.342 31.673 279.434 31.4992 279.514 31.2544C279.594 31.0017 279.674 30.6543 279.754 30.212C279.794 30.0225 279.841 29.754 279.897 29.4065C279.953 29.0512 280.017 28.6366 280.089 28.1627C280.169 27.681 280.249 27.1598 280.328 26.5991C280.408 26.0306 280.484 25.4422 280.556 24.8342H285.957V33.2918ZM288.114 33.2918V24.8342H289.923V28.0798H290.641C291.448 28.0798 292.106 28.1904 292.617 28.4115C293.136 28.6326 293.52 28.9367 293.767 29.3236C294.015 29.7106 294.138 30.1528 294.138 30.6503C294.138 31.2031 294.015 31.6769 293.767 32.0718C293.52 32.4666 293.136 32.7706 292.617 32.9839C292.099 33.1892 291.428 33.2918 290.605 33.2918H288.114ZM290.534 31.823C291.085 31.823 291.516 31.7361 291.827 31.5624C292.146 31.3887 292.306 31.0846 292.306 30.6503C292.306 30.3502 292.226 30.1212 292.067 29.9633C291.915 29.8053 291.695 29.6987 291.408 29.6434C291.128 29.5803 290.789 29.5487 290.39 29.5487H289.923V31.823H290.534ZM299.38 26.2082C299.037 26.2082 298.729 26.2754 298.458 26.4096C298.194 26.5439 297.971 26.7373 297.787 26.99C297.604 27.2349 297.464 27.5349 297.368 27.8903C297.28 28.2457 297.236 28.6445 297.236 29.0867C297.236 29.6869 297.308 30.2002 297.452 30.6266C297.604 31.0452 297.839 31.365 298.158 31.5861C298.478 31.8072 298.885 31.9178 299.38 31.9178C299.731 31.9178 300.079 31.8783 300.422 31.7993C300.773 31.7203 301.152 31.6098 301.56 31.4676V32.972C301.184 33.1221 300.813 33.2326 300.446 33.3037C300.079 33.3748 299.667 33.4103 299.212 33.4103C298.334 33.4103 297.608 33.2326 297.033 32.8773C296.466 32.514 296.047 32.0086 295.775 31.361C295.504 30.7056 295.368 29.9435 295.368 29.0749C295.368 28.4352 295.456 27.8508 295.631 27.3217C295.807 26.7847 296.063 26.3227 296.398 25.9358C296.741 25.5488 297.16 25.2488 297.655 25.0355C298.158 24.8223 298.733 24.7157 299.38 24.7157C299.803 24.7157 300.226 24.771 300.649 24.8815C301.081 24.9842 301.492 25.1264 301.883 25.308L301.296 26.765C300.977 26.6149 300.653 26.4846 300.326 26.3741C300.007 26.2635 299.691 26.2082 299.38 26.2082ZM310.347 33.2918H308.287L305.185 29.0038V33.2918H303.377V24.8342H305.185V28.9327L308.251 24.8342H310.179L307.066 28.8972L310.347 33.2918ZM311.423 24.8342H313.052V28.9209C313.052 29.1183 313.048 29.3394 313.04 29.5842C313.032 29.829 313.024 30.0699 313.016 30.3068C313.008 30.5358 313 30.7372 312.992 30.9109C312.984 31.0767 312.976 31.1912 312.968 31.2544H313.004L316.956 24.8342H319.124V33.2918H317.507V29.2288C317.507 29.0156 317.511 28.7827 317.519 28.53C317.527 28.2694 317.535 28.0206 317.543 27.7837C317.559 27.5468 317.571 27.3415 317.579 27.1677C317.595 26.9861 317.607 26.8676 317.615 26.8124H317.567L313.603 33.2918H311.423V24.8342ZM328.169 22.0505C328.129 22.4611 328.013 22.8244 327.822 23.1403C327.63 23.4482 327.331 23.6891 326.924 23.8628C326.516 24.0366 325.969 24.1234 325.283 24.1234C324.58 24.1234 324.029 24.0405 323.63 23.8747C323.239 23.7009 322.959 23.4601 322.792 23.1521C322.624 22.8441 322.524 22.4769 322.492 22.0505H324.085C324.125 22.4848 324.237 22.773 324.421 22.9152C324.604 23.0573 324.904 23.1284 325.319 23.1284C325.662 23.1284 325.941 23.0534 326.157 22.9034C326.381 22.7454 326.512 22.4611 326.552 22.0505H328.169ZM321.283 24.8342H322.912V28.9209C322.912 29.1183 322.908 29.3394 322.9 29.5842C322.892 29.829 322.884 30.0699 322.876 30.3068C322.868 30.5358 322.86 30.7372 322.852 30.9109C322.844 31.0767 322.836 31.1912 322.828 31.2544H322.864L326.816 24.8342H328.983V33.2918H327.367V29.2288C327.367 29.0156 327.371 28.7827 327.379 28.53C327.387 28.2694 327.395 28.0206 327.403 27.7837C327.419 27.5468 327.431 27.3415 327.439 27.1677C327.454 26.9861 327.466 26.8676 327.474 26.8124H327.427L323.462 33.2918H321.283V24.8342ZM343.248 31.8704V35.7557H341.499V33.2918H335.212V24.8342H337.02V31.7993H340.17V24.8342H341.978V31.8704H343.248ZM349.49 33.2918H344.568V24.8342H349.49V26.303H346.377V28.1627H349.275V29.6316H346.377V31.8112H349.49V33.2918ZM358.275 33.2918H356.467V29.6434H353.078V33.2918H351.269V24.8342H353.078V28.1509H356.467V24.8342H358.275V33.2918ZM363.721 33.2918H361.912V26.3267H359.589V24.8342H366.044V26.3267H363.721V33.2918ZM370.093 24.8342C371.195 24.8342 371.997 25.0711 372.5 25.5449C373.011 26.0108 373.267 26.6544 373.267 27.4757C373.267 27.8469 373.211 28.2022 373.099 28.5418C372.987 28.8735 372.8 29.1736 372.536 29.4421C372.281 29.7027 371.941 29.908 371.518 30.058C371.095 30.2081 370.572 30.2831 369.949 30.2831H369.171V33.2918H367.362V24.8342H370.093ZM369.997 26.303H369.171V28.8143H369.77C370.113 28.8143 370.408 28.7708 370.656 28.684C370.903 28.5971 371.095 28.4589 371.231 28.2694C371.366 28.0798 371.434 27.835 371.434 27.5349C371.434 27.1164 371.318 26.8084 371.087 26.611C370.855 26.4057 370.492 26.303 369.997 26.303Z" fill="white"/>
<path d="M99.3138 58.9571H94.3916V50.4994H99.3138V51.9682H96.2V53.828H99.0982V55.2968H96.2V57.4764H99.3138V58.9571ZM107.788 50.4994V57.4645H108.926V61.4209H107.177V58.9571H101.824V61.4209H100.075V57.4645H100.734C100.957 57.0223 101.173 56.5564 101.381 56.0668C101.588 55.5772 101.78 55.052 101.956 54.4913C102.139 53.9306 102.303 53.3226 102.447 52.6671C102.59 52.0038 102.71 51.2812 102.806 50.4994H107.788ZM104.243 51.9919C104.187 52.4026 104.107 52.8409 104.003 53.3068C103.9 53.7648 103.776 54.2347 103.632 54.7164C103.496 55.1981 103.345 55.6719 103.177 56.1378C103.009 56.6038 102.83 57.046 102.638 57.4645H105.979V51.9919H104.243ZM110.239 50.4994H111.868V54.5861C111.868 54.7835 111.864 55.0046 111.856 55.2494C111.848 55.4943 111.84 55.7351 111.832 55.972C111.824 56.201 111.816 56.4024 111.808 56.5761C111.8 56.742 111.792 56.8565 111.784 56.9197H111.82L115.772 50.4994H117.94V58.9571H116.323V54.8941C116.323 54.6809 116.327 54.4479 116.335 54.1952C116.343 53.9346 116.351 53.6858 116.359 53.4489C116.375 53.212 116.387 53.0067 116.395 52.833C116.411 52.6513 116.423 52.5329 116.431 52.4776H116.383L112.419 58.9571H110.239V50.4994ZM127.104 58.9571H125.296V55.3087H121.907V58.9571H120.098V50.4994H121.907V53.8161H125.296V50.4994H127.104V58.9571ZM134.489 58.9571L133.866 56.9433H130.753L130.13 58.9571H128.178L131.196 50.4639H133.411L136.441 58.9571H134.489ZM132.812 53.4726C132.773 53.3384 132.721 53.1686 132.657 52.9633C132.593 52.7579 132.529 52.5487 132.465 52.3354C132.401 52.1222 132.349 51.9366 132.309 51.7787C132.27 51.9366 132.214 52.1341 132.142 52.371C132.078 52.6 132.014 52.8211 131.95 53.0343C131.894 53.2397 131.85 53.3857 131.818 53.4726L131.208 55.439H133.435L132.812 53.4726ZM140.399 55.7114L138.399 58.9571H136.386L138.818 55.2376C138.586 55.1428 138.355 55.0046 138.123 54.823C137.892 54.6335 137.7 54.3847 137.548 54.0767C137.397 53.7609 137.321 53.3739 137.321 52.9159C137.321 52.1341 137.604 51.5379 138.171 51.1272C138.738 50.7087 139.533 50.4994 140.555 50.4994H143.333V58.9571H141.525V55.7114H140.399ZM140.626 51.9682C140.315 51.9682 140.048 52.0038 139.824 52.0748C139.608 52.1459 139.441 52.2604 139.321 52.4184C139.209 52.5763 139.153 52.7856 139.153 53.0462C139.153 53.4173 139.277 53.7135 139.524 53.9346C139.78 54.1478 140.163 54.2544 140.674 54.2544H141.525V51.9682H140.626ZM152.925 50.4994V51.9801H149.332V58.9571H147.524V50.4994H152.925ZM159.159 58.9571H154.237V50.4994H159.159V51.9682H156.046V53.828H158.944V55.2968H156.046V57.4764H159.159V58.9571ZM168.699 54.7164C168.699 55.3718 168.615 55.9681 168.447 56.5051C168.288 57.0342 168.04 57.4922 167.705 57.8791C167.377 58.2661 166.954 58.5622 166.435 58.7676C165.924 58.9729 165.322 59.0755 164.627 59.0755C163.932 59.0755 163.326 58.9729 162.807 58.7676C162.296 58.5543 161.872 58.2582 161.537 57.8791C161.21 57.4922 160.962 57.0302 160.795 56.4932C160.635 55.9562 160.555 55.36 160.555 54.7045C160.555 53.828 160.699 53.0659 160.986 52.4184C161.282 51.7708 161.729 51.2694 162.328 50.914C162.934 50.5507 163.705 50.3691 164.639 50.3691C165.565 50.3691 166.328 50.5507 166.926 50.914C167.525 51.2694 167.968 51.7748 168.256 52.4302C168.551 53.0778 168.699 53.8398 168.699 54.7164ZM162.459 54.7164C162.459 55.3087 162.535 55.818 162.687 56.2445C162.839 56.6709 163.074 56.9986 163.393 57.2276C163.713 57.4567 164.124 57.5712 164.627 57.5712C165.146 57.5712 165.561 57.4567 165.872 57.2276C166.192 56.9986 166.423 56.6709 166.567 56.2445C166.719 55.818 166.795 55.3087 166.795 54.7164C166.795 53.824 166.627 53.1252 166.292 52.6197C165.956 52.1143 165.405 51.8616 164.639 51.8616C164.128 51.8616 163.713 51.9761 163.393 52.2052C163.074 52.4342 162.839 52.7619 162.687 53.1883C162.535 53.6148 162.459 54.1241 162.459 54.7164ZM175.357 50.3809V51.4233C176.291 51.447 177.033 51.6089 177.584 51.909C178.143 52.2012 178.542 52.5803 178.782 53.0462C179.029 53.5121 179.153 54.0215 179.153 54.5742C179.153 54.9296 179.089 55.2929 178.961 55.664C178.842 56.0352 178.634 56.3787 178.339 56.6946C178.051 57.0026 177.664 57.2553 177.177 57.4527C176.69 57.6501 176.083 57.7567 175.357 57.7725V59.0755H173.728V57.7725C172.993 57.7567 172.379 57.6501 171.883 57.4527C171.396 57.2553 171.009 56.9986 170.722 56.6827C170.434 56.3669 170.231 56.0273 170.111 55.664C169.991 55.2929 169.931 54.9296 169.931 54.5742C169.931 54.1636 169.999 53.7727 170.135 53.4015C170.271 53.0304 170.486 52.6987 170.782 52.4065C171.077 52.1143 171.468 51.8814 171.955 51.7076C172.442 51.5339 173.033 51.4391 173.728 51.4233V50.3809H175.357ZM173.728 52.8211C173.209 52.8448 172.794 52.9356 172.482 53.0936C172.179 53.2436 171.959 53.445 171.824 53.6977C171.696 53.9504 171.632 54.2386 171.632 54.5624C171.632 54.9178 171.704 55.2297 171.848 55.4982C171.999 55.7588 172.227 55.9681 172.53 56.126C172.842 56.2761 173.241 56.3629 173.728 56.3866V52.8211ZM175.357 56.3866C175.844 56.3629 176.239 56.2761 176.542 56.126C176.854 55.9681 177.081 55.7588 177.225 55.4982C177.377 55.2297 177.452 54.9178 177.452 54.5624C177.452 54.2386 177.385 53.9504 177.249 53.6977C177.121 53.445 176.901 53.2436 176.59 53.0936C176.287 52.9356 175.876 52.8448 175.357 52.8211V56.3866ZM180.774 50.4994H182.403V54.5861C182.403 54.7835 182.399 55.0046 182.391 55.2494C182.383 55.4943 182.375 55.7351 182.367 55.972C182.359 56.201 182.351 56.4024 182.343 56.5761C182.335 56.742 182.327 56.8565 182.319 56.9197H182.355L186.307 50.4994H188.474V58.9571H186.858V54.8941C186.858 54.6809 186.862 54.4479 186.87 54.1952C186.878 53.9346 186.886 53.6858 186.894 53.4489C186.91 53.212 186.922 53.0067 186.929 52.833C186.945 52.6513 186.957 52.5329 186.965 52.4776H186.918L182.953 58.9571H180.774V50.4994ZM196.537 52.4776C196.537 53.0462 196.334 53.5042 195.927 53.8517C195.519 54.1991 195 54.4163 194.37 54.5032V54.5387C195.152 54.6177 195.751 54.8348 196.166 55.1902C196.589 55.5377 196.801 55.9918 196.801 56.5524C196.801 57.0421 196.665 57.4803 196.394 57.8673C196.122 58.2464 195.719 58.5425 195.184 58.7557C194.649 58.9689 193.986 59.0755 193.196 59.0755C192.549 59.0755 191.974 59.036 191.471 58.9571C190.976 58.8781 190.545 58.7636 190.178 58.6136V57.1092C190.426 57.2276 190.705 57.3303 191.016 57.4172C191.328 57.4961 191.643 57.5593 191.962 57.6067C192.282 57.6462 192.577 57.6659 192.849 57.6659C193.607 57.6659 194.154 57.5593 194.489 57.3461C194.833 57.125 195.004 56.817 195.004 56.4221C195.004 56.0194 194.757 55.7272 194.262 55.5456C193.767 55.356 193.1 55.2613 192.262 55.2613H191.459V53.8635H192.178C192.857 53.8635 193.384 53.8201 193.759 53.7332C194.134 53.6464 194.398 53.52 194.549 53.3542C194.701 53.1883 194.777 52.9909 194.777 52.7619C194.777 52.4697 194.645 52.2407 194.382 52.0748C194.126 51.9011 193.739 51.8142 193.22 51.8142C192.781 51.8142 192.366 51.8774 191.974 52.0038C191.591 52.1301 191.232 52.296 190.897 52.5013L190.106 51.3049C190.402 51.1154 190.713 50.9535 191.04 50.8192C191.376 50.6771 191.743 50.5705 192.142 50.4994C192.541 50.4204 192.984 50.3809 193.471 50.3809C194.118 50.3809 194.669 50.4718 195.124 50.6534C195.579 50.835 195.927 51.0838 196.166 51.3997C196.414 51.7076 196.537 52.0669 196.537 52.4776ZM198.399 50.4994H200.028V54.5861C200.028 54.7835 200.024 55.0046 200.016 55.2494C200.008 55.4943 200 55.7351 199.992 55.972C199.984 56.201 199.976 56.4024 199.968 56.5761C199.96 56.742 199.952 56.8565 199.944 56.9197H199.98L203.932 50.4994H206.1V58.9571H204.483V54.8941C204.483 54.6809 204.487 54.4479 204.495 54.1952C204.503 53.9346 204.511 53.6858 204.519 53.4489C204.535 53.212 204.547 53.0067 204.555 52.833C204.571 52.6513 204.583 52.5329 204.591 52.4776H204.543L200.579 58.9571H198.399V50.4994ZM214.821 58.9571H213.013V55.6877C212.51 55.8615 212.047 55.9918 211.624 56.0786C211.209 56.1655 210.789 56.2089 210.366 56.2089C209.568 56.2089 208.941 56.0194 208.486 55.6403C208.039 55.2534 207.815 54.7045 207.815 53.9938V50.4994H209.624V53.4845C209.624 53.8951 209.72 54.2031 209.911 54.4084C210.103 54.6137 210.426 54.7164 210.881 54.7164C211.217 54.7164 211.552 54.6809 211.887 54.6098C212.223 54.5387 212.598 54.4321 213.013 54.29V50.4994H214.821V58.9571ZM221.893 58.9571H216.971V50.4994H221.893V51.9682H218.779V53.828H221.678V55.2968H218.779V57.4764H221.893V58.9571ZM227.301 51.8735C226.958 51.8735 226.651 51.9406 226.379 52.0748C226.116 52.2091 225.892 52.4026 225.709 52.6553C225.525 52.9001 225.385 53.2002 225.289 53.5555C225.202 53.9109 225.158 54.3097 225.158 54.7519C225.158 55.3521 225.23 55.8654 225.373 56.2918C225.525 56.7104 225.761 57.0302 226.08 57.2513C226.399 57.4724 226.806 57.583 227.301 57.583C227.653 57.583 228 57.5435 228.343 57.4645C228.695 57.3856 229.074 57.275 229.481 57.1329V58.6373C229.106 58.7873 228.735 58.8979 228.367 58.9689C228 59.04 227.589 59.0755 227.134 59.0755C226.256 59.0755 225.529 58.8979 224.954 58.5425C224.387 58.1792 223.968 57.6738 223.697 57.0263C223.425 56.3708 223.289 55.6088 223.289 54.7401C223.289 54.1004 223.377 53.5161 223.553 52.987C223.729 52.45 223.984 51.988 224.319 51.601C224.663 51.2141 225.082 50.914 225.577 50.7008C226.08 50.4876 226.655 50.3809 227.301 50.3809C227.725 50.3809 228.148 50.4362 228.571 50.5468C229.002 50.6494 229.413 50.7916 229.804 50.9732L229.218 52.4302C228.898 52.2802 228.575 52.1499 228.248 52.0393C227.928 51.9288 227.613 51.8735 227.301 51.8735ZM238.268 58.9571H236.208L233.106 54.669V58.9571H231.298V50.4994H233.106V54.5979L236.172 50.4994H238.1L234.987 54.5624L238.268 58.9571ZM244.578 58.9571L243.955 56.9433H240.841L240.219 58.9571H238.267L241.285 50.4639H243.5L246.53 58.9571H244.578ZM242.901 53.4726C242.861 53.3384 242.809 53.1686 242.746 52.9633C242.682 52.7579 242.618 52.5487 242.554 52.3354C242.49 52.1222 242.438 51.9366 242.398 51.7787C242.358 51.9366 242.303 52.1341 242.231 52.371C242.167 52.6 242.103 52.8211 242.039 53.0343C241.983 53.2397 241.939 53.3857 241.907 53.4726L241.297 55.439H243.524L242.901 53.4726ZM250.488 55.7114L248.488 58.9571H246.476L248.907 55.2376C248.675 55.1428 248.444 55.0046 248.212 54.823C247.981 54.6335 247.789 54.3847 247.637 54.0767C247.486 53.7609 247.41 53.3739 247.41 52.9159C247.41 52.1341 247.693 51.5379 248.26 51.1272C248.827 50.7087 249.621 50.4994 250.643 50.4994H253.422V58.9571H251.613V55.7114H250.488ZM250.715 51.9682C250.404 51.9682 250.136 52.0038 249.913 52.0748C249.697 52.1459 249.53 52.2604 249.41 52.4184C249.298 52.5763 249.242 52.7856 249.242 53.0462C249.242 53.4173 249.366 53.7135 249.613 53.9346C249.869 54.1478 250.252 54.2544 250.763 54.2544H251.613V51.9682H250.715ZM261.242 51.8735C260.898 51.8735 260.591 51.9406 260.32 52.0748C260.056 52.2091 259.833 52.4026 259.649 52.6553C259.465 52.9001 259.326 53.2002 259.23 53.5555C259.142 53.9109 259.098 54.3097 259.098 54.7519C259.098 55.3521 259.17 55.8654 259.314 56.2918C259.465 56.7104 259.701 57.0302 260.02 57.2513C260.34 57.4724 260.747 57.583 261.242 57.583C261.593 57.583 261.94 57.5435 262.284 57.4645C262.635 57.3856 263.014 57.275 263.421 57.1329V58.6373C263.046 58.7873 262.675 58.8979 262.308 58.9689C261.94 59.04 261.529 59.0755 261.074 59.0755C260.196 59.0755 259.469 58.8979 258.894 58.5425C258.328 58.1792 257.908 57.6738 257.637 57.0263C257.365 56.3708 257.23 55.6088 257.23 54.7401C257.23 54.1004 257.318 53.5161 257.493 52.987C257.669 52.45 257.924 51.988 258.26 51.601C258.603 51.2141 259.022 50.914 259.517 50.7008C260.02 50.4876 260.595 50.3809 261.242 50.3809C261.665 50.3809 262.088 50.4362 262.511 50.5468C262.942 50.6494 263.354 50.7916 263.745 50.9732L263.158 52.4302C262.839 52.2802 262.515 52.1499 262.188 52.0393C261.868 51.9288 261.553 51.8735 261.242 51.8735ZM272.005 58.9571H270.196V51.9919H268.101C268.053 52.3552 268.001 52.75 267.945 53.1765C267.897 53.6029 267.841 54.0372 267.777 54.4795C267.721 54.9138 267.661 55.3284 267.598 55.7233C267.534 56.1102 267.47 56.4537 267.406 56.7538C267.302 57.2434 267.162 57.662 266.987 58.0094C266.819 58.3569 266.584 58.6215 266.28 58.8031C265.985 58.9847 265.598 59.0755 265.118 59.0755C264.959 59.0755 264.807 59.0637 264.663 59.04C264.52 59.0163 264.384 58.9847 264.256 58.9452V57.4764C264.36 57.508 264.46 57.5356 264.556 57.5593C264.659 57.583 264.771 57.5949 264.891 57.5949C265.051 57.5949 265.182 57.5435 265.286 57.4409C265.39 57.3382 265.482 57.1645 265.562 56.9197C265.641 56.6669 265.721 56.3195 265.801 55.8772C265.841 55.6877 265.889 55.4192 265.945 55.0718C266.001 54.7164 266.065 54.3018 266.136 53.828C266.216 53.3463 266.296 52.8251 266.376 52.2644C266.456 51.6958 266.532 51.1075 266.604 50.4994H272.005V58.9571ZM278.378 56.4814C278.138 57.0184 277.883 57.4843 277.611 57.8791C277.348 58.2661 277.008 58.5622 276.593 58.7676C276.178 58.9729 275.635 59.0755 274.964 59.0755C274.757 59.0755 274.529 59.0597 274.282 59.0282C274.034 58.9966 273.807 58.9531 273.599 58.8979V57.3579C273.791 57.4369 274.002 57.4922 274.234 57.5238C274.465 57.5554 274.681 57.5712 274.88 57.5712C275.144 57.5712 275.356 57.5277 275.515 57.4409C275.683 57.354 275.815 57.2355 275.91 57.0855C276.014 56.9275 276.098 56.7578 276.162 56.5761L273.204 50.4994H275.12L276.713 54.1597C276.753 54.2386 276.801 54.3413 276.857 54.4676C276.912 54.594 276.968 54.7243 277.024 54.8585C277.08 54.9928 277.124 55.1112 277.156 55.2139H277.216C277.248 55.1191 277.288 55.0046 277.336 54.8704C277.392 54.7282 277.447 54.5861 277.503 54.4439C277.567 54.2939 277.623 54.1636 277.671 54.053L279.156 50.4994H281.024L278.378 56.4814ZM284.067 54.5624L281.193 50.4994H283.061L285.828 54.5979V50.4994H287.516V54.5979L290.283 50.4994H292.151L289.277 54.5624L292.319 58.9571H290.379L287.516 54.669V58.9571H285.828V54.669L282.965 58.9571H281.025L284.067 54.5624ZM293.401 58.9571V50.4994H298.802V51.9801H295.209V53.7451H295.928C296.734 53.7451 297.393 53.8556 297.904 54.0767C298.423 54.2979 298.806 54.6019 299.054 54.9888C299.301 55.3758 299.425 55.818 299.425 56.3155C299.425 56.8683 299.301 57.3421 299.054 57.737C298.806 58.1318 298.423 58.4359 297.904 58.6491C297.385 58.8544 296.714 58.9571 295.892 58.9571H293.401ZM295.82 57.4882C296.371 57.4882 296.802 57.4014 297.114 57.2276C297.433 57.0539 297.593 56.7499 297.593 56.3155C297.593 56.0154 297.513 55.7864 297.353 55.6285C297.201 55.4706 296.982 55.3639 296.694 55.3087C296.415 55.2455 296.076 55.2139 295.677 55.2139H295.209V57.4882H295.82ZM306.271 58.9571L305.649 56.9433H302.535L301.912 58.9571H299.96L302.978 50.4639H305.194L308.223 58.9571H306.271ZM304.595 53.4726C304.555 53.3384 304.503 53.1686 304.439 52.9633C304.375 52.7579 304.311 52.5487 304.247 52.3354C304.184 52.1222 304.132 51.9366 304.092 51.7787C304.052 51.9366 303.996 52.1341 303.924 52.371C303.86 52.6 303.796 52.8211 303.732 53.0343C303.677 53.2397 303.633 53.3857 303.601 53.4726L302.99 55.439H305.217L304.595 53.4726ZM314.072 50.4994C315.174 50.4994 315.977 50.7363 316.48 51.2101C316.99 51.6761 317.246 52.3197 317.246 53.1409C317.246 53.5121 317.19 53.8675 317.078 54.207C316.967 54.5387 316.779 54.8388 316.515 55.1073C316.26 55.3679 315.921 55.5732 315.497 55.7233C315.074 55.8733 314.551 55.9483 313.929 55.9483H313.15V58.9571H311.342V50.4994H314.072ZM313.977 51.9682H313.15V54.4795H313.749C314.092 54.4795 314.388 54.4361 314.635 54.3492C314.883 54.2623 315.074 54.1241 315.21 53.9346C315.346 53.7451 315.414 53.5003 315.414 53.2002C315.414 52.7816 315.298 52.4736 315.066 52.2762C314.835 52.0709 314.472 51.9682 313.977 51.9682ZM326.622 54.7164C326.622 55.3718 326.538 55.9681 326.371 56.5051C326.211 57.0342 325.964 57.4922 325.628 57.8791C325.301 58.2661 324.878 58.5622 324.359 58.7676C323.848 58.9729 323.245 59.0755 322.55 59.0755C321.856 59.0755 321.249 58.9729 320.73 58.7676C320.219 58.5543 319.796 58.2582 319.461 57.8791C319.133 57.4922 318.886 57.0302 318.718 56.4932C318.558 55.9562 318.479 55.36 318.479 54.7045C318.479 53.828 318.622 53.0659 318.91 52.4184C319.205 51.7708 319.652 51.2694 320.251 50.914C320.858 50.5507 321.628 50.3691 322.562 50.3691C323.489 50.3691 324.251 50.5507 324.85 50.914C325.449 51.2694 325.892 51.7748 326.179 52.4302C326.475 53.0778 326.622 53.8398 326.622 54.7164ZM320.383 54.7164C320.383 55.3087 320.459 55.818 320.61 56.2445C320.762 56.6709 320.998 56.9986 321.317 57.2276C321.636 57.4567 322.047 57.5712 322.55 57.5712C323.069 57.5712 323.485 57.4567 323.796 57.2276C324.115 56.9986 324.347 56.6709 324.491 56.2445C324.642 55.818 324.718 55.3087 324.718 54.7164C324.718 53.824 324.55 53.1252 324.215 52.6197C323.88 52.1143 323.329 51.8616 322.562 51.8616C322.051 51.8616 321.636 51.9761 321.317 52.2052C320.998 52.4342 320.762 52.7619 320.61 53.1883C320.459 53.6148 320.383 54.1241 320.383 54.7164ZM332.023 51.8735C331.679 51.8735 331.372 51.9406 331.1 52.0748C330.837 52.2091 330.613 52.4026 330.43 52.6553C330.246 52.9001 330.106 53.2002 330.011 53.5555C329.923 53.9109 329.879 54.3097 329.879 54.7519C329.879 55.3521 329.951 55.8654 330.094 56.2918C330.246 56.7104 330.482 57.0302 330.801 57.2513C331.12 57.4724 331.527 57.583 332.023 57.583C332.374 57.583 332.721 57.5435 333.064 57.4645C333.416 57.3856 333.795 57.275 334.202 57.1329V58.6373C333.827 58.7873 333.456 58.8979 333.088 58.9689C332.721 59.04 332.31 59.0755 331.855 59.0755C330.977 59.0755 330.25 58.8979 329.675 58.5425C329.108 58.1792 328.689 57.6738 328.418 57.0263C328.146 56.3708 328.011 55.6088 328.011 54.7401C328.011 54.1004 328.098 53.5161 328.274 52.987C328.45 52.45 328.705 51.988 329.04 51.601C329.384 51.2141 329.803 50.914 330.298 50.7008C330.801 50.4876 331.376 50.3809 332.023 50.3809C332.446 50.3809 332.869 50.4362 333.292 50.5468C333.723 50.6494 334.134 50.7916 334.526 50.9732L333.939 52.4302C333.619 52.2802 333.296 52.1499 332.969 52.0393C332.649 51.9288 332.334 51.8735 332.023 51.8735ZM339.414 51.8735C339.07 51.8735 338.763 51.9406 338.492 52.0748C338.228 52.2091 338.005 52.4026 337.821 52.6553C337.637 52.9001 337.498 53.2002 337.402 53.5555C337.314 53.9109 337.27 54.3097 337.27 54.7519C337.27 55.3521 337.342 55.8654 337.486 56.2918C337.637 56.7104 337.873 57.0302 338.192 57.2513C338.512 57.4724 338.919 57.583 339.414 57.583C339.765 57.583 340.112 57.5435 340.456 57.4645C340.807 57.3856 341.186 57.275 341.593 57.1329V58.6373C341.218 58.7873 340.847 58.8979 340.48 58.9689C340.112 59.04 339.701 59.0755 339.246 59.0755C338.368 59.0755 337.641 58.8979 337.066 58.5425C336.5 58.1792 336.08 57.6738 335.809 57.0263C335.538 56.3708 335.402 55.6088 335.402 54.7401C335.402 54.1004 335.49 53.5161 335.665 52.987C335.841 52.45 336.096 51.988 336.432 51.601C336.775 51.2141 337.194 50.914 337.689 50.7008C338.192 50.4876 338.767 50.3809 339.414 50.3809C339.837 50.3809 340.26 50.4362 340.683 50.5468C341.114 50.6494 341.526 50.7916 341.917 50.9732L341.33 52.4302C341.011 52.2802 340.687 52.1499 340.36 52.0393C340.041 51.9288 339.725 51.8735 339.414 51.8735ZM343.41 50.4994H345.039V54.5861C345.039 54.7835 345.035 55.0046 345.027 55.2494C345.019 55.4943 345.011 55.7351 345.003 55.972C344.995 56.201 344.987 56.4024 344.979 56.5761C344.971 56.742 344.963 56.8565 344.955 56.9197H344.991L348.943 50.4994H351.111V58.9571H349.494V54.8941C349.494 54.6809 349.498 54.4479 349.506 54.1952C349.514 53.9346 349.522 53.6858 349.53 53.4489C349.546 53.212 349.558 53.0067 349.566 52.833C349.582 52.6513 349.594 52.5329 349.602 52.4776H349.554L345.59 58.9571H343.41V50.4994ZM360.156 47.7157C360.116 48.1263 360 48.4896 359.809 48.8055C359.617 49.1135 359.318 49.3543 358.91 49.5281C358.503 49.7018 357.956 49.7887 357.27 49.7887C356.567 49.7887 356.016 49.7057 355.617 49.5399C355.226 49.3662 354.946 49.1253 354.779 48.8173C354.611 48.5094 354.511 48.1421 354.479 47.7157H356.072C356.112 48.15 356.224 48.4383 356.407 48.5804C356.591 48.7226 356.89 48.7936 357.306 48.7936C357.649 48.7936 357.928 48.7186 358.144 48.5686C358.367 48.4106 358.499 48.1263 358.539 47.7157H360.156ZM353.27 50.4994H354.898V54.5861C354.898 54.7835 354.894 55.0046 354.886 55.2494C354.878 55.4943 354.87 55.7351 354.862 55.972C354.854 56.201 354.846 56.4024 354.838 56.5761C354.831 56.742 354.823 56.8565 354.815 56.9197H354.85L358.803 50.4994H360.97V58.9571H359.353V54.8941C359.353 54.6809 359.357 54.4479 359.365 54.1952C359.373 53.9346 359.381 53.6858 359.389 53.4489C359.405 53.212 359.417 53.0067 359.425 52.833C359.441 52.6513 359.453 52.5329 359.461 52.4776H359.413L355.449 58.9571H353.27V50.4994ZM366.758 51.8735C366.414 51.8735 366.107 51.9406 365.836 52.0748C365.572 52.2091 365.349 52.4026 365.165 52.6553C364.981 52.9001 364.842 53.2002 364.746 53.5555C364.658 53.9109 364.614 54.3097 364.614 54.7519C364.614 55.3521 364.686 55.8654 364.83 56.2918C364.981 56.7104 365.217 57.0302 365.536 57.2513C365.855 57.4724 366.263 57.583 366.758 57.583C367.109 57.583 367.456 57.5435 367.8 57.4645C368.151 57.3856 368.53 57.275 368.937 57.1329V58.6373C368.562 58.7873 368.191 58.8979 367.824 58.9689C367.456 59.04 367.045 59.0755 366.59 59.0755C365.712 59.0755 364.985 58.8979 364.41 58.5425C363.844 58.1792 363.424 57.6738 363.153 57.0263C362.881 56.3708 362.746 55.6088 362.746 54.7401C362.746 54.1004 362.834 53.5161 363.009 52.987C363.185 52.45 363.44 51.988 363.776 51.601C364.119 51.2141 364.538 50.914 365.033 50.7008C365.536 50.4876 366.111 50.3809 366.758 50.3809C367.181 50.3809 367.604 50.4362 368.027 50.5468C368.458 50.6494 368.869 50.7916 369.261 50.9732L368.674 52.4302C368.354 52.2802 368.031 52.1499 367.704 52.0393C367.384 51.9288 367.069 51.8735 366.758 51.8735ZM377.724 58.9571H375.664L372.563 54.669V58.9571H370.754V50.4994H372.563V54.5979L375.628 50.4994H377.557L374.443 54.5624L377.724 58.9571ZM386.327 54.7164C386.327 55.3718 386.243 55.9681 386.076 56.5051C385.916 57.0342 385.668 57.4922 385.333 57.8791C385.006 58.2661 384.583 58.5622 384.064 58.7676C383.553 58.9729 382.95 59.0755 382.255 59.0755C381.561 59.0755 380.954 58.9729 380.435 58.7676C379.924 58.5543 379.501 58.2582 379.165 57.8791C378.838 57.4922 378.591 57.0302 378.423 56.4932C378.263 55.9562 378.183 55.36 378.183 54.7045C378.183 53.828 378.327 53.0659 378.615 52.4184C378.91 51.7708 379.357 51.2694 379.956 50.914C380.563 50.5507 381.333 50.3691 382.267 50.3691C383.193 50.3691 383.956 50.5507 384.555 50.914C385.154 51.2694 385.597 51.7748 385.884 52.4302C386.179 53.0778 386.327 53.8398 386.327 54.7164ZM380.088 54.7164C380.088 55.3087 380.163 55.818 380.315 56.2445C380.467 56.6709 380.702 56.9986 381.022 57.2276C381.341 57.4567 381.752 57.5712 382.255 57.5712C382.774 57.5712 383.189 57.4567 383.501 57.2276C383.82 56.9986 384.052 56.6709 384.195 56.2445C384.347 55.818 384.423 55.3087 384.423 54.7164C384.423 53.824 384.255 53.1252 383.92 52.6197C383.585 52.1143 383.034 51.8616 382.267 51.8616C381.756 51.8616 381.341 51.9761 381.022 52.2052C380.702 52.4342 380.467 52.7619 380.315 53.1883C380.163 53.6148 380.088 54.1241 380.088 54.7164ZM394.985 47.7157C394.945 48.1263 394.829 48.4896 394.638 48.8055C394.446 49.1135 394.147 49.3543 393.739 49.5281C393.332 49.7018 392.785 49.7887 392.099 49.7887C391.396 49.7887 390.845 49.7057 390.446 49.5399C390.055 49.3662 389.775 49.1253 389.608 48.8173C389.44 48.5094 389.34 48.1421 389.308 47.7157H390.901C390.941 48.15 391.053 48.4383 391.236 48.5804C391.42 48.7226 391.719 48.7936 392.135 48.7936C392.478 48.7936 392.757 48.7186 392.973 48.5686C393.196 48.4106 393.328 48.1263 393.368 47.7157H394.985ZM388.099 50.4994H389.727V54.5861C389.727 54.7835 389.723 55.0046 389.715 55.2494C389.707 55.4943 389.699 55.7351 389.691 55.972C389.683 56.201 389.675 56.4024 389.667 56.5761C389.66 56.742 389.652 56.8565 389.644 56.9197H389.679L393.632 50.4994H395.799V58.9571H394.182V54.8941C394.182 54.6809 394.186 54.4479 394.194 54.1952C394.202 53.9346 394.21 53.6858 394.218 53.4489C394.234 53.212 394.246 53.0067 394.254 52.833C394.27 52.6513 394.282 52.5329 394.29 52.4776H394.242L390.278 58.9571H388.099V50.4994ZM405.226 58.9571L404.604 56.9433H401.49L400.867 58.9571H398.915L401.933 50.4639H404.149L407.179 58.9571H405.226ZM403.55 53.4726C403.51 53.3384 403.458 53.1686 403.394 52.9633C403.33 52.7579 403.266 52.5487 403.203 52.3354C403.139 52.1222 403.087 51.9366 403.047 51.7787C403.007 51.9366 402.951 52.1341 402.879 52.371C402.815 52.6 402.751 52.8211 402.688 53.0343C402.632 53.2397 402.588 53.3857 402.556 53.4726L401.945 55.439H404.173L403.55 53.4726ZM415.231 58.9571H413.172L410.07 54.669V58.9571H408.261V50.4994H410.07V54.5979L413.136 50.4994H415.064L411.95 54.5624L415.231 58.9571ZM421.541 58.9571L420.919 56.9433H417.805L417.182 58.9571H415.23L418.248 50.4639H420.464L423.494 58.9571H421.541ZM419.865 53.4726C419.825 53.3384 419.773 53.1686 419.709 52.9633C419.645 52.7579 419.581 52.5487 419.517 52.3354C419.454 52.1222 419.402 51.9366 419.362 51.7787C419.322 51.9366 419.266 52.1341 419.194 52.371C419.13 52.6 419.066 52.8211 419.002 53.0343C418.947 53.2397 418.903 53.3857 418.871 53.4726L418.26 55.439H420.488L419.865 53.4726ZM431.272 50.4994V57.4645H432.409V61.4209H430.661V58.9571H425.307V61.4209H423.559V57.4645H424.218C424.441 57.0223 424.657 56.5564 424.864 56.0668C425.072 55.5772 425.263 55.052 425.439 54.4913C425.623 53.9306 425.786 53.3226 425.93 52.6671C426.074 52.0038 426.194 51.2812 426.289 50.4994H431.272ZM427.727 51.9919C427.671 52.4026 427.591 52.8409 427.487 53.3068C427.383 53.7648 427.26 54.2347 427.116 54.7164C426.98 55.1981 426.828 55.6719 426.66 56.1378C426.493 56.6038 426.313 57.046 426.122 57.4645H429.463V51.9919H427.727ZM438.645 58.9571H433.723V50.4994H438.645V51.9682H435.531V53.828H438.429V55.2968H435.531V57.4764H438.645V58.9571ZM444.041 58.9571L441.981 52.3236H441.933C441.941 52.4815 441.953 52.7185 441.969 53.0343C441.985 53.3502 442.001 53.6898 442.017 54.053C442.033 54.4084 442.04 54.7322 442.04 55.0244V58.9571H440.424V50.4994H442.891L444.915 56.967H444.951L447.094 50.4994H449.561V58.9571H447.873V54.9533C447.873 54.6848 447.877 54.3768 447.885 54.0294C447.901 53.6819 447.913 53.3542 447.921 53.0462C447.937 52.7303 447.949 52.4934 447.957 52.3354H447.909L445.705 58.9571H444.041ZM451.722 50.4994H453.35V54.5861C453.35 54.7835 453.346 55.0046 453.339 55.2494C453.331 55.4943 453.322 55.7351 453.315 55.972C453.307 56.201 453.299 56.4024 453.291 56.5761C453.283 56.742 453.275 56.8565 453.267 56.9197H453.303L457.255 50.4994H459.422V58.9571H457.806V54.8941C457.806 54.6809 457.81 54.4479 457.818 54.1952C457.826 53.9346 457.833 53.6858 457.841 53.4489C457.857 53.212 457.869 53.0067 457.877 52.833C457.893 52.6513 457.905 52.5329 457.913 52.4776H457.865L453.901 58.9571H451.722V50.4994ZM461.581 50.4994H463.21V54.5861C463.21 54.7835 463.206 55.0046 463.198 55.2494C463.19 55.4943 463.182 55.7351 463.174 55.972C463.166 56.201 463.158 56.4024 463.15 56.5761C463.142 56.742 463.134 56.8565 463.126 56.9197H463.162L467.114 50.4994H469.282V58.9571H467.665V54.8941C467.665 54.6809 467.669 54.4479 467.677 54.1952C467.685 53.9346 467.693 53.6858 467.701 53.4489C467.717 53.212 467.729 53.0067 467.737 52.833C467.753 52.6513 467.765 52.5329 467.773 52.4776H467.725L463.761 58.9571H461.581V50.4994ZM480.481 58.9571H478.673V55.3087H475.284V58.9571H473.475V50.4994H475.284V53.8161H478.673V50.4994H480.481V58.9571ZM487.866 58.9571L487.243 56.9433H484.13L483.507 58.9571H481.555L484.573 50.4639H486.788L489.818 58.9571H487.866ZM486.189 53.4726C486.149 53.3384 486.098 53.1686 486.034 52.9633C485.97 52.7579 485.906 52.5487 485.842 52.3354C485.778 52.1222 485.726 51.9366 485.686 51.7787C485.647 51.9366 485.591 52.1341 485.519 52.371C485.455 52.6 485.391 52.8211 485.327 53.0343C485.271 53.2397 485.227 53.3857 485.195 53.4726L484.585 55.439H486.812L486.189 53.4726ZM495.117 56.4814C494.878 57.0184 494.622 57.4843 494.351 57.8791C494.087 58.2661 493.748 58.5622 493.333 58.7676C492.918 58.9729 492.375 59.0755 491.704 59.0755C491.496 59.0755 491.269 59.0597 491.021 59.0282C490.774 58.9966 490.546 58.9531 490.339 58.8979V57.3579C490.53 57.4369 490.742 57.4922 490.973 57.5238C491.205 57.5554 491.42 57.5712 491.62 57.5712C491.884 57.5712 492.095 57.5277 492.255 57.4409C492.422 57.354 492.554 57.2355 492.65 57.0855C492.754 56.9275 492.838 56.7578 492.902 56.5761L489.943 50.4994H491.86L493.452 54.1597C493.492 54.2386 493.54 54.3413 493.596 54.4676C493.652 54.594 493.708 54.7243 493.764 54.8585C493.82 54.9928 493.864 55.1112 493.896 55.2139H493.955C493.987 55.1191 494.027 55.0046 494.075 54.8704C494.131 54.7282 494.187 54.5861 494.243 54.4439C494.307 54.2939 494.363 54.1636 494.411 54.053L495.896 50.4994H497.764L495.117 56.4814ZM505.811 58.9571H503.755L500.651 54.669V58.9571H498.843V50.4994H500.651V54.5979L503.715 50.4994H505.646L502.532 54.5624L505.811 58.9571Z" fill="white"/>
</g>
<defs>
<clipPath id="clip0_105_34">
<rect width="575" height="73" fill="white"/>
</clipPath>
</defs>
</svg>
