<svg width="1600" height="145" viewBox="0 0 1600 145" fill="none" xmlns="http://www.w3.org/2000/svg">
<g clip-path="url(#clip0_14_34)">
<path d="M1600 -4H0V145H1600V-4Z" fill="#29518C"/>
<path d="M1600 77.67H168V84.22H1600V77.67Z" fill="white"/>
<path d="M58 65H0V72H58V65Z" fill="white"/>
<path d="M117.373 24.8333C89.8633 24.8333 67.5933 47.1033 67.5933 74.613C67.5933 102.123 89.8633 124.393 117.373 124.393C144.883 124.393 167.153 102.123 167.153 74.613C167.153 47.1033 144.883 24.8333 117.373 24.8333ZM116.937 119.59C92.4833 119.59 72.8333 99.503 72.8333 75.487C72.8333 51.0333 92.4833 30.9466 116.937 30.9466C141.39 30.9466 161.04 50.5966 161.04 75.05C161.04 99.503 141.39 119.59 116.937 119.59Z" fill="white"/>
<path d="M175.45 77.67V84.22H134.84L125.67 133.127L108.64 41.8633L103.4 71.993H57.55V65.007H98.16L108.64 9.55L125.233 104.307L130.037 77.67H175.45Z" fill="white"/>
<path d="M75 63.5H68V65H75V63.5Z" fill="#29518C"/>
<path d="M74 72H67V73.5H74V72Z" fill="#29518C"/>
<path d="M168 76H160V77.67H168V76Z" fill="#29518C"/>
<path d="M167 84.22H159V85.89H167V84.22Z" fill="#29518C"/>
<path d="M194.136 27.416V28.824C195.373 28.8453 196.349 29.048 197.064 29.432C197.779 29.816 198.285 30.328 198.584 30.968C198.883 31.5973 199.032 32.3013 199.032 33.08C199.032 33.592 198.952 34.104 198.792 34.616C198.643 35.1173 198.381 35.576 198.008 35.992C197.635 36.3973 197.133 36.728 196.504 36.984C195.875 37.24 195.085 37.3787 194.136 37.4V39.16H192.712V37.4C191.741 37.3787 190.936 37.24 190.296 36.984C189.667 36.7173 189.171 36.376 188.808 35.96C188.445 35.5333 188.189 35.0693 188.04 34.568C187.891 34.0667 187.816 33.5707 187.816 33.08C187.816 32.5147 187.896 31.9813 188.056 31.48C188.227 30.968 188.499 30.52 188.872 30.136C189.256 29.7413 189.763 29.4267 190.392 29.192C191.021 28.9573 191.795 28.8347 192.712 28.824V27.416H194.136ZM192.712 30.04C191.859 30.0613 191.176 30.2 190.664 30.456C190.163 30.712 189.805 31.064 189.592 31.512C189.379 31.9493 189.272 32.4667 189.272 33.064C189.272 33.6933 189.389 34.2427 189.624 34.712C189.869 35.1707 190.243 35.528 190.744 35.784C191.256 36.04 191.912 36.184 192.712 36.216V30.04ZM194.136 36.216C194.957 36.184 195.619 36.0347 196.12 35.768C196.632 35.5013 197 35.1387 197.224 34.68C197.459 34.2107 197.576 33.672 197.576 33.064C197.576 32.456 197.469 31.9333 197.256 31.496C197.043 31.048 196.685 30.7013 196.184 30.456C195.683 30.2 195 30.0613 194.136 30.04V36.216ZM207.795 39H201.411V27.576H207.795V28.84H202.851V32.408H207.507V33.656H202.851V37.736H207.795V39ZM217.998 27.576V37.72H219.454V42.008H218.078V39H210.222V42.008H208.846V37.72H209.726C210.11 37.0587 210.473 36.3173 210.814 35.496C211.166 34.6747 211.475 33.816 211.742 32.92C212.009 32.0133 212.227 31.1067 212.398 30.2C212.569 29.2933 212.675 28.4187 212.718 27.576H217.998ZM213.982 28.872C213.939 29.4907 213.833 30.1893 213.662 30.968C213.502 31.7467 213.294 32.5467 213.038 33.368C212.793 34.1787 212.515 34.9627 212.206 35.72C211.907 36.4773 211.587 37.144 211.246 37.72H216.574V28.872H213.982ZM227.749 39H221.365V27.576H227.749V28.84H222.805V32.408H227.461V33.656H222.805V37.736H227.749V39ZM233.279 27.576C234.772 27.576 235.86 27.8693 236.543 28.456C237.226 29.0427 237.567 29.8693 237.567 30.936C237.567 31.4053 237.487 31.8587 237.327 32.296C237.178 32.7227 236.927 33.1067 236.575 33.448C236.223 33.7893 235.754 34.0613 235.167 34.264C234.58 34.456 233.86 34.552 233.007 34.552H231.695V39H230.255V27.576H233.279ZM233.151 28.808H231.695V33.32H232.847C233.572 33.32 234.175 33.2453 234.655 33.096C235.135 32.936 235.492 32.6853 235.727 32.344C235.962 32.0027 236.079 31.5547 236.079 31C236.079 30.264 235.844 29.7147 235.375 29.352C234.906 28.9893 234.164 28.808 233.151 28.808ZM246.314 39L244.938 35.464H240.41L239.05 39H237.594L242.058 27.528H243.354L247.802 39H246.314ZM243.226 30.728C243.194 30.6427 243.14 30.488 243.066 30.264C242.991 30.04 242.916 29.8107 242.842 29.576C242.778 29.3307 242.724 29.144 242.682 29.016C242.628 29.2293 242.57 29.448 242.506 29.672C242.452 29.8853 242.394 30.0827 242.33 30.264C242.276 30.4453 242.228 30.6 242.186 30.728L240.89 34.184H244.506L243.226 30.728ZM257.589 39H256.149V28.84H252.533C252.458 29.4267 252.378 30.0453 252.293 30.696C252.207 31.336 252.117 31.9707 252.021 32.6C251.935 33.2293 251.85 33.8213 251.765 34.376C251.679 34.9307 251.594 35.416 251.509 35.832C251.37 36.5467 251.199 37.1547 250.997 37.656C250.794 38.1573 250.522 38.536 250.181 38.792C249.85 39.048 249.413 39.176 248.868 39.176C248.687 39.176 248.501 39.1547 248.309 39.112C248.127 39.08 247.967 39.0373 247.829 38.984V37.784C247.946 37.8373 248.079 37.8853 248.229 37.928C248.378 37.96 248.538 37.976 248.709 37.976C249.029 37.976 249.279 37.848 249.461 37.592C249.653 37.3253 249.802 37 249.909 36.616C250.015 36.2213 250.106 35.832 250.181 35.448C250.245 35.1387 250.319 34.728 250.405 34.216C250.49 33.6933 250.581 33.0853 250.677 32.392C250.783 31.6987 250.89 30.9467 250.997 30.136C251.114 29.3147 251.226 28.4613 251.333 27.576H257.589V39ZM260.693 39V27.576H262.133V32.408H264.277C265.343 32.408 266.191 32.552 266.821 32.84C267.45 33.128 267.903 33.5173 268.181 34.008C268.458 34.4987 268.597 35.048 268.597 35.656C268.597 36.328 268.442 36.9147 268.133 37.416C267.834 37.9173 267.381 38.3067 266.773 38.584C266.165 38.8613 265.391 39 264.453 39H260.693ZM264.309 37.768C265.237 37.768 265.935 37.5973 266.405 37.256C266.874 36.904 267.109 36.3707 267.109 35.656C267.109 35.1653 266.991 34.776 266.757 34.488C266.533 34.1893 266.197 33.976 265.749 33.848C265.311 33.72 264.762 33.656 264.101 33.656H262.133V37.768H264.309ZM279.694 39H278.254V33.672H272.398V39H270.958V27.576H272.398V32.408H278.254V27.576H279.694V39ZM292.786 33.272C292.786 34.1573 292.674 34.9627 292.45 35.688C292.226 36.4027 291.89 37.0213 291.442 37.544C291.004 38.0667 290.455 38.4667 289.794 38.744C289.143 39.0213 288.386 39.16 287.522 39.16C286.626 39.16 285.847 39.0213 285.186 38.744C284.524 38.456 283.975 38.056 283.538 37.544C283.1 37.0213 282.775 36.3973 282.562 35.672C282.348 34.9467 282.242 34.1413 282.242 33.256C282.242 32.0827 282.434 31.0587 282.818 30.184C283.202 29.3093 283.783 28.6267 284.562 28.136C285.351 27.6453 286.343 27.4 287.538 27.4C288.679 27.4 289.639 27.6453 290.418 28.136C291.196 28.616 291.783 29.2987 292.178 30.184C292.583 31.0587 292.786 32.088 292.786 33.272ZM283.762 33.272C283.762 34.232 283.895 35.0587 284.162 35.752C284.428 36.4453 284.839 36.9787 285.394 37.352C285.959 37.7253 286.668 37.912 287.522 37.912C288.386 37.912 289.09 37.7253 289.634 37.352C290.188 36.9787 290.599 36.4453 290.866 35.752C291.132 35.0587 291.266 34.232 291.266 33.272C291.266 31.832 290.967 30.7067 290.37 29.896C289.772 29.0747 288.828 28.664 287.538 28.664C286.674 28.664 285.959 28.8507 285.394 29.224C284.839 29.5867 284.428 30.1147 284.162 30.808C283.895 31.4907 283.762 32.312 283.762 33.272ZM301.702 39H295.318V27.576H301.702V28.84H296.758V32.408H301.414V33.656H296.758V37.736H301.702V39ZM314.922 27.576V28.856H309.914V39H308.474V27.576H314.922ZM326.52 33.272C326.52 34.1573 326.408 34.9627 326.184 35.688C325.96 36.4027 325.624 37.0213 325.176 37.544C324.739 38.0667 324.189 38.4667 323.528 38.744C322.877 39.0213 322.12 39.16 321.256 39.16C320.36 39.16 319.581 39.0213 318.92 38.744C318.259 38.456 317.709 38.056 317.272 37.544C316.835 37.0213 316.509 36.3973 316.296 35.672C316.083 34.9467 315.976 34.1413 315.976 33.256C315.976 32.0827 316.168 31.0587 316.552 30.184C316.936 29.3093 317.517 28.6267 318.296 28.136C319.085 27.6453 320.077 27.4 321.272 27.4C322.413 27.4 323.373 27.6453 324.152 28.136C324.931 28.616 325.517 29.2987 325.912 30.184C326.317 31.0587 326.52 32.088 326.52 33.272ZM317.496 33.272C317.496 34.232 317.629 35.0587 317.896 35.752C318.163 36.4453 318.573 36.9787 319.128 37.352C319.693 37.7253 320.403 37.912 321.256 37.912C322.12 37.912 322.824 37.7253 323.368 37.352C323.923 36.9787 324.333 36.4453 324.6 35.752C324.867 35.0587 325 34.232 325 33.272C325 31.832 324.701 30.7067 324.104 29.896C323.507 29.0747 322.563 28.664 321.272 28.664C320.408 28.664 319.693 28.8507 319.128 29.224C318.573 29.5867 318.163 30.1147 317.896 30.808C317.629 31.4907 317.496 32.312 317.496 33.272ZM333.948 28.68C333.34 28.68 332.791 28.7867 332.3 29C331.809 29.2027 331.393 29.5067 331.052 29.912C330.711 30.3067 330.449 30.792 330.268 31.368C330.087 31.9333 329.996 32.5733 329.996 33.288C329.996 34.2267 330.14 35.0427 330.428 35.736C330.727 36.4293 331.164 36.9627 331.74 37.336C332.327 37.7093 333.057 37.896 333.932 37.896C334.433 37.896 334.908 37.8533 335.356 37.768C335.804 37.6827 336.241 37.576 336.668 37.448V38.696C336.241 38.856 335.799 38.9733 335.34 39.048C334.892 39.1227 334.353 39.16 333.724 39.16C332.561 39.16 331.591 38.92 330.812 38.44C330.033 37.96 329.447 37.2773 329.052 36.392C328.668 35.5067 328.476 34.4667 328.476 33.272C328.476 32.408 328.593 31.6187 328.828 30.904C329.073 30.1893 329.425 29.5707 329.884 29.048C330.353 28.5253 330.929 28.1253 331.612 27.848C332.295 27.56 333.079 27.416 333.964 27.416C334.551 27.416 335.116 27.4747 335.66 27.592C336.204 27.7093 336.689 27.8747 337.116 28.088L336.54 29.304C336.188 29.144 335.793 29 335.356 28.872C334.929 28.744 334.46 28.68 333.948 28.68ZM343.945 35.752C343.604 36.5093 343.257 37.144 342.905 37.656C342.564 38.1573 342.159 38.536 341.689 38.792C341.22 39.0373 340.623 39.16 339.897 39.16C339.599 39.16 339.316 39.1387 339.049 39.096C338.793 39.0533 338.559 38.9947 338.345 38.92V37.496C338.559 37.592 338.788 37.672 339.033 37.736C339.279 37.7893 339.535 37.816 339.801 37.816C340.196 37.816 340.532 37.7627 340.809 37.656C341.097 37.5387 341.348 37.352 341.561 37.096C341.785 36.84 341.993 36.4987 342.185 36.072L337.785 27.576H339.369L342.553 33.864C342.596 33.9387 342.639 34.0293 342.681 34.136C342.724 34.232 342.767 34.3333 342.809 34.44C342.863 34.5467 342.905 34.648 342.937 34.744H343.001C343.033 34.6693 343.065 34.584 343.097 34.488C343.14 34.3813 343.177 34.28 343.209 34.184C343.252 34.0773 343.289 33.9867 343.321 33.912L346.073 27.576H347.593L343.945 35.752ZM356.045 27.576V37.72H357.501V42.008H356.125V39H348.269V42.008H346.893V37.72H347.773C348.157 37.0587 348.52 36.3173 348.861 35.496C349.213 34.6747 349.522 33.816 349.789 32.92C350.056 32.0133 350.274 31.1067 350.445 30.2C350.616 29.2933 350.722 28.4187 350.765 27.576H356.045ZM352.029 28.872C351.986 29.4907 351.88 30.1893 351.709 30.968C351.549 31.7467 351.341 32.5467 351.085 33.368C350.84 34.1787 350.562 34.9627 350.253 35.72C349.954 36.4773 349.634 37.144 349.293 37.72H354.621V28.872H352.029ZM366.579 39L365.203 35.464H360.675L359.315 39H357.859L362.323 27.528H363.619L368.067 39H366.579ZM363.491 30.728C363.459 30.6427 363.406 30.488 363.331 30.264C363.257 30.04 363.182 29.8107 363.107 29.576C363.043 29.3307 362.99 29.144 362.947 29.016C362.894 29.2293 362.835 29.448 362.771 29.672C362.718 29.8853 362.659 30.0827 362.595 30.264C362.542 30.4453 362.494 30.6 362.451 30.728L361.155 34.184H364.771L363.491 30.728ZM372.654 27.576C374.147 27.576 375.235 27.8693 375.918 28.456C376.601 29.0427 376.942 29.8693 376.942 30.936C376.942 31.4053 376.862 31.8587 376.702 32.296C376.553 32.7227 376.302 33.1067 375.95 33.448C375.598 33.7893 375.129 34.0613 374.542 34.264C373.955 34.456 373.235 34.552 372.382 34.552H371.07V39H369.63V27.576H372.654ZM372.526 28.808H371.07V33.32H372.222C372.947 33.32 373.55 33.2453 374.03 33.096C374.51 32.936 374.867 32.6853 375.102 32.344C375.337 32.0027 375.454 31.5547 375.454 31C375.454 30.264 375.219 29.7147 374.75 29.352C374.281 28.9893 373.539 28.808 372.526 28.808ZM384.214 28.68C383.606 28.68 383.056 28.7867 382.566 29C382.075 29.2027 381.659 29.5067 381.318 29.912C380.976 30.3067 380.715 30.792 380.534 31.368C380.352 31.9333 380.262 32.5733 380.262 33.288C380.262 34.2267 380.406 35.0427 380.694 35.736C380.992 36.4293 381.43 36.9627 382.006 37.336C382.592 37.7093 383.323 37.896 384.198 37.896C384.699 37.896 385.174 37.8533 385.622 37.768C386.07 37.6827 386.507 37.576 386.934 37.448V38.696C386.507 38.856 386.064 38.9733 385.606 39.048C385.158 39.1227 384.619 39.16 383.99 39.16C382.827 39.16 381.856 38.92 381.078 38.44C380.299 37.96 379.712 37.2773 379.318 36.392C378.934 35.5067 378.742 34.4667 378.742 33.272C378.742 32.408 378.859 31.6187 379.094 30.904C379.339 30.1893 379.691 29.5707 380.15 29.048C380.619 28.5253 381.195 28.1253 381.878 27.848C382.56 27.56 383.344 27.416 384.23 27.416C384.816 27.416 385.382 27.4747 385.926 27.592C386.47 27.7093 386.955 27.8747 387.382 28.088L386.806 29.304C386.454 29.144 386.059 29 385.622 28.872C385.195 28.744 384.726 28.68 384.214 28.68ZM393.043 39H391.603V28.84H388.035V27.576H396.595V28.84H393.043V39ZM401.582 27.576C402.531 27.576 403.326 27.6667 403.966 27.848C404.616 28.0293 405.102 28.328 405.422 28.744C405.752 29.16 405.918 29.7147 405.918 30.408C405.918 30.856 405.832 31.256 405.662 31.608C405.502 31.9493 405.256 32.2373 404.926 32.472C404.606 32.696 404.211 32.8507 403.742 32.936V33.016C404.222 33.0907 404.654 33.2293 405.038 33.432C405.432 33.6347 405.742 33.9227 405.966 34.296C406.19 34.6693 406.302 35.1547 406.302 35.752C406.302 36.4453 406.142 37.0373 405.822 37.528C405.502 38.008 405.043 38.376 404.446 38.632C403.859 38.8773 403.155 39 402.334 39H398.318V27.576H401.582ZM401.87 32.44C402.851 32.44 403.523 32.2853 403.886 31.976C404.248 31.656 404.43 31.1867 404.43 30.568C404.43 29.9387 404.206 29.4907 403.758 29.224C403.32 28.9467 402.616 28.808 401.646 28.808H399.758V32.44H401.87ZM399.758 33.64V37.784H402.062C403.075 37.784 403.779 37.5867 404.174 37.192C404.568 36.7973 404.766 36.28 404.766 35.64C404.766 35.2347 404.675 34.8827 404.494 34.584C404.323 34.2853 404.03 34.056 403.614 33.896C403.208 33.7253 402.654 33.64 401.95 33.64H399.758ZM415.108 39H408.724V27.576H415.108V28.84H410.164V32.408H414.82V33.656H410.164V37.736H415.108V39ZM426.351 39H424.911V33.672H419.055V39H417.615V27.576H419.055V32.408H424.911V27.576H426.351V39ZM438.21 39H436.77V33.672H430.914V39H429.474V27.576H430.914V32.408H436.77V27.576H438.21V39ZM451.301 33.272C451.301 34.1573 451.189 34.9627 450.965 35.688C450.741 36.4027 450.405 37.0213 449.957 37.544C449.52 38.0667 448.971 38.4667 448.309 38.744C447.659 39.0213 446.901 39.16 446.037 39.16C445.141 39.16 444.363 39.0213 443.701 38.744C443.04 38.456 442.491 38.056 442.053 37.544C441.616 37.0213 441.291 36.3973 441.077 35.672C440.864 34.9467 440.757 34.1413 440.757 33.256C440.757 32.0827 440.949 31.0587 441.333 30.184C441.717 29.3093 442.299 28.6267 443.077 28.136C443.867 27.6453 444.859 27.4 446.053 27.4C447.195 27.4 448.155 27.6453 448.933 28.136C449.712 28.616 450.299 29.2987 450.693 30.184C451.099 31.0587 451.301 32.088 451.301 33.272ZM442.277 33.272C442.277 34.232 442.411 35.0587 442.677 35.752C442.944 36.4453 443.355 36.9787 443.909 37.352C444.475 37.7253 445.184 37.912 446.037 37.912C446.901 37.912 447.605 37.7253 448.149 37.352C448.704 36.9787 449.115 36.4453 449.381 35.752C449.648 35.0587 449.781 34.232 449.781 33.272C449.781 31.832 449.483 30.7067 448.885 29.896C448.288 29.0747 447.344 28.664 446.053 28.664C445.189 28.664 444.475 28.8507 443.909 29.224C443.355 29.5867 442.944 30.1147 442.677 30.808C442.411 31.4907 442.277 32.312 442.277 33.272ZM460.217 39H453.833V27.576H460.217V28.84H455.273V32.408H459.929V33.656H455.273V37.736H460.217V39ZM466.99 39V27.576H473.774V28.84H468.43V32.408H470.126C471.267 32.408 472.152 32.552 472.782 32.84C473.411 33.1173 473.848 33.5013 474.094 33.992C474.339 34.472 474.462 35.0267 474.462 35.656C474.462 36.3493 474.323 36.9467 474.046 37.448C473.779 37.9493 473.342 38.3333 472.734 38.6C472.126 38.8667 471.326 39 470.334 39H466.99ZM470.19 37.768C471.214 37.768 471.934 37.5973 472.35 37.256C472.766 36.904 472.974 36.3707 472.974 35.656C472.974 35.1653 472.872 34.776 472.67 34.488C472.478 34.1893 472.158 33.976 471.71 33.848C471.272 33.72 470.686 33.656 469.95 33.656H468.43V37.768H470.19ZM491.121 33.272C491.121 34.1573 491.015 34.9627 490.801 35.688C490.588 36.4133 490.268 37.0373 489.841 37.56C489.415 38.072 488.887 38.4667 488.257 38.744C487.639 39.0213 486.913 39.16 486.081 39.16C484.993 39.16 484.076 38.936 483.329 38.488C482.593 38.04 482.028 37.4053 481.633 36.584C481.239 35.7627 481.02 34.792 480.977 33.672H478.273V39H476.833V27.576H478.273V32.408H481.009C481.084 31.3947 481.319 30.5147 481.713 29.768C482.108 29.0107 482.668 28.4293 483.393 28.024C484.119 27.608 485.004 27.4 486.049 27.4C487.148 27.4 488.071 27.6453 488.817 28.136C489.575 28.616 490.145 29.2987 490.529 30.184C490.924 31.0587 491.121 32.088 491.121 33.272ZM482.481 33.272C482.481 34.232 482.604 35.0587 482.849 35.752C483.105 36.4453 483.495 36.9787 484.017 37.352C484.551 37.7253 485.223 37.912 486.033 37.912C486.865 37.912 487.543 37.7253 488.065 37.352C488.599 36.9787 488.988 36.4453 489.233 35.752C489.489 35.0587 489.617 34.232 489.617 33.272C489.617 32.312 489.495 31.4907 489.249 30.808C489.004 30.1147 488.62 29.5867 488.097 29.224C487.575 28.8507 486.897 28.664 486.065 28.664C485.244 28.664 484.567 28.8507 484.033 29.224C483.5 29.5867 483.105 30.1147 482.849 30.808C482.604 31.4907 482.481 32.312 482.481 33.272ZM501.045 27.576V37.72H502.501V42.008H501.125V39H493.269V42.008H491.893V37.72H492.773C493.157 37.0587 493.52 36.3173 493.861 35.496C494.213 34.6747 494.522 33.816 494.789 32.92C495.056 32.0133 495.274 31.1067 495.445 30.2C495.616 29.2933 495.722 28.4187 495.765 27.576H501.045ZM497.029 28.872C496.986 29.4907 496.88 30.1893 496.709 30.968C496.549 31.7467 496.341 32.5467 496.085 33.368C495.84 34.1787 495.562 34.9627 495.253 35.72C494.954 36.4773 494.634 37.144 494.293 37.72H499.621V28.872H497.029ZM507.467 33.128L503.035 27.576H504.635L509.003 33.112V27.576H510.379V33.112L514.747 27.576H516.347L511.915 33.112L516.491 39H514.843L510.379 33.208V39H509.003V33.208L504.523 39H502.875L507.467 33.128ZM524.452 39H518.068V27.576H524.452V28.84H519.508V32.408H524.164V33.656H519.508V37.736H524.452V39ZM530.574 39H529.134V28.84H525.566V27.576H534.126V28.84H530.574V39ZM544.585 39H543.145V33.672H537.289V39H535.849V27.576H537.289V32.408H543.145V27.576H544.585V39ZM557.676 33.272C557.676 34.1573 557.564 34.9627 557.34 35.688C557.116 36.4027 556.78 37.0213 556.332 37.544C555.895 38.0667 555.346 38.4667 554.684 38.744C554.034 39.0213 553.276 39.16 552.412 39.16C551.516 39.16 550.738 39.0213 550.076 38.744C549.415 38.456 548.866 38.056 548.428 37.544C547.991 37.0213 547.666 36.3973 547.452 35.672C547.239 34.9467 547.132 34.1413 547.132 33.256C547.132 32.0827 547.324 31.0587 547.708 30.184C548.092 29.3093 548.674 28.6267 549.452 28.136C550.242 27.6453 551.234 27.4 552.428 27.4C553.57 27.4 554.53 27.6453 555.308 28.136C556.087 28.616 556.674 29.2987 557.068 30.184C557.474 31.0587 557.676 32.088 557.676 33.272ZM548.652 33.272C548.652 34.232 548.786 35.0587 549.052 35.752C549.319 36.4453 549.73 36.9787 550.284 37.352C550.85 37.7253 551.559 37.912 552.412 37.912C553.276 37.912 553.98 37.7253 554.524 37.352C555.079 36.9787 555.49 36.4453 555.756 35.752C556.023 35.0587 556.156 34.232 556.156 33.272C556.156 31.832 555.858 30.7067 555.26 29.896C554.663 29.0747 553.719 28.664 552.428 28.664C551.564 28.664 550.85 28.8507 550.284 29.224C549.73 29.5867 549.319 30.1147 549.052 30.808C548.786 31.4907 548.652 32.312 548.652 33.272ZM566.592 39H560.208V27.576H566.592V28.84H561.648V32.408H566.304V33.656H561.648V37.736H566.592V39ZM578.149 35.752C577.807 36.5093 577.461 37.144 577.109 37.656C576.767 38.1573 576.362 38.536 575.893 38.792C575.423 39.0373 574.826 39.16 574.101 39.16C573.802 39.16 573.519 39.1387 573.253 39.096C572.997 39.0533 572.762 38.9947 572.549 38.92V37.496C572.762 37.592 572.991 37.672 573.237 37.736C573.482 37.7893 573.738 37.816 574.005 37.816C574.399 37.816 574.735 37.7627 575.013 37.656C575.301 37.5387 575.551 37.352 575.765 37.096C575.989 36.84 576.197 36.4987 576.389 36.072L571.989 27.576H573.573L576.757 33.864C576.799 33.9387 576.842 34.0293 576.885 34.136C576.927 34.232 576.97 34.3333 577.013 34.44C577.066 34.5467 577.109 34.648 577.141 34.744H577.205C577.237 34.6693 577.269 34.584 577.301 34.488C577.343 34.3813 577.381 34.28 577.413 34.184C577.455 34.0773 577.493 33.9867 577.525 33.912L580.277 27.576H581.797L578.149 35.752ZM591.413 39H589.973V34.312C589.354 34.5253 588.773 34.7013 588.229 34.84C587.696 34.968 587.098 35.032 586.437 35.032C585.37 35.032 584.544 34.7867 583.957 34.296C583.37 33.7947 583.077 33.0747 583.077 32.136V27.576H584.517V31.928C584.517 32.5467 584.677 33.0107 584.997 33.32C585.328 33.6187 585.856 33.768 586.581 33.768C587.21 33.768 587.776 33.7093 588.277 33.592C588.778 33.4747 589.344 33.3147 589.973 33.112V27.576H591.413V39ZM597.545 27.576C599.038 27.576 600.126 27.8693 600.809 28.456C601.491 29.0427 601.833 29.8693 601.833 30.936C601.833 31.4053 601.753 31.8587 601.593 32.296C601.443 32.7227 601.193 33.1067 600.841 33.448C600.489 33.7893 600.019 34.0613 599.433 34.264C598.846 34.456 598.126 34.552 597.273 34.552H595.961V39H594.521V27.576H597.545ZM597.417 28.808H595.961V33.32H597.113C597.838 33.32 598.441 33.2453 598.921 33.096C599.401 32.936 599.758 32.6853 599.993 32.344C600.227 32.0027 600.345 31.5547 600.345 31C600.345 30.264 600.11 29.7147 599.641 29.352C599.171 28.9893 598.43 28.808 597.417 28.808ZM610.592 39H604.208V27.576H610.592V28.84H605.648V32.408H610.304V33.656H605.648V37.736H610.592V39ZM616.155 33.128L611.723 27.576H613.323L617.691 33.112V27.576H619.067V33.112L623.435 27.576H625.035L620.603 33.112L625.179 39H623.531L619.067 33.208V39H617.691V33.208L613.211 39H611.563L616.155 33.128ZM634.451 27.576V37.72H635.907V42.008H634.531V39H626.675V42.008H625.299V37.72H626.179C626.563 37.0587 626.926 36.3173 627.267 35.496C627.619 34.6747 627.928 33.816 628.195 32.92C628.462 32.0133 628.68 31.1067 628.851 30.2C629.022 29.2933 629.128 28.4187 629.171 27.576H634.451ZM630.435 28.872C630.392 29.4907 630.286 30.1893 630.115 30.968C629.955 31.7467 629.747 32.5467 629.491 33.368C629.246 34.1787 628.968 34.9627 628.659 35.72C628.36 36.4773 628.04 37.144 627.699 37.72H633.027V28.872H630.435ZM644.202 39H637.818V27.576H644.202V28.84H639.258V32.408H643.914V33.656H639.258V37.736H644.202V39ZM655.444 39H654.004V33.672H648.148V39H646.708V27.576H648.148V32.408H654.004V27.576H655.444V39ZM658.584 27.576H659.928V33.848C659.928 34.1147 659.922 34.408 659.912 34.728C659.912 35.0373 659.906 35.3467 659.896 35.656C659.885 35.9653 659.869 36.2427 659.848 36.488C659.837 36.7227 659.826 36.904 659.816 37.032H659.88L666.168 27.576H667.768V39H666.424V32.792C666.424 32.504 666.429 32.1947 666.44 31.864C666.45 31.5227 666.461 31.1973 666.472 30.888C666.493 30.568 666.509 30.2853 666.52 30.04C666.53 29.7947 666.541 29.6133 666.552 29.496H666.488L660.184 39H658.584V27.576ZM677.233 39H670.849V27.576H677.233V28.84H672.289V32.408H676.945V33.656H672.289V37.736H677.233V39ZM692.741 39H691.301V33.672H685.445V39H684.005V27.576H685.445V32.408H691.301V27.576H692.741V39ZM703.033 39L701.657 35.464H697.129L695.769 39H694.312L698.777 27.528H700.073L704.521 39H703.033ZM699.945 30.728C699.913 30.6427 699.859 30.488 699.785 30.264C699.71 30.04 699.635 29.8107 699.561 29.576C699.497 29.3307 699.443 29.144 699.401 29.016C699.347 29.2293 699.289 29.448 699.225 29.672C699.171 29.8853 699.113 30.0827 699.049 30.264C698.995 30.4453 698.947 30.6 698.905 30.728L697.609 34.184H701.225L699.945 30.728ZM710.867 35.752C710.526 36.5093 710.179 37.144 709.827 37.656C709.486 38.1573 709.081 38.536 708.611 38.792C708.142 39.0373 707.545 39.16 706.819 39.16C706.521 39.16 706.238 39.1387 705.971 39.096C705.715 39.0533 705.481 38.9947 705.267 38.92V37.496C705.481 37.592 705.71 37.672 705.955 37.736C706.201 37.7893 706.457 37.816 706.723 37.816C707.118 37.816 707.454 37.7627 707.731 37.656C708.019 37.5387 708.27 37.352 708.483 37.096C708.707 36.84 708.915 36.4987 709.107 36.072L704.707 27.576H706.291L709.475 33.864C709.518 33.9387 709.561 34.0293 709.603 34.136C709.646 34.232 709.689 34.3333 709.731 34.44C709.785 34.5467 709.827 34.648 709.859 34.744H709.923C709.955 34.6693 709.987 34.584 710.019 34.488C710.062 34.3813 710.099 34.28 710.131 34.184C710.174 34.0773 710.211 33.9867 710.243 33.912L712.995 27.576H714.515L710.867 35.752ZM724.404 39H722.676L717.508 33.208V39H716.068V27.576H717.508V33.112L722.548 27.576H724.18L719.22 33.128L724.404 39ZM725.974 27.576H727.318V33.848C727.318 34.1147 727.313 34.408 727.302 34.728C727.302 35.0373 727.297 35.3467 727.286 35.656C727.276 35.9653 727.26 36.2427 727.238 36.488C727.228 36.7227 727.217 36.904 727.206 37.032H727.27L733.558 27.576H735.158V39H733.814V32.792C733.814 32.504 733.82 32.1947 733.83 31.864C733.841 31.5227 733.852 31.1973 733.862 30.888C733.884 30.568 733.9 30.2853 733.91 30.04C733.921 29.7947 733.932 29.6133 733.942 29.496H733.878L727.574 39H725.974V27.576Z" fill="white"/>
<path d="M198.952 47.624V49.736C200.824 49.784 202.312 50.112 203.416 50.72C204.536 51.312 205.336 52.08 205.816 53.024C206.312 53.968 206.56 55 206.56 56.12C206.56 56.84 206.432 57.576 206.176 58.328C205.936 59.08 205.52 59.776 204.928 60.416C204.352 61.04 203.576 61.552 202.6 61.952C201.624 62.352 200.408 62.568 198.952 62.6V65.24H195.688V62.6C194.216 62.568 192.984 62.352 191.992 61.952C191.016 61.552 190.24 61.032 189.664 60.392C189.088 59.752 188.68 59.064 188.44 58.328C188.2 57.576 188.08 56.84 188.08 56.12C188.08 55.288 188.216 54.496 188.488 53.744C188.76 52.992 189.192 52.32 189.784 51.728C190.376 51.136 191.16 50.664 192.136 50.312C193.112 49.96 194.296 49.768 195.688 49.736V47.624H198.952ZM195.688 52.568C194.648 52.616 193.816 52.8 193.192 53.12C192.584 53.424 192.144 53.832 191.872 54.344C191.616 54.856 191.488 55.44 191.488 56.096C191.488 56.816 191.632 57.448 191.92 57.992C192.224 58.52 192.68 58.944 193.288 59.264C193.912 59.568 194.712 59.744 195.688 59.792V52.568ZM198.952 59.792C199.928 59.744 200.72 59.568 201.328 59.264C201.952 58.944 202.408 58.52 202.696 57.992C203 57.448 203.152 56.816 203.152 56.096C203.152 55.44 203.016 54.856 202.744 54.344C202.488 53.832 202.048 53.424 201.424 53.12C200.816 52.8 199.992 52.616 198.952 52.568V59.792ZM219.672 65H209.808V47.864H219.672V50.84H213.432V54.608H219.24V57.584H213.432V62H219.672V65ZM236.654 47.864V61.976H238.934V69.992H235.43V65H224.702V69.992H221.198V61.976H222.518C222.966 61.08 223.398 60.136 223.814 59.144C224.23 58.152 224.614 57.088 224.966 55.952C225.334 54.816 225.662 53.584 225.95 52.256C226.238 50.912 226.478 49.448 226.67 47.864H236.654ZM229.55 50.888C229.438 51.72 229.278 52.608 229.07 53.552C228.862 54.48 228.614 55.432 228.326 56.408C228.054 57.384 227.75 58.344 227.414 59.288C227.078 60.232 226.718 61.128 226.334 61.976H233.03V50.888H229.55ZM251.43 65H241.566V47.864H251.43V50.84H245.19V54.608H250.998V57.584H245.19V62H251.43V65ZM260.468 47.864C262.676 47.864 264.284 48.344 265.292 49.304C266.316 50.248 266.828 51.552 266.828 53.216C266.828 53.968 266.716 54.688 266.492 55.376C266.268 56.048 265.892 56.656 265.364 57.2C264.852 57.728 264.172 58.144 263.324 58.448C262.476 58.752 261.428 58.904 260.18 58.904H258.62V65H254.996V47.864H260.468ZM260.276 50.84H258.62V55.928H259.82C260.508 55.928 261.1 55.84 261.596 55.664C262.092 55.488 262.476 55.208 262.748 54.824C263.02 54.44 263.156 53.944 263.156 53.336C263.156 52.488 262.924 51.864 262.46 51.464C261.996 51.048 261.268 50.84 260.276 50.84ZM279.359 65L278.111 60.92H271.871L270.623 65H266.711L272.759 47.792H277.199L283.271 65H279.359ZM275.999 53.888C275.919 53.616 275.815 53.272 275.687 52.856C275.559 52.44 275.431 52.016 275.303 51.584C275.175 51.152 275.071 50.776 274.991 50.456C274.911 50.776 274.799 51.176 274.655 51.656C274.527 52.12 274.399 52.568 274.271 53C274.159 53.416 274.071 53.712 274.007 53.888L272.783 57.872H277.247L275.999 53.888ZM299.001 65H295.377V50.888H291.177C291.081 51.624 290.977 52.424 290.865 53.288C290.769 54.152 290.657 55.032 290.529 55.928C290.417 56.808 290.297 57.648 290.169 58.448C290.041 59.232 289.913 59.928 289.785 60.536C289.577 61.528 289.297 62.376 288.945 63.08C288.609 63.784 288.137 64.32 287.529 64.688C286.937 65.056 286.161 65.24 285.201 65.24C284.881 65.24 284.577 65.216 284.289 65.168C284.001 65.12 283.729 65.056 283.473 64.976V62C283.681 62.064 283.881 62.12 284.073 62.168C284.281 62.216 284.505 62.24 284.745 62.24C285.065 62.24 285.329 62.136 285.537 61.928C285.745 61.72 285.929 61.368 286.089 60.872C286.249 60.36 286.409 59.656 286.569 58.76C286.649 58.376 286.745 57.832 286.857 57.128C286.969 56.408 287.097 55.568 287.241 54.608C287.401 53.632 287.561 52.576 287.721 51.44C287.881 50.288 288.033 49.096 288.177 47.864H299.001V65ZM303.324 65V47.864H306.948V54.44H308.388C310.004 54.44 311.324 54.664 312.348 55.112C313.388 55.56 314.156 56.176 314.652 56.96C315.148 57.744 315.396 58.64 315.396 59.648C315.396 60.768 315.148 61.728 314.652 62.528C314.156 63.328 313.388 63.944 312.348 64.376C311.308 64.792 309.964 65 308.316 65H303.324ZM308.172 62.024C309.276 62.024 310.14 61.848 310.764 61.496C311.404 61.144 311.724 60.528 311.724 59.648C311.724 59.04 311.564 58.576 311.244 58.256C310.94 57.936 310.5 57.72 309.924 57.608C309.364 57.48 308.684 57.416 307.884 57.416H306.948V62.024H308.172ZM332.669 65H329.045V57.608H322.253V65H318.629V47.864H322.253V54.584H329.045V47.864H332.669V65ZM336.98 65V47.864H340.604V54.44H341.78C343.364 54.44 344.668 54.664 345.692 55.112C346.716 55.56 347.468 56.176 347.948 56.96C348.444 57.744 348.692 58.64 348.692 59.648C348.692 60.768 348.444 61.728 347.948 62.528C347.452 63.328 346.684 63.944 345.644 64.376C344.62 64.792 343.292 65 341.66 65H336.98ZM341.564 62.024C342.636 62.024 343.476 61.848 344.084 61.496C344.708 61.144 345.02 60.528 345.02 59.648C345.02 59.04 344.876 58.576 344.588 58.256C344.316 57.936 343.908 57.72 343.364 57.608C342.82 57.48 342.164 57.416 341.396 57.416H340.604V62.024H341.564ZM350.78 65V47.864H354.404V65H350.78ZM372.53 42.224C372.45 43.056 372.218 43.792 371.834 44.432C371.45 45.056 370.85 45.544 370.034 45.896C369.218 46.248 368.122 46.424 366.746 46.424C365.338 46.424 364.234 46.256 363.434 45.92C362.65 45.568 362.09 45.08 361.754 44.456C361.418 43.832 361.218 43.088 361.154 42.224H364.346C364.426 43.104 364.65 43.688 365.018 43.976C365.386 44.264 365.986 44.408 366.818 44.408C367.506 44.408 368.066 44.256 368.498 43.952C368.946 43.632 369.21 43.056 369.29 42.224H372.53ZM358.73 47.864H361.994V56.144C361.994 56.544 361.986 56.992 361.97 57.488C361.954 57.984 361.938 58.472 361.922 58.952C361.906 59.416 361.89 59.824 361.874 60.176C361.858 60.512 361.842 60.744 361.826 60.872H361.898L369.818 47.864H374.162V65H370.922V56.768C370.922 56.336 370.93 55.864 370.946 55.352C370.962 54.824 370.978 54.32 370.994 53.84C371.026 53.36 371.05 52.944 371.066 52.592C371.098 52.224 371.122 51.984 371.138 51.872H371.042L363.098 65H358.73V47.864ZM382.566 47.864H385.83V56.144C385.83 56.544 385.822 56.992 385.806 57.488C385.79 57.984 385.774 58.472 385.758 58.952C385.742 59.416 385.726 59.824 385.71 60.176C385.694 60.512 385.678 60.744 385.662 60.872H385.734L393.654 47.864H397.998V65H394.758V56.768C394.758 56.336 394.766 55.864 394.782 55.352C394.798 54.824 394.814 54.32 394.83 53.84C394.862 53.36 394.886 52.944 394.902 52.592C394.934 52.224 394.958 51.984 394.974 51.872H394.878L386.934 65H382.566V47.864ZM409.596 50.648C408.908 50.648 408.292 50.784 407.748 51.056C407.22 51.328 406.772 51.72 406.404 52.232C406.036 52.728 405.756 53.336 405.564 54.056C405.388 54.776 405.3 55.584 405.3 56.48C405.3 57.696 405.444 58.736 405.732 59.6C406.036 60.448 406.508 61.096 407.148 61.544C407.788 61.992 408.604 62.216 409.596 62.216C410.3 62.216 410.996 62.136 411.684 61.976C412.388 61.816 413.148 61.592 413.964 61.304V64.352C413.212 64.656 412.468 64.88 411.732 65.024C410.996 65.168 410.172 65.24 409.26 65.24C407.5 65.24 406.044 64.88 404.892 64.16C403.756 63.424 402.916 62.4 402.372 61.088C401.828 59.76 401.556 58.216 401.556 56.456C401.556 55.16 401.732 53.976 402.084 52.904C402.436 51.816 402.948 50.88 403.62 50.096C404.308 49.312 405.148 48.704 406.14 48.272C407.148 47.84 408.3 47.624 409.596 47.624C410.444 47.624 411.292 47.736 412.14 47.96C413.004 48.168 413.828 48.456 414.612 48.824L413.436 51.776C412.796 51.472 412.148 51.208 411.492 50.984C410.852 50.76 410.22 50.648 409.596 50.648ZM424.409 50.648C423.721 50.648 423.105 50.784 422.561 51.056C422.033 51.328 421.585 51.72 421.217 52.232C420.849 52.728 420.569 53.336 420.377 54.056C420.201 54.776 420.113 55.584 420.113 56.48C420.113 57.696 420.257 58.736 420.545 59.6C420.849 60.448 421.321 61.096 421.961 61.544C422.601 61.992 423.417 62.216 424.409 62.216C425.113 62.216 425.809 62.136 426.497 61.976C427.201 61.816 427.961 61.592 428.777 61.304V64.352C428.025 64.656 427.281 64.88 426.545 65.024C425.809 65.168 424.985 65.24 424.073 65.24C422.313 65.24 420.857 64.88 419.705 64.16C418.569 63.424 417.729 62.4 417.185 61.088C416.641 59.76 416.369 58.216 416.369 56.456C416.369 55.16 416.545 53.976 416.897 52.904C417.249 51.816 417.761 50.88 418.433 50.096C419.121 49.312 419.961 48.704 420.953 48.272C421.961 47.84 423.113 47.624 424.409 47.624C425.257 47.624 426.105 47.736 426.953 47.96C427.817 48.168 428.641 48.456 429.425 48.824L428.249 51.776C427.609 51.472 426.961 51.208 426.305 50.984C425.665 50.76 425.033 50.648 424.409 50.648ZM445.978 65H442.354V50.888H438.154C438.058 51.624 437.954 52.424 437.842 53.288C437.746 54.152 437.634 55.032 437.506 55.928C437.394 56.808 437.274 57.648 437.146 58.448C437.018 59.232 436.89 59.928 436.762 60.536C436.554 61.528 436.274 62.376 435.922 63.08C435.586 63.784 435.114 64.32 434.506 64.688C433.914 65.056 433.138 65.24 432.178 65.24C431.858 65.24 431.554 65.216 431.266 65.168C430.978 65.12 430.706 65.056 430.45 64.976V62C430.658 62.064 430.858 62.12 431.05 62.168C431.258 62.216 431.482 62.24 431.722 62.24C432.042 62.24 432.306 62.136 432.514 61.928C432.722 61.72 432.906 61.368 433.066 60.872C433.226 60.36 433.386 59.656 433.546 58.76C433.626 58.376 433.722 57.832 433.834 57.128C433.946 56.408 434.074 55.568 434.218 54.608C434.378 53.632 434.538 52.576 434.698 51.44C434.858 50.288 435.01 49.096 435.154 47.864H445.978V65ZM460.165 65H450.301V47.864H460.165V50.84H453.925V54.608H459.733V57.584H453.925V62H460.165V65ZM477.146 47.864V61.976H479.426V69.992H475.922V65H465.194V69.992H461.69V61.976H463.01C463.458 61.08 463.89 60.136 464.306 59.144C464.722 58.152 465.106 57.088 465.458 55.952C465.826 54.816 466.154 53.584 466.442 52.256C466.73 50.912 466.97 49.448 467.162 47.864H477.146ZM470.042 50.888C469.93 51.72 469.77 52.608 469.562 53.552C469.354 54.48 469.106 55.432 468.818 56.408C468.546 57.384 468.242 58.344 467.906 59.288C467.57 60.232 467.21 61.128 466.826 61.976H473.522V50.888H470.042ZM497.61 56.408C497.61 57.736 497.442 58.944 497.106 60.032C496.786 61.104 496.29 62.032 495.618 62.816C494.962 63.6 494.114 64.2 493.074 64.616C492.05 65.032 490.842 65.24 489.45 65.24C488.058 65.24 486.842 65.032 485.802 64.616C484.778 64.184 483.93 63.584 483.258 62.816C482.602 62.032 482.106 61.096 481.77 60.008C481.45 58.92 481.29 57.712 481.29 56.384C481.29 54.608 481.578 53.064 482.154 51.752C482.746 50.44 483.642 49.424 484.842 48.704C486.058 47.968 487.602 47.6 489.474 47.6C491.33 47.6 492.858 47.968 494.058 48.704C495.258 49.424 496.146 50.448 496.722 51.776C497.314 53.088 497.61 54.632 497.61 56.408ZM485.106 56.408C485.106 57.608 485.258 58.64 485.562 59.504C485.866 60.368 486.338 61.032 486.978 61.496C487.618 61.96 488.442 62.192 489.45 62.192C490.49 62.192 491.322 61.96 491.946 61.496C492.586 61.032 493.05 60.368 493.338 59.504C493.642 58.64 493.794 57.608 493.794 56.408C493.794 54.6 493.458 53.184 492.786 52.16C492.114 51.136 491.01 50.624 489.474 50.624C488.45 50.624 487.618 50.856 486.978 51.32C486.338 51.784 485.866 52.448 485.562 53.312C485.258 54.176 485.106 55.208 485.106 56.408ZM506.488 47.864C508.008 47.864 509.28 48.008 510.304 48.296C511.344 48.568 512.12 49.024 512.632 49.664C513.16 50.288 513.424 51.136 513.424 52.208C513.424 52.848 513.32 53.432 513.112 53.96C512.904 54.488 512.6 54.92 512.2 55.256C511.816 55.592 511.344 55.808 510.784 55.904V56.024C511.36 56.136 511.88 56.336 512.344 56.624C512.808 56.912 513.176 57.328 513.448 57.872C513.72 58.416 513.856 59.136 513.856 60.032C513.856 61.072 513.6 61.968 513.088 62.72C512.592 63.456 511.872 64.024 510.928 64.424C509.984 64.808 508.864 65 507.568 65H501.16V47.864H506.488ZM506.896 54.656C507.952 54.656 508.68 54.488 509.08 54.152C509.496 53.816 509.704 53.328 509.704 52.688C509.704 52.032 509.464 51.56 508.984 51.272C508.504 50.984 507.744 50.84 506.704 50.84H504.784V54.656H506.896ZM504.784 57.536V62H507.16C508.248 62 509.008 61.792 509.44 61.376C509.872 60.944 510.088 60.376 510.088 59.672C510.088 59.24 509.992 58.864 509.8 58.544C509.624 58.224 509.312 57.976 508.864 57.8C508.416 57.624 507.808 57.536 507.04 57.536H504.784ZM527.773 65L526.525 60.92H520.285L519.037 65H515.125L521.173 47.792H525.613L531.685 65H527.773ZM524.413 53.888C524.333 53.616 524.229 53.272 524.101 52.856C523.973 52.44 523.845 52.016 523.717 51.584C523.589 51.152 523.485 50.776 523.405 50.456C523.325 50.776 523.213 51.176 523.069 51.656C522.941 52.12 522.813 52.568 522.685 53C522.573 53.416 522.485 53.712 522.421 53.888L521.197 57.872H525.661L524.413 53.888ZM538.768 65H535.144V50.888H530.488V47.864H543.424V50.888H538.768V65ZM555.93 65H546.066V47.864H555.93V50.84H549.69V54.608H555.498V57.584H549.69V62H555.93V65ZM573.056 65H569.432V50.888H565.232C565.136 51.624 565.032 52.424 564.92 53.288C564.824 54.152 564.712 55.032 564.584 55.928C564.472 56.808 564.352 57.648 564.224 58.448C564.096 59.232 563.968 59.928 563.84 60.536C563.632 61.528 563.352 62.376 563 63.08C562.664 63.784 562.192 64.32 561.584 64.688C560.992 65.056 560.216 65.24 559.256 65.24C558.936 65.24 558.632 65.216 558.344 65.168C558.056 65.12 557.784 65.056 557.528 64.976V62C557.736 62.064 557.936 62.12 558.128 62.168C558.336 62.216 558.56 62.24 558.8 62.24C559.12 62.24 559.384 62.136 559.592 61.928C559.8 61.72 559.984 61.368 560.144 60.872C560.304 60.36 560.464 59.656 560.624 58.76C560.704 58.376 560.8 57.832 560.912 57.128C561.024 56.408 561.152 55.568 561.296 54.608C561.456 53.632 561.616 52.576 561.776 51.44C561.936 50.288 562.088 49.096 562.232 47.864H573.056V65ZM577.379 65V47.864H581.003V54.44H582.443C584.059 54.44 585.379 54.664 586.403 55.112C587.443 55.56 588.211 56.176 588.707 56.96C589.203 57.744 589.451 58.64 589.451 59.648C589.451 60.768 589.203 61.728 588.707 62.528C588.211 63.328 587.443 63.944 586.403 64.376C585.363 64.792 584.019 65 582.371 65H577.379ZM582.227 62.024C583.331 62.024 584.195 61.848 584.819 61.496C585.459 61.144 585.779 60.528 585.779 59.648C585.779 59.04 585.619 58.576 585.299 58.256C584.995 57.936 584.555 57.72 583.979 57.608C583.419 57.48 582.739 57.416 581.939 57.416H581.003V62.024H582.227ZM599.955 50.648C599.267 50.648 598.651 50.784 598.107 51.056C597.579 51.328 597.131 51.72 596.763 52.232C596.395 52.728 596.115 53.336 595.923 54.056C595.747 54.776 595.659 55.584 595.659 56.48C595.659 57.696 595.803 58.736 596.091 59.6C596.395 60.448 596.867 61.096 597.507 61.544C598.147 61.992 598.963 62.216 599.955 62.216C600.659 62.216 601.355 62.136 602.043 61.976C602.747 61.816 603.507 61.592 604.323 61.304V64.352C603.571 64.656 602.827 64.88 602.091 65.024C601.355 65.168 600.531 65.24 599.619 65.24C597.859 65.24 596.403 64.88 595.251 64.16C594.115 63.424 593.275 62.4 592.731 61.088C592.187 59.76 591.915 58.216 591.915 56.456C591.915 55.16 592.091 53.976 592.443 52.904C592.795 51.816 593.307 50.88 593.979 50.096C594.667 49.312 595.507 48.704 596.499 48.272C597.507 47.84 598.659 47.624 599.955 47.624C600.803 47.624 601.651 47.736 602.499 47.96C603.363 48.168 604.187 48.456 604.971 48.824L603.795 51.776C603.155 51.472 602.507 51.208 601.851 50.984C601.211 50.76 600.579 50.648 599.955 50.648ZM621.933 65H617.805L611.589 56.312V65H607.965V47.864H611.589V56.168L617.733 47.864H621.597L615.357 56.096L621.933 65ZM624.09 47.864H627.354V56.144C627.354 56.544 627.346 56.992 627.33 57.488C627.314 57.984 627.298 58.472 627.282 58.952C627.266 59.416 627.25 59.824 627.234 60.176C627.218 60.512 627.202 60.744 627.186 60.872H627.258L635.178 47.864H639.522V65H636.282V56.768C636.282 56.336 636.29 55.864 636.306 55.352C636.322 54.824 636.338 54.32 636.354 53.84C636.386 53.36 636.41 52.944 636.426 52.592C636.458 52.224 636.482 51.984 636.498 51.872H636.402L628.458 65H624.09V47.864ZM657.648 42.224C657.568 43.056 657.336 43.792 656.952 44.432C656.568 45.056 655.968 45.544 655.152 45.896C654.336 46.248 653.24 46.424 651.864 46.424C650.456 46.424 649.352 46.256 648.552 45.92C647.768 45.568 647.208 45.08 646.872 44.456C646.536 43.832 646.336 43.088 646.272 42.224H649.464C649.544 43.104 649.768 43.688 650.136 43.976C650.504 44.264 651.104 44.408 651.936 44.408C652.624 44.408 653.184 44.256 653.616 43.952C654.064 43.632 654.328 43.056 654.408 42.224H657.648ZM643.848 47.864H647.112V56.144C647.112 56.544 647.104 56.992 647.088 57.488C647.072 57.984 647.056 58.472 647.04 58.952C647.024 59.416 647.008 59.824 646.992 60.176C646.976 60.512 646.96 60.744 646.944 60.872H647.016L654.936 47.864H659.28V65H656.04V56.768C656.04 56.336 656.048 55.864 656.064 55.352C656.08 54.824 656.096 54.32 656.112 53.84C656.144 53.36 656.168 52.944 656.184 52.592C656.216 52.224 656.24 51.984 656.256 51.872H656.16L648.216 65H643.848V47.864ZM687.866 62.12V69.992H684.362V65H671.762V47.864H675.386V61.976H681.698V47.864H685.322V62.12H687.866ZM700.376 65H690.512V47.864H700.376V50.84H694.136V54.608H699.944V57.584H694.136V62H700.376V65ZM717.981 65H714.357V57.608H707.565V65H703.941V47.864H707.565V54.584H714.357V47.864H717.981V65ZM728.893 65H725.269V50.888H720.613V47.864H733.549V50.888H728.893V65ZM741.663 47.864C743.871 47.864 745.479 48.344 746.487 49.304C747.511 50.248 748.023 51.552 748.023 53.216C748.023 53.968 747.911 54.688 747.687 55.376C747.463 56.048 747.087 56.656 746.559 57.2C746.047 57.728 745.367 58.144 744.519 58.448C743.671 58.752 742.623 58.904 741.375 58.904H739.815V65H736.191V47.864H741.663ZM741.471 50.84H739.815V55.928H741.015C741.703 55.928 742.295 55.84 742.791 55.664C743.287 55.488 743.671 55.208 743.943 54.824C744.215 54.44 744.351 53.944 744.351 53.336C744.351 52.488 744.119 51.864 743.655 51.464C743.191 51.048 742.463 50.84 741.471 50.84Z" fill="white"/>
<path d="M199.024 117H189.16V99.864H199.024V102.84H192.784V106.608H198.592V109.584H192.784V114H199.024V117ZM216.006 99.864V113.976H218.286V121.992H214.782V117H204.054V121.992H200.55V113.976H201.87C202.318 113.08 202.75 112.136 203.166 111.144C203.582 110.152 203.966 109.088 204.318 107.952C204.686 106.816 205.014 105.584 205.302 104.256C205.59 102.912 205.83 101.448 206.022 99.864H216.006ZM208.902 102.888C208.79 103.72 208.63 104.608 208.422 105.552C208.214 106.48 207.966 107.432 207.678 108.408C207.406 109.384 207.102 110.344 206.766 111.288C206.43 112.232 206.07 113.128 205.686 113.976H212.382V102.888H208.902ZM220.918 99.864H224.182V108.144C224.182 108.544 224.174 108.992 224.158 109.488C224.142 109.984 224.126 110.472 224.11 110.952C224.094 111.416 224.078 111.824 224.062 112.176C224.046 112.512 224.03 112.744 224.014 112.872H224.086L232.006 99.864H236.35V117H233.11V108.768C233.11 108.336 233.118 107.864 233.134 107.352C233.15 106.824 233.166 106.32 233.182 105.84C233.214 105.36 233.238 104.944 233.254 104.592C233.286 104.224 233.31 103.984 233.326 103.872H233.23L225.286 117H220.918V99.864ZM254.716 117H251.092V109.608H244.3V117H240.676V99.864H244.3V106.584H251.092V99.864H254.716V117ZM269.515 117L268.267 112.92H262.027L260.779 117H256.867L262.915 99.792H267.355L273.427 117H269.515ZM266.155 105.888C266.075 105.616 265.971 105.272 265.843 104.856C265.715 104.44 265.587 104.016 265.459 103.584C265.331 103.152 265.227 102.776 265.147 102.456C265.067 102.776 264.955 103.176 264.811 103.656C264.683 104.12 264.555 104.568 264.427 105C264.315 105.416 264.227 105.712 264.163 105.888L262.939 109.872H267.403L266.155 105.888ZM281.358 110.424L277.35 117H273.317L278.19 109.464C277.726 109.272 277.262 108.992 276.798 108.624C276.334 108.24 275.95 107.736 275.646 107.112C275.342 106.472 275.19 105.688 275.19 104.76C275.19 103.176 275.758 101.968 276.894 101.136C278.03 100.288 279.622 99.864 281.67 99.864H287.238V117H283.614V110.424H281.358ZM281.814 102.84C281.19 102.84 280.654 102.912 280.206 103.056C279.774 103.2 279.438 103.432 279.198 103.752C278.974 104.072 278.862 104.496 278.862 105.024C278.862 105.776 279.11 106.376 279.605 106.824C280.118 107.256 280.886 107.472 281.91 107.472H283.614V102.84H281.814ZM306.461 99.864V102.864H299.261V117H295.637V99.864H306.461ZM318.954 117H309.09V99.864H318.954V102.84H312.714V106.608H318.522V109.584H312.714V114H318.954V117ZM338.071 108.408C338.071 109.736 337.903 110.944 337.567 112.032C337.247 113.104 336.751 114.032 336.079 114.816C335.423 115.6 334.575 116.2 333.535 116.616C332.511 117.032 331.303 117.24 329.911 117.24C328.519 117.24 327.303 117.032 326.263 116.616C325.239 116.184 324.391 115.584 323.719 114.816C323.063 114.032 322.567 113.096 322.231 112.008C321.911 110.92 321.751 109.712 321.751 108.384C321.751 106.608 322.039 105.064 322.615 103.752C323.207 102.44 324.103 101.424 325.303 100.704C326.519 99.968 328.063 99.6 329.935 99.6C331.791 99.6 333.319 99.968 334.519 100.704C335.719 101.424 336.607 102.448 337.183 103.776C337.775 105.088 338.071 106.632 338.071 108.408ZM325.567 108.408C325.567 109.608 325.719 110.64 326.023 111.504C326.327 112.368 326.799 113.032 327.439 113.496C328.079 113.96 328.903 114.192 329.911 114.192C330.951 114.192 331.783 113.96 332.407 113.496C333.047 113.032 333.511 112.368 333.799 111.504C334.103 110.64 334.255 109.608 334.255 108.408C334.255 106.6 333.919 105.184 333.247 104.16C332.575 103.136 331.471 102.624 329.935 102.624C328.911 102.624 328.079 102.856 327.439 103.32C326.799 103.784 326.327 104.448 326.023 105.312C325.719 106.176 325.567 107.208 325.567 108.408ZM351.413 99.624V101.736C353.285 101.784 354.773 102.112 355.877 102.72C356.997 103.312 357.797 104.08 358.277 105.024C358.773 105.968 359.021 107 359.021 108.12C359.021 108.84 358.893 109.576 358.637 110.328C358.397 111.08 357.981 111.776 357.389 112.416C356.813 113.04 356.037 113.552 355.061 113.952C354.085 114.352 352.869 114.568 351.413 114.6V117.24H348.149V114.6C346.677 114.568 345.445 114.352 344.453 113.952C343.477 113.552 342.701 113.032 342.125 112.392C341.549 111.752 341.141 111.064 340.901 110.328C340.661 109.576 340.541 108.84 340.541 108.12C340.541 107.288 340.677 106.496 340.949 105.744C341.221 104.992 341.653 104.32 342.245 103.728C342.837 103.136 343.621 102.664 344.597 102.312C345.573 101.96 346.757 101.768 348.149 101.736V99.624H351.413ZM348.149 104.568C347.109 104.616 346.277 104.8 345.653 105.12C345.045 105.424 344.605 105.832 344.333 106.344C344.077 106.856 343.949 107.44 343.949 108.096C343.949 108.816 344.093 109.448 344.381 109.992C344.685 110.52 345.141 110.944 345.749 111.264C346.373 111.568 347.173 111.744 348.149 111.792V104.568ZM351.413 111.792C352.389 111.744 353.181 111.568 353.789 111.264C354.413 110.944 354.869 110.52 355.157 109.992C355.461 109.448 355.613 108.816 355.613 108.096C355.613 107.44 355.477 106.856 355.205 106.344C354.949 105.832 354.509 105.424 353.885 105.12C353.277 104.8 352.453 104.616 351.413 104.568V111.792ZM362.269 99.864H365.533V108.144C365.533 108.544 365.525 108.992 365.509 109.488C365.493 109.984 365.477 110.472 365.461 110.952C365.445 111.416 365.429 111.824 365.413 112.176C365.397 112.512 365.381 112.744 365.365 112.872H365.437L373.357 99.864H377.701V117H374.461V108.768C374.461 108.336 374.469 107.864 374.485 107.352C374.501 106.824 374.517 106.32 374.533 105.84C374.565 105.36 374.589 104.944 374.605 104.592C374.637 104.224 374.661 103.984 374.677 103.872H374.581L366.637 117H362.269V99.864ZM393.859 103.872C393.859 105.024 393.451 105.952 392.635 106.656C391.819 107.36 390.779 107.8 389.515 107.976V108.048C391.083 108.208 392.283 108.648 393.115 109.368C393.963 110.072 394.387 110.992 394.387 112.128C394.387 113.12 394.115 114.008 393.571 114.792C393.027 115.56 392.219 116.16 391.147 116.592C390.075 117.024 388.747 117.24 387.163 117.24C385.867 117.24 384.715 117.16 383.707 117C382.715 116.84 381.851 116.608 381.115 116.304V113.256C381.611 113.496 382.171 113.704 382.795 113.88C383.419 114.04 384.051 114.168 384.691 114.264C385.331 114.344 385.923 114.384 386.467 114.384C387.987 114.384 389.083 114.168 389.755 113.736C390.443 113.288 390.787 112.664 390.787 111.864C390.787 111.048 390.291 110.456 389.299 110.088C388.307 109.704 386.971 109.512 385.291 109.512H383.683V106.68H385.123C386.483 106.68 387.539 106.592 388.291 106.416C389.043 106.24 389.571 105.984 389.875 105.648C390.179 105.312 390.331 104.912 390.331 104.448C390.331 103.856 390.067 103.392 389.539 103.056C389.027 102.704 388.251 102.528 387.211 102.528C386.331 102.528 385.499 102.656 384.715 102.912C383.947 103.168 383.227 103.504 382.555 103.92L380.971 101.496C381.563 101.112 382.187 100.784 382.843 100.512C383.515 100.224 384.251 100.008 385.051 99.864C385.851 99.704 386.739 99.624 387.715 99.624C389.011 99.624 390.115 99.808 391.027 100.176C391.939 100.544 392.635 101.048 393.115 101.688C393.611 102.312 393.859 103.04 393.859 103.872ZM397.59 99.864H400.854V108.144C400.854 108.544 400.846 108.992 400.83 109.488C400.814 109.984 400.798 110.472 400.782 110.952C400.766 111.416 400.75 111.824 400.734 112.176C400.718 112.512 400.702 112.744 400.686 112.872H400.758L408.678 99.864H413.022V117H409.782V108.768C409.782 108.336 409.79 107.864 409.806 107.352C409.822 106.824 409.838 106.32 409.854 105.84C409.886 105.36 409.91 104.944 409.926 104.592C409.958 104.224 409.982 103.984 409.998 103.872H409.902L401.958 117H397.59V99.864ZM430.5 117H426.876V110.376C425.868 110.728 424.94 110.992 424.092 111.168C423.26 111.344 422.42 111.432 421.572 111.432C419.972 111.432 418.716 111.048 417.804 110.28C416.908 109.496 416.46 108.384 416.46 106.944V99.864H420.084V105.912C420.084 106.744 420.276 107.368 420.66 107.784C421.044 108.2 421.692 108.408 422.604 108.408C423.276 108.408 423.948 108.336 424.62 108.192C425.292 108.048 426.044 107.832 426.876 107.544V99.864H430.5V117ZM444.672 117H434.808V99.864H444.672V102.84H438.432V106.608H444.24V109.584H438.432V114H444.672V117ZM455.51 102.648C454.822 102.648 454.206 102.784 453.662 103.056C453.134 103.328 452.686 103.72 452.318 104.232C451.95 104.728 451.67 105.336 451.478 106.056C451.302 106.776 451.214 107.584 451.214 108.48C451.214 109.696 451.358 110.736 451.646 111.6C451.95 112.448 452.422 113.096 453.062 113.544C453.702 113.992 454.518 114.216 455.51 114.216C456.214 114.216 456.91 114.136 457.598 113.976C458.302 113.816 459.062 113.592 459.878 113.304V116.352C459.126 116.656 458.382 116.88 457.646 117.024C456.91 117.168 456.086 117.24 455.174 117.24C453.414 117.24 451.958 116.88 450.806 116.16C449.67 115.424 448.83 114.4 448.286 113.088C447.742 111.76 447.47 110.216 447.47 108.456C447.47 107.16 447.646 105.976 447.998 104.904C448.35 103.816 448.862 102.88 449.534 102.096C450.222 101.312 451.062 100.704 452.054 100.272C453.062 99.84 454.214 99.624 455.51 99.624C456.358 99.624 457.206 99.736 458.054 99.96C458.918 100.168 459.742 100.456 460.526 100.824L459.35 103.776C458.71 103.472 458.062 103.208 457.406 102.984C456.766 102.76 456.134 102.648 455.51 102.648ZM477.487 117H473.359L467.143 108.312V117H463.519V99.864H467.143V108.168L473.287 99.864H477.151L470.911 108.096L477.487 117ZM490.132 117L488.884 112.92H482.644L481.396 117H477.484L483.532 99.792H487.972L494.044 117H490.132ZM486.772 105.888C486.692 105.616 486.588 105.272 486.46 104.856C486.332 104.44 486.204 104.016 486.076 103.584C485.948 103.152 485.844 102.776 485.764 102.456C485.684 102.776 485.572 103.176 485.428 103.656C485.3 104.12 485.172 104.568 485.044 105C484.932 105.416 484.844 105.712 484.78 105.888L483.556 109.872H488.02L486.772 105.888ZM501.975 110.424L497.967 117H493.935L498.807 109.464C498.343 109.272 497.879 108.992 497.415 108.624C496.951 108.24 496.567 107.736 496.263 107.112C495.959 106.472 495.807 105.688 495.807 104.76C495.807 103.176 496.375 101.968 497.511 101.136C498.647 100.288 500.239 99.864 502.287 99.864H507.855V117H504.231V110.424H501.975ZM502.431 102.84C501.807 102.84 501.271 102.912 500.823 103.056C500.391 103.2 500.055 103.432 499.815 103.752C499.591 104.072 499.479 104.496 499.479 105.024C499.479 105.776 499.727 106.376 500.223 106.824C500.735 107.256 501.503 107.472 502.527 107.472H504.231V102.84H502.431ZM523.526 102.648C522.838 102.648 522.222 102.784 521.678 103.056C521.15 103.328 520.702 103.72 520.334 104.232C519.966 104.728 519.686 105.336 519.494 106.056C519.318 106.776 519.23 107.584 519.23 108.48C519.23 109.696 519.374 110.736 519.662 111.6C519.966 112.448 520.438 113.096 521.078 113.544C521.718 113.992 522.534 114.216 523.526 114.216C524.23 114.216 524.926 114.136 525.614 113.976C526.318 113.816 527.078 113.592 527.894 113.304V116.352C527.142 116.656 526.398 116.88 525.662 117.024C524.926 117.168 524.102 117.24 523.19 117.24C521.43 117.24 519.974 116.88 518.822 116.16C517.686 115.424 516.846 114.4 516.302 113.088C515.758 111.76 515.486 110.216 515.486 108.456C515.486 107.16 515.662 105.976 516.014 104.904C516.366 103.816 516.878 102.88 517.55 102.096C518.238 101.312 519.078 100.704 520.07 100.272C521.078 99.84 522.23 99.624 523.526 99.624C524.374 99.624 525.222 99.736 526.07 99.96C526.934 100.168 527.758 100.456 528.542 100.824L527.366 103.776C526.726 103.472 526.078 103.208 525.422 102.984C524.782 102.76 524.15 102.648 523.526 102.648ZM545.095 117H541.471V102.888H537.271C537.175 103.624 537.071 104.424 536.959 105.288C536.863 106.152 536.751 107.032 536.623 107.928C536.511 108.808 536.391 109.648 536.263 110.448C536.135 111.232 536.007 111.928 535.879 112.536C535.671 113.528 535.391 114.376 535.039 115.08C534.703 115.784 534.231 116.32 533.623 116.688C533.031 117.056 532.255 117.24 531.295 117.24C530.975 117.24 530.671 117.216 530.383 117.168C530.095 117.12 529.823 117.056 529.567 116.976V114C529.775 114.064 529.975 114.12 530.167 114.168C530.375 114.216 530.599 114.24 530.839 114.24C531.159 114.24 531.423 114.136 531.631 113.928C531.839 113.72 532.023 113.368 532.183 112.872C532.343 112.36 532.503 111.656 532.663 110.76C532.743 110.376 532.839 109.832 532.951 109.128C533.063 108.408 533.191 107.568 533.335 106.608C533.495 105.632 533.655 104.576 533.815 103.44C533.975 102.288 534.127 101.096 534.271 99.864H545.095V117ZM557.866 111.984C557.386 113.072 556.874 114.016 556.33 114.816C555.802 115.6 555.122 116.2 554.29 116.616C553.458 117.032 552.37 117.24 551.026 117.24C550.61 117.24 550.154 117.208 549.658 117.144C549.162 117.08 548.706 116.992 548.29 116.88V113.76C548.674 113.92 549.098 114.032 549.562 114.096C550.026 114.16 550.458 114.192 550.858 114.192C551.386 114.192 551.81 114.104 552.13 113.928C552.466 113.752 552.73 113.512 552.922 113.208C553.13 112.888 553.298 112.544 553.426 112.176L547.498 99.864H551.338L554.53 107.28C554.61 107.44 554.706 107.648 554.818 107.904C554.93 108.16 555.042 108.424 555.154 108.696C555.266 108.968 555.354 109.208 555.418 109.416H555.538C555.602 109.224 555.682 108.992 555.778 108.72C555.89 108.432 556.002 108.144 556.114 107.856C556.242 107.552 556.354 107.288 556.45 107.064L559.426 99.864H563.17L557.866 111.984ZM569.268 108.096L563.508 99.864H567.252L572.796 108.168V99.864H576.18V108.168L581.724 99.864H585.468L579.708 108.096L585.804 117H581.916L576.18 108.312V117H572.796V108.312L567.06 117H563.172L569.268 108.096ZM587.973 117V99.864H598.797V102.864H591.597V106.44H593.037C594.653 106.44 595.973 106.664 596.997 107.112C598.037 107.56 598.805 108.176 599.301 108.96C599.797 109.744 600.045 110.64 600.045 111.648C600.045 112.768 599.797 113.728 599.301 114.528C598.805 115.328 598.037 115.944 596.997 116.376C595.957 116.792 594.613 117 592.965 117H587.973ZM592.821 114.024C593.925 114.024 594.789 113.848 595.413 113.496C596.053 113.144 596.373 112.528 596.373 111.648C596.373 111.04 596.213 110.576 595.893 110.256C595.589 109.936 595.149 109.72 594.573 109.608C594.013 109.48 593.333 109.416 592.533 109.416H591.597V114.024H592.821ZM613.765 117L612.517 112.92H606.277L605.029 117H601.117L607.165 99.792H611.605L617.677 117H613.765ZM610.405 105.888C610.325 105.616 610.221 105.272 610.093 104.856C609.965 104.44 609.837 104.016 609.709 103.584C609.581 103.152 609.477 102.776 609.397 102.456C609.317 102.776 609.205 103.176 609.061 103.656C608.933 104.12 608.805 104.568 608.677 105C608.565 105.416 608.477 105.712 608.413 105.888L607.189 109.872H611.653L610.405 105.888ZM629.398 99.864C631.606 99.864 633.214 100.344 634.222 101.304C635.246 102.248 635.758 103.552 635.758 105.216C635.758 105.968 635.646 106.688 635.422 107.376C635.198 108.048 634.822 108.656 634.294 109.2C633.782 109.728 633.102 110.144 632.254 110.448C631.406 110.752 630.358 110.904 629.11 110.904H627.55V117H623.926V99.864H629.398ZM629.206 102.84H627.55V107.928H628.75C629.438 107.928 630.03 107.84 630.526 107.664C631.022 107.488 631.406 107.208 631.678 106.824C631.95 106.44 632.086 105.944 632.086 105.336C632.086 104.488 631.854 103.864 631.39 103.464C630.926 103.048 630.198 102.84 629.206 102.84ZM654.548 108.408C654.548 109.736 654.38 110.944 654.044 112.032C653.724 113.104 653.228 114.032 652.556 114.816C651.9 115.6 651.052 116.2 650.012 116.616C648.988 117.032 647.78 117.24 646.388 117.24C644.996 117.24 643.78 117.032 642.74 116.616C641.716 116.184 640.868 115.584 640.196 114.816C639.54 114.032 639.044 113.096 638.708 112.008C638.388 110.92 638.228 109.712 638.228 108.384C638.228 106.608 638.516 105.064 639.092 103.752C639.684 102.44 640.58 101.424 641.78 100.704C642.996 99.968 644.54 99.6 646.412 99.6C648.268 99.6 649.796 99.968 650.996 100.704C652.196 101.424 653.084 102.448 653.66 103.776C654.252 105.088 654.548 106.632 654.548 108.408ZM642.044 108.408C642.044 109.608 642.196 110.64 642.5 111.504C642.804 112.368 643.276 113.032 643.916 113.496C644.556 113.96 645.38 114.192 646.388 114.192C647.428 114.192 648.26 113.96 648.884 113.496C649.524 113.032 649.988 112.368 650.276 111.504C650.58 110.64 650.732 109.608 650.732 108.408C650.732 106.6 650.396 105.184 649.724 104.16C649.052 103.136 647.948 102.624 646.412 102.624C645.388 102.624 644.556 102.856 643.916 103.32C643.276 103.784 642.804 104.448 642.5 105.312C642.196 106.176 642.044 107.208 642.044 108.408ZM665.37 102.648C664.682 102.648 664.066 102.784 663.522 103.056C662.994 103.328 662.546 103.72 662.178 104.232C661.81 104.728 661.53 105.336 661.338 106.056C661.162 106.776 661.074 107.584 661.074 108.48C661.074 109.696 661.218 110.736 661.506 111.6C661.81 112.448 662.282 113.096 662.922 113.544C663.562 113.992 664.378 114.216 665.37 114.216C666.074 114.216 666.77 114.136 667.458 113.976C668.162 113.816 668.922 113.592 669.738 113.304V116.352C668.986 116.656 668.242 116.88 667.506 117.024C666.77 117.168 665.946 117.24 665.034 117.24C663.274 117.24 661.818 116.88 660.666 116.16C659.53 115.424 658.69 114.4 658.146 113.088C657.602 111.76 657.33 110.216 657.33 108.456C657.33 107.16 657.506 105.976 657.858 104.904C658.21 103.816 658.722 102.88 659.394 102.096C660.082 101.312 660.922 100.704 661.914 100.272C662.922 99.84 664.074 99.624 665.37 99.624C666.218 99.624 667.066 99.736 667.914 99.96C668.778 100.168 669.602 100.456 670.386 100.824L669.21 103.776C668.57 103.472 667.922 103.208 667.266 102.984C666.626 102.76 665.994 102.648 665.37 102.648ZM680.182 102.648C679.494 102.648 678.878 102.784 678.334 103.056C677.806 103.328 677.358 103.72 676.99 104.232C676.622 104.728 676.342 105.336 676.15 106.056C675.974 106.776 675.886 107.584 675.886 108.48C675.886 109.696 676.03 110.736 676.318 111.6C676.622 112.448 677.094 113.096 677.734 113.544C678.374 113.992 679.19 114.216 680.182 114.216C680.886 114.216 681.582 114.136 682.27 113.976C682.974 113.816 683.734 113.592 684.55 113.304V116.352C683.798 116.656 683.054 116.88 682.318 117.024C681.582 117.168 680.758 117.24 679.846 117.24C678.086 117.24 676.63 116.88 675.478 116.16C674.342 115.424 673.502 114.4 672.958 113.088C672.414 111.76 672.142 110.216 672.142 108.456C672.142 107.16 672.318 105.976 672.67 104.904C673.022 103.816 673.534 102.88 674.206 102.096C674.894 101.312 675.734 100.704 676.726 100.272C677.734 99.84 678.886 99.624 680.182 99.624C681.03 99.624 681.878 99.736 682.726 99.96C683.59 100.168 684.414 100.456 685.198 100.824L684.022 103.776C683.382 103.472 682.734 103.208 682.078 102.984C681.438 102.76 680.806 102.648 680.182 102.648ZM688.191 99.864H691.455V108.144C691.455 108.544 691.447 108.992 691.431 109.488C691.415 109.984 691.399 110.472 691.383 110.952C691.367 111.416 691.351 111.824 691.335 112.176C691.319 112.512 691.303 112.744 691.287 112.872H691.359L699.279 99.864H703.623V117H700.383V108.768C700.383 108.336 700.391 107.864 700.407 107.352C700.423 106.824 700.439 106.32 700.455 105.84C700.487 105.36 700.511 104.944 700.527 104.592C700.559 104.224 700.583 103.984 700.599 103.872H700.503L692.559 117H688.191V99.864ZM721.749 94.224C721.669 95.056 721.437 95.792 721.053 96.432C720.669 97.056 720.069 97.544 719.253 97.896C718.437 98.248 717.341 98.424 715.965 98.424C714.557 98.424 713.453 98.256 712.653 97.92C711.869 97.568 711.309 97.08 710.973 96.456C710.637 95.832 710.437 95.088 710.373 94.224H713.565C713.645 95.104 713.869 95.688 714.237 95.976C714.605 96.264 715.205 96.408 716.037 96.408C716.725 96.408 717.285 96.256 717.717 95.952C718.165 95.632 718.429 95.056 718.509 94.224H721.749ZM707.949 99.864H711.213V108.144C711.213 108.544 711.205 108.992 711.189 109.488C711.173 109.984 711.157 110.472 711.141 110.952C711.125 111.416 711.109 111.824 711.093 112.176C711.077 112.512 711.061 112.744 711.045 112.872H711.117L719.037 99.864H723.381V117H720.141V108.768C720.141 108.336 720.149 107.864 720.165 107.352C720.181 106.824 720.197 106.32 720.213 105.84C720.245 105.36 720.269 104.944 720.285 104.592C720.317 104.224 720.341 103.984 720.357 103.872H720.261L712.317 117H707.949V99.864ZM734.979 102.648C734.291 102.648 733.675 102.784 733.131 103.056C732.603 103.328 732.155 103.72 731.787 104.232C731.419 104.728 731.139 105.336 730.947 106.056C730.771 106.776 730.683 107.584 730.683 108.48C730.683 109.696 730.827 110.736 731.115 111.6C731.419 112.448 731.891 113.096 732.531 113.544C733.171 113.992 733.987 114.216 734.979 114.216C735.683 114.216 736.379 114.136 737.067 113.976C737.771 113.816 738.531 113.592 739.347 113.304V116.352C738.595 116.656 737.851 116.88 737.115 117.024C736.379 117.168 735.555 117.24 734.643 117.24C732.883 117.24 731.427 116.88 730.275 116.16C729.139 115.424 728.299 114.4 727.755 113.088C727.211 111.76 726.939 110.216 726.939 108.456C726.939 107.16 727.115 105.976 727.467 104.904C727.819 103.816 728.331 102.88 729.003 102.096C729.691 101.312 730.531 100.704 731.523 100.272C732.531 99.84 733.683 99.624 734.979 99.624C735.827 99.624 736.675 99.736 737.523 99.96C738.387 100.168 739.211 100.456 739.995 100.824L738.819 103.776C738.179 103.472 737.531 103.208 736.875 102.984C736.235 102.76 735.603 102.648 734.979 102.648ZM756.956 117H752.828L746.612 108.312V117H742.988V99.864H746.612V108.168L752.756 99.864H756.62L750.38 108.096L756.956 117ZM774.196 108.408C774.196 109.736 774.028 110.944 773.692 112.032C773.372 113.104 772.876 114.032 772.204 114.816C771.548 115.6 770.7 116.2 769.66 116.616C768.636 117.032 767.428 117.24 766.036 117.24C764.644 117.24 763.428 117.032 762.388 116.616C761.364 116.184 760.516 115.584 759.844 114.816C759.188 114.032 758.692 113.096 758.356 112.008C758.036 110.92 757.876 109.712 757.876 108.384C757.876 106.608 758.164 105.064 758.74 103.752C759.332 102.44 760.228 101.424 761.428 100.704C762.644 99.968 764.188 99.6 766.06 99.6C767.916 99.6 769.444 99.968 770.644 100.704C771.844 101.424 772.732 102.448 773.308 103.776C773.9 105.088 774.196 106.632 774.196 108.408ZM761.692 108.408C761.692 109.608 761.844 110.64 762.148 111.504C762.452 112.368 762.924 113.032 763.564 113.496C764.204 113.96 765.028 114.192 766.036 114.192C767.076 114.192 767.908 113.96 768.532 113.496C769.172 113.032 769.636 112.368 769.924 111.504C770.228 110.64 770.38 109.608 770.38 108.408C770.38 106.6 770.044 105.184 769.372 104.16C768.7 103.136 767.596 102.624 766.06 102.624C765.036 102.624 764.204 102.856 763.564 103.32C762.924 103.784 762.452 104.448 762.148 105.312C761.844 106.176 761.692 107.208 761.692 108.408ZM791.546 94.224C791.466 95.056 791.234 95.792 790.85 96.432C790.466 97.056 789.866 97.544 789.05 97.896C788.234 98.248 787.138 98.424 785.762 98.424C784.354 98.424 783.25 98.256 782.45 97.92C781.666 97.568 781.106 97.08 780.77 96.456C780.434 95.832 780.234 95.088 780.17 94.224H783.362C783.442 95.104 783.666 95.688 784.034 95.976C784.402 96.264 785.002 96.408 785.834 96.408C786.522 96.408 787.082 96.256 787.514 95.952C787.962 95.632 788.226 95.056 788.306 94.224H791.546ZM777.746 99.864H781.01V108.144C781.01 108.544 781.002 108.992 780.986 109.488C780.97 109.984 780.954 110.472 780.938 110.952C780.922 111.416 780.906 111.824 780.89 112.176C780.874 112.512 780.858 112.744 780.842 112.872H780.914L788.834 99.864H793.178V117H789.938V108.768C789.938 108.336 789.946 107.864 789.962 107.352C789.978 106.824 789.994 106.32 790.01 105.84C790.042 105.36 790.066 104.944 790.082 104.592C790.114 104.224 790.138 103.984 790.154 103.872H790.058L782.114 117H777.746V99.864ZM812.07 117L810.822 112.92H804.582L803.334 117H799.422L805.47 99.792H809.91L815.982 117H812.07ZM808.71 105.888C808.63 105.616 808.526 105.272 808.398 104.856C808.27 104.44 808.142 104.016 808.014 103.584C807.886 103.152 807.782 102.776 807.702 102.456C807.622 102.776 807.51 103.176 807.366 103.656C807.238 104.12 807.11 104.568 806.982 105C806.87 105.416 806.782 105.712 806.718 105.888L805.494 109.872H809.958L808.71 105.888ZM832.12 117H827.992L821.776 108.312V117H818.152V99.864H821.776V108.168L827.92 99.864H831.784L825.544 108.096L832.12 117ZM844.765 117L843.517 112.92H837.277L836.029 117H832.117L838.165 99.792H842.605L848.677 117H844.765ZM841.405 105.888C841.325 105.616 841.221 105.272 841.093 104.856C840.965 104.44 840.837 104.016 840.709 103.584C840.581 103.152 840.477 102.776 840.397 102.456C840.317 102.776 840.205 103.176 840.061 103.656C839.933 104.12 839.805 104.568 839.677 105C839.565 105.416 839.477 105.712 839.413 105.888L838.189 109.872H842.653L841.405 105.888ZM864.264 99.864V113.976H866.544V121.992H863.04V117H852.312V121.992H848.808V113.976H850.128C850.576 113.08 851.008 112.136 851.424 111.144C851.84 110.152 852.224 109.088 852.576 107.952C852.944 106.816 853.272 105.584 853.56 104.256C853.848 102.912 854.088 101.448 854.28 99.864H864.264ZM857.16 102.888C857.048 103.72 856.888 104.608 856.68 105.552C856.472 106.48 856.224 107.432 855.936 108.408C855.664 109.384 855.36 110.344 855.023 111.288C854.688 112.232 854.328 113.128 853.944 113.976H860.64V102.888H857.16ZM879.04 117H869.176V99.864H879.04V102.84H872.8V106.608H878.608V109.584H872.8V114H879.04V117ZM889.853 117L885.725 103.56H885.629C885.645 103.88 885.669 104.36 885.701 105C885.733 105.64 885.765 106.328 885.797 107.064C885.829 107.784 885.845 108.44 885.845 109.032V117H882.605V99.864H887.549L891.605 112.968H891.677L895.973 99.864H900.917V117H897.533V108.888C897.533 108.344 897.541 107.72 897.557 107.016C897.589 106.312 897.613 105.648 897.629 105.024C897.661 104.384 897.685 103.904 897.701 103.584H897.605L893.189 117H889.853ZM905.246 99.864H908.51V108.144C908.51 108.544 908.502 108.992 908.486 109.488C908.47 109.984 908.454 110.472 908.438 110.952C908.422 111.416 908.406 111.824 908.39 112.176C908.374 112.512 908.358 112.744 908.342 112.872H908.414L916.334 99.864H920.678V117H917.438V108.768C917.438 108.336 917.446 107.864 917.462 107.352C917.478 106.824 917.494 106.32 917.51 105.84C917.542 105.36 917.566 104.944 917.582 104.592C917.614 104.224 917.638 103.984 917.654 103.872H917.558L909.614 117H905.246V99.864ZM925.004 99.864H928.268V108.144C928.268 108.544 928.26 108.992 928.244 109.488C928.228 109.984 928.212 110.472 928.196 110.952C928.18 111.416 928.164 111.824 928.148 112.176C928.132 112.512 928.116 112.744 928.1 112.872H928.172L936.092 99.864H940.436V117H937.196V108.768C937.196 108.336 937.204 107.864 937.22 107.352C937.236 106.824 937.252 106.32 937.268 105.84C937.3 105.36 937.324 104.944 937.34 104.592C937.372 104.224 937.396 103.984 937.412 103.872H937.316L929.372 117H925.004V99.864ZM962.88 117H959.256V109.608H952.464V117H948.84V99.864H952.464V106.584H959.256V99.864H962.88V117ZM977.679 117L976.431 112.92H970.191L968.943 117H965.031L971.079 99.792H975.519L981.591 117H977.679ZM974.319 105.888C974.239 105.616 974.135 105.272 974.007 104.856C973.879 104.44 973.751 104.016 973.623 103.584C973.495 103.152 973.391 102.776 973.311 102.456C973.231 102.776 973.119 103.176 972.975 103.656C972.847 104.12 972.719 104.568 972.591 105C972.479 105.416 972.391 105.712 972.327 105.888L971.103 109.872H975.567L974.319 105.888ZM992.21 111.984C991.73 113.072 991.218 114.016 990.674 114.816C990.146 115.6 989.466 116.2 988.634 116.616C987.802 117.032 986.714 117.24 985.37 117.24C984.954 117.24 984.498 117.208 984.002 117.144C983.506 117.08 983.05 116.992 982.634 116.88V113.76C983.018 113.92 983.442 114.032 983.906 114.096C984.37 114.16 984.802 114.192 985.202 114.192C985.73 114.192 986.154 114.104 986.474 113.928C986.81 113.752 987.074 113.512 987.266 113.208C987.474 112.888 987.642 112.544 987.77 112.176L981.842 99.864H985.682L988.874 107.28C988.954 107.44 989.05 107.648 989.162 107.904C989.274 108.16 989.386 108.424 989.498 108.696C989.61 108.968 989.698 109.208 989.762 109.416H989.882C989.946 109.224 990.026 108.992 990.122 108.72C990.234 108.432 990.346 108.144 990.458 107.856C990.586 107.552 990.698 107.288 990.794 107.064L993.77 99.864H997.514L992.21 111.984ZM1013.64 117H1009.52L1003.3 108.312V117H999.676V99.864H1003.3V108.168L1009.44 99.864H1013.31L1007.07 108.096L1013.64 117Z" fill="white"/>
</g>
<defs>
<clipPath id="clip0_14_34">
<rect width="1600" height="145" fill="white"/>
</clipPath>
</defs>
</svg>
