<svg width="767" height="93" viewBox="0 0 767 93" fill="none" xmlns="http://www.w3.org/2000/svg">
<g clip-path="url(#clip0_105_19)">
<path d="M1010.53 -0.309011H0V93.0558H1010.53V-0.309011Z" fill="#29518C"/>
<path d="M1010.53 -0.309011H0V93.0558H1010.53V-0.309011Z" fill="#29518C"/>
<path d="M1010.53 50.8662H106.105V54.9705H1010.53V50.8662Z" fill="white"/>
<path d="M36.6315 42.927H0V47.3133H36.6315V42.927Z" fill="white"/>
<path d="M74.1302 17.7582C56.7557 17.7582 42.6904 31.7128 42.6904 48.9506C42.6904 66.1887 56.7557 80.1433 74.1302 80.1433C91.5049 80.1433 105.57 66.1887 105.57 48.9506C105.57 31.7128 91.5049 17.7582 74.1302 17.7582ZM73.8548 77.1336C58.4104 77.1336 45.9999 64.5469 45.9999 49.4983C45.9999 34.1754 58.4104 21.5889 73.8548 21.5889C89.2988 21.5889 101.709 33.9017 101.709 49.2245C101.709 64.5469 89.2988 77.1336 73.8548 77.1336Z" fill="white"/>
<path d="M110.81 50.8662V54.9705H85.1621L79.3705 85.6161L68.6147 28.4294L65.3053 47.3089H36.3474V42.9314H61.9958L68.6147 8.18155L79.0945 67.5572L82.1286 50.8662H110.81Z" fill="white"/>
<path d="M47.3683 41.9871H42.9473V42.927H47.3683V41.9871Z" fill="#29518C"/>
<path d="M46.7367 47.3133H42.3157V48.2532H46.7367V47.3133Z" fill="#29518C"/>
<path d="M106.105 49.8197H101.052V50.8662H106.105V49.8197Z" fill="#29518C"/>
<path d="M105.474 54.9705H100.421V56.0169H105.474V54.9705Z" fill="#29518C"/>
<path d="M122.612 19.3765V20.2588C123.393 20.2722 124.01 20.3992 124.461 20.6398C124.913 20.8804 125.233 21.2012 125.421 21.6023C125.61 21.9966 125.704 22.4377 125.704 22.9257C125.704 23.2465 125.654 23.5673 125.553 23.8881C125.459 24.2023 125.293 24.4897 125.058 24.7503C124.822 25.0043 124.505 25.2115 124.108 25.3719C123.71 25.5324 123.212 25.6193 122.612 25.6326V26.7355H121.713V25.6326C121.1 25.6193 120.591 25.5324 120.187 25.3719C119.79 25.2048 119.476 24.991 119.247 24.7303C119.018 24.4629 118.856 24.1722 118.762 23.8581C118.668 23.5439 118.621 23.2331 118.621 22.9257C118.621 22.5714 118.671 22.2372 118.772 21.9231C118.88 21.6023 119.052 21.3215 119.288 21.0809C119.53 20.8336 119.85 20.6365 120.248 20.4894C120.645 20.3423 121.134 20.2655 121.713 20.2588V19.3765H122.612ZM121.713 21.0208C121.174 21.0341 120.743 21.121 120.419 21.2814C120.103 21.4419 119.877 21.6624 119.742 21.9431C119.608 22.2172 119.54 22.5414 119.54 22.9156C119.54 23.31 119.614 23.6542 119.762 23.9483C119.917 24.2357 120.153 24.4596 120.47 24.62C120.793 24.7804 121.208 24.8707 121.713 24.8907V21.0208ZM122.612 24.8907C123.131 24.8707 123.549 24.7771 123.865 24.61C124.189 24.4429 124.421 24.2157 124.562 23.9282C124.711 23.6342 124.785 23.2966 124.785 22.9156C124.785 22.5347 124.717 22.2071 124.583 21.9331C124.448 21.6524 124.222 21.4351 123.906 21.2814C123.589 21.121 123.158 21.0341 122.612 21.0208V24.8907ZM131.239 26.6352H127.207V19.4768H131.239V20.2688H128.116V22.5046H131.057V23.2866H128.116V25.8432H131.239V26.6352ZM137.683 19.4768V25.8331H138.602V28.52H137.733V26.6352H132.772V28.52H131.903V25.8331H132.458C132.701 25.4188 132.93 24.9542 133.146 24.4396C133.368 23.9249 133.563 23.3868 133.732 22.8254C133.9 22.2573 134.038 21.6892 134.146 21.121C134.254 20.5529 134.321 20.0048 134.348 19.4768H137.683ZM135.146 20.2889C135.119 20.6766 135.052 21.1143 134.944 21.6023C134.843 22.0902 134.712 22.5915 134.55 23.1061C134.396 23.6141 134.22 24.1054 134.025 24.5799C133.836 25.0544 133.634 25.4722 133.418 25.8331H136.784V20.2889H135.146ZM143.841 26.6352H139.809V19.4768H143.841V20.2688H140.719V22.5046H143.66V23.2866H140.719V25.8432H143.841V26.6352ZM147.334 19.4768C148.277 19.4768 148.964 19.6606 149.396 20.0282C149.827 20.3959 150.042 20.9138 150.042 21.5822C150.042 21.8763 149.992 22.1604 149.891 22.4344C149.797 22.7018 149.638 22.9424 149.416 23.1563C149.193 23.3701 148.897 23.5406 148.526 23.6676C148.156 23.7879 147.701 23.848 147.162 23.848H146.334V26.6352H145.424V19.4768H147.334ZM147.253 20.2488H146.334V23.0761H147.061C147.519 23.0761 147.9 23.0292 148.203 22.9357C148.506 22.8354 148.732 22.6783 148.88 22.4645C149.029 22.2506 149.102 21.9699 149.102 21.6223C149.102 21.1611 148.954 20.8169 148.658 20.5897C148.362 20.3624 147.893 20.2488 147.253 20.2488ZM155.567 26.6352L154.698 24.4195H151.838L150.979 26.6352H150.059L152.879 19.4467H153.697L156.506 26.6352H155.567ZM153.616 21.4519C153.596 21.3984 153.562 21.3015 153.515 21.1611C153.468 21.0208 153.421 20.8771 153.374 20.73C153.333 20.5763 153.299 20.4593 153.273 20.3791C153.239 20.5128 153.202 20.6498 153.162 20.7902C153.128 20.9238 153.091 21.0475 153.05 21.1611C153.016 21.2747 152.986 21.3717 152.96 21.4519L152.141 23.6174H154.425L153.616 21.4519ZM162.688 26.6352H161.778V20.2688H159.494C159.447 20.6365 159.397 21.0241 159.343 21.4318C159.289 21.8329 159.232 22.2306 159.171 22.6249C159.117 23.0192 159.063 23.3902 159.009 23.7377C158.955 24.0853 158.901 24.3894 158.848 24.6501C158.76 25.0979 158.652 25.4789 158.524 25.793C158.396 26.1071 158.224 26.3444 158.009 26.5049C157.8 26.6653 157.524 26.7455 157.18 26.7455C157.065 26.7455 156.948 26.7321 156.827 26.7054C156.712 26.6853 156.611 26.6586 156.524 26.6252V25.8732C156.597 25.9066 156.681 25.9367 156.776 25.9635C156.87 25.9835 156.971 25.9935 157.079 25.9935C157.281 25.9935 157.439 25.9133 157.554 25.7529C157.676 25.5858 157.77 25.382 157.837 25.1414C157.904 24.894 157.962 24.6501 158.009 24.4095C158.049 24.2157 158.096 23.9583 158.15 23.6375C158.204 23.31 158.262 22.929 158.322 22.4946C158.389 22.0601 158.457 21.5889 158.524 21.0809C158.598 20.5663 158.669 20.0315 158.737 19.4768H162.688V26.6352ZM164.648 26.6352V19.4768H165.558V22.5046H166.912C167.585 22.5046 168.121 22.5948 168.518 22.7753C168.916 22.9557 169.202 23.1997 169.377 23.5072C169.552 23.8146 169.64 24.1588 169.64 24.5398C169.64 24.9609 169.542 25.3285 169.347 25.6426C169.158 25.9568 168.872 26.2008 168.488 26.3745C168.104 26.5483 167.615 26.6352 167.023 26.6352H164.648ZM166.932 25.8632C167.518 25.8632 167.959 25.7562 168.256 25.5424C168.552 25.3218 168.7 24.9876 168.7 24.5398C168.7 24.2323 168.626 23.9884 168.478 23.8079C168.337 23.6208 168.124 23.4871 167.841 23.4069C167.565 23.3267 167.218 23.2866 166.801 23.2866H165.558V25.8632H166.932ZM176.649 26.6352H175.739V23.2966H172.041V26.6352H171.131V19.4768H172.041V22.5046H175.739V19.4768H176.649V26.6352ZM184.917 23.046C184.917 23.6007 184.847 24.1054 184.705 24.5599C184.564 25.0077 184.351 25.3953 184.069 25.7228C183.792 26.0504 183.445 26.301 183.028 26.4748C182.617 26.6485 182.138 26.7355 181.593 26.7355C181.027 26.7355 180.535 26.6485 180.117 26.4748C179.699 26.2943 179.353 26.0437 179.077 25.7228C178.8 25.3953 178.595 25.0043 178.46 24.5498C178.325 24.0954 178.258 23.5907 178.258 23.0359C178.258 22.3007 178.379 21.6591 178.622 21.111C178.864 20.5629 179.231 20.1352 179.723 19.8277C180.222 19.5202 180.848 19.3665 181.603 19.3665C182.323 19.3665 182.93 19.5202 183.422 19.8277C183.913 20.1285 184.284 20.5563 184.533 21.111C184.789 21.6591 184.917 22.3041 184.917 23.046ZM179.218 23.046C179.218 23.6475 179.302 24.1655 179.471 24.6C179.639 25.0344 179.898 25.3686 180.249 25.6025C180.606 25.8365 181.053 25.9534 181.593 25.9534C182.138 25.9534 182.583 25.8365 182.927 25.6025C183.277 25.3686 183.536 25.0344 183.705 24.6C183.873 24.1655 183.957 23.6475 183.957 23.046C183.957 22.1437 183.769 21.4385 183.391 20.9305C183.014 20.4159 182.418 20.1586 181.603 20.1586C181.057 20.1586 180.606 20.2755 180.249 20.5095C179.898 20.7367 179.639 21.0676 179.471 21.502C179.302 21.9298 179.218 22.4444 179.218 23.046ZM190.549 26.6352H186.517V19.4768H190.549V20.2688H187.426V22.5046H190.367V23.2866H187.426V25.8432H190.549V26.6352ZM198.898 19.4768V20.2789H195.735V26.6352H194.826V19.4768H198.898ZM206.223 23.046C206.223 23.6007 206.152 24.1054 206.011 24.5599C205.869 25.0077 205.657 25.3953 205.374 25.7228C205.098 26.0504 204.751 26.301 204.333 26.4748C203.922 26.6485 203.444 26.7355 202.898 26.7355C202.333 26.7355 201.841 26.6485 201.423 26.4748C201.006 26.2943 200.658 26.0437 200.382 25.7228C200.106 25.3953 199.9 25.0043 199.766 24.5498C199.631 24.0954 199.564 23.5907 199.564 23.0359C199.564 22.3007 199.685 21.6591 199.927 21.111C200.17 20.5629 200.537 20.1352 201.029 19.8277C201.527 19.5202 202.154 19.3665 202.909 19.3665C203.629 19.3665 204.235 19.5202 204.727 19.8277C205.219 20.1285 205.59 20.5563 205.839 21.111C206.095 21.6591 206.223 22.3041 206.223 23.046ZM200.524 23.046C200.524 23.6475 200.608 24.1655 200.776 24.6C200.945 25.0344 201.204 25.3686 201.554 25.6025C201.911 25.8365 202.36 25.9534 202.898 25.9534C203.444 25.9534 203.889 25.8365 204.232 25.6025C204.583 25.3686 204.842 25.0344 205.01 24.6C205.179 24.1655 205.263 23.6475 205.263 23.046C205.263 22.1437 205.074 21.4385 204.697 20.9305C204.32 20.4159 203.724 20.1586 202.909 20.1586C202.363 20.1586 201.911 20.2755 201.554 20.5095C201.204 20.7367 200.945 21.0676 200.776 21.502C200.608 21.9298 200.524 22.4444 200.524 23.046ZM210.914 20.1686C210.53 20.1686 210.184 20.2354 209.874 20.3691C209.563 20.4961 209.301 20.6866 209.085 20.9406C208.87 21.1879 208.705 21.492 208.59 21.8529C208.476 22.2071 208.418 22.6082 208.418 23.056C208.418 23.6442 208.509 24.1555 208.691 24.5899C208.88 25.0244 209.156 25.3586 209.52 25.5925C209.891 25.8264 210.352 25.9434 210.904 25.9434C211.221 25.9434 211.521 25.9167 211.804 25.8632C212.087 25.8098 212.363 25.7429 212.632 25.6627V26.4447C212.363 26.545 212.083 26.6185 211.794 26.6653C211.511 26.7121 211.17 26.7355 210.773 26.7355C210.038 26.7355 209.426 26.5851 208.934 26.2843C208.442 25.9835 208.072 25.5557 207.822 25.001C207.58 24.4463 207.458 23.7946 207.458 23.046C207.458 22.5046 207.532 22.01 207.681 21.5622C207.835 21.1143 208.058 20.7267 208.348 20.3992C208.644 20.0716 209.008 19.821 209.439 19.6472C209.87 19.4668 210.366 19.3765 210.925 19.3765C211.295 19.3765 211.652 19.4133 211.996 19.4868C212.339 19.5603 212.646 19.664 212.915 19.7976L212.551 20.5596C212.329 20.4593 212.08 20.3691 211.804 20.2889C211.534 20.2087 211.238 20.1686 210.914 20.1686ZM217.228 24.6C217.013 25.0745 216.794 25.4722 216.571 25.793C216.356 26.1071 216.1 26.3444 215.803 26.5049C215.507 26.6586 215.13 26.7355 214.672 26.7355C214.483 26.7355 214.305 26.7221 214.136 26.6953C213.974 26.6686 213.827 26.6319 213.691 26.5851V25.6928C213.827 25.7529 213.971 25.8031 214.126 25.8432C214.281 25.8766 214.443 25.8933 214.611 25.8933C214.861 25.8933 215.073 25.8599 215.248 25.793C215.43 25.7195 215.588 25.6025 215.723 25.4421C215.864 25.2817 215.995 25.0679 216.117 24.8005L213.338 19.4768H214.338L216.349 23.4169C216.376 23.4637 216.403 23.5205 216.43 23.5874C216.457 23.6475 216.484 23.711 216.511 23.7779C216.545 23.8447 216.571 23.9082 216.592 23.9683H216.632C216.652 23.9215 216.672 23.8681 216.693 23.8079C216.72 23.7411 216.743 23.6776 216.763 23.6174C216.791 23.5506 216.814 23.4938 216.834 23.447L218.572 19.4768H219.532L217.228 24.6ZM224.87 19.4768V25.8331H225.79V28.52H224.921V26.6352H219.959V28.52H219.09V25.8331H219.646C219.889 25.4188 220.118 24.9542 220.333 24.4396C220.555 23.9249 220.751 23.3868 220.919 22.8254C221.088 22.2573 221.226 21.6892 221.334 21.121C221.442 20.5529 221.509 20.0048 221.536 19.4768H224.87ZM222.334 20.2889C222.307 20.6766 222.24 21.1143 222.132 21.6023C222.031 22.0902 221.899 22.5915 221.738 23.1061C221.583 23.6141 221.407 24.1054 221.212 24.5799C221.023 25.0544 220.821 25.4722 220.606 25.8331H223.971V20.2889H222.334ZM231.523 26.6352L230.654 24.4195H227.795L226.936 26.6352H226.016L228.835 19.4467H229.654L232.463 26.6352H231.523ZM229.573 21.4519C229.553 21.3984 229.519 21.3015 229.472 21.1611C229.425 21.0208 229.378 20.8771 229.331 20.73C229.29 20.5763 229.257 20.4593 229.23 20.3791C229.196 20.5128 229.159 20.6498 229.118 20.7902C229.085 20.9238 229.048 21.0475 229.007 21.1611C228.974 21.2747 228.943 21.3717 228.916 21.4519L228.098 23.6174H230.382L229.573 21.4519ZM235.36 19.4768C236.303 19.4768 236.99 19.6606 237.422 20.0282C237.853 20.3959 238.068 20.9138 238.068 21.5822C238.068 21.8763 238.018 22.1604 237.917 22.4344C237.823 22.7018 237.664 22.9424 237.442 23.1563C237.22 23.3701 236.923 23.5406 236.553 23.6676C236.182 23.7879 235.727 23.848 235.188 23.848H234.36V26.6352H233.45V19.4768H235.36ZM235.279 20.2488H234.36V23.0761H235.087C235.545 23.0761 235.926 23.0292 236.229 22.9357C236.532 22.8354 236.758 22.6783 236.906 22.4645C237.055 22.2506 237.129 21.9699 237.129 21.6223C237.129 21.1611 236.98 20.8169 236.684 20.5897C236.388 20.3624 235.919 20.2488 235.279 20.2488ZM242.661 20.1686C242.277 20.1686 241.93 20.2354 241.62 20.3691C241.31 20.4961 241.048 20.6866 240.832 20.9406C240.616 21.1879 240.451 21.492 240.337 21.8529C240.222 22.2071 240.165 22.6082 240.165 23.056C240.165 23.6442 240.256 24.1555 240.438 24.5899C240.626 25.0244 240.903 25.3586 241.267 25.5925C241.637 25.8264 242.099 25.9434 242.651 25.9434C242.968 25.9434 243.268 25.9167 243.551 25.8632C243.834 25.8098 244.11 25.7429 244.379 25.6627V26.4447C244.11 26.545 243.83 26.6185 243.54 26.6653C243.258 26.7121 242.917 26.7355 242.52 26.7355C241.785 26.7355 241.172 26.5851 240.681 26.2843C240.189 25.9835 239.818 25.5557 239.569 25.001C239.327 24.4463 239.205 23.7946 239.205 23.046C239.205 22.5046 239.279 22.01 239.428 21.5622C239.582 21.1143 239.805 20.7267 240.095 20.3992C240.391 20.0716 240.755 19.821 241.186 19.6472C241.617 19.4668 242.112 19.3765 242.671 19.3765C243.042 19.3765 243.399 19.4133 243.743 19.4868C244.086 19.5603 244.392 19.664 244.662 19.7976L244.298 20.5596C244.076 20.4593 243.827 20.3691 243.551 20.2889C243.281 20.2087 242.985 20.1686 242.661 20.1686ZM248.238 26.6352H247.328V20.2688H245.075V19.4768H250.481V20.2688H248.238V26.6352ZM253.631 19.4768C254.23 19.4768 254.732 19.5336 255.136 19.6472C255.547 19.7608 255.854 19.948 256.056 20.2087C256.264 20.4694 256.369 20.8169 256.369 21.2514C256.369 21.5321 256.315 21.7827 256.207 22.0033C256.106 22.2172 255.951 22.3976 255.743 22.5447C255.54 22.685 255.291 22.782 254.995 22.8354V22.8856C255.298 22.9324 255.571 23.0192 255.813 23.1462C256.062 23.2732 256.258 23.4537 256.399 23.6876C256.541 23.9215 256.612 24.2257 256.612 24.6C256.612 25.0344 256.511 25.4053 256.308 25.7128C256.106 26.0136 255.816 26.2442 255.439 26.4046C255.069 26.5583 254.624 26.6352 254.106 26.6352H251.569V19.4768H253.631ZM253.812 22.5246C254.432 22.5246 254.856 22.4277 255.086 22.2339C255.314 22.0334 255.429 21.7393 255.429 21.3516C255.429 20.9573 255.288 20.6766 255.005 20.5095C254.728 20.3357 254.284 20.2488 253.671 20.2488H252.479V22.5246H253.812ZM252.479 23.2766V25.8732H253.934C254.574 25.8732 255.018 25.7496 255.268 25.5023C255.516 25.255 255.642 24.9308 255.642 24.5298C255.642 24.2758 255.584 24.0553 255.47 23.8681C255.362 23.6809 255.177 23.5372 254.914 23.437C254.658 23.33 254.308 23.2766 253.863 23.2766H252.479ZM262.173 26.6352H258.141V19.4768H262.173V20.2688H259.051V22.5046H261.991V23.2866H259.051V25.8432H262.173V26.6352ZM269.274 26.6352H268.365V23.2966H264.666V26.6352H263.757V19.4768H264.666V22.5046H268.365V19.4768H269.274V26.6352ZM276.764 26.6352H275.855V23.2966H272.156V26.6352H271.247V19.4768H272.156V22.5046H275.855V19.4768H276.764V26.6352ZM285.032 23.046C285.032 23.6007 284.961 24.1054 284.82 24.5599C284.678 25.0077 284.466 25.3953 284.183 25.7228C283.907 26.0504 283.56 26.301 283.142 26.4748C282.732 26.6485 282.253 26.7355 281.707 26.7355C281.141 26.7355 280.65 26.6485 280.232 26.4748C279.815 26.2943 279.468 26.0437 279.191 25.7228C278.915 25.3953 278.71 25.0043 278.575 24.5498C278.44 24.0954 278.373 23.5907 278.373 23.0359C278.373 22.3007 278.494 21.6591 278.736 21.111C278.979 20.5629 279.347 20.1352 279.838 19.8277C280.337 19.5202 280.963 19.3665 281.717 19.3665C282.439 19.3665 283.045 19.5202 283.536 19.8277C284.028 20.1285 284.399 20.5563 284.648 21.111C284.904 21.6591 285.032 22.3041 285.032 23.046ZM279.333 23.046C279.333 23.6475 279.417 24.1655 279.585 24.6C279.754 25.0344 280.013 25.3686 280.363 25.6025C280.721 25.8365 281.169 25.9534 281.707 25.9534C282.253 25.9534 282.698 25.8365 283.041 25.6025C283.392 25.3686 283.651 25.0344 283.819 24.6C283.988 24.1655 284.072 23.6475 284.072 23.046C284.072 22.1437 283.884 21.4385 283.506 20.9305C283.129 20.4159 282.533 20.1586 281.717 20.1586C281.172 20.1586 280.721 20.2755 280.363 20.5095C280.013 20.7367 279.754 21.0676 279.585 21.502C279.417 21.9298 279.333 22.4444 279.333 23.046ZM290.663 26.6352H286.631V19.4768H290.663V20.2688H287.541V22.5046H290.481V23.2866H287.541V25.8432H290.663V26.6352ZM294.941 26.6352V19.4768H299.225V20.2688H295.85V22.5046H296.921C297.642 22.5046 298.201 22.5948 298.599 22.7753C298.996 22.949 299.272 23.1897 299.428 23.4971C299.582 23.7979 299.66 24.1455 299.66 24.5398C299.66 24.9742 299.572 25.3486 299.397 25.6627C299.229 25.9768 298.953 26.2174 298.569 26.3845C298.185 26.5517 297.679 26.6352 297.053 26.6352H294.941ZM296.962 25.8632C297.609 25.8632 298.063 25.7562 298.326 25.5424C298.589 25.3218 298.72 24.9876 298.72 24.5398C298.72 24.2323 298.656 23.9884 298.528 23.8079C298.407 23.6208 298.205 23.4871 297.922 23.4069C297.645 23.3267 297.275 23.2866 296.81 23.2866H295.85V25.8632H296.962ZM310.181 23.046C310.181 23.6007 310.114 24.1054 309.979 24.5599C309.845 25.0143 309.643 25.4053 309.373 25.7329C309.104 26.0537 308.77 26.301 308.373 26.4748C307.982 26.6485 307.524 26.7355 306.998 26.7355C306.311 26.7355 305.732 26.5951 305.26 26.3144C304.795 26.0336 304.439 25.6359 304.189 25.1213C303.94 24.6067 303.802 23.9984 303.775 23.2966H302.067V26.6352H301.157V19.4768H302.067V22.5046H303.795C303.842 21.8696 303.991 21.3182 304.24 20.8503C304.489 20.3758 304.843 20.0115 305.301 19.7575C305.759 19.4969 306.318 19.3665 306.978 19.3665C307.672 19.3665 308.255 19.5202 308.726 19.8277C309.205 20.1285 309.565 20.5563 309.808 21.111C310.057 21.6591 310.181 22.3041 310.181 23.046ZM304.725 23.046C304.725 23.6475 304.802 24.1655 304.957 24.6C305.119 25.0344 305.365 25.3686 305.695 25.6025C306.032 25.8365 306.456 25.9534 306.968 25.9534C307.493 25.9534 307.922 25.8365 308.251 25.6025C308.589 25.3686 308.834 25.0344 308.989 24.6C309.151 24.1655 309.232 23.6475 309.232 23.046C309.232 22.4444 309.154 21.9298 308.999 21.502C308.844 21.0676 308.602 20.7367 308.272 20.5095C307.942 20.2755 307.514 20.1586 306.988 20.1586C306.47 20.1586 306.042 20.2755 305.705 20.5095C305.368 20.7367 305.119 21.0676 304.957 21.502C304.802 21.9298 304.725 22.4444 304.725 23.046ZM316.449 19.4768V25.8331H317.369V28.52H316.5V26.6352H311.538V28.52H310.669V25.8331H311.225C311.467 25.4188 311.697 24.9542 311.912 24.4396C312.134 23.9249 312.329 23.3868 312.498 22.8254C312.667 22.2573 312.804 21.6892 312.912 21.121C313.02 20.5529 313.087 20.0048 313.115 19.4768H316.449ZM313.913 20.2889C313.886 20.6766 313.819 21.1143 313.711 21.6023C313.61 22.0902 313.478 22.5915 313.317 23.1061C313.162 23.6141 312.986 24.1054 312.791 24.5799C312.602 25.0544 312.4 25.4722 312.185 25.8331H315.55V20.2889H313.913ZM320.505 22.9557L317.706 19.4768H318.717L321.475 22.9457V19.4768H322.344V22.9457L325.103 19.4768H326.114L323.314 22.9457L326.205 26.6352H325.164L322.344 23.0059V26.6352H321.475V23.0059L318.646 26.6352H317.605L320.505 22.9557ZM331.233 26.6352H327.201V19.4768H331.233V20.2688H328.11V22.5046H331.051V23.2866H328.11V25.8432H331.233V26.6352ZM335.099 26.6352H334.19V20.2688H331.936V19.4768H337.342V20.2688H335.099V26.6352ZM343.948 26.6352H343.039V23.2966H339.34V26.6352H338.431V19.4768H339.34V22.5046H343.039V19.4768H343.948V26.6352ZM352.216 23.046C352.216 23.6007 352.145 24.1054 352.004 24.5599C351.862 25.0077 351.65 25.3953 351.367 25.7228C351.091 26.0504 350.745 26.301 350.326 26.4748C349.916 26.6485 349.437 26.7355 348.892 26.7355C348.326 26.7355 347.834 26.6485 347.416 26.4748C346.999 26.2943 346.652 26.0437 346.375 25.7228C346.099 25.3953 345.894 25.0043 345.759 24.5498C345.624 24.0954 345.557 23.5907 345.557 23.0359C345.557 22.3007 345.678 21.6591 345.921 21.111C346.163 20.5629 346.531 20.1352 347.022 19.8277C347.521 19.5202 348.148 19.3665 348.902 19.3665C349.623 19.3665 350.229 19.5202 350.721 19.8277C351.213 20.1285 351.583 20.5563 351.832 21.111C352.089 21.6591 352.216 22.3041 352.216 23.046ZM346.517 23.046C346.517 23.6475 346.601 24.1655 346.769 24.6C346.938 25.0344 347.198 25.3686 347.548 25.6025C347.905 25.8365 348.353 25.9534 348.892 25.9534C349.437 25.9534 349.882 25.8365 350.225 25.6025C350.576 25.3686 350.836 25.0344 351.004 24.6C351.172 24.1655 351.256 23.6475 351.256 23.046C351.256 22.1437 351.068 21.4385 350.69 20.9305C350.313 20.4159 349.717 20.1586 348.902 20.1586C348.356 20.1586 347.905 20.2755 347.548 20.5095C347.198 20.7367 346.938 21.0676 346.769 21.502C346.601 21.9298 346.517 22.4444 346.517 23.046ZM357.847 26.6352H353.815V19.4768H357.847V20.2688H354.725V22.5046H357.665V23.2866H354.725V25.8432H357.847V26.6352ZM365.146 24.6C364.93 25.0745 364.712 25.4722 364.49 25.793C364.274 26.1071 364.018 26.3444 363.722 26.5049C363.425 26.6586 363.048 26.7355 362.59 26.7355C362.401 26.7355 362.222 26.7221 362.054 26.6953C361.893 26.6686 361.744 26.6319 361.61 26.5851V25.6928C361.744 25.7529 361.889 25.8031 362.044 25.8432C362.199 25.8766 362.361 25.8933 362.529 25.8933C362.778 25.8933 362.99 25.8599 363.166 25.793C363.348 25.7195 363.506 25.6025 363.641 25.4421C363.782 25.2817 363.914 25.0679 364.035 24.8005L361.256 19.4768H362.256L364.267 23.4169C364.294 23.4637 364.321 23.5205 364.348 23.5874C364.375 23.6475 364.402 23.711 364.429 23.7779C364.462 23.8447 364.49 23.9082 364.51 23.9683H364.55C364.57 23.9215 364.591 23.8681 364.611 23.8079C364.637 23.7411 364.661 23.6776 364.682 23.6174C364.708 23.5506 364.732 23.4938 364.752 23.447L366.49 19.4768H367.45L365.146 24.6ZM373.524 26.6352H372.614V23.6976C372.223 23.8313 371.856 23.9416 371.513 24.0285C371.176 24.1087 370.798 24.1488 370.381 24.1488C369.707 24.1488 369.185 23.9951 368.815 23.6876C368.444 23.3735 368.259 22.9223 368.259 22.3341V19.4768H369.168V22.2038C369.168 22.5915 369.269 22.8822 369.472 23.0761C369.681 23.2632 370.014 23.3568 370.472 23.3568C370.869 23.3568 371.227 23.32 371.543 23.2465C371.859 23.173 372.217 23.0727 372.614 22.9457V19.4768H373.524V26.6352ZM377.397 19.4768C378.339 19.4768 379.027 19.6606 379.458 20.0282C379.889 20.3959 380.105 20.9138 380.105 21.5822C380.105 21.8763 380.054 22.1604 379.953 22.4344C379.858 22.7018 379.701 22.9424 379.478 23.1563C379.256 23.3701 378.959 23.5406 378.589 23.6676C378.218 23.7879 377.764 23.848 377.225 23.848H376.396V26.6352H375.487V19.4768H377.397ZM377.316 20.2488H376.396V23.0761H377.124C377.582 23.0761 377.962 23.0292 378.266 22.9357C378.569 22.8354 378.794 22.6783 378.943 22.4645C379.09 22.2506 379.165 21.9699 379.165 21.6223C379.165 21.1611 379.017 20.8169 378.72 20.5897C378.423 20.3624 377.955 20.2488 377.316 20.2488ZM385.637 26.6352H381.605V19.4768H385.637V20.2688H382.514V22.5046H385.455V23.2866H382.514V25.8432H385.637V26.6352ZM389.15 22.9557L386.351 19.4768H387.362L390.12 22.9457V19.4768H390.989V22.9457L393.748 19.4768H394.759L391.959 22.9457L394.85 26.6352H393.809L390.989 23.0059V26.6352H390.12V23.0059L387.291 26.6352H386.25L389.15 22.9557ZM400.706 19.4768V25.8331H401.625V28.52H400.756V26.6352H395.794V28.52H394.925V25.8331H395.481C395.724 25.4188 395.953 24.9542 396.168 24.4396C396.391 23.9249 396.586 23.3868 396.754 22.8254C396.923 22.2573 397.061 21.6892 397.169 21.121C397.277 20.5529 397.344 20.0048 397.371 19.4768H400.706ZM398.169 20.2889C398.142 20.6766 398.075 21.1143 397.967 21.6023C397.866 22.0902 397.735 22.5915 397.573 23.1061C397.418 23.6141 397.243 24.1054 397.047 24.5799C396.859 25.0544 396.657 25.4722 396.441 25.8331H399.806V20.2889H398.169ZM406.864 26.6352H402.832V19.4768H406.864V20.2688H403.742V22.5046H406.682V23.2866H403.742V25.8432H406.864V26.6352ZM413.964 26.6352H413.055V23.2966H409.356V26.6352H408.447V19.4768H409.356V22.5046H413.055V19.4768H413.964V26.6352ZM415.947 19.4768H416.796V23.4069C416.796 23.574 416.792 23.7578 416.786 23.9583C416.786 24.1521 416.782 24.346 416.776 24.5398C416.769 24.7336 416.759 24.9074 416.746 25.0611C416.739 25.2082 416.732 25.3218 416.726 25.402H416.766L420.737 19.4768H421.748V26.6352H420.899V22.7452C420.899 22.5647 420.902 22.3709 420.909 22.1637C420.915 21.9498 420.922 21.7459 420.929 21.5521C420.943 21.3516 420.953 21.1745 420.96 21.0208C420.966 20.8671 420.973 20.7534 420.98 20.6799H420.939L416.958 26.6352H415.947V19.4768ZM427.726 26.6352H423.694V19.4768H427.726V20.2688H424.603V22.5046H427.544V23.2866H424.603V25.8432H427.726V26.6352ZM437.52 26.6352H436.611V23.2966H432.912V26.6352H432.003V19.4768H432.912V22.5046H436.611V19.4768H437.52V26.6352ZM444.02 26.6352L443.151 24.4195H440.292L439.433 26.6352H438.512L441.332 19.4467H442.151L444.96 26.6352H444.02ZM442.07 21.4519C442.05 21.3984 442.016 21.3015 441.969 21.1611C441.922 21.0208 441.874 20.8771 441.828 20.73C441.787 20.5763 441.753 20.4593 441.727 20.3791C441.692 20.5128 441.656 20.6498 441.615 20.7902C441.581 20.9238 441.545 21.0475 441.504 21.1611C441.47 21.2747 441.44 21.3717 441.413 21.4519L440.595 23.6174H442.879L442.07 21.4519ZM448.968 24.6C448.753 25.0745 448.534 25.4722 448.311 25.793C448.096 26.1071 447.84 26.3444 447.543 26.5049C447.247 26.6586 446.87 26.7355 446.412 26.7355C446.223 26.7355 446.045 26.7221 445.876 26.6953C445.714 26.6686 445.567 26.6319 445.431 26.5851V25.6928C445.567 25.7529 445.711 25.8031 445.866 25.8432C446.021 25.8766 446.183 25.8933 446.351 25.8933C446.6 25.8933 446.813 25.8599 446.988 25.793C447.17 25.7195 447.328 25.6025 447.463 25.4421C447.604 25.2817 447.735 25.0679 447.857 24.8005L445.078 19.4768H446.078L448.089 23.4169C448.116 23.4637 448.143 23.5205 448.17 23.5874C448.197 23.6475 448.224 23.711 448.251 23.7779C448.285 23.8447 448.311 23.9082 448.332 23.9683H448.372C448.392 23.9215 448.412 23.8681 448.433 23.8079C448.46 23.7411 448.483 23.6776 448.503 23.6174C448.531 23.5506 448.554 23.4938 448.574 23.447L450.312 19.4768H451.272L448.968 24.6ZM457.518 26.6352H456.427L453.163 23.0059V26.6352H452.253V19.4768H453.163V22.9457L456.346 19.4768H457.376L454.244 22.9557L457.518 26.6352ZM458.51 19.4768H459.358V23.4069C459.358 23.574 459.355 23.7578 459.348 23.9583C459.348 24.1521 459.345 24.346 459.338 24.5398C459.332 24.7336 459.322 24.9074 459.308 25.0611C459.301 25.2082 459.295 25.3218 459.288 25.402H459.328L463.299 19.4768H464.31V26.6352H463.461V22.7452C463.461 22.5647 463.465 22.3709 463.471 22.1637C463.478 21.9498 463.485 21.7459 463.491 21.5521C463.505 21.3516 463.515 21.1745 463.522 21.0208C463.529 20.8671 463.536 20.7534 463.542 20.6799H463.502L459.52 26.6352H458.51V19.4768Z" fill="white"/>
<path d="M125.654 32.0391V33.3625C126.836 33.3925 127.776 33.5981 128.473 33.9791C129.181 34.35 129.686 34.8312 129.989 35.4228C130.302 36.0143 130.459 36.6609 130.459 37.3627C130.459 37.8139 130.378 38.2751 130.216 38.7463C130.065 39.2175 129.802 39.6536 129.428 40.0547C129.064 40.4457 128.574 40.7665 127.958 41.0171C127.341 41.2678 126.573 41.4031 125.654 41.4232V43.0774H123.592V41.4232C122.663 41.4031 121.885 41.2678 121.258 41.0171C120.642 40.7665 120.152 40.4407 119.788 40.0396C119.424 39.6386 119.166 39.2075 119.015 38.7463C118.863 38.2751 118.787 37.8139 118.787 37.3627C118.787 36.8414 118.873 36.3451 119.045 35.8739C119.217 35.4027 119.49 34.9816 119.864 34.6107C120.237 34.2397 120.733 33.944 121.349 33.7234C121.965 33.5028 122.713 33.3825 123.592 33.3625V32.0391H125.654ZM123.592 35.137C122.936 35.1671 122.41 35.2824 122.016 35.4829C121.632 35.6734 121.354 35.9291 121.182 36.2499C121.021 36.5707 120.94 36.9367 120.94 37.3477C120.94 37.7989 121.031 38.1949 121.213 38.5358C121.405 38.8666 121.693 39.1323 122.077 39.3328C122.471 39.5233 122.976 39.6336 123.592 39.6637V35.137ZM125.654 39.6637C126.27 39.6336 126.771 39.5233 127.155 39.3328C127.549 39.1323 127.837 38.8666 128.018 38.5358C128.21 38.1949 128.306 37.7989 128.306 37.3477C128.306 36.9367 128.221 36.5707 128.049 36.2499C127.887 35.9291 127.609 35.6734 127.215 35.4829C126.831 35.2824 126.311 35.1671 125.654 35.137V39.6637ZM138.74 42.927H132.51V32.1895H138.74V34.0542H134.799V36.4153H138.467V38.2801H134.799V41.0472H138.74V42.927ZM149.466 32.1895V41.0322H150.906V46.0551H148.693V42.927H141.917V46.0551H139.704V41.0322H140.538C140.821 40.4707 141.093 39.8792 141.356 39.2576C141.619 38.636 141.861 37.9693 142.084 37.2575C142.316 36.5456 142.523 35.7737 142.705 34.9415C142.887 34.0994 143.039 33.182 143.16 32.1895H149.466ZM144.979 34.0843C144.908 34.6057 144.807 35.1621 144.676 35.7536C144.544 36.3351 144.388 36.9316 144.206 37.5432C144.034 38.1548 143.842 38.7563 143.63 39.3478C143.418 39.9394 143.19 40.5008 142.948 41.0322H147.177V34.0843H144.979ZM158.798 42.927H152.568V32.1895H158.798V34.0542H154.857V36.4153H158.525V38.2801H154.857V41.0472H158.798V42.927ZM164.506 32.1895C165.901 32.1895 166.916 32.4902 167.553 33.0918C168.2 33.6833 168.523 34.5004 168.523 35.5431C168.523 36.0143 168.452 36.4654 168.311 36.8965C168.169 37.3176 167.932 37.6986 167.598 38.0395C167.275 38.3703 166.845 38.631 166.31 38.8215C165.774 39.012 165.112 39.1072 164.324 39.1072H163.339V42.927H161.05V32.1895H164.506ZM164.385 34.0542H163.339V37.2424H164.097C164.531 37.2424 164.905 37.1873 165.218 37.077C165.532 36.9667 165.774 36.7913 165.946 36.5507C166.118 36.31 166.204 35.9992 166.204 35.6183C166.204 35.0869 166.057 34.6959 165.764 34.4453C165.471 34.1846 165.011 34.0542 164.385 34.0542ZM176.437 42.927L175.649 40.3705H171.708L170.92 42.927H168.449L172.269 32.1443H175.073L178.908 42.927H176.437ZM174.315 35.9642C174.265 35.7937 174.199 35.5782 174.118 35.3175C174.037 35.0568 173.956 34.7911 173.876 34.5204C173.795 34.2498 173.729 34.0141 173.678 33.8136C173.628 34.0141 173.557 34.2648 173.466 34.5656C173.385 34.8563 173.305 35.137 173.224 35.4077C173.153 35.6684 173.097 35.8539 173.057 35.9642L172.284 38.4606H175.103L174.315 35.9642ZM188.843 42.927H186.554V34.0843H183.901C183.841 34.5455 183.775 35.0468 183.704 35.5882C183.643 36.1296 183.573 36.681 183.492 37.2424C183.421 37.7939 183.345 38.3202 183.265 38.8215C183.184 39.3128 183.103 39.7489 183.022 40.1299C182.891 40.7515 182.714 41.2828 182.491 41.7239C182.279 42.1651 181.981 42.5009 181.597 42.7315C181.223 42.9621 180.733 43.0774 180.127 43.0774C179.925 43.0774 179.733 43.0624 179.551 43.0323C179.369 43.0022 179.197 42.9621 179.035 42.912V41.0472C179.167 41.0873 179.293 41.1224 179.414 41.1525C179.546 41.1826 179.687 41.1976 179.839 41.1976C180.041 41.1976 180.208 41.1324 180.339 41.0021C180.47 40.8718 180.587 40.6512 180.688 40.3404C180.789 40.0196 180.89 39.5784 180.991 39.017C181.041 38.7764 181.102 38.4355 181.173 37.9944C181.243 37.5432 181.324 37.0169 181.415 36.4153C181.516 35.8037 181.617 35.142 181.718 34.4302C181.819 33.7084 181.915 32.9614 182.006 32.1895H188.843V42.927ZM191.573 42.927V32.1895H193.862V36.31H194.771C195.792 36.31 196.626 36.4504 197.272 36.7311C197.929 37.0118 198.414 37.3978 198.727 37.8891C199.041 38.3804 199.197 38.9418 199.197 39.5734C199.197 40.2752 199.041 40.8768 198.727 41.3781C198.414 41.8793 197.929 42.2653 197.272 42.536C196.615 42.7967 195.767 42.927 194.726 42.927H191.573ZM194.635 41.0623C195.332 41.0623 195.878 40.952 196.272 40.7314C196.676 40.5108 196.878 40.1248 196.878 39.5734C196.878 39.1924 196.777 38.9017 196.575 38.7012C196.383 38.5007 196.105 38.3653 195.741 38.2951C195.388 38.2149 194.958 38.1748 194.453 38.1748H193.862V41.0623H194.635ZM210.107 42.927H207.818V38.2951H203.528V42.927H201.239V32.1895H203.528V36.4003H207.818V32.1895H210.107V42.927ZM212.829 42.927V32.1895H215.118V36.31H215.861C216.861 36.31 217.685 36.4504 218.332 36.7311C218.978 37.0118 219.453 37.3978 219.756 37.8891C220.07 38.3804 220.226 38.9418 220.226 39.5734C220.226 40.2752 220.07 40.8768 219.756 41.3781C219.443 41.8793 218.958 42.2653 218.301 42.536C217.655 42.7967 216.816 42.927 215.785 42.927H212.829ZM215.724 41.0623C216.402 41.0623 216.932 40.952 217.316 40.7314C217.71 40.5108 217.907 40.1248 217.907 39.5734C217.907 39.1924 217.816 38.9017 217.634 38.7012C217.463 38.5007 217.205 38.3653 216.861 38.2951C216.518 38.2149 216.103 38.1748 215.618 38.1748H215.118V41.0623H215.724ZM221.545 42.927V32.1895H223.834V42.927H221.545ZM235.282 28.6554C235.231 29.1767 235.085 29.6379 234.842 30.0389C234.6 30.4299 234.221 30.7357 233.706 30.9563C233.19 31.1769 232.498 31.2871 231.629 31.2871C230.74 31.2871 230.042 31.1819 229.537 30.9713C229.042 30.7508 228.688 30.445 228.476 30.054C228.264 29.663 228.138 29.1968 228.097 28.6554H230.113C230.164 29.2068 230.305 29.5727 230.538 29.7532C230.77 29.9337 231.149 30.0239 231.674 30.0239C232.109 30.0239 232.463 29.9287 232.735 29.7382C233.018 29.5376 233.185 29.1767 233.236 28.6554H235.282ZM226.566 32.1895H228.628V37.3778C228.628 37.6284 228.623 37.9091 228.612 38.2199C228.602 38.5307 228.592 38.8365 228.582 39.1373C228.572 39.4281 228.562 39.6837 228.552 39.9043C228.542 40.1148 228.532 40.2602 228.522 40.3404H228.567L233.569 32.1895H236.313V42.927H234.266V37.7688C234.266 37.4981 234.271 37.2023 234.282 36.8815C234.292 36.5507 234.302 36.2348 234.312 35.9341C234.332 35.6333 234.347 35.3726 234.357 35.1521C234.378 34.9215 234.393 34.7711 234.403 34.7009H234.342L229.325 42.927H226.566V32.1895ZM241.62 32.1895H243.682V37.3778C243.682 37.6284 243.677 37.9091 243.667 38.2199C243.657 38.5307 243.647 38.8365 243.636 39.1373C243.626 39.4281 243.616 39.6837 243.606 39.9043C243.596 40.1148 243.586 40.2602 243.576 40.3404H243.621L248.623 32.1895H251.367V42.927H249.321V37.7688C249.321 37.4981 249.326 37.2023 249.336 36.8815C249.346 36.5507 249.356 36.2348 249.366 35.9341C249.386 35.6333 249.402 35.3726 249.412 35.1521C249.432 34.9215 249.447 34.7711 249.457 34.7009H249.396L244.379 42.927H241.62V32.1895ZM258.692 33.9339C258.258 33.9339 257.868 34.0192 257.525 34.1896C257.191 34.36 256.908 34.6057 256.676 34.9265C256.444 35.2373 256.267 35.6183 256.146 36.0694C256.034 36.5206 255.979 37.0269 255.979 37.5883C255.979 38.3503 256.07 39.002 256.252 39.5433C256.444 40.0747 256.742 40.4808 257.146 40.7615C257.55 41.0422 258.066 41.1826 258.692 41.1826C259.137 41.1826 259.576 41.1324 260.011 41.0322C260.455 40.9319 260.935 40.7916 261.451 40.6111V42.521C260.976 42.7115 260.506 42.8518 260.041 42.9421C259.576 43.0323 259.056 43.0774 258.48 43.0774C257.368 43.0774 256.449 42.8518 255.721 42.4007C255.004 41.9395 254.473 41.2979 254.13 40.4757C253.786 39.6436 253.614 38.6761 253.614 37.5733C253.614 36.7612 253.725 36.0193 253.948 35.3476C254.17 34.6658 254.493 34.0793 254.918 33.5881C255.352 33.0968 255.883 32.7158 256.509 32.4451C257.146 32.1744 257.874 32.0391 258.692 32.0391C259.228 32.0391 259.763 32.1093 260.299 32.2496C260.844 32.3799 261.365 32.5604 261.86 32.791L261.117 34.6408C260.713 34.4503 260.304 34.2848 259.89 34.1445C259.485 34.0041 259.086 33.9339 258.692 33.9339ZM268.048 33.9339C267.613 33.9339 267.224 34.0192 266.88 34.1896C266.547 34.36 266.264 34.6057 266.032 34.9265C265.799 35.2373 265.622 35.6183 265.501 36.0694C265.39 36.5206 265.334 37.0269 265.334 37.5883C265.334 38.3503 265.425 39.002 265.607 39.5433C265.799 40.0747 266.097 40.4808 266.501 40.7615C266.906 41.0422 267.421 41.1826 268.048 41.1826C268.492 41.1826 268.932 41.1324 269.366 41.0322C269.811 40.9319 270.291 40.7916 270.806 40.6111V42.521C270.331 42.7115 269.861 42.8518 269.397 42.9421C268.932 43.0323 268.411 43.0774 267.835 43.0774C266.724 43.0774 265.804 42.8518 265.077 42.4007C264.359 41.9395 263.829 41.2979 263.485 40.4757C263.141 39.6436 262.97 38.6761 262.97 37.5733C262.97 36.7612 263.081 36.0193 263.303 35.3476C263.526 34.6658 263.849 34.0793 264.273 33.5881C264.708 33.0968 265.238 32.7158 265.865 32.4451C266.501 32.1744 267.229 32.0391 268.048 32.0391C268.583 32.0391 269.119 32.1093 269.654 32.2496C270.2 32.3799 270.72 32.5604 271.216 32.791L270.473 34.6408C270.069 34.4503 269.659 34.2848 269.245 34.1445C268.841 34.0041 268.442 33.9339 268.048 33.9339ZM281.67 42.927H279.381V34.0843H276.729C276.668 34.5455 276.602 35.0468 276.532 35.5882C276.471 36.1296 276.4 36.681 276.319 37.2424C276.249 37.7939 276.173 38.3202 276.092 38.8215C276.011 39.3128 275.93 39.7489 275.849 40.1299C275.718 40.7515 275.541 41.2828 275.319 41.7239C275.107 42.1651 274.809 42.5009 274.425 42.7315C274.051 42.9621 273.561 43.0774 272.954 43.0774C272.752 43.0774 272.56 43.0624 272.378 43.0323C272.196 43.0022 272.025 42.9621 271.863 42.912V41.0472C271.994 41.0873 272.121 41.1224 272.242 41.1525C272.373 41.1826 272.515 41.1976 272.666 41.1976C272.868 41.1976 273.035 41.1324 273.167 41.0021C273.298 40.8718 273.414 40.6512 273.515 40.3404C273.616 40.0196 273.717 39.5784 273.818 39.017C273.869 38.7764 273.929 38.4355 274 37.9944C274.071 37.5432 274.152 37.0169 274.243 36.4153C274.344 35.8037 274.445 35.142 274.546 34.4302C274.647 33.7084 274.743 32.9614 274.834 32.1895H281.67V42.927ZM290.63 42.927H284.4V32.1895H290.63V34.0542H286.689V36.4153H290.357V38.2801H286.689V41.0472H290.63V42.927ZM301.355 32.1895V41.0322H302.795V46.0551H300.582V42.927H293.807V46.0551H291.593V41.0322H292.427C292.71 40.4707 292.983 39.8792 293.246 39.2576C293.508 38.636 293.751 37.9693 293.973 37.2575C294.206 36.5456 294.413 35.7737 294.595 34.9415C294.777 34.0994 294.928 33.182 295.049 32.1895H301.355ZM296.868 34.0843C296.798 34.6057 296.697 35.1621 296.565 35.7536C296.434 36.3351 296.277 36.9316 296.095 37.5432C295.924 38.1548 295.732 38.7563 295.519 39.3478C295.307 39.9394 295.08 40.5008 294.837 41.0322H299.066V34.0843H296.868ZM314.28 37.5432C314.28 38.3753 314.174 39.1323 313.961 39.814C313.759 40.4858 313.446 41.0673 313.022 41.5585C312.607 42.0498 312.072 42.4257 311.415 42.6864C310.768 42.9471 310.005 43.0774 309.126 43.0774C308.247 43.0774 307.479 42.9471 306.822 42.6864C306.175 42.4157 305.64 42.0398 305.215 41.5585C304.801 41.0673 304.488 40.4808 304.276 39.799C304.073 39.1173 303.972 38.3603 303.972 37.5282C303.972 36.4153 304.154 35.4478 304.518 34.6257C304.892 33.8036 305.458 33.167 306.216 32.7158C306.984 32.2546 307.959 32.024 309.141 32.024C310.313 32.024 311.279 32.2546 312.036 32.7158C312.794 33.167 313.355 33.8086 313.719 34.6408C314.093 35.4629 314.28 36.4303 314.28 37.5432ZM306.383 37.5432C306.383 38.2951 306.478 38.9418 306.67 39.4832C306.862 40.0246 307.161 40.4407 307.565 40.7314C307.969 41.0221 308.489 41.1675 309.126 41.1675C309.783 41.1675 310.308 41.0221 310.703 40.7314C311.107 40.4407 311.4 40.0246 311.582 39.4832C311.774 38.9418 311.87 38.2951 311.87 37.5432C311.87 36.4103 311.657 35.523 311.233 34.8814C310.809 34.2397 310.111 33.9189 309.141 33.9189C308.494 33.9189 307.969 34.0643 307.565 34.355C307.161 34.6458 306.862 35.0618 306.67 35.6032C306.478 36.1446 306.383 36.7913 306.383 37.5432ZM319.887 32.1895C320.847 32.1895 321.65 32.2797 322.297 32.4602C322.954 32.6306 323.444 32.9163 323.767 33.3174C324.101 33.7084 324.268 34.2397 324.268 34.9115C324.268 35.3125 324.202 35.6784 324.07 36.0093C323.939 36.3401 323.747 36.6108 323.494 36.8214C323.252 37.0319 322.954 37.1672 322.6 37.2274V37.3026C322.964 37.3728 323.292 37.4981 323.585 37.6786C323.878 37.859 324.111 38.1197 324.283 38.4606C324.454 38.8014 324.54 39.2526 324.54 39.814C324.54 40.4657 324.379 41.0272 324.055 41.4984C323.742 41.9596 323.287 42.3155 322.691 42.5661C322.095 42.8067 321.388 42.927 320.569 42.927H316.522V32.1895H319.887ZM320.145 36.4454C320.812 36.4454 321.271 36.3401 321.524 36.1296C321.787 35.919 321.918 35.6133 321.918 35.2122C321.918 34.8012 321.766 34.5054 321.463 34.3249C321.16 34.1445 320.68 34.0542 320.023 34.0542H318.811V36.4454H320.145ZM318.811 38.25V41.0472H320.311C320.998 41.0472 321.478 40.9169 321.751 40.6562C322.024 40.3855 322.161 40.0296 322.161 39.5885C322.161 39.3178 322.1 39.0822 321.979 38.8816C321.868 38.6811 321.67 38.5257 321.388 38.4155C321.105 38.3052 320.721 38.25 320.236 38.25H318.811ZM333.33 42.927L332.542 40.3705H328.601L327.813 42.927H325.342L329.162 32.1443H331.966L335.801 42.927H333.33ZM331.208 35.9642C331.157 35.7937 331.092 35.5782 331.011 35.3175C330.93 35.0568 330.849 34.7911 330.768 34.5204C330.688 34.2498 330.622 34.0141 330.571 33.8136C330.521 34.0141 330.45 34.2648 330.359 34.5656C330.278 34.8563 330.197 35.137 330.117 35.4077C330.046 35.6684 329.99 35.8539 329.95 35.9642L329.177 38.4606H331.996L331.208 35.9642ZM340.274 42.927H337.985V34.0843H335.045V32.1895H343.215V34.0843H340.274V42.927ZM351.113 42.927H344.883V32.1895H351.113V34.0542H347.172V36.4153H350.841V38.2801H347.172V41.0472H351.113V42.927ZM361.93 42.927H359.641V34.0843H356.988C356.928 34.5455 356.862 35.0468 356.791 35.5882C356.731 36.1296 356.66 36.681 356.579 37.2424C356.508 37.7939 356.433 38.3202 356.352 38.8215C356.271 39.3128 356.19 39.7489 356.109 40.1299C355.978 40.7515 355.801 41.2828 355.579 41.7239C355.366 42.1651 355.068 42.5009 354.684 42.7315C354.31 42.9621 353.82 43.0774 353.214 43.0774C353.012 43.0774 352.82 43.0624 352.638 43.0323C352.456 43.0022 352.284 42.9621 352.123 42.912V41.0472C352.254 41.0873 352.38 41.1224 352.502 41.1525C352.633 41.1826 352.774 41.1976 352.926 41.1976C353.128 41.1976 353.295 41.1324 353.426 41.0021C353.558 40.8718 353.674 40.6512 353.775 40.3404C353.876 40.0196 353.977 39.5784 354.078 39.017C354.129 38.7764 354.189 38.4355 354.26 37.9944C354.331 37.5432 354.412 37.0169 354.502 36.4153C354.604 35.8037 354.705 35.142 354.806 34.4302C354.907 33.7084 355.003 32.9614 355.094 32.1895H361.93V42.927ZM364.66 42.927V32.1895H366.949V36.31H367.858C368.879 36.31 369.713 36.4504 370.359 36.7311C371.016 37.0118 371.501 37.3978 371.815 37.8891C372.128 38.3804 372.285 38.9418 372.285 39.5734C372.285 40.2752 372.128 40.8768 371.815 41.3781C371.501 41.8793 371.016 42.2653 370.359 42.536C369.703 42.7967 368.854 42.927 367.813 42.927H364.66ZM367.722 41.0623C368.419 41.0623 368.965 40.952 369.359 40.7314C369.763 40.5108 369.965 40.1248 369.965 39.5734C369.965 39.1924 369.864 38.9017 369.662 38.7012C369.47 38.5007 369.192 38.3653 368.829 38.2951C368.475 38.2149 368.045 38.1748 367.54 38.1748H366.949V41.0623H367.722ZM378.919 33.9339C378.484 33.9339 378.095 34.0192 377.751 34.1896C377.418 34.36 377.135 34.6057 376.903 34.9265C376.67 35.2373 376.493 35.6183 376.372 36.0694C376.261 36.5206 376.205 37.0269 376.205 37.5883C376.205 38.3503 376.296 39.002 376.478 39.5433C376.67 40.0747 376.968 40.4808 377.373 40.7615C377.777 41.0422 378.292 41.1826 378.919 41.1826C379.363 41.1826 379.803 41.1324 380.237 41.0322C380.682 40.9319 381.162 40.7916 381.677 40.6111V42.521C381.202 42.7115 380.733 42.8518 380.268 42.9421C379.803 43.0323 379.282 43.0774 378.706 43.0774C377.595 43.0774 376.675 42.8518 375.948 42.4007C375.23 41.9395 374.7 41.2979 374.356 40.4757C374.013 39.6436 373.841 38.6761 373.841 37.5733C373.841 36.7612 373.952 36.0193 374.174 35.3476C374.397 34.6658 374.72 34.0793 375.144 33.5881C375.579 33.0968 376.109 32.7158 376.736 32.4451C377.373 32.1744 378.1 32.0391 378.919 32.0391C379.454 32.0391 379.99 32.1093 380.525 32.2496C381.071 32.3799 381.591 32.5604 382.087 32.791L381.344 34.6408C380.94 34.4503 380.53 34.2848 380.116 34.1445C379.712 34.0041 379.313 33.9339 378.919 33.9339ZM392.799 42.927H390.192L386.266 37.4831V42.927H383.978V32.1895H386.266V37.3928L390.147 32.1895H392.587L388.646 37.3477L392.799 42.927ZM394.162 32.1895H396.223V37.3778C396.223 37.6284 396.218 37.9091 396.208 38.2199C396.198 38.5307 396.188 38.8365 396.178 39.1373C396.168 39.4281 396.158 39.6837 396.147 39.9043C396.137 40.1148 396.127 40.2602 396.117 40.3404H396.163L401.165 32.1895H403.908V42.927H401.862V37.7688C401.862 37.4981 401.867 37.2023 401.877 36.8815C401.887 36.5507 401.897 36.2348 401.907 35.9341C401.928 35.6333 401.943 35.3726 401.953 35.1521C401.973 34.9215 401.988 34.7711 401.998 34.7009H401.938L396.92 42.927H394.162V32.1895ZM415.356 28.6554C415.306 29.1767 415.159 29.6379 414.917 30.0389C414.674 30.4299 414.295 30.7357 413.78 30.9563C413.264 31.1769 412.572 31.2871 411.703 31.2871C410.814 31.2871 410.117 31.1819 409.611 30.9713C409.116 30.7508 408.763 30.445 408.55 30.054C408.338 29.663 408.212 29.1968 408.171 28.6554H410.187C410.238 29.2068 410.379 29.5727 410.612 29.7532C410.844 29.9337 411.223 30.0239 411.749 30.0239C412.183 30.0239 412.537 29.9287 412.81 29.7382C413.093 29.5376 413.259 29.1767 413.31 28.6554H415.356ZM406.64 32.1895H408.702V37.3778C408.702 37.6284 408.697 37.9091 408.687 38.2199C408.677 38.5307 408.667 38.8365 408.656 39.1373C408.646 39.4281 408.636 39.6837 408.626 39.9043C408.616 40.1148 408.606 40.2602 408.596 40.3404H408.641L413.643 32.1895H416.387V42.927H414.341V37.7688C414.341 37.4981 414.346 37.2023 414.356 36.8815C414.366 36.5507 414.376 36.2348 414.386 35.9341C414.406 35.6333 414.422 35.3726 414.432 35.1521C414.452 34.9215 414.467 34.7711 414.477 34.7009H414.416L409.399 42.927H406.64V32.1895ZM434.441 41.1224V46.0551H432.228V42.927H424.27V32.1895H426.559V41.0322H430.546V32.1895H432.835V41.1224H434.441ZM442.342 42.927H436.112V32.1895H442.342V34.0542H438.401V36.4153H442.069V38.2801H438.401V41.0472H442.342V42.927ZM453.461 42.927H451.172V38.2951H446.883V42.927H444.594V32.1895H446.883V36.4003H451.172V32.1895H453.461V42.927ZM460.353 42.927H458.064V34.0843H455.124V32.1895H463.294V34.0843H460.353V42.927ZM468.418 32.1895C469.813 32.1895 470.828 32.4902 471.465 33.0918C472.112 33.6833 472.435 34.5004 472.435 35.5431C472.435 36.0143 472.364 36.4654 472.223 36.8965C472.081 37.3176 471.844 37.6986 471.511 38.0395C471.187 38.3703 470.758 38.631 470.222 38.8215C469.686 39.012 469.025 39.1072 468.236 39.1072H467.251V42.927H464.962V32.1895H468.418ZM468.297 34.0542H467.251V37.2424H468.009C468.444 37.2424 468.817 37.1873 469.131 37.077C469.444 36.9667 469.687 36.7913 469.858 36.5507C470.03 36.31 470.116 35.9992 470.116 35.6183C470.116 35.0869 469.969 34.6959 469.676 34.4453C469.383 34.1846 468.924 34.0542 468.297 34.0542Z" fill="white"/>
<path d="M125.699 75.5107H119.469V64.7732H125.699V66.6379H121.758V68.999H125.426V70.8638H121.758V73.6309H125.699V75.5107ZM136.425 64.7732V73.6159H137.865V78.6388H135.652V75.5107H128.876V78.6388H126.663V73.6159H127.497C127.78 73.0544 128.052 72.4629 128.315 71.8413C128.578 71.2197 128.82 70.553 129.043 69.8412C129.275 69.1293 129.482 68.3574 129.664 67.5252C129.846 66.6831 129.998 65.7657 130.119 64.7732H136.425ZM131.938 66.668C131.867 67.1894 131.766 67.7458 131.635 68.3373C131.503 68.9188 131.347 69.5153 131.165 70.1269C130.993 70.7385 130.801 71.34 130.589 71.9315C130.377 72.5231 130.149 73.0845 129.907 73.6159H134.136V66.668H131.938ZM139.527 64.7732H141.588V69.9615C141.588 70.2121 141.583 70.4928 141.573 70.8036C141.563 71.1144 141.553 71.4202 141.543 71.721C141.533 72.0117 141.523 72.2674 141.513 72.488C141.502 72.6985 141.492 72.8439 141.482 72.9241H141.528L146.53 64.7732H149.273V75.5107H147.227V70.3525C147.227 70.0818 147.232 69.786 147.242 69.4652C147.252 69.1344 147.262 68.8185 147.273 68.5178C147.293 68.217 147.308 67.9563 147.318 67.7358C147.338 67.5052 147.353 67.3548 147.364 67.2846H147.303L142.286 75.5107H139.527V64.7732ZM160.873 75.5107H158.584V70.8788H154.294V75.5107H152.006V64.7732H154.294V68.984H158.584V64.7732H160.873V75.5107ZM170.22 75.5107L169.431 72.9542H165.49L164.702 75.5107H162.232L166.051 64.728H168.856L172.69 75.5107H170.22ZM168.098 68.5478C168.047 68.3774 167.981 68.1619 167.901 67.9012C167.82 67.6405 167.739 67.3748 167.658 67.1041C167.577 66.8334 167.512 66.5978 167.461 66.3973C167.41 66.5978 167.34 66.8485 167.249 67.1493C167.168 67.44 167.087 67.7207 167.006 67.9914C166.936 68.2521 166.88 68.4376 166.839 68.5478L166.066 71.0443H168.886L168.098 68.5478ZM177.699 71.3901L175.168 75.5107H172.621L175.699 70.7886C175.406 70.6683 175.113 70.4928 174.819 70.2622C174.526 70.0216 174.284 69.7058 174.092 69.3148C173.9 68.9138 173.804 68.4225 173.804 67.841C173.804 66.8485 174.163 66.0915 174.88 65.5702C175.598 65.0388 176.603 64.7732 177.897 64.7732H181.413V75.5107H179.124V71.3901H177.699ZM177.987 66.6379C177.593 66.6379 177.255 66.6831 176.972 66.7733C176.699 66.8635 176.487 67.0089 176.335 67.2094C176.194 67.4099 176.123 67.6756 176.123 68.0065C176.123 68.4777 176.28 68.8536 176.592 69.1344C176.916 69.4051 177.401 69.5404 178.048 69.5404H179.124V66.6379H177.987ZM193.554 64.7732V66.653H189.007V75.5107H186.718V64.7732H193.554ZM201.444 75.5107H195.214V64.7732H201.444V66.6379H197.503V68.999H201.171V70.8638H197.503V73.6309H201.444V75.5107ZM213.518 70.1269C213.518 70.959 213.412 71.716 213.2 72.3977C212.998 73.0695 212.685 73.651 212.26 74.1422C211.846 74.6335 211.31 75.0094 210.653 75.2701C210.007 75.5308 209.244 75.6611 208.365 75.6611C207.485 75.6611 206.717 75.5308 206.061 75.2701C205.414 74.9994 204.878 74.6234 204.454 74.1422C204.039 73.651 203.726 73.0644 203.514 72.3827C203.312 71.7009 203.211 70.944 203.211 70.1119C203.211 68.999 203.393 68.0315 203.757 67.2094C204.13 66.3873 204.696 65.7507 205.454 65.2995C206.222 64.8383 207.197 64.6077 208.38 64.6077C209.552 64.6077 210.517 64.8383 211.275 65.2995C212.033 65.7507 212.594 66.3923 212.957 67.2244C213.331 68.0466 213.518 69.014 213.518 70.1269ZM205.621 70.1269C205.621 70.8788 205.717 71.5255 205.909 72.0669C206.101 72.6083 206.399 73.0243 206.803 73.3151C207.207 73.6058 207.728 73.7512 208.365 73.7512C209.021 73.7512 209.547 73.6058 209.941 73.3151C210.345 73.0243 210.638 72.6083 210.82 72.0669C211.012 71.5255 211.108 70.8788 211.108 70.1269C211.108 68.994 210.896 68.1067 210.471 67.4651C210.047 66.8234 209.35 66.5026 208.38 66.5026C207.733 66.5026 207.207 66.648 206.803 66.9387C206.399 67.2295 206.101 67.6455 205.909 68.1869C205.717 68.7283 205.621 69.375 205.621 70.1269ZM221.945 64.6228V65.9462C223.127 65.9762 224.067 66.1818 224.764 66.5627C225.471 66.9337 225.977 67.4149 226.28 68.0065C226.593 68.598 226.75 69.2446 226.75 69.9464C226.75 70.3976 226.669 70.8588 226.507 71.33C226.356 71.8012 226.093 72.2373 225.719 72.6384C225.355 73.0294 224.865 73.3502 224.249 73.6008C223.632 73.8515 222.864 73.9868 221.945 74.0069V75.6611H219.883V74.0069C218.954 73.9868 218.175 73.8515 217.549 73.6008C216.933 73.3502 216.442 73.0243 216.079 72.6233C215.715 72.2223 215.457 71.7912 215.306 71.33C215.154 70.8588 215.078 70.3976 215.078 69.9464C215.078 69.4251 215.164 68.9288 215.336 68.4576C215.508 67.9864 215.78 67.5653 216.154 67.1944C216.528 66.8234 217.023 66.5277 217.64 66.3071C218.256 66.0865 219.004 65.9662 219.883 65.9462V64.6228H221.945ZM219.883 67.7207C219.226 67.7508 218.701 67.8661 218.307 68.0666C217.923 68.2571 217.645 68.5128 217.473 68.8336C217.311 69.1544 217.231 69.5203 217.231 69.9314C217.231 70.3826 217.322 70.7786 217.503 71.1195C217.695 71.4503 217.983 71.716 218.367 71.9165C218.762 72.107 219.267 72.2173 219.883 72.2474V67.7207ZM221.945 72.2474C222.561 72.2173 223.061 72.107 223.445 71.9165C223.839 71.716 224.127 71.4503 224.309 71.1195C224.501 70.7786 224.597 70.3826 224.597 69.9314C224.597 69.5203 224.511 69.1544 224.34 68.8336C224.178 68.5128 223.9 68.2571 223.506 68.0666C223.122 67.8661 222.602 67.7508 221.945 67.7207V72.2474ZM228.801 64.7732H230.863V69.9615C230.863 70.2121 230.858 70.4928 230.847 70.8036C230.837 71.1144 230.827 71.4202 230.817 71.721C230.807 72.0117 230.797 72.2674 230.787 72.488C230.777 72.6985 230.767 72.8439 230.756 72.9241H230.802L235.804 64.7732H238.548V75.5107H236.501V70.3525C236.501 70.0818 236.506 69.786 236.516 69.4652C236.527 69.1344 236.537 68.8185 236.547 68.5178C236.567 68.217 236.582 67.9563 236.592 67.7358C236.612 67.5052 236.628 67.3548 236.638 67.2846H236.577L231.56 75.5107H228.801V64.7732ZM248.753 67.2846C248.753 68.0065 248.495 68.588 247.98 69.0291C247.464 69.4702 246.807 69.7459 246.009 69.8562V69.9013C246.999 70.0016 247.757 70.2773 248.283 70.7284C248.818 71.1696 249.086 71.7461 249.086 72.4579C249.086 73.0795 248.914 73.6359 248.571 74.1272C248.227 74.6084 247.717 74.9844 247.04 75.2551C246.363 75.5258 245.524 75.6611 244.524 75.6611C243.705 75.6611 242.978 75.611 242.341 75.5107C241.714 75.4105 241.169 75.2651 240.704 75.0746V73.1647C241.017 73.3151 241.371 73.4454 241.765 73.5557C242.159 73.656 242.558 73.7362 242.962 73.7963C243.367 73.8465 243.74 73.8715 244.084 73.8715C245.044 73.8715 245.736 73.7362 246.161 73.4655C246.595 73.1848 246.812 72.7938 246.812 72.2925C246.812 71.7812 246.499 71.4102 245.873 71.1796C245.246 70.939 244.402 70.8187 243.341 70.8187H242.326V69.0441H243.235C244.094 69.0441 244.761 68.989 245.236 68.8787C245.711 68.7684 246.044 68.608 246.236 68.3975C246.428 68.1869 246.524 67.9363 246.524 67.6455C246.524 67.2746 246.358 66.9838 246.024 66.7733C245.701 66.5527 245.211 66.4424 244.554 66.4424C243.998 66.4424 243.473 66.5226 242.978 66.6831C242.492 66.8435 242.038 67.054 241.613 67.3147L240.613 65.7958C240.987 65.5552 241.381 65.3496 241.795 65.1792C242.22 64.9987 242.684 64.8634 243.19 64.7732C243.695 64.6729 244.256 64.6228 244.872 64.6228C245.691 64.6228 246.388 64.7381 246.964 64.9687C247.54 65.1992 247.98 65.5151 248.283 65.9161C248.596 66.3071 248.753 66.7633 248.753 67.2846ZM251.109 64.7732H253.171V69.9615C253.171 70.2121 253.166 70.4928 253.155 70.8036C253.145 71.1144 253.135 71.4202 253.125 71.721C253.115 72.0117 253.105 72.2674 253.095 72.488C253.085 72.6985 253.075 72.8439 253.064 72.9241H253.11L258.112 64.7732H260.856V75.5107H258.809V70.3525C258.809 70.0818 258.814 69.786 258.824 69.4652C258.835 69.1344 258.845 68.8185 258.855 68.5178C258.875 68.217 258.89 67.9563 258.9 67.7358C258.92 67.5052 258.936 67.3548 258.946 67.2846H258.885L253.868 75.5107H251.109V64.7732ZM271.894 75.5107H269.605V71.3601C268.969 71.5806 268.383 71.7461 267.847 71.8563C267.322 71.9666 266.791 72.0218 266.256 72.0218C265.245 72.0218 264.452 71.7812 263.876 71.2999C263.31 70.8087 263.027 70.1119 263.027 69.2095V64.7732H265.316V68.5629C265.316 69.0842 265.437 69.4752 265.68 69.7359C265.922 69.9966 266.331 70.1269 266.907 70.1269C267.332 70.1269 267.756 70.0818 268.181 69.9916C268.605 69.9013 269.08 69.766 269.605 69.5855V64.7732H271.894V75.5107ZM280.845 75.5107H274.615V64.7732H280.845V66.6379H276.904V68.999H280.572V70.8638H276.904V73.6309H280.845V75.5107ZM287.69 66.5176C287.256 66.5176 286.867 66.6029 286.523 66.7733C286.189 66.9437 285.907 67.1894 285.674 67.5102C285.442 67.821 285.265 68.202 285.144 68.6531C285.032 69.1043 284.977 69.6106 284.977 70.172C284.977 70.934 285.068 71.5857 285.25 72.127C285.442 72.6584 285.74 73.0645 286.144 73.3452C286.548 73.6259 287.064 73.7663 287.69 73.7663C288.135 73.7663 288.574 73.7161 289.009 73.6159C289.453 73.5156 289.933 73.3752 290.449 73.1948V75.1047C289.974 75.2952 289.504 75.4355 289.039 75.5258C288.574 75.616 288.054 75.6611 287.478 75.6611C286.366 75.6611 285.447 75.4355 284.719 74.9844C284.002 74.5232 283.471 73.8815 283.128 73.0594C282.784 72.2273 282.612 71.2598 282.612 70.157C282.612 69.3449 282.723 68.603 282.946 67.9313C283.168 67.2495 283.491 66.663 283.916 66.1717C284.35 65.6805 284.881 65.2995 285.507 65.0288C286.144 64.7581 286.872 64.6228 287.69 64.6228C288.226 64.6228 288.761 64.693 289.297 64.8333C289.843 64.9636 290.363 65.1441 290.858 65.3747L290.115 67.2244C289.711 67.034 289.302 66.8685 288.888 66.7282C288.483 66.5878 288.084 66.5176 287.69 66.5176ZM301.57 75.5107H298.963L295.037 70.0667V75.5107H292.748V64.7732H295.037V69.9765L298.918 64.7732H301.358L297.417 69.9314L301.57 75.5107ZM309.557 75.5107L308.768 72.9542H304.827L304.039 75.5107H301.568L305.388 64.728H308.192L312.027 75.5107H309.557ZM307.435 68.5478C307.384 68.3774 307.318 68.1619 307.237 67.9012C307.157 67.6405 307.076 67.3748 306.995 67.1041C306.914 66.8334 306.848 66.5978 306.798 66.3973C306.747 66.5978 306.677 66.8485 306.586 67.1493C306.505 67.44 306.424 67.7207 306.343 67.9914C306.272 68.2521 306.217 68.4376 306.176 68.5478L305.403 71.0443H308.223L307.435 68.5478ZM317.036 71.3901L314.505 75.5107H311.959L315.036 70.7886C314.743 70.6683 314.449 70.4928 314.156 70.2622C313.863 70.0216 313.621 69.7058 313.429 69.3148C313.237 68.9138 313.141 68.4225 313.141 67.841C313.141 66.8485 313.5 66.0915 314.217 65.5702C314.934 65.0388 315.94 64.7732 317.233 64.7732H320.75V75.5107H318.461V71.3901H317.036ZM317.324 66.6379C316.93 66.6379 316.592 66.6831 316.309 66.7733C316.036 66.8635 315.824 67.0089 315.672 67.2094C315.531 67.4099 315.46 67.6756 315.46 68.0065C315.46 68.4777 315.617 68.8536 315.93 69.1344C316.253 69.4051 316.738 69.5404 317.385 69.5404H318.461V66.6379H317.324ZM330.648 66.5176C330.213 66.5176 329.824 66.6029 329.48 66.7733C329.147 66.9437 328.864 67.1894 328.632 67.5102C328.399 67.821 328.222 68.202 328.101 68.6531C327.99 69.1043 327.934 69.6106 327.934 70.172C327.934 70.934 328.025 71.5857 328.207 72.127C328.399 72.6584 328.697 73.0645 329.101 73.3452C329.506 73.6259 330.021 73.7663 330.648 73.7663C331.092 73.7663 331.532 73.7161 331.966 73.6159C332.411 73.5156 332.891 73.3752 333.406 73.1948V75.1047C332.931 75.2952 332.461 75.4355 331.997 75.5258C331.532 75.616 331.011 75.6611 330.435 75.6611C329.324 75.6611 328.404 75.4355 327.677 74.9844C326.959 74.5232 326.429 73.8815 326.085 73.0594C325.741 72.2273 325.57 71.2598 325.57 70.157C325.57 69.3449 325.681 68.603 325.903 67.9313C326.125 67.2495 326.449 66.663 326.873 66.1717C327.308 65.6805 327.838 65.2995 328.465 65.0288C329.101 64.7581 329.829 64.6228 330.648 64.6228C331.183 64.6228 331.719 64.693 332.254 64.8333C332.8 64.9636 333.32 65.1441 333.816 65.3747L333.073 67.2244C332.669 67.034 332.259 66.8685 331.845 66.7282C331.441 66.5878 331.042 66.5176 330.648 66.5176ZM344.27 75.5107H341.981V66.668H339.329C339.268 67.1292 339.202 67.6305 339.132 68.1719C339.071 68.7133 339 69.2647 338.919 69.8261C338.849 70.3775 338.773 70.9039 338.692 71.4052C338.611 71.8964 338.53 72.3326 338.449 72.7135C338.318 73.3351 338.141 73.8665 337.919 74.3076C337.707 74.7488 337.409 75.0846 337.025 75.3152C336.651 75.5458 336.161 75.6611 335.554 75.6611C335.352 75.6611 335.16 75.6461 334.978 75.616C334.796 75.5859 334.625 75.5458 334.463 75.4957V73.6309C334.594 73.671 334.721 73.7061 334.842 73.7362C334.973 73.7663 335.115 73.7813 335.266 73.7813C335.468 73.7813 335.635 73.7161 335.766 73.5858C335.898 73.4554 336.014 73.2349 336.115 72.9241C336.216 72.6033 336.317 72.1621 336.418 71.6007C336.469 71.3601 336.529 71.0192 336.6 70.5781C336.671 70.1269 336.752 69.6006 336.843 68.999C336.944 68.3874 337.045 67.7257 337.146 67.0139C337.247 66.2921 337.343 65.5451 337.434 64.7732H344.27V75.5107ZM352.336 72.3677C352.033 73.0494 351.709 73.6409 351.366 74.1422C351.032 74.6335 350.603 75.0094 350.077 75.2701C349.552 75.5308 348.865 75.6611 348.016 75.6611C347.753 75.6611 347.465 75.6411 347.152 75.601C346.839 75.5609 346.551 75.5057 346.288 75.4355V73.4805C346.53 73.5808 346.798 73.651 347.091 73.6911C347.384 73.7312 347.657 73.7512 347.91 73.7512C348.243 73.7512 348.511 73.6961 348.713 73.5858C348.925 73.4755 349.092 73.3251 349.213 73.1346C349.345 72.9341 349.451 72.7186 349.532 72.488L345.788 64.7732H348.213L350.229 69.4201C350.28 69.5203 350.34 69.6507 350.411 69.8111C350.482 69.9715 350.552 70.1369 350.623 70.3074C350.694 70.4778 350.749 70.6282 350.79 70.7585H350.866C350.906 70.6382 350.957 70.4928 351.017 70.3224C351.088 70.1419 351.159 69.9615 351.229 69.781C351.31 69.5905 351.381 69.4251 351.442 69.2847L353.321 64.7732H355.686L352.336 72.3677ZM359.537 69.9314L355.899 64.7732H358.264L361.765 69.9765V64.7732H363.903V69.9765L367.404 64.7732H369.769L366.131 69.9314L369.981 75.5107H367.525L363.903 70.0667V75.5107H361.765V70.0667L358.143 75.5107H355.687L359.537 69.9314ZM371.351 75.5107V64.7732H378.187V66.653H373.64V68.8937H374.549C375.57 68.8937 376.403 69.0341 377.05 69.3148C377.707 69.5955 378.192 69.9815 378.505 70.4728C378.819 70.9641 378.975 71.5255 378.975 72.1571C378.975 72.8589 378.819 73.4605 378.505 73.9618C378.192 74.463 377.707 74.849 377.05 75.1197C376.393 75.3804 375.545 75.5107 374.504 75.5107H371.351ZM374.413 73.6459C375.11 73.6459 375.656 73.5357 376.05 73.3151C376.454 73.0945 376.656 72.7085 376.656 72.1571C376.656 71.7761 376.555 71.4854 376.353 71.2849C376.161 71.0844 375.883 70.949 375.519 70.8788C375.166 70.7986 374.736 70.7585 374.231 70.7585H373.64V73.6459H374.413ZM387.641 75.5107L386.852 72.9542H382.911L382.123 75.5107H379.652L383.472 64.728H386.276L390.111 75.5107H387.641ZM385.518 68.5478C385.468 68.3774 385.402 68.1619 385.321 67.9012C385.241 67.6405 385.16 67.3748 385.079 67.1041C384.998 66.8334 384.932 66.5978 384.882 66.3973C384.831 66.5978 384.761 66.8485 384.67 67.1493C384.589 67.44 384.508 67.7207 384.427 67.9914C384.356 68.2521 384.301 68.4376 384.26 68.5478L383.487 71.0443H386.307L385.518 68.5478ZM397.514 64.7732C398.909 64.7732 399.924 65.0739 400.561 65.6755C401.207 66.267 401.531 67.0841 401.531 68.1268C401.531 68.598 401.46 69.0491 401.319 69.4802C401.177 69.9013 400.94 70.2823 400.606 70.6232C400.283 70.954 399.853 71.2147 399.318 71.4052C398.782 71.5957 398.12 71.6909 397.332 71.6909H396.347V75.5107H394.058V64.7732H397.514ZM397.393 66.6379H396.347V69.8261H397.105C397.539 69.8261 397.913 69.771 398.226 69.6607C398.54 69.5504 398.782 69.375 398.954 69.1344C399.126 68.8937 399.212 68.5829 399.212 68.202C399.212 67.6706 399.065 67.2796 398.772 67.0289C398.479 66.7683 398.019 66.6379 397.393 66.6379ZM413.398 70.1269C413.398 70.959 413.292 71.716 413.08 72.3977C412.878 73.0695 412.565 73.651 412.14 74.1422C411.726 74.6335 411.19 75.0094 410.533 75.2701C409.887 75.5308 409.124 75.6611 408.245 75.6611C407.365 75.6611 406.597 75.5308 405.94 75.2701C405.294 74.9994 404.758 74.6234 404.334 74.1422C403.919 73.651 403.606 73.0644 403.394 72.3827C403.192 71.7009 403.091 70.944 403.091 70.1119C403.091 68.999 403.273 68.0315 403.636 67.2094C404.01 66.3873 404.576 65.7507 405.334 65.2995C406.102 64.8383 407.077 64.6077 408.26 64.6077C409.432 64.6077 410.397 64.8383 411.155 65.2995C411.913 65.7507 412.474 66.3923 412.837 67.2244C413.211 68.0466 413.398 69.014 413.398 70.1269ZM405.501 70.1269C405.501 70.8788 405.597 71.5255 405.789 72.0669C405.981 72.6083 406.279 73.0243 406.683 73.3151C407.087 73.6058 407.608 73.7512 408.245 73.7512C408.901 73.7512 409.427 73.6058 409.821 73.3151C410.225 73.0243 410.518 72.6083 410.7 72.0669C410.892 71.5255 410.988 70.8788 410.988 70.1269C410.988 68.994 410.776 68.1067 410.351 67.4651C409.927 66.8234 409.23 66.5026 408.26 66.5026C407.613 66.5026 407.087 66.648 406.683 66.9387C406.279 67.2295 405.981 67.6455 405.789 68.1869C405.597 68.7283 405.501 69.375 405.501 70.1269ZM420.233 66.5176C419.799 66.5176 419.41 66.6029 419.066 66.7733C418.732 66.9437 418.45 67.1894 418.217 67.5102C417.985 67.821 417.808 68.202 417.687 68.6531C417.575 69.1043 417.52 69.6106 417.52 70.172C417.52 70.934 417.611 71.5857 417.793 72.127C417.985 72.6584 418.283 73.0645 418.687 73.3452C419.091 73.6259 419.607 73.7663 420.233 73.7663C420.678 73.7663 421.117 73.7161 421.552 73.6159C421.996 73.5156 422.476 73.3752 422.992 73.1948V75.1047C422.517 75.2952 422.047 75.4355 421.582 75.5258C421.117 75.616 420.597 75.6611 420.021 75.6611C418.909 75.6611 417.99 75.4355 417.262 74.9844C416.545 74.5232 416.014 73.8815 415.671 73.0594C415.327 72.2273 415.155 71.2598 415.155 70.157C415.155 69.3449 415.266 68.603 415.489 67.9313C415.711 67.2495 416.034 66.663 416.459 66.1717C416.893 65.6805 417.424 65.2995 418.05 65.0288C418.687 64.7581 419.415 64.6228 420.233 64.6228C420.769 64.6228 421.304 64.693 421.84 64.8333C422.386 64.9636 422.906 65.1441 423.401 65.3747L422.658 67.2244C422.254 67.034 421.845 66.8685 421.431 66.7282C421.026 66.5878 420.627 66.5176 420.233 66.5176ZM429.588 66.5176C429.154 66.5176 428.764 66.6029 428.421 66.7733C428.087 66.9437 427.804 67.1894 427.572 67.5102C427.34 67.821 427.163 68.202 427.042 68.6531C426.93 69.1043 426.875 69.6106 426.875 70.172C426.875 70.934 426.966 71.5857 427.148 72.127C427.34 72.6584 427.638 73.0645 428.042 73.3452C428.446 73.6259 428.962 73.7663 429.588 73.7663C430.033 73.7663 430.472 73.7161 430.907 73.6159C431.351 73.5156 431.831 73.3752 432.347 73.1948V75.1047C431.872 75.2952 431.402 75.4355 430.937 75.5258C430.472 75.616 429.952 75.6611 429.376 75.6611C428.264 75.6611 427.345 75.4355 426.617 74.9844C425.9 74.5232 425.369 73.8815 425.026 73.0594C424.682 72.2273 424.51 71.2598 424.51 70.157C424.51 69.3449 424.621 68.603 424.844 67.9313C425.066 67.2495 425.389 66.663 425.814 66.1717C426.248 65.6805 426.779 65.2995 427.405 65.0288C428.042 64.7581 428.77 64.6228 429.588 64.6228C430.124 64.6228 430.659 64.693 431.195 64.8333C431.74 64.9636 432.261 65.1441 432.756 65.3747L432.013 67.2244C431.609 67.034 431.2 66.8685 430.786 66.7282C430.381 66.5878 429.982 66.5176 429.588 66.5176ZM434.646 64.7732H436.708V69.9615C436.708 70.2121 436.703 70.4928 436.693 70.8036C436.683 71.1144 436.672 71.4202 436.662 71.721C436.652 72.0117 436.642 72.2674 436.632 72.488C436.622 72.6985 436.612 72.8439 436.602 72.9241H436.647L441.649 64.7732H444.393V75.5107H442.347V70.3525C442.347 70.0818 442.352 69.786 442.362 69.4652C442.372 69.1344 442.382 68.8185 442.392 68.5178C442.412 68.217 442.427 67.9563 442.438 67.7358C442.458 67.5052 442.473 67.3548 442.483 67.2846H442.422L437.405 75.5107H434.646V64.7732ZM455.841 61.2391C455.79 61.7604 455.644 62.2216 455.401 62.6226C455.159 63.0136 454.78 63.3194 454.264 63.54C453.749 63.7605 453.057 63.8708 452.188 63.8708C451.299 63.8708 450.601 63.7656 450.096 63.555C449.601 63.3345 449.247 63.0287 449.035 62.6377C448.823 62.2467 448.696 61.7805 448.656 61.2391H450.672C450.723 61.7905 450.864 62.1564 451.096 62.3369C451.329 62.5174 451.708 62.6076 452.233 62.6076C452.668 62.6076 453.022 62.5123 453.294 62.3219C453.577 62.1213 453.744 61.7604 453.795 61.2391H455.841ZM447.125 64.7732H449.187V69.9615C449.187 70.2121 449.182 70.4928 449.171 70.8036C449.161 71.1144 449.151 71.4202 449.141 71.721C449.131 72.0117 449.121 72.2674 449.111 72.488C449.101 72.6985 449.091 72.8439 449.08 72.9241H449.126L454.128 64.7732H456.872V75.5107H454.825V70.3525C454.825 70.0818 454.83 69.786 454.84 69.4652C454.851 69.1344 454.861 68.8185 454.871 68.5178C454.891 68.217 454.906 67.9563 454.916 67.7358C454.936 67.5052 454.952 67.3548 454.962 67.2846H454.901L449.884 75.5107H447.125V64.7732ZM464.197 66.5176C463.762 66.5176 463.373 66.6029 463.029 66.7733C462.696 66.9437 462.413 67.1894 462.181 67.5102C461.948 67.821 461.771 68.202 461.65 68.6531C461.539 69.1043 461.483 69.6106 461.483 70.172C461.483 70.934 461.574 71.5857 461.756 72.127C461.948 72.6584 462.246 73.0645 462.651 73.3452C463.055 73.6259 463.57 73.7663 464.197 73.7663C464.641 73.7663 465.081 73.7161 465.515 73.6159C465.96 73.5156 466.44 73.3752 466.955 73.1948V75.1047C466.48 75.2952 466.011 75.4355 465.546 75.5258C465.081 75.616 464.56 75.6611 463.984 75.6611C462.873 75.6611 461.953 75.4355 461.226 74.9844C460.508 74.5232 459.978 73.8815 459.634 73.0594C459.291 72.2273 459.119 71.2598 459.119 70.157C459.119 69.3449 459.23 68.603 459.452 67.9313C459.675 67.2495 459.998 66.663 460.422 66.1717C460.857 65.6805 461.387 65.2995 462.014 65.0288C462.651 64.7581 463.378 64.6228 464.197 64.6228C464.732 64.6228 465.268 64.693 465.803 64.8333C466.349 64.9636 466.869 65.1441 467.365 65.3747L466.622 67.2244C466.218 67.034 465.808 66.8685 465.394 66.7282C464.99 66.5878 464.591 66.5176 464.197 66.5176ZM478.077 75.5107H475.47L471.544 70.0667V75.5107H469.255V64.7732H471.544V69.9765L475.424 64.7732H477.865L473.924 69.9314L478.077 75.5107ZM488.965 70.1269C488.965 70.959 488.859 71.716 488.647 72.3977C488.445 73.0695 488.132 73.651 487.707 74.1422C487.293 74.6335 486.757 75.0094 486.1 75.2701C485.454 75.5308 484.691 75.6611 483.812 75.6611C482.932 75.6611 482.164 75.5308 481.508 75.2701C480.861 74.9994 480.325 74.6234 479.901 74.1422C479.487 73.651 479.173 73.0644 478.961 72.3827C478.759 71.7009 478.658 70.944 478.658 70.1119C478.658 68.999 478.84 68.0315 479.204 67.2094C479.577 66.3873 480.143 65.7507 480.901 65.2995C481.669 64.8383 482.644 64.6077 483.827 64.6077C484.999 64.6077 485.964 64.8383 486.722 65.2995C487.48 65.7507 488.041 66.3923 488.404 67.2244C488.778 68.0466 488.965 69.014 488.965 70.1269ZM481.068 70.1269C481.068 70.8788 481.164 71.5255 481.356 72.0669C481.548 72.6083 481.846 73.0243 482.25 73.3151C482.655 73.6058 483.175 73.7512 483.812 73.7512C484.468 73.7512 484.994 73.6058 485.388 73.3151C485.792 73.0243 486.085 72.6083 486.267 72.0669C486.459 71.5255 486.555 70.8788 486.555 70.1269C486.555 68.994 486.343 68.1067 485.919 67.4651C485.494 66.8234 484.797 66.5026 483.827 66.5026C483.18 66.5026 482.655 66.648 482.25 66.9387C481.846 67.2295 481.548 67.6455 481.356 68.1869C481.164 68.7283 481.068 69.375 481.068 70.1269ZM499.923 61.2391C499.873 61.7604 499.726 62.2216 499.484 62.6226C499.241 63.0136 498.862 63.3194 498.347 63.54C497.831 63.7605 497.139 63.8708 496.27 63.8708C495.381 63.8708 494.684 63.7656 494.178 63.555C493.683 63.3345 493.329 63.0287 493.117 62.6377C492.905 62.2467 492.779 61.7805 492.738 61.2391H494.754C494.805 61.7905 494.946 62.1564 495.179 62.3369C495.411 62.5174 495.79 62.6076 496.316 62.6076C496.75 62.6076 497.104 62.5123 497.377 62.3219C497.66 62.1213 497.826 61.7604 497.877 61.2391H499.923ZM491.207 64.7732H493.269V69.9615C493.269 70.2121 493.264 70.4928 493.254 70.8036C493.244 71.1144 493.233 71.4202 493.223 71.721C493.213 72.0117 493.203 72.2674 493.193 72.488C493.183 72.6985 493.173 72.8439 493.163 72.9241H493.208L498.21 64.7732H500.954V75.5107H498.908V70.3525C498.908 70.0818 498.913 69.786 498.923 69.4652C498.933 69.1344 498.943 68.8185 498.953 68.5178C498.973 68.217 498.988 67.9563 498.999 67.7358C499.019 67.5052 499.034 67.3548 499.044 67.2846H498.983L493.966 75.5107H491.207V64.7732ZM512.886 75.5107L512.097 72.9542H508.156L507.368 75.5107H504.897L508.717 64.728H511.521L515.356 75.5107H512.886ZM510.764 68.5478C510.713 68.3774 510.647 68.1619 510.567 67.9012C510.486 67.6405 510.405 67.3748 510.324 67.1041C510.243 66.8334 510.177 66.5978 510.127 66.3973C510.076 66.5978 510.006 66.8485 509.915 67.1493C509.834 67.44 509.753 67.7207 509.672 67.9914C509.601 68.2521 509.546 68.4376 509.505 68.5478L508.732 71.0443H511.552L510.764 68.5478ZM525.549 75.5107H522.942L519.016 70.0667V75.5107H516.727V64.7732H519.016V69.9765L522.896 64.7732H525.337L521.396 69.9314L525.549 75.5107ZM533.535 75.5107L532.747 72.9542H528.806L528.018 75.5107H525.547L529.367 64.728H532.171L536.006 75.5107H533.535ZM531.413 68.5478C531.362 68.3774 531.297 68.1619 531.216 67.9012C531.135 67.6405 531.054 67.3748 530.973 67.1041C530.893 66.8334 530.827 66.5978 530.776 66.3973C530.726 66.5978 530.655 66.8485 530.564 67.1493C530.483 67.44 530.402 67.7207 530.322 67.9914C530.251 68.2521 530.195 68.4376 530.155 68.5478L529.382 71.0443H532.201L531.413 68.5478ZM545.85 64.7732V73.6159H547.29V78.6388H545.077V75.5107H538.302V78.6388H536.089V73.6159H536.922C537.205 73.0544 537.478 72.4629 537.741 71.8413C538.004 71.2197 538.246 70.553 538.468 69.8412C538.701 69.1293 538.908 68.3574 539.09 67.5252C539.272 66.6831 539.423 65.7657 539.545 64.7732H545.85ZM541.364 66.668C541.293 67.1894 541.192 67.7458 541.06 68.3373C540.929 68.9188 540.772 69.5153 540.59 70.1269C540.419 70.7385 540.227 71.34 540.014 71.9315C539.802 72.5231 539.575 73.0845 539.332 73.6159H543.561V66.668H541.364ZM555.182 75.5107H548.953V64.7732H555.182V66.6379H551.241V68.999H554.91V70.8638H551.241V73.6309H555.182V75.5107ZM562.012 75.5107L559.405 67.0891H559.344C559.354 67.2896 559.369 67.5904 559.389 67.9914C559.41 68.3924 559.43 68.8236 559.45 69.2847C559.47 69.7359 559.48 70.147 559.48 70.5179V75.5107H557.434V64.7732H560.557L563.118 72.9842H563.164L565.877 64.7732H568.999V75.5107H566.862V70.4277C566.862 70.0868 566.867 69.6958 566.877 69.2547C566.898 68.8135 566.913 68.3975 566.923 68.0065C566.943 67.6054 566.958 67.3047 566.968 67.1041H566.908L564.119 75.5107H562.012ZM571.734 64.7732H573.795V69.9615C573.795 70.2121 573.79 70.4928 573.78 70.8036C573.77 71.1144 573.76 71.4202 573.75 71.721C573.739 72.0117 573.729 72.2674 573.719 72.488C573.709 72.6985 573.699 72.8439 573.689 72.9241H573.734L578.737 64.7732H581.48V75.5107H579.434V70.3525C579.434 70.0818 579.439 69.786 579.449 69.4652C579.459 69.1344 579.469 68.8185 579.479 68.5178C579.499 68.217 579.515 67.9563 579.525 67.7358C579.545 67.5052 579.56 67.3548 579.57 67.2846H579.51L574.492 75.5107H571.734V64.7732ZM584.212 64.7732H586.274V69.9615C586.274 70.2121 586.269 70.4928 586.259 70.8036C586.249 71.1144 586.238 71.4202 586.228 71.721C586.218 72.0117 586.208 72.2674 586.198 72.488C586.188 72.6985 586.178 72.8439 586.168 72.9241H586.213L591.215 64.7732H593.959V75.5107H591.913V70.3525C591.913 70.0818 591.918 69.786 591.928 69.4652C591.938 69.1344 591.948 68.8185 591.958 68.5178C591.978 68.217 591.993 67.9563 592.003 67.7358C592.024 67.5052 592.039 67.3548 592.049 67.2846H591.988L586.971 75.5107H584.212V64.7732ZM608.134 75.5107H605.845V70.8788H601.555V75.5107H599.267V64.7732H601.555V68.984H605.845V64.7732H608.134V75.5107ZM617.481 75.5107L616.692 72.9542H612.751L611.963 75.5107H609.492L613.312 64.728H616.116L619.951 75.5107H617.481ZM615.359 68.5478C615.308 68.3774 615.242 68.1619 615.162 67.9012C615.081 67.6405 615 67.3748 614.919 67.1041C614.838 66.8334 614.772 66.5978 614.722 66.3973C614.671 66.5978 614.601 66.8485 614.51 67.1493C614.429 67.44 614.348 67.7207 614.267 67.9914C614.197 68.2521 614.141 68.4376 614.1 68.5478L613.327 71.0443H616.147L615.359 68.5478ZM626.658 72.3677C626.355 73.0494 626.032 73.6409 625.688 74.1422C625.355 74.6335 624.925 75.0094 624.4 75.2701C623.874 75.5308 623.187 75.6611 622.338 75.6611C622.075 75.6611 621.787 75.6411 621.474 75.601C621.161 75.5609 620.873 75.5057 620.61 75.4355V73.4805C620.853 73.5808 621.12 73.651 621.414 73.6911C621.707 73.7312 621.979 73.7512 622.232 73.7512C622.566 73.7512 622.833 73.6961 623.035 73.5858C623.248 73.4755 623.414 73.3251 623.536 73.1346C623.667 72.9341 623.773 72.7186 623.854 72.488L620.11 64.7732H622.535L624.551 69.4201C624.602 69.5203 624.662 69.6507 624.733 69.8111C624.804 69.9715 624.875 70.1369 624.945 70.3074C625.016 70.4778 625.072 70.6282 625.112 70.7585H625.188C625.228 70.6382 625.279 70.4928 625.339 70.3224C625.41 70.1419 625.481 69.9615 625.552 69.781C625.632 69.5905 625.703 69.4251 625.764 69.2847L627.643 64.7732H630.008L626.658 72.3677ZM640.193 75.5107H637.591L633.662 70.0667V75.5107H631.374V64.7732H633.662V69.9765L637.54 64.7732H639.984L636.043 69.9314L640.193 75.5107Z" fill="white"/>
</g>
<defs>
<clipPath id="clip0_105_19">
<rect width="767" height="93" fill="white"/>
</clipPath>
</defs>
</svg>
