<svg width="992" height="112" viewBox="0 0 992 112" fill="none" xmlns="http://www.w3.org/2000/svg">
<g clip-path="url(#clip0_105_4)">
<path d="M1221 -0.854076H0V112.335H1221V-0.854076Z" fill="#29518C"/>
<path d="M1221 -0.854076H0V112.335H1221V-0.854076Z" fill="#29518C"/>
<path d="M1221 61.1871H128.205V66.1628H1221V61.1871Z" fill="white"/>
<path d="M44.2612 51.5622H0V56.8798H44.2612V51.5622Z" fill="white"/>
<path d="M89.5703 21.0493C68.5769 21.0493 51.5822 37.9669 51.5822 58.8648C51.5822 79.763 68.5769 96.6805 89.5703 96.6805C110.564 96.6805 127.559 79.763 127.559 58.8648C127.559 37.9669 110.564 21.0493 89.5703 21.0493ZM89.2376 93.0319C70.5763 93.0319 55.5809 77.7727 55.5809 59.5288C55.5809 40.9523 70.5763 25.6933 89.2376 25.6933C107.898 25.6933 122.894 40.6206 122.894 59.1968C122.894 77.7727 107.898 93.0319 89.2376 93.0319Z" fill="white"/>
<path d="M133.89 61.1871V66.1628H102.9L95.9019 103.315L82.9059 33.9863L78.9071 56.8745H43.9178V51.5675H74.9084L82.9059 9.43927L95.5684 81.4221L99.2345 61.1871H133.89Z" fill="white"/>
<path d="M57.2343 50.4227H51.8925V51.5622H57.2343V50.4227Z" fill="#29518C"/>
<path d="M56.4713 56.8798H51.1294V58.0193H56.4713V56.8798Z" fill="#29518C"/>
<path d="M128.205 59.9185H122.1V61.1871H128.205V59.9185Z" fill="#29518C"/>
<path d="M127.442 66.1628H121.337V67.4315H127.442V66.1628Z" fill="#29518C"/>
<path d="M148.15 23.0113V24.0809C149.094 24.0971 149.839 24.2511 150.385 24.5428C150.93 24.8345 151.316 25.2234 151.544 25.7096C151.773 26.1876 151.886 26.7224 151.886 27.314C151.886 27.7029 151.825 28.0919 151.703 28.4808C151.59 28.8616 151.39 29.2101 151.105 29.5261C150.82 29.834 150.437 30.0852 149.957 30.2797C149.477 30.4742 148.874 30.5795 148.15 30.5957V31.9327H147.063V30.5957C146.322 30.5795 145.708 30.4742 145.22 30.2797C144.74 30.0771 144.361 29.8178 144.084 29.5018C143.807 29.1777 143.612 28.8252 143.498 28.4444C143.384 28.0635 143.327 27.6868 143.327 27.314C143.327 26.8846 143.388 26.4794 143.51 26.0985C143.641 25.7096 143.848 25.3693 144.133 25.0776C144.426 24.7777 144.813 24.5387 145.293 24.3604C145.773 24.1822 146.364 24.089 147.063 24.0809V23.0113H148.15ZM147.063 25.0046C146.412 25.0208 145.891 25.1262 145.501 25.3207C145.118 25.5151 144.845 25.7825 144.682 26.1228C144.52 26.455 144.438 26.8481 144.438 27.3018C144.438 27.7799 144.528 28.1972 144.707 28.5537C144.894 28.9022 145.179 29.1736 145.562 29.3681C145.952 29.5626 146.453 29.672 147.063 29.6963V25.0046ZM148.15 29.6963C148.777 29.672 149.282 29.5585 149.664 29.3559C150.055 29.1533 150.336 28.8779 150.507 28.5294C150.686 28.1729 150.775 27.7637 150.775 27.3018C150.775 26.84 150.694 26.4429 150.531 26.1107C150.369 25.7704 150.095 25.507 149.713 25.3207C149.331 25.1262 148.809 25.0208 148.15 25.0046V29.6963ZM158.574 31.8112H153.702V23.1328H158.574V24.093H154.801V26.8035H158.354V27.7516H154.801V30.851H158.574V31.8112ZM166.36 23.1328V30.8388H167.471V34.0962H166.421V31.8112H160.426V34.0962H159.376V30.8388H160.047C160.34 30.3364 160.617 29.7732 160.877 29.1493C161.146 28.5254 161.382 27.8731 161.586 27.1924C161.789 26.5037 161.956 25.815 162.086 25.1262C162.217 24.4374 162.298 23.773 162.33 23.1328H166.36ZM163.295 24.1174C163.262 24.5874 163.181 25.1181 163.051 25.7096C162.929 26.3011 162.77 26.9089 162.575 27.5328C162.388 28.1486 162.176 28.7442 161.94 29.3195C161.712 29.8948 161.467 30.4012 161.207 30.8388H165.273V24.1174H163.295ZM173.801 31.8112H168.929V23.1328H173.801V24.093H170.028V26.8035H173.581V27.7516H170.028V30.851H173.801V31.8112ZM178.021 23.1328C179.16 23.1328 179.991 23.3556 180.512 23.8013C181.033 24.247 181.293 24.875 181.293 25.6853C181.293 26.0418 181.232 26.3862 181.11 26.7184C180.997 27.0426 180.805 27.3343 180.536 27.5935C180.268 27.8528 179.91 28.0594 179.462 28.2134C179.014 28.3593 178.464 28.4322 177.814 28.4322H176.812V31.8112H175.713V23.1328H178.021ZM177.923 24.0687H176.812V27.4963H177.691C178.245 27.4963 178.705 27.4396 179.071 27.3261C179.437 27.2046 179.71 27.0142 179.889 26.7549C180.069 26.4956 180.158 26.1553 180.158 25.7339C180.158 25.1748 179.979 24.7575 179.621 24.482C179.263 24.2065 178.696 24.0687 177.923 24.0687ZM187.968 31.8112L186.918 29.125H183.463L182.425 31.8112H181.314L184.721 23.0964H185.71L189.104 31.8112H187.968ZM185.612 25.5273C185.587 25.4625 185.546 25.345 185.49 25.1748C185.433 25.0046 185.375 24.8304 185.319 24.6522C185.27 24.4658 185.229 24.324 185.197 24.2267C185.156 24.3888 185.111 24.5549 185.062 24.7251C185.021 24.8871 184.977 25.0371 184.928 25.1748C184.887 25.3125 184.85 25.43 184.818 25.5273L183.829 28.1526H186.589L185.612 25.5273ZM196.573 31.8112H195.474V24.093H192.714C192.657 24.5387 192.596 25.0087 192.531 25.503C192.466 25.9891 192.397 26.4713 192.324 26.9494C192.258 27.4274 192.193 27.8771 192.128 28.2985C192.063 28.7199 191.998 29.0885 191.933 29.4046C191.827 29.9475 191.696 30.4094 191.542 30.7902C191.387 31.171 191.18 31.4587 190.919 31.6531C190.667 31.8476 190.333 31.9449 189.917 31.9449C189.779 31.9449 189.637 31.9287 189.491 31.8962C189.352 31.8719 189.23 31.8395 189.125 31.799V30.8874C189.214 30.9279 189.315 30.9644 189.43 30.9968C189.544 31.0211 189.666 31.0333 189.796 31.0333C190.04 31.0333 190.231 30.936 190.37 30.7416C190.517 30.539 190.63 30.2918 190.712 30.0001C190.793 29.7003 190.862 29.4046 190.919 29.1129C190.968 28.8779 191.025 28.5659 191.09 28.177C191.155 27.7799 191.225 27.318 191.298 26.7913C191.379 26.2647 191.46 25.6934 191.542 25.0776C191.631 24.4537 191.717 23.8054 191.799 23.1328H196.573V31.8112ZM198.941 31.8112V23.1328H200.04V26.8035H201.676C202.49 26.8035 203.137 26.9129 203.618 27.1317C204.098 27.3505 204.444 27.6462 204.656 28.019C204.867 28.3917 204.973 28.809 204.973 29.2709C204.973 29.7814 204.855 30.227 204.619 30.6079C204.391 30.9887 204.045 31.2845 203.581 31.4951C203.117 31.7058 202.527 31.8112 201.811 31.8112H198.941ZM201.701 30.8753C202.409 30.8753 202.942 30.7456 203.3 30.4863C203.658 30.2189 203.838 29.8138 203.838 29.2709C203.838 28.8981 203.748 28.6024 203.569 28.3836C203.398 28.1567 203.142 27.9946 202.8 27.8974C202.466 27.8002 202.047 27.7516 201.542 27.7516H200.04V30.8753H201.701ZM213.442 31.8112H212.343V27.7637H207.874V31.8112H206.775V23.1328H207.874V26.8035H212.343V23.1328H213.442V31.8112ZM223.432 27.4598C223.432 28.1324 223.347 28.7442 223.176 29.2952C223.005 29.8381 222.749 30.308 222.407 30.7051C222.072 31.1022 221.654 31.406 221.149 31.6167C220.652 31.8273 220.075 31.9327 219.415 31.9327C218.732 31.9327 218.137 31.8273 217.633 31.6167C217.127 31.3979 216.708 31.094 216.375 30.7051C216.041 30.308 215.793 29.834 215.63 29.283C215.467 28.732 215.386 28.1202 215.386 27.4477C215.386 26.5564 215.533 25.7785 215.826 25.114C216.119 24.4496 216.562 23.931 217.156 23.5582C217.759 23.1855 218.516 22.9991 219.428 22.9991C220.298 22.9991 221.031 23.1855 221.625 23.5582C222.219 23.9229 222.667 24.4415 222.968 25.114C223.277 25.7785 223.432 26.5604 223.432 27.4598ZM216.546 27.4598C216.546 28.1891 216.647 28.8171 216.851 29.3438C217.054 29.8705 217.368 30.2757 217.791 30.5592C218.223 30.8428 218.764 30.9847 219.415 30.9847C220.075 30.9847 220.612 30.8428 221.027 30.5592C221.45 30.2757 221.763 29.8705 221.967 29.3438C222.17 28.8171 222.272 28.1891 222.272 27.4598C222.272 26.3659 222.044 25.5111 221.589 24.8952C221.132 24.2713 220.412 23.9593 219.428 23.9593C218.768 23.9593 218.223 24.1012 217.791 24.3848C217.368 24.6603 217.054 25.0614 216.851 25.588C216.647 26.1067 216.546 26.7306 216.546 27.4598ZM230.236 31.8112H225.365V23.1328H230.236V24.093H226.464V26.8035H230.017V27.7516H226.464V30.851H230.236V31.8112ZM240.325 23.1328V24.1052H236.503V31.8112H235.404V23.1328H240.325ZM249.176 27.4598C249.176 28.1324 249.09 28.7442 248.919 29.2952C248.748 29.8381 248.492 30.308 248.15 30.7051C247.817 31.1022 247.397 31.406 246.892 31.6167C246.396 31.8273 245.818 31.9327 245.159 31.9327C244.475 31.9327 243.88 31.8273 243.376 31.6167C242.871 31.3979 242.452 31.094 242.118 30.7051C241.785 30.308 241.536 29.834 241.373 29.283C241.211 28.732 241.129 28.1202 241.129 27.4477C241.129 26.5564 241.276 25.7785 241.569 25.114C241.862 24.4496 242.305 23.931 242.9 23.5582C243.502 23.1855 244.259 22.9991 245.171 22.9991C246.041 22.9991 246.774 23.1855 247.369 23.5582C247.963 23.9229 248.41 24.4415 248.712 25.114C249.021 25.7785 249.176 26.5604 249.176 27.4598ZM242.289 27.4598C242.289 28.1891 242.391 28.8171 242.594 29.3438C242.798 29.8705 243.111 30.2757 243.535 30.5592C243.966 30.8428 244.508 30.9847 245.159 30.9847C245.818 30.9847 246.355 30.8428 246.77 30.5592C247.194 30.2757 247.507 29.8705 247.71 29.3438C247.914 28.8171 248.016 28.1891 248.016 27.4598C248.016 26.3659 247.788 25.5111 247.332 24.8952C246.876 24.2713 246.156 23.9593 245.171 23.9593C244.511 23.9593 243.966 24.1012 243.535 24.3848C243.111 24.6603 242.798 25.0614 242.594 25.588C242.391 26.1067 242.289 26.7306 242.289 27.4598ZM254.844 23.9715C254.38 23.9715 253.961 24.0526 253.586 24.2146C253.212 24.3686 252.894 24.5995 252.634 24.9074C252.374 25.2072 252.174 25.5759 252.036 26.0135C251.898 26.4429 251.828 26.9291 251.828 27.472C251.828 28.1851 251.938 28.805 252.158 29.3316C252.386 29.8583 252.72 30.2635 253.159 30.5471C253.607 30.8307 254.164 30.9725 254.832 30.9725C255.214 30.9725 255.577 30.9401 255.919 30.8753C256.26 30.8105 256.594 30.7294 256.92 30.6322V31.5802C256.594 31.7018 256.257 31.7909 255.906 31.8476C255.565 31.9044 255.153 31.9327 254.673 31.9327C253.786 31.9327 253.045 31.7504 252.451 31.3858C251.857 31.0211 251.409 30.5025 251.108 29.83C250.815 29.1574 250.668 28.3674 250.668 27.4598C250.668 26.8035 250.758 26.2039 250.937 25.661C251.124 25.1181 251.393 24.6481 251.743 24.2511C252.101 23.854 252.54 23.5501 253.061 23.3395C253.583 23.1207 254.181 23.0113 254.856 23.0113C255.304 23.0113 255.735 23.0559 256.151 23.145C256.566 23.2341 256.936 23.3597 257.262 23.5218L256.822 24.4455C256.554 24.324 256.252 24.2146 255.919 24.1174C255.593 24.0201 255.235 23.9715 254.844 23.9715ZM262.473 29.3438C262.213 29.9191 261.948 30.4012 261.679 30.7902C261.419 31.171 261.11 31.4587 260.751 31.6531C260.394 31.8395 259.938 31.9327 259.384 31.9327C259.157 31.9327 258.941 31.9165 258.737 31.8841C258.541 31.8516 258.363 31.8071 258.2 31.7504V30.6686C258.363 30.7416 258.538 30.8023 258.725 30.851C258.912 30.8914 259.108 30.9117 259.311 30.9117C259.612 30.9117 259.869 30.8712 260.08 30.7902C260.3 30.7011 260.491 30.5592 260.654 30.3648C260.825 30.1703 260.983 29.911 261.13 29.5869L257.772 23.1328H258.981L261.411 27.9096C261.444 27.9663 261.476 28.0351 261.509 28.1162C261.541 28.1891 261.574 28.2661 261.606 28.3471C261.647 28.4282 261.679 28.5051 261.704 28.5781H261.753C261.777 28.5213 261.802 28.4565 261.826 28.3836C261.859 28.3025 261.887 28.2256 261.911 28.1526C261.944 28.0716 261.972 28.0028 261.997 27.946L264.097 23.1328H265.257L262.473 29.3438ZM271.707 23.1328V30.8388H272.818V34.0962H271.768V31.8112H265.773V34.0962H264.723V30.8388H265.394C265.687 30.3364 265.964 29.7732 266.225 29.1493C266.493 28.5254 266.729 27.8731 266.933 27.1924C267.137 26.5037 267.303 25.815 267.433 25.1262C267.564 24.4374 267.645 23.773 267.678 23.1328H271.707ZM268.642 24.1174C268.609 24.5874 268.529 25.1181 268.398 25.7096C268.276 26.3011 268.117 26.9089 267.922 27.5328C267.735 28.1486 267.523 28.7442 267.287 29.3195C267.059 29.8948 266.815 30.4012 266.554 30.8388H270.62V24.1174H268.642ZM279.746 31.8112L278.696 29.125H275.24L274.202 31.8112H273.091L276.498 23.0964H277.487L280.881 31.8112H279.746ZM277.389 25.5273C277.365 25.4625 277.324 25.345 277.267 25.1748C277.211 25.0046 277.153 24.8304 277.096 24.6522C277.047 24.4658 277.007 24.324 276.974 24.2267C276.934 24.3888 276.889 24.5549 276.84 24.7251C276.799 24.8871 276.754 25.0371 276.705 25.1748C276.665 25.3125 276.628 25.43 276.595 25.5273L275.606 28.1526H278.366L277.389 25.5273ZM284.382 23.1328C285.521 23.1328 286.351 23.3556 286.872 23.8013C287.394 24.247 287.654 24.875 287.654 25.6853C287.654 26.0418 287.593 26.3862 287.471 26.7184C287.357 27.0426 287.166 27.3343 286.897 27.5935C286.628 27.8528 286.27 28.0594 285.822 28.2134C285.374 28.3593 284.825 28.4322 284.174 28.4322H283.173V31.8112H282.074V23.1328H284.382ZM284.284 24.0687H283.173V27.4963H284.052C284.605 27.4963 285.065 27.4396 285.432 27.3261C285.798 27.2046 286.07 27.0142 286.25 26.7549C286.429 26.4956 286.518 26.1553 286.518 25.7339C286.518 25.1748 286.339 24.7575 285.981 24.482C285.623 24.2065 285.057 24.0687 284.284 24.0687ZM293.203 23.9715C292.739 23.9715 292.32 24.0526 291.946 24.2146C291.571 24.3686 291.254 24.5995 290.993 24.9074C290.732 25.2072 290.533 25.5759 290.395 26.0135C290.256 26.4429 290.188 26.9291 290.188 27.472C290.188 28.1851 290.297 28.805 290.517 29.3316C290.745 29.8583 291.079 30.2635 291.518 30.5471C291.966 30.8307 292.523 30.9725 293.191 30.9725C293.573 30.9725 293.936 30.9401 294.278 30.8753C294.62 30.8105 294.953 30.7294 295.279 30.6322V31.5802C294.953 31.7018 294.615 31.7909 294.266 31.8476C293.924 31.9044 293.512 31.9327 293.032 31.9327C292.145 31.9327 291.404 31.7504 290.81 31.3858C290.216 31.0211 289.768 30.5025 289.467 29.83C289.174 29.1574 289.028 28.3674 289.028 27.4598C289.028 26.8035 289.117 26.2039 289.296 25.661C289.483 25.1181 289.752 24.6481 290.102 24.2511C290.46 23.854 290.899 23.5501 291.421 23.3395C291.941 23.1207 292.539 23.0113 293.216 23.0113C293.663 23.0113 294.095 23.0559 294.51 23.145C294.925 23.2341 295.295 23.3597 295.621 23.5218L295.181 24.4455C294.913 24.324 294.611 24.2146 294.278 24.1174C293.952 24.0201 293.594 23.9715 293.203 23.9715ZM299.941 31.8112H298.842V24.093H296.119V23.1328H302.652V24.093H299.941V31.8112ZM306.457 23.1328C307.182 23.1328 307.788 23.2017 308.277 23.3395C308.773 23.4772 309.144 23.7041 309.388 24.0201C309.64 24.3361 309.766 24.7575 309.766 25.2842C309.766 25.6245 309.701 25.9284 309.571 26.1958C309.449 26.455 309.261 26.6738 309.009 26.8521C308.765 27.0223 308.464 27.1398 308.106 27.2046V27.2654C308.472 27.3221 308.802 27.4274 309.095 27.5814C309.395 27.7354 309.632 27.9542 309.803 28.2377C309.974 28.5213 310.059 28.89 310.059 29.3438C310.059 29.8705 309.937 30.3202 309.693 30.6929C309.449 31.0576 309.099 31.3371 308.643 31.5316C308.195 31.718 307.658 31.8112 307.031 31.8112H303.966V23.1328H306.457ZM306.677 26.8278C307.426 26.8278 307.939 26.7103 308.216 26.4753C308.492 26.2322 308.631 25.8757 308.631 25.4057C308.631 24.9277 308.46 24.5874 308.118 24.3848C307.784 24.1741 307.246 24.0687 306.506 24.0687H305.065V26.8278H306.677ZM305.065 27.7394V30.8874H306.824C307.597 30.8874 308.134 30.7375 308.435 30.4377C308.736 30.1379 308.887 29.7449 308.887 29.2587C308.887 28.9508 308.818 28.6834 308.68 28.4565C308.549 28.2296 308.325 28.0554 308.008 27.9339C307.698 27.8042 307.275 27.7394 306.738 27.7394H305.065ZM316.779 31.8112H311.908V23.1328H316.779V24.093H313.006V26.8035H316.56V27.7516H313.006V30.851H316.779V31.8112ZM325.359 31.8112H324.26V27.7637H319.791V31.8112H318.693V23.1328H319.791V26.8035H324.26V23.1328H325.359V31.8112ZM334.409 31.8112H333.31V27.7637H328.841V31.8112H327.742V23.1328H328.841V26.8035H333.31V23.1328H334.409V31.8112ZM344.399 27.4598C344.399 28.1324 344.314 28.7442 344.143 29.2952C343.972 29.8381 343.715 30.308 343.373 30.7051C343.04 31.1022 342.621 31.406 342.116 31.6167C341.62 31.8273 341.041 31.9327 340.382 31.9327C339.698 31.9327 339.105 31.8273 338.599 31.6167C338.095 31.3979 337.676 31.094 337.342 30.7051C337.008 30.308 336.76 29.834 336.597 29.283C336.434 28.732 336.353 28.1202 336.353 27.4477C336.353 26.5564 336.499 25.7785 336.792 25.114C337.085 24.4496 337.529 23.931 338.123 23.5582C338.726 23.1855 339.483 22.9991 340.394 22.9991C341.266 22.9991 341.998 23.1855 342.592 23.5582C343.187 23.9229 343.634 24.4415 343.935 25.114C344.245 25.7785 344.399 26.5604 344.399 27.4598ZM337.513 27.4598C337.513 28.1891 337.615 28.8171 337.818 29.3438C338.022 29.8705 338.335 30.2757 338.758 30.5592C339.19 30.8428 339.731 30.9847 340.382 30.9847C341.041 30.9847 341.579 30.8428 341.994 30.5592C342.417 30.2757 342.731 29.8705 342.934 29.3438C343.138 28.8171 343.239 28.1891 343.239 27.4598C343.239 26.3659 343.012 25.5111 342.555 24.8952C342.1 24.2713 341.379 23.9593 340.394 23.9593C339.735 23.9593 339.19 24.1012 338.758 24.3848C338.335 24.6603 338.022 25.0614 337.818 25.588C337.615 26.1067 337.513 26.7306 337.513 27.4598ZM351.203 31.8112H346.331V23.1328H351.203V24.093H347.43V26.8035H350.983V27.7516H347.43V30.851H351.203V31.8112ZM356.372 31.8112V23.1328H361.549V24.093H357.471V26.8035H358.765C359.636 26.8035 360.311 26.9129 360.792 27.1317C361.272 27.3423 361.605 27.634 361.793 28.0068C361.98 28.3714 362.074 28.7928 362.074 29.2709C362.074 29.7975 361.968 30.2514 361.756 30.6322C361.553 31.013 361.219 31.3047 360.755 31.5073C360.291 31.7099 359.681 31.8112 358.924 31.8112H356.372ZM358.814 30.8753C359.595 30.8753 360.145 30.7456 360.462 30.4863C360.78 30.2189 360.938 29.8138 360.938 29.2709C360.938 28.8981 360.861 28.6024 360.706 28.3836C360.56 28.1567 360.316 27.9946 359.974 27.8974C359.639 27.8002 359.192 27.7516 358.631 27.7516H357.471V30.8753H358.814ZM374.787 27.4598C374.787 28.1324 374.706 28.7442 374.543 29.2952C374.38 29.8462 374.136 30.3202 373.81 30.7173C373.485 31.1062 373.082 31.406 372.601 31.6167C372.13 31.8273 371.576 31.9327 370.941 31.9327C370.11 31.9327 369.411 31.7625 368.841 31.4222C368.279 31.0819 367.848 30.5997 367.546 29.9758C367.246 29.3519 367.078 28.6145 367.046 27.7637H364.982V31.8112H363.883V23.1328H364.982V26.8035H367.07C367.127 26.0337 367.307 25.3652 367.607 24.798C367.909 24.2227 368.336 23.7811 368.889 23.4732C369.443 23.1572 370.119 22.9991 370.916 22.9991C371.755 22.9991 372.459 23.1855 373.029 23.5582C373.607 23.9229 374.042 24.4415 374.335 25.114C374.636 25.7785 374.787 26.5604 374.787 27.4598ZM368.193 27.4598C368.193 28.1891 368.287 28.8171 368.474 29.3438C368.67 29.8705 368.967 30.2757 369.366 30.5592C369.773 30.8428 370.286 30.9847 370.904 30.9847C371.539 30.9847 372.056 30.8428 372.455 30.5592C372.862 30.2757 373.159 29.8705 373.346 29.3438C373.541 28.8171 373.639 28.1891 373.639 27.4598C373.639 26.7306 373.546 26.1067 373.358 25.588C373.171 25.0614 372.878 24.6603 372.479 24.3848C372.081 24.1012 371.563 23.9593 370.928 23.9593C370.302 23.9593 369.785 24.1012 369.378 24.3848C368.971 24.6603 368.67 25.0614 368.474 25.588C368.287 26.1067 368.193 26.7306 368.193 27.4598ZM382.36 23.1328V30.8388H383.471V34.0962H382.421V31.8112H376.426V34.0962H375.376V30.8388H376.047C376.341 30.3364 376.618 29.7732 376.878 29.1493C377.146 28.5254 377.382 27.8731 377.586 27.1924C377.79 26.5037 377.956 25.815 378.087 25.1262C378.217 24.4374 378.298 23.773 378.331 23.1328H382.36ZM379.295 24.1174C379.263 24.5874 379.182 25.1181 379.051 25.7096C378.929 26.3011 378.77 26.9089 378.575 27.5328C378.388 28.1486 378.176 28.7442 377.94 29.3195C377.712 29.8948 377.468 30.4012 377.207 30.8388H381.273V24.1174H379.295ZM387.261 27.3505L383.879 23.1328H385.1L388.433 27.3383V23.1328H389.483V27.3383L392.816 23.1328H394.037L390.655 27.3383L394.147 31.8112H392.89L389.483 27.4112V31.8112H388.433V27.4112L385.014 31.8112H383.757L387.261 27.3505ZM400.223 31.8112H395.351V23.1328H400.223V24.093H396.45V26.8035H400.003V27.7516H396.45V30.851H400.223V31.8112ZM404.894 31.8112H403.795V24.093H401.073V23.1328H407.605V24.093H404.894V31.8112ZM415.587 31.8112H414.488V27.7637H410.019V31.8112H408.92V23.1328H410.019V26.8035H414.488V23.1328H415.587V31.8112ZM425.577 27.4598C425.577 28.1324 425.491 28.7442 425.32 29.2952C425.149 29.8381 424.893 30.308 424.551 30.7051C424.217 31.1022 423.799 31.406 423.293 31.6167C422.797 31.8273 422.219 31.9327 421.559 31.9327C420.876 31.9327 420.282 31.8273 419.777 31.6167C419.272 31.3979 418.853 31.094 418.519 30.7051C418.186 30.308 417.938 29.834 417.774 29.283C417.612 28.732 417.53 28.1202 417.53 27.4477C417.53 26.5564 417.677 25.7785 417.97 25.114C418.263 24.4496 418.707 23.931 419.301 23.5582C419.904 23.1855 420.661 22.9991 421.572 22.9991C422.443 22.9991 423.176 23.1855 423.769 23.5582C424.364 23.9229 424.812 24.4415 425.113 25.114C425.422 25.7785 425.577 26.5604 425.577 27.4598ZM418.69 27.4598C418.69 28.1891 418.792 28.8171 418.995 29.3438C419.199 29.8705 419.513 30.2757 419.936 30.5592C420.367 30.8428 420.909 30.9847 421.559 30.9847C422.219 30.9847 422.756 30.8428 423.171 30.5592C423.595 30.2757 423.908 29.8705 424.111 29.3438C424.315 28.8171 424.417 28.1891 424.417 27.4598C424.417 26.3659 424.189 25.5111 423.733 24.8952C423.277 24.2713 422.557 23.9593 421.572 23.9593C420.912 23.9593 420.367 24.1012 419.936 24.3848C419.513 24.6603 419.199 25.0614 418.995 25.588C418.792 26.1067 418.69 26.7306 418.69 27.4598ZM432.381 31.8112H427.509V23.1328H432.381V24.093H428.608V26.8035H432.161V27.7516H428.608V30.851H432.381V31.8112ZM441.2 29.3438C440.939 29.9191 440.675 30.4012 440.406 30.7902C440.145 31.171 439.836 31.4587 439.478 31.6531C439.12 31.8395 438.664 31.9327 438.111 31.9327C437.883 31.9327 437.667 31.9165 437.464 31.8841C437.268 31.8516 437.089 31.8071 436.927 31.7504V30.6686C437.089 30.7416 437.264 30.8023 437.452 30.851C437.639 30.8914 437.834 30.9117 438.038 30.9117C438.338 30.9117 438.595 30.8712 438.807 30.7902C439.027 30.7011 439.217 30.5592 439.381 30.3648C439.552 30.1703 439.71 29.911 439.857 29.5869L436.499 23.1328H437.708L440.138 27.9096C440.17 27.9663 440.203 28.0351 440.235 28.1162C440.268 28.1891 440.3 28.2661 440.333 28.3471C440.374 28.4282 440.406 28.5051 440.431 28.5781H440.48C440.504 28.5213 440.529 28.4565 440.553 28.3836C440.585 28.3025 440.614 28.2256 440.638 28.1526C440.67 28.0716 440.699 28.0028 440.724 27.946L442.824 23.1328H443.984L441.2 29.3438ZM451.322 31.8112H450.223V28.2499C449.751 28.4119 449.307 28.5456 448.892 28.651C448.486 28.7482 448.029 28.7968 447.525 28.7968C446.711 28.7968 446.08 28.6105 445.632 28.2377C445.184 27.8569 444.961 27.31 444.961 26.5969V23.1328H446.06V26.4389C446.06 26.9089 446.182 27.2613 446.426 27.4963C446.679 27.7232 447.081 27.8366 447.635 27.8366C448.115 27.8366 448.547 27.792 448.929 27.7029C449.311 27.6138 449.743 27.4923 450.223 27.3383V23.1328H451.322V31.8112ZM456.002 23.1328C457.141 23.1328 457.971 23.3556 458.492 23.8013C459.013 24.247 459.274 24.875 459.274 25.6853C459.274 26.0418 459.213 26.3862 459.091 26.7184C458.976 27.0426 458.785 27.3343 458.517 27.5935C458.248 27.8528 457.89 28.0594 457.442 28.2134C456.994 28.3593 456.445 28.4322 455.794 28.4322H454.793V31.8112H453.694V23.1328H456.002ZM455.904 24.0687H454.793V27.4963H455.672C456.225 27.4963 456.685 27.4396 457.052 27.3261C457.418 27.2046 457.69 27.0142 457.87 26.7549C458.048 26.4956 458.138 26.1553 458.138 25.7339C458.138 25.1748 457.959 24.7575 457.601 24.482C457.242 24.2065 456.677 24.0687 455.904 24.0687ZM465.958 31.8112H461.086V23.1328H465.958V24.093H462.185V26.8035H465.738V27.7516H462.185V30.851H465.958V31.8112ZM470.203 27.3505L466.821 23.1328H468.042L471.376 27.3383V23.1328H472.426V27.3383L475.759 23.1328H476.98L473.598 27.3383L477.09 31.8112H475.832L472.426 27.4112V31.8112H471.376V27.4112L467.957 31.8112H466.699L470.203 27.3505ZM484.165 23.1328V30.8388H485.277V34.0962H484.227V31.8112H478.231V34.0962H477.181V30.8388H477.853C478.146 30.3364 478.423 29.7732 478.683 29.1493C478.952 28.5254 479.188 27.8731 479.391 27.1924C479.595 26.5037 479.762 25.815 479.892 25.1262C480.023 24.4374 480.103 23.773 480.136 23.1328H484.165ZM481.101 24.1174C481.068 24.5874 480.987 25.1181 480.857 25.7096C480.734 26.3011 480.576 26.9089 480.38 27.5328C480.193 28.1486 479.981 28.7442 479.745 29.3195C479.517 29.8948 479.273 30.4012 479.013 30.8388H483.079V24.1174H481.101ZM491.607 31.8112H486.735V23.1328H491.607V24.093H487.834V26.8035H491.387V27.7516H487.834V30.851H491.607V31.8112ZM500.186 31.8112H499.087V27.7637H494.618V31.8112H493.519V23.1328H494.618V26.8035H499.087V23.1328H500.186V31.8112ZM502.582 23.1328H503.608V27.8974C503.608 28.1 503.603 28.3228 503.595 28.5659C503.595 28.8009 503.591 29.0359 503.583 29.2709C503.575 29.5058 503.563 29.7166 503.547 29.9029C503.538 30.0812 503.53 30.2189 503.522 30.3162H503.571L508.37 23.1328H509.591V31.8112H508.565V27.0952C508.565 26.8764 508.569 26.6415 508.577 26.3902C508.585 26.131 508.593 25.8838 508.602 25.6488C508.618 25.4057 508.63 25.191 508.638 25.0046C508.646 24.8183 508.654 24.6805 508.663 24.5914H508.614L503.803 31.8112H502.582V23.1328ZM516.813 31.8112H511.942V23.1328H516.813V24.093H513.041V26.8035H516.594V27.7516H513.041V30.851H516.813V31.8112ZM528.648 31.8112H527.549V27.7637H523.08V31.8112H521.981V23.1328H523.08V26.8035H527.549V23.1328H528.648V31.8112ZM536.502 31.8112L535.452 29.125H531.997L530.959 31.8112H529.847L533.254 23.0964H534.243L537.638 31.8112H536.502ZM534.146 25.5273C534.121 25.4625 534.08 25.345 534.023 25.1748C533.966 25.0046 533.909 24.8304 533.853 24.6522C533.804 24.4658 533.763 24.324 533.73 24.2267C533.689 24.3888 533.645 24.5549 533.596 24.7251C533.555 24.8871 533.511 25.0371 533.462 25.1748C533.421 25.3125 533.384 25.43 533.352 25.5273L532.363 28.1526H535.122L534.146 25.5273ZM542.48 29.3438C542.22 29.9191 541.955 30.4012 541.687 30.7902C541.427 31.171 541.118 31.4587 540.759 31.6531C540.401 31.8395 539.945 31.9327 539.391 31.9327C539.164 31.9327 538.948 31.9165 538.744 31.8841C538.549 31.8516 538.37 31.8071 538.207 31.7504V30.6686C538.37 30.7416 538.545 30.8023 538.732 30.851C538.92 30.8914 539.115 30.9117 539.318 30.9117C539.62 30.9117 539.876 30.8712 540.087 30.7902C540.307 30.7011 540.499 30.5592 540.661 30.3648C540.832 30.1703 540.991 29.911 541.137 29.5869L537.78 23.1328H538.988L541.418 27.9096C541.451 27.9663 541.484 28.0351 541.516 28.1162C541.549 28.1891 541.582 28.2661 541.614 28.3471C541.655 28.4282 541.687 28.5051 541.711 28.5781H541.76C541.784 28.5213 541.809 28.4565 541.833 28.3836C541.866 28.3025 541.894 28.2256 541.919 28.1526C541.952 28.0716 541.98 28.0028 542.004 27.946L544.104 23.1328H545.264L542.48 29.3438ZM552.811 31.8112H551.492L547.548 27.4112V31.8112H546.449V23.1328H547.548V27.3383L551.395 23.1328H552.64L548.855 27.3505L552.811 31.8112ZM554.009 23.1328H555.035V27.8974C555.035 28.1 555.031 28.3228 555.022 28.5659C555.022 28.8009 555.019 29.0359 555.01 29.2709C555.003 29.5058 554.99 29.7166 554.974 29.9029C554.966 30.0812 554.958 30.2189 554.949 30.3162H554.998L559.797 23.1328H561.018V31.8112H559.992V27.0952C559.992 26.8764 559.996 26.6415 560.004 26.3902C560.013 26.131 560.021 25.8838 560.029 25.6488C560.045 25.4057 560.057 25.191 560.065 25.0046C560.074 24.8183 560.082 24.6805 560.09 24.5914H560.041L555.23 31.8112H554.009V23.1328Z" fill="white"/>
<path d="M151.825 38.3624V39.9668C153.254 40.0033 154.389 40.2525 155.232 40.7143C156.087 41.1641 156.697 41.7475 157.063 42.4646C157.442 43.1817 157.631 43.9657 157.631 44.8165C157.631 45.3634 157.533 45.9225 157.338 46.4938C157.155 47.0651 156.837 47.5938 156.386 48.08C155.946 48.554 155.354 48.9429 154.609 49.2468C153.864 49.5507 152.936 49.7147 151.825 49.7391V51.7445H149.334V49.7391C148.211 49.7147 147.271 49.5507 146.514 49.2468C145.769 48.9429 145.177 48.5479 144.737 48.0617C144.298 47.5756 143.986 47.0529 143.803 46.4938C143.62 45.9225 143.529 45.3634 143.529 44.8165C143.529 44.1844 143.632 43.5828 143.84 43.0115C144.047 42.4403 144.377 41.9298 144.829 41.4801C145.281 41.0304 145.879 40.6718 146.624 40.4044C147.369 40.137 148.272 39.9911 149.334 39.9668V38.3624H151.825ZM149.334 42.1182C148.541 42.1546 147.906 42.2944 147.43 42.5375C146.966 42.7684 146.63 43.0784 146.422 43.4673C146.227 43.8563 146.129 44.2999 146.129 44.7983C146.129 45.3452 146.239 45.8253 146.459 46.2386C146.691 46.6397 147.039 46.9618 147.503 47.2048C147.979 47.4358 148.59 47.5695 149.334 47.6059V42.1182ZM151.825 47.6059C152.57 47.5695 153.174 47.4358 153.638 47.2048C154.115 46.9618 154.463 46.6397 154.682 46.2386C154.914 45.8253 155.03 45.3452 155.03 44.7983C155.03 44.2999 154.927 43.8563 154.719 43.4673C154.524 43.0784 154.188 42.7684 153.712 42.5375C153.248 42.2944 152.619 42.1546 151.825 42.1182V47.6059ZM167.637 51.5622H160.11V38.5448H167.637V40.8055H162.875V43.6679H167.308V45.9286H162.875V49.2833H167.637V51.5622ZM180.597 38.5448V49.265H182.337V55.3544H179.663V51.5622H171.476V55.3544H168.802V49.265H169.809C170.151 48.5844 170.481 47.8673 170.798 47.1137C171.116 46.3601 171.409 45.5518 171.677 44.6889C171.958 43.8259 172.208 42.89 172.428 41.8812C172.648 40.8602 172.831 39.7481 172.978 38.5448H180.597ZM175.175 40.842C175.09 41.474 174.968 42.1486 174.809 42.8657C174.65 43.5706 174.461 44.2938 174.241 45.0353C174.034 45.7767 173.802 46.506 173.545 47.2231C173.289 47.9402 173.014 48.6208 172.721 49.265H177.831V40.842H175.175ZM191.873 51.5622H184.345V38.5448H191.873V40.8055H187.111V43.6679H191.543V45.9286H187.111V49.2833H191.873V51.5622ZM198.77 38.5448C200.455 38.5448 201.682 38.9094 202.451 39.6387C203.232 40.3558 203.623 41.3464 203.623 42.6104C203.623 43.1817 203.538 43.7287 203.367 44.2513C203.196 44.7618 202.909 45.2237 202.506 45.6369C202.115 46.038 201.596 46.354 200.949 46.585C200.302 46.8159 199.502 46.9314 198.55 46.9314H197.359V51.5622H194.594V38.5448H198.77ZM198.623 40.8055H197.359V44.6706H198.275C198.8 44.6706 199.252 44.6038 199.63 44.4701C200.009 44.3364 200.302 44.1237 200.51 43.832C200.717 43.5403 200.821 43.1635 200.821 42.7016C200.821 42.0574 200.644 41.5834 200.29 41.2795C199.936 40.9635 199.38 40.8055 198.623 40.8055ZM213.186 51.5622L212.233 48.4628H207.472L206.519 51.5622H203.534L208.149 38.4901H211.538L216.171 51.5622H213.186ZM210.622 43.1209C210.561 42.9143 210.481 42.653 210.384 42.337C210.286 42.0209 210.188 41.6989 210.091 41.3707C209.993 41.0425 209.914 40.7569 209.853 40.5138C209.791 40.7569 209.706 41.0607 209.596 41.4254C209.498 41.7779 209.401 42.1182 209.303 42.4464C209.218 42.7624 209.15 42.9872 209.102 43.1209L208.168 46.1474H211.574L210.622 43.1209ZM228.175 51.5622H225.41V40.842H222.204C222.131 41.4011 222.052 42.0088 221.966 42.6651C221.893 43.3215 221.808 43.99 221.71 44.6706C221.624 45.3391 221.533 45.9772 221.435 46.585C221.338 47.1805 221.24 47.7093 221.142 48.1711C220.983 48.9247 220.77 49.5689 220.501 50.1037C220.245 50.6385 219.885 51.0457 219.421 51.3252C218.969 51.6048 218.377 51.7445 217.644 51.7445C217.4 51.7445 217.168 51.7263 216.948 51.6899C216.728 51.6534 216.521 51.6048 216.325 51.544V49.2833C216.484 49.3319 216.637 49.3744 216.783 49.4109C216.942 49.4473 217.113 49.4656 217.296 49.4656C217.54 49.4656 217.742 49.3866 217.9 49.2286C218.059 49.0706 218.2 48.8032 218.322 48.4264C218.444 48.0374 218.566 47.5026 218.688 46.822C218.749 46.5303 218.822 46.117 218.908 45.5822C218.993 45.0353 219.091 44.3972 219.201 43.6679C219.323 42.9265 219.445 42.1243 219.567 41.2613C219.689 40.3862 219.805 39.4807 219.915 38.5448H228.175V51.5622ZM231.474 51.5622V38.5448H234.24V43.5403H235.339C236.572 43.5403 237.579 43.7104 238.361 44.0507C239.154 44.3911 239.74 44.859 240.119 45.4546C240.497 46.0502 240.687 46.7308 240.687 47.4966C240.687 48.3474 240.497 49.0766 240.119 49.6844C239.74 50.2921 239.154 50.76 238.361 51.0882C237.567 51.4042 236.541 51.5622 235.284 51.5622H231.474ZM235.174 49.3015C236.016 49.3015 236.676 49.1678 237.152 48.9004C237.64 48.633 237.884 48.1651 237.884 47.4966C237.884 47.0347 237.762 46.6822 237.518 46.4391C237.286 46.196 236.95 46.0319 236.511 45.9469C236.083 45.8496 235.564 45.801 234.954 45.801H234.24V49.3015H235.174ZM253.868 51.5622H251.102V45.9469H245.919V51.5622H243.154V38.5448H245.919V43.6496H251.102V38.5448H253.868V51.5622ZM257.158 51.5622V38.5448H259.923V43.5403H260.821C262.03 43.5403 263.025 43.7104 263.806 44.0507C264.588 44.3911 265.162 44.859 265.528 45.4546C265.906 46.0502 266.096 46.7308 266.096 47.4966C266.096 48.3474 265.906 49.0766 265.528 49.6844C265.149 50.2921 264.563 50.76 263.77 51.0882C262.988 51.4042 261.975 51.5622 260.729 51.5622H257.158ZM260.656 49.3015C261.474 49.3015 262.115 49.1678 262.579 48.9004C263.055 48.633 263.293 48.1651 263.293 47.4966C263.293 47.0347 263.184 46.6822 262.964 46.4391C262.756 46.196 262.445 46.0319 262.03 45.9469C261.615 45.8496 261.114 45.801 260.528 45.801H259.923V49.3015H260.656ZM267.689 51.5622V38.5448H270.455V51.5622H267.689ZM284.287 34.2603C284.226 34.8923 284.049 35.4514 283.756 35.9376C283.463 36.4116 283.005 36.7824 282.382 37.0498C281.759 37.3172 280.923 37.4509 279.873 37.4509C278.799 37.4509 277.956 37.3232 277.346 37.068C276.747 36.8006 276.32 36.4299 276.064 35.9558C275.807 35.4818 275.654 34.9166 275.606 34.2603H278.042C278.103 34.9288 278.274 35.3724 278.554 35.5912C278.835 35.81 279.293 35.9194 279.928 35.9194C280.453 35.9194 280.88 35.8039 281.21 35.573C281.552 35.3299 281.753 34.8923 281.814 34.2603H284.287ZM273.756 38.5448H276.247V44.8347C276.247 45.1386 276.241 45.4789 276.228 45.8557C276.216 46.2325 276.204 46.6032 276.192 46.9678C276.18 47.3203 276.167 47.6303 276.155 47.8977C276.143 48.1529 276.131 48.3291 276.118 48.4264H276.173L282.217 38.5448H285.532V51.5622H283.06V45.3087C283.06 44.9806 283.066 44.622 283.078 44.2331C283.09 43.832 283.103 43.4491 283.115 43.0845C283.139 42.7198 283.158 42.4038 283.17 42.1364C283.194 41.8569 283.212 41.6745 283.225 41.5895H283.151L277.089 51.5622H273.756V38.5448ZM291.946 38.5448H294.437V44.8347C294.437 45.1386 294.43 45.4789 294.418 45.8557C294.406 46.2325 294.394 46.6032 294.382 46.9678C294.369 47.3203 294.357 47.6303 294.345 47.8977C294.333 48.1529 294.321 48.3291 294.308 48.4264H294.363L300.407 38.5448H303.722V51.5622H301.25V45.3087C301.25 44.9806 301.256 44.622 301.268 44.2331C301.28 43.832 301.292 43.4491 301.305 43.0845C301.329 42.7198 301.347 42.4038 301.36 42.1364C301.384 41.8569 301.402 41.6745 301.415 41.5895H301.341L295.279 51.5622H291.946V38.5448ZM312.573 40.6596C312.048 40.6596 311.578 40.763 311.163 40.9696C310.76 41.1762 310.418 41.474 310.137 41.8629C309.856 42.2397 309.643 42.7016 309.496 43.2486C309.362 43.7955 309.295 44.4093 309.295 45.09C309.295 46.0137 309.404 46.8037 309.624 47.4601C309.856 48.1043 310.216 48.5965 310.705 48.9369C311.193 49.2772 311.816 49.4474 312.573 49.4474C313.11 49.4474 313.641 49.3866 314.166 49.265C314.704 49.1435 315.284 48.9733 315.906 48.7545V51.07C315.332 51.3009 314.765 51.4711 314.203 51.5805C313.641 51.6899 313.013 51.7445 312.317 51.7445C310.973 51.7445 309.862 51.4711 308.983 50.9241C308.116 50.365 307.475 49.5871 307.06 48.5905C306.645 47.5816 306.437 46.4087 306.437 45.0717C306.437 44.0872 306.572 43.1878 306.84 42.3734C307.109 41.5469 307.5 40.8359 308.013 40.2403C308.538 39.6447 309.179 39.1829 309.936 38.8547C310.705 38.5265 311.584 38.3624 312.573 38.3624C313.22 38.3624 313.867 38.4475 314.514 38.6177C315.174 38.7757 315.803 38.9945 316.401 39.274L315.503 41.5165C315.015 41.2856 314.52 41.085 314.02 40.9149C313.531 40.7447 313.049 40.6596 312.573 40.6596ZM323.877 40.6596C323.352 40.6596 322.882 40.763 322.467 40.9696C322.064 41.1762 321.722 41.474 321.441 41.8629C321.16 42.2397 320.947 42.7016 320.8 43.2486C320.666 43.7955 320.599 44.4093 320.599 45.09C320.599 46.0137 320.709 46.8037 320.928 47.4601C321.16 48.1043 321.521 48.5965 322.009 48.9369C322.497 49.2772 323.12 49.4474 323.877 49.4474C324.414 49.4474 324.946 49.3866 325.471 49.265C326.008 49.1435 326.588 48.9733 327.21 48.7545V51.07C326.637 51.3009 326.069 51.4711 325.507 51.5805C324.946 51.6899 324.317 51.7445 323.621 51.7445C322.278 51.7445 321.167 51.4711 320.287 50.9241C319.42 50.365 318.779 49.5871 318.364 48.5905C317.949 47.5816 317.742 46.4087 317.742 45.0717C317.742 44.0872 317.876 43.1878 318.145 42.3734C318.413 41.5469 318.804 40.8359 319.317 40.2403C319.842 39.6447 320.483 39.1829 321.24 38.8547C322.009 38.5265 322.888 38.3624 323.877 38.3624C324.524 38.3624 325.171 38.4475 325.819 38.6177C326.478 38.7757 327.107 38.9945 327.705 39.274L326.808 41.5165C326.319 41.2856 325.825 41.085 325.324 40.9149C324.836 40.7447 324.353 40.6596 323.877 40.6596ZM340.337 51.5622H337.571V40.842H334.366C334.293 41.4011 334.214 42.0088 334.128 42.6651C334.055 43.3215 333.969 43.99 333.872 44.6706C333.786 45.3391 333.695 45.9772 333.597 46.585C333.499 47.1805 333.402 47.7093 333.304 48.1711C333.145 48.9247 332.932 49.5689 332.663 50.1037C332.407 50.6385 332.046 51.0457 331.582 51.3252C331.131 51.6048 330.538 51.7445 329.806 51.7445C329.562 51.7445 329.33 51.7263 329.11 51.6899C328.89 51.6534 328.683 51.6048 328.487 51.544V49.2833C328.646 49.3319 328.799 49.3744 328.945 49.4109C329.104 49.4473 329.275 49.4656 329.458 49.4656C329.702 49.4656 329.904 49.3866 330.062 49.2286C330.221 49.0706 330.361 48.8032 330.484 48.4264C330.606 48.0374 330.728 47.5026 330.85 46.822C330.911 46.5303 330.984 46.117 331.07 45.5822C331.155 45.0353 331.253 44.3972 331.363 43.6679C331.485 42.9265 331.607 42.1243 331.729 41.2613C331.851 40.3862 331.967 39.4807 332.077 38.5448H340.337V51.5622ZM351.163 51.5622H343.636V38.5448H351.163V40.8055H346.402V43.6679H350.834V45.9286H346.402V49.2833H351.163V51.5622ZM364.122 38.5448V49.265H365.862V55.3544H363.188V51.5622H355.001V55.3544H352.327V49.265H353.335C353.676 48.5844 354.006 47.8673 354.324 47.1137C354.641 46.3601 354.934 45.5518 355.203 44.6889C355.483 43.8259 355.734 42.89 355.954 41.8812C356.173 40.8602 356.356 39.7481 356.503 38.5448H364.122ZM358.701 40.842C358.615 41.474 358.493 42.1486 358.335 42.8657C358.176 43.5706 357.987 44.2938 357.767 45.0353C357.559 45.7767 357.327 46.506 357.071 47.2231C356.814 47.9402 356.54 48.6208 356.247 49.265H361.357V40.842H358.701ZM379.739 45.0353C379.739 46.0441 379.61 46.9618 379.354 47.7883C379.11 48.6026 378.731 49.3076 378.219 49.9031C377.718 50.4987 377.071 50.9545 376.277 51.2705C375.496 51.5865 374.574 51.7445 373.512 51.7445C372.449 51.7445 371.521 51.5865 370.728 51.2705C369.946 50.9424 369.299 50.4866 368.786 49.9031C368.286 49.3076 367.907 48.5965 367.651 47.77C367.407 46.9435 367.284 46.0259 367.284 45.017C367.284 43.6679 367.504 42.495 367.944 41.4983C368.396 40.5016 369.079 39.7298 369.995 39.1829C370.923 38.6238 372.101 38.3442 373.53 38.3442C374.946 38.3442 376.112 38.6238 377.028 39.1829C377.944 39.7298 378.621 40.5077 379.061 41.5165C379.513 42.5132 379.739 43.6861 379.739 45.0353ZM370.197 45.0353C370.197 45.9468 370.313 46.7308 370.545 47.3872C370.777 48.0435 371.137 48.5479 371.625 48.9004C372.114 49.2529 372.742 49.4291 373.512 49.4291C374.305 49.4291 374.94 49.2529 375.416 48.9004C375.905 48.5479 376.259 48.0435 376.479 47.3872C376.711 46.7308 376.827 45.9468 376.827 45.0353C376.827 43.6618 376.57 42.5861 376.057 41.8082C375.545 41.0304 374.702 40.6414 373.53 40.6414C372.748 40.6414 372.114 40.8176 371.625 41.1701C371.137 41.5226 370.777 42.027 370.545 42.6834C370.313 43.3397 370.197 44.1237 370.197 45.0353ZM386.514 38.5448C387.674 38.5448 388.644 38.6541 389.426 38.8729C390.219 39.0796 390.812 39.426 391.202 39.9121C391.605 40.3862 391.807 41.0304 391.807 41.8447C391.807 42.3309 391.727 42.7745 391.569 43.1756C391.41 43.5767 391.178 43.9049 390.873 44.1601C390.58 44.4154 390.219 44.5795 389.792 44.6524V44.7436C390.232 44.8286 390.628 44.9806 390.983 45.1993C391.337 45.4181 391.617 45.7341 391.825 46.1474C392.033 46.5607 392.136 47.1076 392.136 47.7883C392.136 48.5783 391.941 49.259 391.55 49.8302C391.172 50.3893 390.622 50.8208 389.902 51.1247C389.182 51.4164 388.327 51.5622 387.338 51.5622H382.448V38.5448H386.514ZM386.825 43.7043C387.631 43.7043 388.186 43.5767 388.492 43.3215C388.809 43.0662 388.968 42.6955 388.968 42.2093C388.968 41.711 388.785 41.3524 388.418 41.1337C388.052 40.9149 387.472 40.8055 386.679 40.8055H385.213V43.7043H386.825ZM385.213 45.8922V49.2833H387.027C387.857 49.2833 388.437 49.1253 388.766 48.8092C389.096 48.4811 389.261 48.0496 389.261 47.5148C389.261 47.1866 389.188 46.901 389.041 46.6579C388.907 46.4148 388.669 46.2264 388.327 46.0927C387.985 45.959 387.521 45.8922 386.935 45.8922H385.213ZM402.757 51.5622L401.804 48.4628H397.042L396.09 51.5622H393.105L397.72 38.4901H401.108L405.742 51.5622H402.757ZM400.193 43.1209C400.132 42.9143 400.052 42.653 399.955 42.337C399.857 42.0209 399.759 41.6989 399.662 41.3707C399.564 41.0425 399.485 40.7569 399.423 40.5138C399.362 40.7569 399.277 41.0607 399.167 41.4254C399.069 41.7779 398.972 42.1182 398.874 42.4464C398.789 42.7624 398.721 42.9872 398.673 43.1209L397.738 46.1474H401.145L400.193 43.1209ZM411.147 51.5622H408.382V40.842H404.829V38.5448H414.7V40.842H411.147V51.5622ZM424.244 51.5622H416.717V38.5448H424.244V40.8055H419.482V43.6679H423.914V45.9286H419.482V49.2833H424.244V51.5622ZM437.313 51.5622H434.548V40.842H431.343C431.269 41.4011 431.19 42.0088 431.105 42.6651C431.031 43.3215 430.946 43.99 430.848 44.6706C430.763 45.3391 430.671 45.9772 430.573 46.585C430.476 47.1805 430.378 47.7093 430.28 48.1711C430.122 48.9247 429.908 49.5689 429.639 50.1037C429.383 50.6385 429.023 51.0457 428.559 51.3252C428.107 51.6048 427.515 51.7445 426.782 51.7445C426.538 51.7445 426.306 51.7263 426.086 51.6899C425.866 51.6534 425.659 51.6048 425.464 51.544V49.2833C425.622 49.3319 425.775 49.3744 425.921 49.4109C426.08 49.4473 426.251 49.4656 426.434 49.4656C426.678 49.4656 426.88 49.3866 427.039 49.2286C427.197 49.0706 427.338 48.8032 427.46 48.4264C427.582 48.0374 427.704 47.5026 427.826 46.822C427.887 46.5303 427.96 46.117 428.046 45.5822C428.131 45.0353 428.229 44.3972 428.339 43.6679C428.461 42.9265 428.583 42.1243 428.705 41.2613C428.827 40.3862 428.943 39.4807 429.053 38.5448H437.313V51.5622ZM440.612 51.5622V38.5448H443.378V43.5403H444.477C445.71 43.5403 446.717 43.7104 447.499 44.0507C448.292 44.3911 448.878 44.859 449.257 45.4546C449.636 46.0502 449.825 46.7308 449.825 47.4966C449.825 48.3474 449.636 49.0766 449.257 49.6844C448.878 50.2921 448.292 50.76 447.499 51.0882C446.705 51.4042 445.679 51.5622 444.422 51.5622H440.612ZM444.312 49.3015C445.154 49.3015 445.814 49.1678 446.29 48.9004C446.778 48.633 447.023 48.1651 447.023 47.4966C447.023 47.0347 446.901 46.6822 446.656 46.4391C446.424 46.196 446.089 46.0319 445.649 45.9469C445.222 45.8496 444.703 45.801 444.092 45.801H443.378V49.3015H444.312ZM457.841 40.6596C457.316 40.6596 456.846 40.763 456.43 40.9696C456.027 41.1762 455.686 41.474 455.405 41.8629C455.124 42.2397 454.91 42.7016 454.764 43.2486C454.629 43.7955 454.562 44.4093 454.562 45.09C454.562 46.0137 454.672 46.8037 454.892 47.4601C455.124 48.1043 455.484 48.5965 455.973 48.9369C456.461 49.2772 457.084 49.4474 457.841 49.4474C458.378 49.4474 458.909 49.3866 459.434 49.265C459.971 49.1435 460.551 48.9733 461.174 48.7545V51.07C460.6 51.3009 460.032 51.4711 459.471 51.5805C458.909 51.6899 458.28 51.7445 457.584 51.7445C456.241 51.7445 455.13 51.4711 454.251 50.9241C453.384 50.365 452.743 49.5871 452.328 48.5905C451.913 47.5816 451.705 46.4087 451.705 45.0717C451.705 44.0872 451.839 43.1878 452.108 42.3734C452.377 41.5469 452.767 40.8359 453.28 40.2403C453.805 39.6447 454.446 39.1829 455.203 38.8547C455.973 38.5265 456.852 38.3624 457.841 38.3624C458.488 38.3624 459.135 38.4475 459.782 38.6177C460.441 38.7757 461.07 38.9945 461.669 39.274L460.771 41.5165C460.283 41.2856 459.788 41.085 459.288 40.9149C458.799 40.7447 458.317 40.6596 457.841 40.6596ZM474.613 51.5622H471.462L466.719 44.9623V51.5622H463.953V38.5448H466.719V44.8529L471.407 38.5448H474.356L469.594 44.7983L474.613 51.5622ZM476.259 38.5448H478.75V44.8347C478.75 45.1386 478.743 45.4789 478.731 45.8557C478.719 46.2325 478.707 46.6032 478.695 46.9678C478.682 47.3203 478.67 47.6303 478.658 47.8977C478.646 48.1529 478.634 48.3291 478.621 48.4264H478.676L484.72 38.5448H488.035V51.5622H485.563V45.3087C485.563 44.9806 485.569 44.622 485.581 44.2331C485.593 43.832 485.605 43.4491 485.618 43.0845C485.642 42.7198 485.66 42.4038 485.673 42.1364C485.697 41.8569 485.715 41.6745 485.728 41.5895H485.654L479.592 51.5622H476.259V38.5448ZM501.868 34.2603C501.807 34.8923 501.63 35.4514 501.337 35.9376C501.043 36.4116 500.586 36.7824 499.963 37.0498C499.34 37.3172 498.504 37.4509 497.454 37.4509C496.379 37.4509 495.537 37.3232 494.926 37.068C494.328 36.8006 493.901 36.4299 493.644 35.9558C493.388 35.4818 493.235 34.9166 493.186 34.2603H495.622C495.683 34.9288 495.854 35.3724 496.135 35.5912C496.416 35.81 496.874 35.9194 497.509 35.9194C498.034 35.9194 498.461 35.8039 498.791 35.573C499.133 35.3299 499.334 34.8923 499.395 34.2603H501.868ZM491.337 38.5448H493.827V44.8347C493.827 45.1386 493.821 45.4789 493.809 45.8557C493.797 46.2325 493.785 46.6032 493.772 46.9678C493.76 47.3203 493.748 47.6303 493.736 47.8977C493.724 48.1529 493.711 48.3291 493.699 48.4264H493.754L499.798 38.5448H503.113V51.5622H500.641V45.3087C500.641 44.9806 500.647 44.622 500.659 44.2331C500.671 43.832 500.683 43.4491 500.695 43.0845C500.72 42.7198 500.738 42.4038 500.75 42.1364C500.775 41.8569 500.793 41.6745 500.805 41.5895H500.732L494.67 51.5622H491.337V38.5448ZM524.928 49.3744V55.3544H522.254V51.5622H512.638V38.5448H515.404V49.265H520.221V38.5448H522.986V49.3744H524.928ZM534.474 51.5622H526.947V38.5448H534.474V40.8055H529.713V43.6679H534.145V45.9286H529.713V49.2833H534.474V51.5622ZM547.909 51.5622H545.144V45.9469H539.961V51.5622H537.195V38.5448H539.961V43.6496H545.144V38.5448H547.909V51.5622ZM556.236 51.5622H553.471V40.842H549.918V38.5448H559.79V40.842H556.236V51.5622ZM565.982 38.5448C567.667 38.5448 568.894 38.9094 569.663 39.6387C570.444 40.3558 570.835 41.3464 570.835 42.6104C570.835 43.1817 570.75 43.7287 570.579 44.2513C570.408 44.7618 570.121 45.2237 569.718 45.6369C569.327 46.038 568.808 46.354 568.161 46.585C567.514 46.8159 566.714 46.9314 565.762 46.9314H564.571V51.5622H561.806V38.5448H565.982ZM565.835 40.8055H564.571V44.6706H565.487C566.012 44.6706 566.464 44.6038 566.842 44.4701C567.221 44.3364 567.514 44.1237 567.721 43.832C567.929 43.5403 568.033 43.1635 568.033 42.7016C568.033 42.0574 567.856 41.5834 567.502 41.2795C567.148 40.9635 566.592 40.8055 565.835 40.8055Z" fill="white"/>
<path d="M151.88 91.0644H144.353V78.0469H151.88V80.3076H147.118V83.17H151.551V85.4308H147.118V88.7854H151.88V91.0644ZM164.84 78.0469V88.7672H166.58V94.8566H163.906V91.0644H155.719V94.8566H153.045V88.7672H154.052C154.394 88.0865 154.724 87.3694 155.041 86.6158C155.359 85.8622 155.652 85.054 155.92 84.191C156.201 83.328 156.451 82.3921 156.671 81.3833C156.891 80.3623 157.074 79.2502 157.221 78.0469H164.84ZM159.418 80.3441C159.333 80.9761 159.211 81.6507 159.052 82.3678C158.893 83.0728 158.704 83.796 158.484 84.5374C158.277 85.2788 158.045 86.0081 157.788 86.7252C157.532 87.4423 157.257 88.123 156.964 88.7672H162.074V80.3441H159.418ZM168.588 78.0469H171.079V84.3369C171.079 84.6407 171.073 84.9811 171.061 85.3578C171.048 85.7346 171.036 86.1053 171.024 86.47C171.012 86.8225 171 87.1324 170.987 87.3998C170.975 87.655 170.963 87.8313 170.951 87.9285H171.006L177.05 78.0469H180.365V91.0644H177.892V84.8109C177.892 84.4827 177.898 84.1242 177.91 83.7352C177.923 83.3341 177.935 82.9512 177.947 82.5866C177.971 82.222 177.99 81.906 178.002 81.6386C178.026 81.359 178.045 81.1767 178.057 81.0916H177.984L171.921 91.0644H168.588V78.0469ZM194.38 91.0644H191.615V85.449H186.431V91.0644H183.666V78.0469H186.431V83.1518H191.615V78.0469H194.38V91.0644ZM205.674 91.0644L204.721 87.965H199.959L199.007 91.0644H196.022L200.637 77.9922H204.025L208.659 91.0644H205.674ZM203.11 82.6231C203.049 82.4164 202.969 82.1551 202.871 81.8391C202.774 81.5231 202.676 81.201 202.578 80.8728C202.481 80.5447 202.401 80.259 202.34 80.0159C202.279 80.259 202.194 80.5629 202.084 80.9275C201.986 81.28 201.889 81.6203 201.791 81.9485C201.705 82.2645 201.638 82.4894 201.589 82.6231L200.655 85.6495H204.062L203.11 82.6231ZM214.711 86.0689L211.653 91.0644H208.575L212.294 85.3396C211.94 85.1938 211.586 84.981 211.232 84.7015C210.877 84.4098 210.584 84.0269 210.352 83.5529C210.12 83.0667 210.004 82.4711 210.004 81.7662C210.004 80.5629 210.438 79.6452 211.305 79.0132C212.172 78.369 213.387 78.0469 214.949 78.0469H219.199V91.0644H216.433V86.0689H214.711ZM215.059 80.3076C214.583 80.3076 214.174 80.3623 213.832 80.4717C213.503 80.5811 213.246 80.7574 213.063 81.0004C212.892 81.2435 212.807 81.5656 212.807 81.9667C212.807 82.538 212.996 82.9938 213.374 83.3341C213.765 83.6623 214.351 83.8264 215.133 83.8264H216.433V80.3076H215.059ZM233.868 78.0469V80.3259H228.374V91.0644H225.608V78.0469H233.868ZM243.402 91.0644H235.874V78.0469H243.402V80.3076H238.64V83.17H243.072V85.4308H238.64V88.7854H243.402V91.0644ZM257.99 84.5374C257.99 85.5462 257.862 86.4639 257.606 87.2904C257.362 88.1048 256.983 88.8097 256.47 89.4053C255.97 90.0009 255.323 90.4566 254.529 90.7727C253.748 91.0887 252.826 91.2467 251.763 91.2467C250.701 91.2467 249.773 91.0887 248.98 90.7727C248.198 90.4445 247.551 89.9887 247.038 89.4053C246.538 88.8097 246.159 88.0987 245.903 87.2722C245.658 86.4457 245.536 85.528 245.536 84.5192C245.536 83.17 245.756 81.9971 246.196 81.0004C246.647 80.0038 247.331 79.232 248.247 78.685C249.175 78.1259 250.353 77.8464 251.782 77.8464C253.198 77.8464 254.364 78.1259 255.28 78.685C256.196 79.232 256.873 80.0099 257.313 81.0187C257.765 82.0153 257.99 83.1883 257.99 84.5374ZM248.448 84.5374C248.448 85.449 248.564 86.233 248.796 86.8893C249.028 87.5456 249.389 88.0501 249.877 88.4025C250.365 88.755 250.994 88.9313 251.763 88.9313C252.557 88.9313 253.192 88.755 253.668 88.4025C254.157 88.0501 254.511 87.5456 254.73 86.8893C254.962 86.233 255.078 85.449 255.078 84.5374C255.078 83.164 254.822 82.0883 254.309 81.3104C253.796 80.5325 252.954 80.1435 251.782 80.1435C251 80.1435 250.365 80.3198 249.877 80.6723C249.389 81.0248 249.028 81.5292 248.796 82.1855C248.564 82.8419 248.448 83.6258 248.448 84.5374ZM268.172 77.8646V79.469C269.601 79.5054 270.736 79.7546 271.579 80.2165C272.433 80.6662 273.044 81.2496 273.41 81.9667C273.789 82.6838 273.978 83.4678 273.978 84.3186C273.978 84.8656 273.88 85.4247 273.685 85.9959C273.502 86.5672 273.184 87.0959 272.733 87.5821C272.293 88.0561 271.701 88.4451 270.956 88.7489C270.211 89.0528 269.283 89.2169 268.172 89.2412V91.2467H265.681V89.2412C264.558 89.2169 263.618 89.0528 262.861 88.7489C262.116 88.4451 261.524 88.0501 261.084 87.5639C260.645 87.0777 260.333 86.5551 260.15 85.9959C259.967 85.4247 259.875 84.8656 259.875 84.3186C259.875 83.6866 259.979 83.0849 260.187 82.5137C260.394 81.9424 260.724 81.4319 261.176 80.9822C261.628 80.5325 262.226 80.1739 262.971 79.9065C263.715 79.6391 264.619 79.4933 265.681 79.469V77.8646H268.172ZM265.681 81.6203C264.888 81.6568 264.253 81.7966 263.777 82.0397C263.313 82.2706 262.977 82.5805 262.769 82.9695C262.574 83.3584 262.476 83.8021 262.476 84.3004C262.476 84.8473 262.586 85.3275 262.806 85.7407C263.038 86.1418 263.386 86.4639 263.85 86.707C264.326 86.9379 264.936 87.0716 265.681 87.1081V81.6203ZM268.172 87.1081C268.917 87.0716 269.521 86.9379 269.985 86.707C270.461 86.4639 270.809 86.1418 271.029 85.7407C271.261 85.3275 271.377 84.8473 271.377 84.3004C271.377 83.8021 271.273 83.3584 271.066 82.9695C270.871 82.5805 270.535 82.2706 270.059 82.0397C269.595 81.7966 268.966 81.6568 268.172 81.6203V87.1081ZM276.457 78.0469H278.947V84.3369C278.947 84.6407 278.941 84.9811 278.929 85.3578C278.917 85.7346 278.905 86.1053 278.892 86.47C278.88 86.8225 278.868 87.1324 278.856 87.3998C278.844 87.655 278.831 87.8313 278.819 87.9285H278.874L284.918 78.0469H288.233V91.0644H285.761V84.8109C285.761 84.4827 285.767 84.1242 285.779 83.7352C285.791 83.3341 285.803 82.9512 285.816 82.5866C285.84 82.222 285.858 81.906 285.871 81.6386C285.895 81.359 285.913 81.1767 285.925 81.0916H285.852L279.79 91.0644H276.457V78.0469ZM300.564 81.0916C300.564 81.9667 300.252 82.6717 299.63 83.2065C299.007 83.7413 298.213 84.0755 297.249 84.2092V84.2639C298.445 84.3855 299.361 84.7197 299.996 85.2667C300.643 85.8015 300.967 86.5004 300.967 87.3633C300.967 88.1169 300.759 88.7915 300.344 89.3871C299.929 89.9705 299.312 90.4263 298.494 90.7544C297.676 91.0826 296.663 91.2467 295.454 91.2467C294.465 91.2467 293.586 91.1859 292.816 91.0644C292.059 90.9428 291.4 90.7666 290.838 90.5357V88.2202C291.217 88.4025 291.644 88.5606 292.121 88.6943C292.597 88.8158 293.079 88.913 293.567 88.986C294.056 89.0467 294.508 89.0771 294.923 89.0771C296.083 89.0771 296.919 88.913 297.432 88.5849C297.957 88.2445 298.219 87.7705 298.219 87.1628C298.219 86.5429 297.841 86.0932 297.084 85.8136C296.327 85.5219 295.307 85.3761 294.025 85.3761H292.798V83.2247H293.897C294.935 83.2247 295.741 83.1579 296.315 83.0242C296.888 82.8905 297.291 82.696 297.523 82.4408C297.755 82.1855 297.871 81.8816 297.871 81.5292C297.871 81.0794 297.67 80.727 297.267 80.4717C296.876 80.2043 296.284 80.0706 295.49 80.0706C294.819 80.0706 294.184 80.1679 293.586 80.3623C293 80.5568 292.45 80.812 291.937 81.1281L290.729 79.2867C291.18 78.995 291.657 78.7458 292.157 78.5392C292.67 78.3204 293.232 78.1563 293.842 78.0469C294.453 77.9254 295.13 77.8646 295.875 77.8646C296.864 77.8646 297.707 78.0044 298.403 78.2839C299.099 78.5635 299.63 78.9463 299.996 79.4325C300.374 79.9065 300.564 80.4596 300.564 81.0916ZM303.411 78.0469H305.902V84.3369C305.902 84.6407 305.896 84.9811 305.883 85.3578C305.871 85.7346 305.859 86.1053 305.847 86.47C305.835 86.8225 305.822 87.1324 305.81 87.3998C305.798 87.655 305.786 87.8313 305.774 87.9285H305.829L311.872 78.0469H315.187V91.0644H312.715V84.8109C312.715 84.4827 312.721 84.1242 312.733 83.7352C312.745 83.3341 312.758 82.9512 312.77 82.5866C312.794 82.222 312.813 81.906 312.825 81.6386C312.849 81.359 312.868 81.1767 312.88 81.0916H312.807L306.744 91.0644H303.411V78.0469ZM328.525 91.0644H325.76V86.0324C324.991 86.2998 324.282 86.5004 323.635 86.6341C323 86.7678 322.359 86.8346 321.712 86.8346C320.491 86.8346 319.533 86.5429 318.837 85.9595C318.153 85.3639 317.811 84.5192 317.811 83.4253V78.0469H320.577V82.6413C320.577 83.2733 320.723 83.7474 321.016 84.0634C321.309 84.3794 321.804 84.5374 322.5 84.5374C323.013 84.5374 323.525 84.4827 324.038 84.3733C324.551 84.2639 325.125 84.0998 325.76 83.8811V78.0469H328.525V91.0644ZM339.34 91.0644H331.813V78.0469H339.34V80.3076H334.578V83.17H339.011V85.4308H334.578V88.7854H339.34V91.0644ZM347.611 80.1618C347.086 80.1618 346.616 80.2651 346.201 80.4717C345.798 80.6784 345.456 80.9761 345.175 81.3651C344.894 81.7419 344.681 82.2037 344.534 82.7507C344.4 83.2976 344.333 83.9114 344.333 84.5921C344.333 85.5158 344.443 86.3059 344.662 86.9622C344.894 87.6064 345.255 88.0987 345.743 88.439C346.231 88.7793 346.854 88.9495 347.611 88.9495C348.148 88.9495 348.679 88.8887 349.205 88.7672C349.742 88.6456 350.322 88.4755 350.944 88.2567V90.5721C350.371 90.8031 349.803 90.9732 349.241 91.0826C348.679 91.192 348.051 91.2467 347.355 91.2467C346.012 91.2467 344.901 90.9732 344.021 90.4263C343.154 89.8672 342.513 89.0893 342.098 88.0926C341.683 87.0838 341.476 85.9109 341.476 84.5739C341.476 83.5894 341.61 82.6899 341.879 81.8756C342.147 81.0491 342.538 80.338 343.051 79.7424C343.576 79.1469 344.217 78.685 344.974 78.3568C345.743 78.0287 346.622 77.8646 347.611 77.8646C348.258 77.8646 348.905 77.9497 349.553 78.1198C350.212 78.2778 350.841 78.4966 351.439 78.7762L350.542 81.0187C350.053 80.7877 349.559 80.5872 349.058 80.417C348.57 80.2469 348.087 80.1618 347.611 80.1618ZM364.382 91.0644H361.232L356.489 84.4645V91.0644H353.723V78.0469H356.489V84.3551L361.177 78.0469H364.126L359.364 84.3004L364.382 91.0644ZM374.032 91.0644L373.08 87.965H368.318L367.365 91.0644H364.38L368.995 77.9922H372.384L377.017 91.0644H374.032ZM371.468 82.6231C371.407 82.4164 371.328 82.1551 371.23 81.8391C371.132 81.5231 371.034 81.201 370.937 80.8728C370.839 80.5447 370.76 80.259 370.699 80.0159C370.638 80.259 370.552 80.5629 370.442 80.9275C370.345 81.28 370.247 81.6203 370.149 81.9485C370.064 82.2645 369.997 82.4894 369.948 82.6231L369.014 85.6495H372.42L371.468 82.6231ZM383.07 86.0689L380.011 91.0644H376.934L380.652 85.3396C380.298 85.1938 379.944 84.981 379.59 84.7015C379.236 84.4098 378.943 84.0269 378.711 83.5529C378.479 83.0667 378.363 82.4711 378.363 81.7662C378.363 80.5629 378.796 79.6452 379.663 79.0132C380.53 78.369 381.745 78.0469 383.308 78.0469H387.557V91.0644H384.791V86.0689H383.07ZM383.418 80.3076C382.942 80.3076 382.532 80.3623 382.191 80.4717C381.861 80.5811 381.605 80.7574 381.421 81.0004C381.25 81.2435 381.165 81.5656 381.165 81.9667C381.165 82.538 381.354 82.9938 381.733 83.3341C382.123 83.6623 382.71 83.8264 383.491 83.8264H384.791V80.3076H383.418ZM399.516 80.1618C398.991 80.1618 398.521 80.2651 398.106 80.4717C397.703 80.6784 397.361 80.9761 397.08 81.3651C396.799 81.7419 396.585 82.2037 396.439 82.7507C396.305 83.2976 396.237 83.9114 396.237 84.5921C396.237 85.5158 396.347 86.3059 396.567 86.9622C396.799 87.6064 397.159 88.0987 397.648 88.439C398.136 88.7793 398.759 88.9495 399.516 88.9495C400.053 88.9495 400.584 88.8887 401.109 88.7672C401.646 88.6456 402.226 88.4755 402.849 88.2567V90.5721C402.275 90.8031 401.708 90.9732 401.146 91.0826C400.584 91.192 399.955 91.2467 399.259 91.2467C397.916 91.2467 396.805 90.9732 395.926 90.4263C395.059 89.8672 394.418 89.0893 394.003 88.0926C393.588 87.0838 393.38 85.9109 393.38 84.5739C393.38 83.5894 393.515 82.6899 393.783 81.8756C394.052 81.0491 394.443 80.338 394.955 79.7424C395.48 79.1469 396.121 78.685 396.878 78.3568C397.648 78.0287 398.527 77.8646 399.516 77.8646C400.163 77.8646 400.81 77.9497 401.457 78.1198C402.117 78.2778 402.745 78.4966 403.344 78.7762L402.446 81.0187C401.958 80.7877 401.463 80.5872 400.963 80.417C400.474 80.2469 399.992 80.1618 399.516 80.1618ZM415.976 91.0644H413.21V80.3441H410.005C409.932 80.9032 409.852 81.5109 409.767 82.1673C409.694 82.8236 409.608 83.4921 409.51 84.1728C409.425 84.8413 409.333 85.4794 409.236 86.0871C409.138 86.6827 409.04 87.2114 408.943 87.6733C408.784 88.4268 408.57 89.071 408.302 89.6058C408.045 90.1406 407.685 90.5478 407.221 90.8274C406.769 91.1069 406.177 91.2467 405.445 91.2467C405.2 91.2467 404.968 91.2285 404.749 91.192C404.529 91.1555 404.321 91.1069 404.126 91.0461V88.7854C404.285 88.834 404.437 88.8766 404.584 88.913C404.742 88.9495 404.913 88.9677 405.097 88.9677C405.341 88.9677 405.542 88.8887 405.701 88.7307C405.86 88.5727 406 88.3053 406.122 87.9285C406.244 87.5396 406.366 87.0048 406.489 86.3241C406.55 86.0324 406.623 85.6192 406.708 85.0844C406.794 84.5374 406.891 83.8993 407.001 83.17C407.123 82.4286 407.246 81.6264 407.368 80.7634C407.49 79.8883 407.606 78.9828 407.716 78.0469H415.976V91.0644ZM425.722 87.2539C425.355 88.0804 424.965 88.7976 424.549 89.4053C424.146 90.0009 423.628 90.4566 422.993 90.7727C422.358 91.0887 421.527 91.2467 420.502 91.2467C420.184 91.2467 419.836 91.2224 419.458 91.1738C419.079 91.1251 418.731 91.0583 418.414 90.9732V88.6031C418.707 88.7246 419.03 88.8097 419.385 88.8583C419.739 88.9069 420.068 88.9313 420.374 88.9313C420.776 88.9313 421.1 88.8644 421.344 88.7307C421.601 88.597 421.802 88.4147 421.949 88.1838C422.107 87.9407 422.236 87.6793 422.333 87.3998L417.809 78.0469H420.74L423.176 83.6805C423.237 83.8021 423.31 83.9601 423.396 84.1545C423.481 84.349 423.566 84.5496 423.652 84.7562C423.737 84.9628 423.805 85.1451 423.853 85.3031H423.945C423.994 85.1573 424.055 84.981 424.128 84.7744C424.214 84.5556 424.299 84.3369 424.385 84.1181C424.482 83.8871 424.568 83.6866 424.641 83.5164L426.912 78.0469H429.769L425.722 87.2539ZM434.423 84.3004L430.027 78.0469H432.884L437.115 84.3551V78.0469H439.697V84.3551L443.928 78.0469H446.785L442.39 84.3004L447.042 91.0644H444.075L439.697 84.4645V91.0644H437.115V84.4645L432.738 91.0644H429.771L434.423 84.3004ZM448.697 91.0644V78.0469H456.957V80.3259H451.463V83.0424H452.561C453.795 83.0424 454.802 83.2126 455.583 83.5529C456.377 83.8932 456.963 84.3612 457.342 84.9567C457.72 85.5523 457.909 86.233 457.909 86.9987C457.909 87.8495 457.72 88.5788 457.342 89.1865C456.963 89.7942 456.377 90.2622 455.583 90.5904C454.79 90.9064 453.764 91.0644 452.506 91.0644H448.697ZM452.397 88.8036C453.239 88.8036 453.898 88.6699 454.375 88.4025C454.863 88.1351 455.107 87.6672 455.107 86.9987C455.107 86.5368 454.985 86.1843 454.741 85.9412C454.509 85.6982 454.173 85.5341 453.734 85.449C453.306 85.3518 452.787 85.3031 452.177 85.3031H451.463V88.8036H452.397ZM468.379 91.0644L467.427 87.965H462.665L461.713 91.0644H458.727L463.343 77.9922H466.731L471.365 91.0644H468.379ZM465.815 82.6231C465.754 82.4164 465.675 82.1551 465.577 81.8391C465.48 81.5231 465.382 81.201 465.284 80.8728C465.187 80.5447 465.107 80.259 465.046 80.0159C464.985 80.259 464.9 80.5629 464.79 80.9275C464.692 81.28 464.594 81.6203 464.497 81.9485C464.411 82.2645 464.344 82.4894 464.295 82.6231L463.361 85.6495H466.768L465.815 82.6231ZM480.309 78.0469C481.994 78.0469 483.221 78.4115 483.991 79.1408C484.772 79.8579 485.163 80.8485 485.163 82.1126C485.163 82.6838 485.077 83.2308 484.906 83.7534C484.736 84.2639 484.449 84.7258 484.046 85.1391C483.655 85.5402 483.136 85.8562 482.489 86.0871C481.842 86.318 481.042 86.4335 480.09 86.4335H478.899V91.0644H476.134V78.0469H480.309ZM480.163 80.3076H478.899V84.1728H479.815C480.34 84.1728 480.792 84.1059 481.17 83.9722C481.549 83.8385 481.842 83.6258 482.049 83.3341C482.257 83.0424 482.361 82.6656 482.361 82.2037C482.361 81.5596 482.184 81.0855 481.83 80.7817C481.475 80.4657 480.92 80.3076 480.163 80.3076ZM499.502 84.5374C499.502 85.5462 499.374 86.4639 499.117 87.2904C498.873 88.1048 498.495 88.8097 497.982 89.4053C497.481 90.0009 496.834 90.4566 496.04 90.7727C495.259 91.0887 494.337 91.2467 493.275 91.2467C492.213 91.2467 491.285 91.0887 490.491 90.7727C489.71 90.4445 489.062 89.9887 488.55 89.4053C488.049 88.8097 487.671 88.0987 487.414 87.2722C487.17 86.4457 487.048 85.528 487.048 84.5192C487.048 83.17 487.268 81.9971 487.707 81.0004C488.159 80.0038 488.843 79.232 489.758 78.685C490.686 78.1259 491.865 77.8464 493.293 77.8464C494.71 77.8464 495.876 78.1259 496.791 78.685C497.707 79.232 498.385 80.0099 498.824 81.0187C499.276 82.0153 499.502 83.1883 499.502 84.5374ZM489.96 84.5374C489.96 85.449 490.076 86.233 490.308 86.8893C490.54 87.5456 490.9 88.0501 491.388 88.4025C491.877 88.755 492.506 88.9313 493.275 88.9313C494.069 88.9313 494.703 88.755 495.18 88.4025C495.668 88.0501 496.022 87.5456 496.242 86.8893C496.474 86.233 496.59 85.449 496.59 84.5374C496.59 83.164 496.334 82.0883 495.821 81.3104C495.308 80.5325 494.465 80.1435 493.293 80.1435C492.512 80.1435 491.877 80.3198 491.388 80.6723C490.9 81.0248 490.54 81.5292 490.308 82.1855C490.076 82.8419 489.96 83.6258 489.96 84.5374ZM507.761 80.1618C507.236 80.1618 506.765 80.2651 506.35 80.4717C505.947 80.6784 505.605 80.9761 505.325 81.3651C505.044 81.7419 504.83 82.2037 504.684 82.7507C504.549 83.2976 504.482 83.9114 504.482 84.5921C504.482 85.5158 504.592 86.3059 504.812 86.9622C505.044 87.6064 505.404 88.0987 505.892 88.439C506.381 88.7793 507.004 88.9495 507.761 88.9495C508.298 88.9495 508.829 88.8887 509.354 88.7672C509.891 88.6456 510.471 88.4755 511.094 88.2567V90.5721C510.52 90.8031 509.952 90.9732 509.391 91.0826C508.829 91.192 508.2 91.2467 507.504 91.2467C506.161 91.2467 505.05 90.9732 504.171 90.4263C503.304 89.8672 502.663 89.0893 502.248 88.0926C501.833 87.0838 501.625 85.9109 501.625 84.5739C501.625 83.5894 501.759 82.6899 502.028 81.8756C502.297 81.0491 502.687 80.338 503.2 79.7424C503.725 79.1469 504.366 78.685 505.123 78.3568C505.892 78.0287 506.772 77.8646 507.761 77.8646C508.408 77.8646 509.055 77.9497 509.702 78.1198C510.361 78.2778 510.99 78.4966 511.588 78.7762L510.691 81.0187C510.203 80.7877 509.708 80.5872 509.207 80.417C508.719 80.2469 508.237 80.1618 507.761 80.1618ZM519.064 80.1618C518.539 80.1618 518.069 80.2651 517.654 80.4717C517.251 80.6784 516.909 80.9761 516.628 81.3651C516.347 81.7419 516.134 82.2037 515.987 82.7507C515.853 83.2976 515.786 83.9114 515.786 84.5921C515.786 85.5158 515.895 86.3059 516.115 86.9622C516.347 87.6064 516.707 88.0987 517.196 88.439C517.684 88.7793 518.307 88.9495 519.064 88.9495C519.601 88.9495 520.132 88.8887 520.657 88.7672C521.195 88.6456 521.775 88.4755 522.397 88.2567V90.5721C521.823 90.8031 521.256 90.9732 520.694 91.0826C520.132 91.192 519.504 91.2467 518.808 91.2467C517.464 91.2467 516.353 90.9732 515.474 90.4263C514.607 89.8672 513.966 89.0893 513.551 88.0926C513.136 87.0838 512.928 85.9109 512.928 84.5739C512.928 83.5894 513.063 82.6899 513.331 81.8756C513.6 81.0491 513.991 80.338 514.504 79.7424C515.029 79.1469 515.67 78.685 516.427 78.3568C517.196 78.0287 518.075 77.8646 519.064 77.8646C519.711 77.8646 520.358 77.9497 521.005 78.1198C521.665 78.2778 522.293 78.4966 522.892 78.7762L521.994 81.0187C521.506 80.7877 521.011 80.5872 520.511 80.417C520.022 80.2469 519.54 80.1618 519.064 80.1618ZM525.176 78.0469H527.667V84.3369C527.667 84.6407 527.661 84.9811 527.648 85.3578C527.636 85.7346 527.624 86.1053 527.612 86.47C527.599 86.8225 527.587 87.1324 527.575 87.3998C527.563 87.655 527.551 87.8313 527.538 87.9285H527.593L533.637 78.0469H536.952V91.0644H534.48V84.8109C534.48 84.4827 534.486 84.1242 534.498 83.7352C534.51 83.3341 534.523 82.9512 534.535 82.5866C534.559 82.222 534.577 81.906 534.59 81.6386C534.614 81.359 534.632 81.1767 534.645 81.0916H534.571L528.509 91.0644H525.176V78.0469ZM550.785 73.7624C550.724 74.3945 550.547 74.9536 550.254 75.4398C549.961 75.9138 549.503 76.2845 548.88 76.5519C548.257 76.8193 547.421 76.953 546.371 76.953C545.296 76.953 544.454 76.8254 543.843 76.5701C543.245 76.3027 542.818 75.932 542.561 75.458C542.305 74.984 542.152 74.4188 542.103 73.7624H544.539C544.6 74.4309 544.771 74.8746 545.052 75.0934C545.333 75.3121 545.791 75.4215 546.426 75.4215C546.951 75.4215 547.378 75.3061 547.708 75.0751C548.05 74.832 548.251 74.3945 548.312 73.7624H550.785ZM540.254 78.0469H542.744V84.3369C542.744 84.6407 542.738 84.9811 542.726 85.3578C542.714 85.7346 542.702 86.1053 542.69 86.47C542.677 86.8225 542.665 87.1324 542.653 87.3998C542.641 87.655 542.628 87.8313 542.616 87.9285H542.671L548.715 78.0469H552.03V91.0644H549.558V84.8109C549.558 84.4827 549.564 84.1242 549.576 83.7352C549.588 83.3341 549.6 82.9512 549.613 82.5866C549.637 82.222 549.655 81.906 549.668 81.6386C549.692 81.359 549.71 81.1767 549.723 81.0916H549.649L543.587 91.0644H540.254V78.0469ZM560.881 80.1618C560.356 80.1618 559.886 80.2651 559.471 80.4717C559.068 80.6784 558.726 80.9761 558.445 81.3651C558.164 81.7419 557.95 82.2037 557.804 82.7507C557.67 83.2976 557.602 83.9114 557.602 84.5921C557.602 85.5158 557.712 86.3059 557.932 86.9622C558.164 87.6064 558.524 88.0987 559.013 88.439C559.501 88.7793 560.124 88.9495 560.881 88.9495C561.418 88.9495 561.949 88.8887 562.474 88.7672C563.012 88.6456 563.592 88.4755 564.214 88.2567V90.5721C563.64 90.8031 563.073 90.9732 562.511 91.0826C561.949 91.192 561.32 91.2467 560.625 91.2467C559.281 91.2467 558.17 90.9732 557.291 90.4263C556.424 89.8672 555.783 89.0893 555.368 88.0926C554.953 87.0838 554.745 85.9109 554.745 84.5739C554.745 83.5894 554.88 82.6899 555.148 81.8756C555.417 81.0491 555.808 80.338 556.32 79.7424C556.846 79.1469 557.487 78.685 558.244 78.3568C559.013 78.0287 559.892 77.8646 560.881 77.8646C561.528 77.8646 562.175 77.9497 562.822 78.1198C563.482 78.2778 564.11 78.4966 564.709 78.7762L563.811 81.0187C563.323 80.7877 562.828 80.5872 562.328 80.417C561.839 80.2469 561.357 80.1618 560.881 80.1618ZM577.652 91.0644H574.502L569.758 84.4645V91.0644H566.993V78.0469H569.758V84.3551L574.447 78.0469H577.396L572.634 84.3004L577.652 91.0644ZM590.808 84.5374C590.808 85.5462 590.68 86.4639 590.424 87.2904C590.18 88.1048 589.801 88.8097 589.288 89.4053C588.788 90.0009 588.14 90.4566 587.347 90.7727C586.565 91.0887 585.644 91.2467 584.581 91.2467C583.519 91.2467 582.591 91.0887 581.797 90.7727C581.016 90.4445 580.369 89.9887 579.856 89.4053C579.355 88.8097 578.977 88.0987 578.721 87.2722C578.476 86.4457 578.354 85.528 578.354 84.5192C578.354 83.17 578.574 81.9971 579.013 81.0004C579.465 80.0038 580.149 79.232 581.065 78.685C581.993 78.1259 583.171 77.8464 584.6 77.8464C586.016 77.8464 587.182 78.1259 588.098 78.685C589.014 79.232 589.691 80.0099 590.131 81.0187C590.582 82.0153 590.808 83.1883 590.808 84.5374ZM581.266 84.5374C581.266 85.449 581.382 86.233 581.614 86.8893C581.846 87.5456 582.206 88.0501 582.695 88.4025C583.183 88.755 583.812 88.9313 584.581 88.9313C585.375 88.9313 586.01 88.755 586.486 88.4025C586.974 88.0501 587.329 87.5456 587.548 86.8893C587.78 86.233 587.896 85.449 587.896 84.5374C587.896 83.164 587.64 82.0883 587.127 81.3104C586.614 80.5325 585.772 80.1435 584.6 80.1435C583.818 80.1435 583.183 80.3198 582.695 80.6723C582.206 81.0248 581.846 81.5292 581.614 82.1855C581.382 82.8419 581.266 83.6258 581.266 84.5374ZM604.049 73.7624C603.988 74.3945 603.81 74.9536 603.517 75.4398C603.224 75.9138 602.767 76.2845 602.144 76.5519C601.521 76.8193 600.685 76.953 599.635 76.953C598.56 76.953 597.718 76.8254 597.107 76.5701C596.509 76.3027 596.082 75.932 595.825 75.458C595.569 74.984 595.416 74.4188 595.367 73.7624H597.803C597.864 74.4309 598.035 74.8746 598.316 75.0934C598.597 75.3121 599.055 75.4215 599.69 75.4215C600.215 75.4215 600.642 75.3061 600.972 75.0751C601.314 74.832 601.515 74.3945 601.576 73.7624H604.049ZM593.517 78.0469H596.008V84.3369C596.008 84.6407 596.002 84.9811 595.99 85.3578C595.978 85.7346 595.966 86.1053 595.953 86.47C595.941 86.8225 595.929 87.1324 595.917 87.3998C595.905 87.655 595.892 87.8313 595.88 87.9285H595.935L601.979 78.0469H605.294V91.0644H602.821V84.8109C602.821 84.4827 602.828 84.1242 602.84 83.7352C602.852 83.3341 602.864 82.9512 602.876 82.5866C602.901 82.222 602.919 81.906 602.931 81.6386C602.956 81.359 602.974 81.1767 602.986 81.0916H602.913L596.851 91.0644H593.517V78.0469ZM619.711 91.0644L618.759 87.965H613.997L613.044 91.0644H610.059L614.674 77.9922H618.063L622.696 91.0644H619.711ZM617.147 82.6231C617.086 82.4164 617.006 82.1551 616.909 81.8391C616.811 81.5231 616.713 81.201 616.616 80.8728C616.518 80.5447 616.439 80.259 616.378 80.0159C616.317 80.259 616.231 80.5629 616.121 80.9275C616.024 81.28 615.926 81.6203 615.828 81.9485C615.743 82.2645 615.676 82.4894 615.627 82.6231L614.693 85.6495H618.099L617.147 82.6231ZM635.012 91.0644H631.861L627.118 84.4645V91.0644H624.352V78.0469H627.118V84.3551L631.807 78.0469H634.755L629.993 84.3004L635.012 91.0644ZM644.661 91.0644L643.709 87.965H638.947L637.995 91.0644H635.009L639.625 77.9922H643.013L647.647 91.0644H644.661ZM642.097 82.6231C642.036 82.4164 641.957 82.1551 641.859 81.8391C641.761 81.5231 641.664 81.201 641.566 80.8728C641.468 80.5447 641.389 80.259 641.328 80.0159C641.267 80.259 641.182 80.5629 641.072 80.9275C640.974 81.28 640.876 81.6203 640.779 81.9485C640.693 82.2645 640.626 82.4894 640.577 82.6231L639.643 85.6495H643.05L642.097 82.6231ZM659.542 78.0469V88.7672H661.281V94.8566H658.607V91.0644H650.421V94.8566H647.747V88.7672H648.754C649.096 88.0865 649.426 87.3694 649.743 86.6158C650.06 85.8622 650.354 85.054 650.622 84.191C650.903 83.328 651.153 82.3921 651.373 81.3833C651.593 80.3623 651.776 79.2502 651.922 78.0469H659.542ZM654.12 80.3441C654.035 80.9761 653.913 81.6507 653.754 82.3678C653.595 83.0728 653.406 83.796 653.186 84.5374C652.979 85.2788 652.747 86.0081 652.49 86.7252C652.234 87.4423 651.959 88.123 651.666 88.7672H656.776V80.3441H654.12ZM670.817 91.0644H663.29V78.0469H670.817V80.3076H666.056V83.17H670.488V85.4308H666.056V88.7854H670.817V91.0644ZM679.069 91.0644L675.919 80.8546H675.846C675.858 81.0977 675.876 81.4623 675.901 81.9485C675.925 82.4347 675.949 82.9573 675.974 83.5164C675.998 84.0634 676.01 84.5617 676.01 85.0114V91.0644H673.538V78.0469H677.311L680.406 88.0014H680.461L683.739 78.0469H687.512V91.0644H684.93V84.902C684.93 84.4888 684.936 84.0148 684.948 83.48C684.973 82.9452 684.991 82.4408 685.003 81.9667C685.028 81.4805 685.046 81.1159 685.058 80.8728H684.985L681.615 91.0644H679.069ZM690.816 78.0469H693.307V84.3369C693.307 84.6407 693.301 84.9811 693.288 85.3578C693.276 85.7346 693.264 86.1053 693.252 86.47C693.24 86.8225 693.227 87.1324 693.215 87.3998C693.203 87.655 693.191 87.8313 693.179 87.9285H693.234L699.277 78.0469H702.592V91.0644H700.12V84.8109C700.12 84.4827 700.126 84.1242 700.138 83.7352C700.15 83.3341 700.163 82.9512 700.175 82.5866C700.199 82.222 700.218 81.906 700.23 81.6386C700.254 81.359 700.273 81.1767 700.285 81.0916H700.211L694.149 91.0644H690.816V78.0469ZM705.894 78.0469H708.385V84.3369C708.385 84.6407 708.378 84.9811 708.366 85.3578C708.354 85.7346 708.342 86.1053 708.33 86.47C708.317 86.8225 708.305 87.1324 708.293 87.3998C708.281 87.655 708.269 87.8313 708.256 87.9285H708.311L714.355 78.0469H717.67V91.0644H715.198V84.8109C715.198 84.4827 715.204 84.1242 715.216 83.7352C715.228 83.3341 715.241 82.9512 715.253 82.5866C715.277 82.222 715.295 81.906 715.308 81.6386C715.332 81.359 715.35 81.1767 715.363 81.0916H715.289L709.227 91.0644H705.894V78.0469ZM734.798 91.0644H732.032V85.449H726.849V91.0644H724.084V78.0469H726.849V83.1518H732.032V78.0469H734.798V91.0644ZM746.091 91.0644L745.139 87.965H740.377L739.425 91.0644H736.439L741.055 77.9922H744.443L749.077 91.0644H746.091ZM743.527 82.6231C743.466 82.4164 743.387 82.1551 743.289 81.8391C743.192 81.5231 743.094 81.201 742.996 80.8728C742.898 80.5447 742.819 80.259 742.758 80.0159C742.697 80.259 742.611 80.5629 742.502 80.9275C742.404 81.28 742.306 81.6203 742.209 81.9485C742.123 82.2645 742.056 82.4894 742.007 82.6231L741.073 85.6495H744.48L743.527 82.6231ZM757.18 87.2539C756.814 88.0804 756.423 88.7976 756.008 89.4053C755.605 90.0009 755.086 90.4566 754.451 90.7727C753.816 91.0887 752.986 91.2467 751.961 91.2467C751.643 91.2467 751.295 91.2224 750.917 91.1738C750.538 91.1251 750.19 91.0583 749.873 90.9732V88.6031C750.166 88.7246 750.489 88.8097 750.843 88.8583C751.197 88.9069 751.527 88.9313 751.832 88.9313C752.235 88.9313 752.559 88.8644 752.803 88.7307C753.059 88.597 753.261 88.4147 753.407 88.1838C753.566 87.9407 753.694 87.6793 753.792 87.3998L749.268 78.0469H752.199L754.635 83.6805C754.696 83.8021 754.769 83.9601 754.854 84.1545C754.94 84.349 755.025 84.5496 755.111 84.7562C755.196 84.9628 755.263 85.1451 755.312 85.3031H755.404C755.453 85.1573 755.514 84.981 755.587 84.7744C755.672 84.5556 755.758 84.3369 755.843 84.1181C755.941 83.8871 756.026 83.6866 756.1 83.5164L758.371 78.0469H761.228L757.18 87.2539ZM773.534 91.0644H770.39L765.643 84.4645V91.0644H762.878V78.0469H765.643V84.3551L770.329 78.0469H773.282L768.52 84.3004L773.534 91.0644Z" fill="white"/>
</g>
<defs>
<clipPath id="clip0_105_4">
<rect width="992" height="113" fill="white" transform="translate(0 -1)"/>
</clipPath>
</defs>
</svg>
