<svg width="320" height="43" viewBox="0 0 320 43" fill="none" xmlns="http://www.w3.org/2000/svg">
<g clip-path="url(#clip0_105_49)">
<path d="M465.159 -0.210299H0V42.6352H465.159V-0.210299Z" fill="#29518C"/>
<path d="M465.159 -0.210299H0V42.6352H465.159V-0.210299Z" fill="#29518C"/>
<path d="M465.159 23.2742H48.8418V25.1577H465.159V23.2742Z" fill="white"/>
<path d="M16.862 19.6309H0V21.6438H16.862V19.6309Z" fill="white"/>
<path d="M34.123 8.08082C26.1253 8.08082 19.6509 14.4846 19.6509 22.3952C19.6509 30.3058 26.1253 36.7096 34.123 36.7096C42.1209 36.7096 48.5953 30.3058 48.5953 22.3952C48.5953 14.4846 42.1209 8.08082 34.123 8.08082ZM33.9963 35.3285C26.887 35.3285 21.1743 29.5524 21.1743 22.6465C21.1743 15.6147 26.887 9.83872 33.9963 9.83872C41.1054 9.83872 46.8181 15.4892 46.8181 22.5208C46.8181 29.5524 41.1054 35.3285 33.9963 35.3285Z" fill="white"/>
<path d="M51.0074 23.2742V25.1577H39.201L36.5351 39.2211L31.5841 12.9779L30.0607 21.6418H16.731V19.6329H28.5373L31.5841 3.68605L36.4081 30.9338L37.8047 23.2742H51.0074Z" fill="white"/>
<path d="M21.8041 19.1996H19.769V19.6309H21.8041V19.1996Z" fill="#29518C"/>
<path d="M21.5136 21.6438H19.4785V22.0751H21.5136V21.6438Z" fill="#29518C"/>
<path d="M48.8419 22.794H46.5161V23.2742H48.8419V22.794Z" fill="#29518C"/>
<path d="M48.5509 25.1577H46.2251V25.6379H48.5509V25.1577Z" fill="#29518C"/>
<path d="M56.4399 8.82348V9.22836C56.7995 9.23448 57.0833 9.29277 57.2912 9.40319C57.499 9.51361 57.6461 9.66084 57.7331 9.84488C57.82 10.0258 57.8633 10.2283 57.8633 10.4522C57.8633 10.5994 57.84 10.7466 57.7935 10.8939C57.7502 11.038 57.674 11.1699 57.5656 11.2895C57.4572 11.4061 57.3112 11.5012 57.1284 11.5748C56.9455 11.6484 56.7158 11.6883 56.4399 11.6944V12.2005H56.0259V11.6944C55.7436 11.6883 55.5096 11.6484 55.3235 11.5748C55.1407 11.4981 54.9965 11.4 54.8909 11.2803C54.7854 11.1576 54.711 11.0242 54.6677 10.8801C54.6243 10.7359 54.6025 10.5933 54.6025 10.4522C54.6025 10.2896 54.6258 10.1363 54.6723 9.9921C54.722 9.84488 54.8011 9.71605 54.9095 9.60563C55.0212 9.49213 55.1686 9.40167 55.3514 9.33418C55.5343 9.26669 55.7593 9.23144 56.0259 9.22836V8.82348H56.4399ZM56.0259 9.57803C55.7779 9.58415 55.5794 9.62403 55.4305 9.69765C55.2849 9.77126 55.1808 9.87248 55.1189 10.0013C55.0569 10.1271 55.0258 10.2758 55.0258 10.4476C55.0258 10.6285 55.0598 10.7865 55.1282 10.9215C55.1994 11.0534 55.3081 11.1561 55.4538 11.2297C55.6026 11.3033 55.7933 11.3448 56.0259 11.354V9.57803ZM56.4399 11.354C56.6786 11.3448 56.8711 11.3018 57.0167 11.2251C57.1656 11.1484 57.2726 11.0442 57.3377 10.9123C57.406 10.7773 57.44 10.6224 57.44 10.4476C57.44 10.2728 57.4089 10.1225 57.347 9.9967C57.2851 9.86788 57.181 9.76818 57.0353 9.69765C56.8897 9.62403 56.6911 9.58415 56.4399 9.57803V11.354ZM60.4109 12.1545H58.5549V8.86949H60.4109V9.23296H58.9736V10.259H60.3272V10.6178H58.9736V11.791H60.4109V12.1545ZM63.3772 8.86949V11.7864H63.8005V13.0195H63.4004V12.1545H61.1165V13.0195H60.7165V11.7864H60.9723C61.0839 11.5963 61.1895 11.3831 61.2886 11.1469C61.391 10.9108 61.4808 10.6638 61.5584 10.4062C61.636 10.1455 61.6994 9.88476 61.7491 9.62403C61.7988 9.36331 61.8297 9.11181 61.8422 8.86949H63.3772ZM62.2096 9.24216C62.1971 9.42007 62.1663 9.62096 62.1166 9.84488C62.0701 10.0688 62.0096 10.2988 61.9352 10.535C61.864 10.7681 61.7831 10.9936 61.6933 11.2113C61.6064 11.4291 61.5133 11.6208 61.4142 11.7864H62.9632V9.24216H62.2096ZM66.212 12.1545H64.3561V8.86949H66.212V9.23296H64.7747V10.259H66.1283V10.6178H64.7747V11.791H66.212V12.1545ZM67.8197 8.86949C68.2538 8.86949 68.5701 8.95383 68.7687 9.12254C68.9672 9.29125 69.0664 9.52894 69.0664 9.83567C69.0664 9.97062 69.0431 10.101 68.9966 10.2267C68.9533 10.3494 68.8803 10.4599 68.778 10.558C68.6756 10.6561 68.5393 10.7344 68.3686 10.7927C68.198 10.8479 67.9887 10.8755 67.7407 10.8755H67.3592V12.1545H66.9406V8.86949H67.8197ZM67.7825 9.22376H67.3592V10.5212H67.6941C67.9049 10.5212 68.0802 10.4997 68.2198 10.4568C68.3593 10.4108 68.4631 10.3387 68.5314 10.2405C68.5998 10.1424 68.6338 10.0136 68.6338 9.85408C68.6338 9.64244 68.5654 9.48448 68.4291 9.38019C68.2927 9.27589 68.077 9.22376 67.7825 9.22376ZM71.6093 12.1545L71.2093 11.1377H69.8929L69.4975 12.1545H69.0742L70.372 8.85569H70.7488L72.0419 12.1545H71.6093ZM70.7116 9.77586C70.7023 9.75133 70.6866 9.70685 70.6651 9.64244C70.6433 9.57803 70.6215 9.51209 70.5999 9.4446C70.5813 9.37406 70.5656 9.32038 70.5534 9.28357C70.5377 9.34491 70.5209 9.40779 70.5023 9.4722C70.4866 9.53354 70.4697 9.5903 70.4511 9.64244C70.4354 9.69457 70.4214 9.73905 70.4092 9.77586L70.0324 10.7696H71.0837L70.7116 9.77586ZM74.8872 12.1545H74.4686V9.23296H73.4173C73.3955 9.40167 73.3723 9.57955 73.3476 9.76666C73.3226 9.95069 73.2964 10.1332 73.2685 10.3142C73.2435 10.4951 73.2188 10.6654 73.1941 10.8249C73.1691 10.9844 73.1444 11.1239 73.1196 11.2435C73.0792 11.4491 73.0295 11.6239 72.9708 11.768C72.9118 11.9122 72.8327 12.0211 72.7336 12.0947C72.6373 12.1683 72.5103 12.2051 72.3518 12.2051C72.2992 12.2051 72.2451 12.199 72.1893 12.1867C72.1364 12.1775 72.0899 12.1652 72.0498 12.1499V11.8048C72.0838 11.8202 72.1225 11.834 72.1661 11.8462C72.2094 11.8555 72.2559 11.8601 72.3056 11.8601C72.3986 11.8601 72.4713 11.8232 72.5242 11.7496C72.5801 11.6729 72.6234 11.5794 72.6545 11.469C72.6853 11.3555 72.7118 11.2435 72.7336 11.1331C72.7522 11.0442 72.7737 10.9261 72.7987 10.7789C72.8234 10.6285 72.8499 10.4537 72.8778 10.2544C72.9086 10.055 72.9397 9.83875 72.9708 9.60563C73.0048 9.36946 73.0374 9.12406 73.0685 8.86949H74.8872V12.1545ZM75.7897 12.1545V8.86949H76.2083V10.259H76.8316C77.1415 10.259 77.3881 10.3004 77.5712 10.3832C77.7541 10.466 77.8858 10.5779 77.9666 10.719C78.0471 10.8601 78.0875 11.0181 78.0875 11.1929C78.0875 11.3862 78.0425 11.5549 77.9526 11.699C77.8657 11.8432 77.734 11.9551 77.5573 12.0349C77.3805 12.1146 77.1555 12.1545 76.8828 12.1545H75.7897ZM76.8409 11.8002C77.1107 11.8002 77.3136 11.7512 77.4503 11.653C77.5866 11.5518 77.6549 11.3984 77.6549 11.1929C77.6549 11.0518 77.6206 10.9399 77.5526 10.8571C77.4875 10.7712 77.3898 10.7098 77.2596 10.673C77.1322 10.6362 76.9726 10.6178 76.7805 10.6178H76.2083V11.8002H76.8409ZM81.3137 12.1545H80.8951V10.6224H79.1926V12.1545H78.7739V8.86949H79.1926V10.259H80.8951V8.86949H81.3137V12.1545ZM85.1199 10.5074C85.1199 10.762 85.0873 10.9936 85.0222 11.2021C84.9571 11.4076 84.8594 11.5855 84.7291 11.7358C84.6018 11.8861 84.4422 12.0012 84.25 12.0809C84.0608 12.1606 83.8407 12.2005 83.5895 12.2005C83.329 12.2005 83.1025 12.1606 82.9104 12.0809C82.7179 11.9981 82.5583 11.8831 82.4313 11.7358C82.3039 11.5855 82.2094 11.4061 82.1475 11.1975C82.0853 10.989 82.0545 10.7574 82.0545 10.5028C82.0545 10.1654 82.1103 9.87096 82.2219 9.61943C82.3336 9.36791 82.5025 9.17163 82.729 9.03052C82.9583 8.88942 83.2467 8.81888 83.5942 8.81888C83.9259 8.81888 84.205 8.88942 84.4314 9.03052C84.6576 9.16855 84.8283 9.36486 84.9431 9.61943C85.0609 9.87096 85.1199 10.1669 85.1199 10.5074ZM82.4964 10.5074C82.4964 10.7835 82.535 11.0212 82.6127 11.2205C82.69 11.4199 82.8095 11.5733 82.9708 11.6806C83.1351 11.788 83.3412 11.8416 83.5895 11.8416C83.8407 11.8416 84.0454 11.788 84.2035 11.6806C84.3646 11.5733 84.4841 11.4199 84.5617 11.2205C84.639 11.0212 84.678 10.7835 84.678 10.5074C84.678 10.0933 84.591 9.76974 84.4175 9.53662C84.2436 9.30045 83.9692 9.18235 83.5942 9.18235C83.343 9.18235 83.1351 9.23604 82.9708 9.34338C82.8095 9.44768 82.69 9.59951 82.6127 9.79887C82.535 9.99518 82.4964 10.2313 82.4964 10.5074ZM87.712 12.1545H85.856V8.86949H87.712V9.23296H86.2746V10.259H87.6282V10.6178H86.2746V11.791H87.712V12.1545ZM91.5553 8.86949V9.23756H90.0994V12.1545H89.6808V8.86949H91.5553ZM94.9272 10.5074C94.9272 10.762 94.8946 10.9936 94.8295 11.2021C94.7644 11.4076 94.6667 11.5855 94.5364 11.7358C94.4094 11.8861 94.2495 12.0012 94.0573 12.0809C93.8681 12.1606 93.648 12.2005 93.3968 12.2005C93.1363 12.2005 92.9098 12.1606 92.7177 12.0809C92.5255 11.9981 92.3656 11.8831 92.2386 11.7358C92.1115 11.5855 92.0167 11.4061 91.9548 11.1975C91.8929 10.989 91.8618 10.7574 91.8618 10.5028C91.8618 10.1654 91.9176 9.87096 92.0292 9.61943C92.1409 9.36791 92.3098 9.17163 92.5362 9.03052C92.7656 8.88942 93.054 8.81888 93.4014 8.81888C93.7332 8.81888 94.0123 8.88942 94.2387 9.03052C94.4652 9.16855 94.6356 9.36486 94.7504 9.61943C94.8681 9.87096 94.9272 10.1669 94.9272 10.5074ZM92.3037 10.5074C92.3037 10.7835 92.3423 11.0212 92.42 11.2205C92.4976 11.4199 92.6168 11.5733 92.7781 11.6806C92.9424 11.788 93.1488 11.8416 93.3968 11.8416C93.648 11.8416 93.8527 11.788 94.0108 11.6806C94.1722 11.5733 94.2914 11.4199 94.369 11.2205C94.4466 11.0212 94.4853 10.7835 94.4853 10.5074C94.4853 10.0933 94.3983 9.76974 94.2248 9.53662C94.0512 9.30045 93.7768 9.18235 93.4014 9.18235C93.1503 9.18235 92.9424 9.23604 92.7781 9.34338C92.6168 9.44768 92.4976 9.59951 92.42 9.79887C92.3423 9.99518 92.3037 10.2313 92.3037 10.5074ZM97.0867 9.18695C96.9099 9.18695 96.7503 9.21763 96.6076 9.27897C96.4648 9.33726 96.3439 9.42467 96.2447 9.54122C96.1456 9.65472 96.0694 9.79426 96.0168 9.9599C95.9642 10.1224 95.9377 10.3065 95.9377 10.512C95.9377 10.7819 95.9796 11.0166 96.0633 11.2159C96.1502 11.4153 96.2773 11.5687 96.4447 11.676C96.6154 11.7834 96.8276 11.837 97.082 11.837C97.2277 11.837 97.3658 11.8248 97.496 11.8002C97.6263 11.7757 97.7533 11.745 97.8774 11.7082V12.0671C97.7533 12.1131 97.6248 12.1468 97.4914 12.1683C97.3611 12.1898 97.2044 12.2005 97.0215 12.2005C96.6834 12.2005 96.4014 12.1315 96.175 11.9935C95.9485 11.8555 95.7781 11.6591 95.6633 11.4046C95.5516 11.15 95.4958 10.8509 95.4958 10.5074C95.4958 10.259 95.5298 10.032 95.5982 9.82647C95.6694 9.62096 95.7717 9.44308 95.9052 9.29277C96.0415 9.14247 96.209 9.02745 96.4075 8.94771C96.6061 8.86489 96.834 8.82348 97.0913 8.82348C97.262 8.82348 97.4262 8.84036 97.5844 8.87409C97.7425 8.90782 97.8835 8.95538 98.0077 9.01672L97.8402 9.36639C97.7379 9.32038 97.6231 9.27897 97.496 9.24216C97.3719 9.20536 97.2355 9.18695 97.0867 9.18695ZM99.993 11.2205C99.8939 11.4383 99.793 11.6208 99.6907 11.768C99.5916 11.9122 99.4738 12.0211 99.3372 12.0947C99.2008 12.1652 99.0273 12.2005 98.8162 12.2005C98.7296 12.2005 98.6473 12.1944 98.5697 12.1821C98.4952 12.1698 98.4272 12.153 98.365 12.1315V11.722C98.4272 11.7496 98.4938 11.7726 98.565 11.791C98.6365 11.8064 98.7109 11.814 98.7883 11.814C98.9031 11.814 99.0008 11.7987 99.0813 11.768C99.1651 11.7343 99.238 11.6806 99.3 11.607C99.3651 11.5334 99.4255 11.4352 99.4814 11.3125L98.2022 8.86949H98.6627L99.5884 10.6776C99.6009 10.6991 99.6134 10.7252 99.6256 10.7558C99.6381 10.7835 99.6506 10.8126 99.6628 10.8433C99.6785 10.8739 99.6907 10.9031 99.7 10.9307H99.7186C99.7279 10.9092 99.7372 10.8847 99.7465 10.8571C99.759 10.8264 99.7698 10.7973 99.7791 10.7696C99.7916 10.739 99.8023 10.7129 99.8116 10.6914L100.612 8.86949H101.054L99.993 11.2205ZM103.511 8.86949V11.7864H103.934V13.0195H103.534V12.1545H101.25V13.0195H100.85V11.7864H101.106C101.218 11.5963 101.323 11.3831 101.422 11.1469C101.525 10.9108 101.614 10.6638 101.692 10.4062C101.77 10.1455 101.833 9.88476 101.883 9.62403C101.932 9.36331 101.963 9.11181 101.976 8.86949H103.511ZM102.343 9.24216C102.331 9.42007 102.3 9.62096 102.25 9.84488C102.204 10.0688 102.143 10.2988 102.069 10.535C101.998 10.7681 101.917 10.9936 101.827 11.2113C101.74 11.4291 101.647 11.6208 101.548 11.7864H103.097V9.24216H102.343ZM106.573 12.1545L106.173 11.1377H104.857L104.461 12.1545H104.038L105.336 8.85569H105.713L107.006 12.1545H106.573ZM105.676 9.77586C105.666 9.75133 105.651 9.70685 105.629 9.64244C105.608 9.57803 105.586 9.51209 105.564 9.4446C105.545 9.37406 105.53 9.32038 105.517 9.28357C105.502 9.34491 105.485 9.40779 105.466 9.4722C105.451 9.53354 105.434 9.5903 105.415 9.64244C105.4 9.69457 105.386 9.73905 105.373 9.77586L104.996 10.7696H106.048L105.676 9.77586ZM108.339 8.86949C108.773 8.86949 109.09 8.95383 109.288 9.12254C109.487 9.29125 109.586 9.52894 109.586 9.83567C109.586 9.97062 109.563 10.101 109.516 10.2267C109.473 10.3494 109.4 10.4599 109.298 10.558C109.195 10.6561 109.059 10.7344 108.888 10.7927C108.718 10.8479 108.508 10.8755 108.26 10.8755H107.879V12.1545H107.46V8.86949H108.339ZM108.302 9.22376H107.879V10.5212H108.214C108.425 10.5212 108.6 10.4997 108.739 10.4568C108.879 10.4108 108.983 10.3387 109.051 10.2405C109.119 10.1424 109.153 10.0136 109.153 9.85408C109.153 9.64244 109.085 9.48448 108.949 9.38019C108.812 9.27589 108.597 9.22376 108.302 9.22376ZM111.7 9.18695C111.523 9.18695 111.364 9.21763 111.221 9.27897C111.078 9.33726 110.957 9.42467 110.858 9.54122C110.759 9.65472 110.683 9.79426 110.63 9.9599C110.577 10.1224 110.551 10.3065 110.551 10.512C110.551 10.7819 110.593 11.0166 110.677 11.2159C110.764 11.4153 110.891 11.5687 111.058 11.676C111.229 11.7834 111.441 11.837 111.696 11.837C111.841 11.837 111.979 11.8248 112.11 11.8002C112.24 11.7757 112.367 11.745 112.491 11.7082V12.0671C112.367 12.1131 112.238 12.1468 112.105 12.1683C111.975 12.1898 111.818 12.2005 111.635 12.2005C111.297 12.2005 111.015 12.1315 110.789 11.9935C110.562 11.8555 110.391 11.6591 110.277 11.4046C110.165 11.15 110.109 10.8509 110.109 10.5074C110.109 10.259 110.143 10.032 110.212 9.82647C110.283 9.62096 110.385 9.44308 110.519 9.29277C110.655 9.14247 110.823 9.02745 111.021 8.94771C111.219 8.86489 111.447 8.82348 111.705 8.82348C111.875 8.82348 112.04 8.84036 112.198 8.87409C112.356 8.90782 112.497 8.95538 112.621 9.01672L112.454 9.36639C112.351 9.32038 112.237 9.27897 112.11 9.24216C111.985 9.20536 111.849 9.18695 111.7 9.18695ZM114.267 12.1545H113.848V9.23296H112.811V8.86949H115.3V9.23296H114.267V12.1545ZM116.75 8.86949C117.025 8.86949 117.257 8.89557 117.443 8.94771C117.632 8.99984 117.773 9.08573 117.866 9.20536C117.962 9.32498 118.01 9.48448 118.01 9.68384C118.01 9.81267 117.985 9.92769 117.936 10.0289C117.889 10.1271 117.818 10.2099 117.722 10.2774C117.629 10.3418 117.514 10.3863 117.377 10.4108V10.4338C117.517 10.4553 117.643 10.4951 117.754 10.5534C117.869 10.6117 117.959 10.6945 118.024 10.8019C118.089 10.9092 118.122 11.0488 118.122 11.2205C118.122 11.4199 118.075 11.5901 117.982 11.7312C117.889 11.8693 117.756 11.9751 117.582 12.0487C117.412 12.1192 117.207 12.1545 116.968 12.1545H115.801V8.86949H116.75ZM116.833 10.2682C117.118 10.2682 117.314 10.2237 117.419 10.1347C117.525 10.0427 117.578 9.90776 117.578 9.72985C117.578 9.5489 117.512 9.42007 117.382 9.34338C117.255 9.26364 117.05 9.22376 116.768 9.22376H116.219V10.2682H116.833ZM116.219 10.6132V11.8048H116.889C117.184 11.8048 117.388 11.7481 117.503 11.6346C117.618 11.5211 117.675 11.3724 117.675 11.1883C117.675 11.0718 117.649 10.9706 117.596 10.8847C117.546 10.7988 117.461 10.7328 117.34 10.6868C117.222 10.6377 117.061 10.6132 116.857 10.6132H116.219ZM120.682 12.1545H118.826V8.86949H120.682V9.23296H119.245V10.259H120.598V10.6178H119.245V11.791H120.682V12.1545ZM123.95 12.1545H123.532V10.6224H121.829V12.1545H121.411V8.86949H121.829V10.259H123.532V8.86949H123.95V12.1545ZM127.398 12.1545H126.98V10.6224H125.277V12.1545H124.858V8.86949H125.277V10.259H126.98V8.86949H127.398V12.1545ZM131.204 10.5074C131.204 10.762 131.171 10.9936 131.106 11.2021C131.041 11.4076 130.944 11.5855 130.813 11.7358C130.686 11.8861 130.527 12.0012 130.334 12.0809C130.145 12.1606 129.925 12.2005 129.674 12.2005C129.413 12.2005 129.187 12.1606 128.995 12.0809C128.802 11.9981 128.643 11.8831 128.515 11.7358C128.388 11.5855 128.294 11.4061 128.232 11.1975C128.17 10.989 128.139 10.7574 128.139 10.5028C128.139 10.1654 128.194 9.87096 128.306 9.61943C128.418 9.36791 128.587 9.17163 128.813 9.03052C129.043 8.88942 129.331 8.81888 129.678 8.81888C130.01 8.81888 130.289 8.88942 130.516 9.03052C130.742 9.16855 130.913 9.36486 131.027 9.61943C131.145 9.87096 131.204 10.1669 131.204 10.5074ZM128.581 10.5074C128.581 10.7835 128.62 11.0212 128.697 11.2205C128.774 11.4199 128.894 11.5733 129.055 11.6806C129.22 11.788 129.426 11.8416 129.674 11.8416C129.925 11.8416 130.13 11.788 130.288 11.6806C130.449 11.5733 130.569 11.4199 130.646 11.2205C130.723 11.0212 130.762 10.7835 130.762 10.5074C130.762 10.0933 130.676 9.76974 130.502 9.53662C130.328 9.30045 130.054 9.18235 129.678 9.18235C129.427 9.18235 129.22 9.23604 129.055 9.34338C128.894 9.44768 128.774 9.59951 128.697 9.79887C128.62 9.99518 128.581 10.2313 128.581 10.5074ZM133.796 12.1545H131.94V8.86949H133.796V9.23296H132.359V10.259H133.712V10.6178H132.359V11.791H133.796V12.1545ZM135.765 12.1545V8.86949H137.737V9.23296H136.184V10.259H136.677C137.009 10.259 137.266 10.3004 137.449 10.3832C137.632 10.4629 137.759 10.5733 137.831 10.7144C137.902 10.8525 137.938 11.012 137.938 11.1929C137.938 11.3923 137.897 11.5641 137.817 11.7082C137.739 11.8524 137.612 11.9628 137.435 12.0395C137.258 12.1162 137.026 12.1545 136.737 12.1545H135.765ZM136.696 11.8002C136.993 11.8002 137.203 11.7512 137.323 11.653C137.444 11.5518 137.505 11.3984 137.505 11.1929C137.505 11.0518 137.475 10.9399 137.417 10.8571C137.361 10.7712 137.268 10.7098 137.137 10.673C137.01 10.6362 136.84 10.6178 136.626 10.6178H136.184V11.8002H136.696ZM142.781 10.5074C142.781 10.762 142.75 10.9936 142.688 11.2021C142.626 11.4107 142.533 11.5901 142.409 11.7404C142.285 11.8877 142.131 12.0012 141.948 12.0809C141.768 12.1606 141.557 12.2005 141.315 12.2005C140.999 12.2005 140.733 12.1361 140.515 12.0073C140.301 11.8785 140.137 11.6959 140.022 11.4598C139.908 11.2236 139.844 10.9445 139.832 10.6224H139.045V12.1545H138.627V8.86949H139.045V10.259H139.841C139.863 9.96757 139.931 9.71453 140.046 9.49981C140.16 9.28205 140.323 9.11486 140.534 8.99832C140.745 8.8787 141.002 8.81888 141.306 8.81888C141.626 8.81888 141.894 8.88942 142.111 9.03052C142.331 9.16855 142.497 9.36486 142.609 9.61943C142.723 9.87096 142.781 10.1669 142.781 10.5074ZM140.269 10.5074C140.269 10.7835 140.305 11.0212 140.376 11.2205C140.45 11.4199 140.564 11.5733 140.715 11.6806C140.871 11.788 141.066 11.8416 141.301 11.8416C141.543 11.8416 141.74 11.788 141.892 11.6806C142.047 11.5733 142.161 11.4199 142.232 11.2205C142.306 11.0212 142.343 10.7835 142.343 10.5074C142.343 10.2313 142.308 9.99518 142.236 9.79887C142.165 9.59951 142.054 9.44768 141.902 9.34338C141.75 9.23604 141.553 9.18235 141.311 9.18235C141.072 9.18235 140.875 9.23604 140.72 9.34338C140.565 9.44768 140.45 9.59951 140.376 9.79887C140.305 9.99518 140.269 10.2313 140.269 10.5074ZM145.666 8.86949V11.7864H146.089V13.0195H145.689V12.1545H143.405V13.0195H143.005V11.7864H143.261C143.373 11.5963 143.478 11.3831 143.577 11.1469C143.68 10.9108 143.769 10.6638 143.847 10.4062C143.925 10.1455 143.988 9.88476 144.038 9.62403C144.087 9.36331 144.118 9.11181 144.131 8.86949H145.666ZM144.498 9.24216C144.486 9.42007 144.455 9.62096 144.405 9.84488C144.359 10.0688 144.298 10.2988 144.224 10.535C144.153 10.7681 144.072 10.9936 143.982 11.2113C143.895 11.4291 143.802 11.6208 143.703 11.7864H145.252V9.24216H144.498ZM147.533 10.466L146.244 8.86949H146.71L147.979 10.4614V8.86949H148.379V10.4614L149.649 8.86949H150.114L148.826 10.4614L150.156 12.1545H149.677L148.379 10.489V12.1545H147.979V10.489L146.677 12.1545H146.198L147.533 10.466ZM152.471 12.1545H150.615V8.86949H152.471V9.23296H151.033V10.259H152.387V10.6178H151.033V11.791H152.471V12.1545ZM154.251 12.1545H153.832V9.23296H152.795V8.86949H155.283V9.23296H154.251V12.1545ZM158.324 12.1545H157.905V10.6224H156.203V12.1545H155.784V8.86949H156.203V10.259H157.905V8.86949H158.324V12.1545ZM162.13 10.5074C162.13 10.762 162.097 10.9936 162.032 11.2021C161.967 11.4076 161.869 11.5855 161.739 11.7358C161.612 11.8861 161.452 12.0012 161.26 12.0809C161.071 12.1606 160.851 12.2005 160.599 12.2005C160.339 12.2005 160.113 12.1606 159.92 12.0809C159.728 11.9981 159.569 11.8831 159.441 11.7358C159.314 11.5855 159.22 11.4061 159.157 11.1975C159.096 10.989 159.064 10.7574 159.064 10.5028C159.064 10.1654 159.12 9.87096 159.232 9.61943C159.344 9.36791 159.513 9.17163 159.739 9.03052C159.969 8.88942 160.257 8.81888 160.604 8.81888C160.936 8.81888 161.215 8.88942 161.441 9.03052C161.668 9.16855 161.839 9.36486 161.953 9.61943C162.071 9.87096 162.13 10.1669 162.13 10.5074ZM159.506 10.5074C159.506 10.7835 159.545 11.0212 159.623 11.2205C159.7 11.4199 159.82 11.5733 159.981 11.6806C160.145 11.788 160.351 11.8416 160.599 11.8416C160.851 11.8416 161.055 11.788 161.213 11.6806C161.375 11.5733 161.494 11.4199 161.572 11.2205C161.649 11.0212 161.688 10.7835 161.688 10.5074C161.688 10.0933 161.601 9.76974 161.427 9.53662C161.254 9.30045 160.979 9.18235 160.604 9.18235C160.353 9.18235 160.145 9.23604 159.981 9.34338C159.82 9.44768 159.7 9.59951 159.623 9.79887C159.545 9.99518 159.506 10.2313 159.506 10.5074ZM164.722 12.1545H162.866V8.86949H164.722V9.23296H163.285V10.259H164.638V10.6178H163.285V11.791H164.722V12.1545ZM168.082 11.2205C167.982 11.4383 167.882 11.6208 167.779 11.768C167.68 11.9122 167.562 12.0211 167.426 12.0947C167.289 12.1652 167.116 12.2005 166.905 12.2005C166.818 12.2005 166.736 12.1944 166.658 12.1821C166.584 12.1698 166.516 12.153 166.454 12.1315V11.722C166.516 11.7496 166.582 11.7726 166.654 11.791C166.725 11.8064 166.799 11.814 166.877 11.814C166.992 11.814 167.089 11.7987 167.17 11.768C167.254 11.7343 167.327 11.6806 167.389 11.607C167.454 11.5334 167.514 11.4352 167.57 11.3125L166.291 8.86949H166.751L167.677 10.6776C167.689 10.6991 167.702 10.7252 167.714 10.7558C167.727 10.7835 167.739 10.8126 167.752 10.8433C167.767 10.8739 167.779 10.9031 167.789 10.9307H167.807C167.817 10.9092 167.826 10.8847 167.835 10.8571C167.848 10.8264 167.859 10.7973 167.868 10.7696C167.88 10.739 167.891 10.7129 167.9 10.6914L168.701 8.86949H169.142L168.082 11.2205ZM171.938 12.1545H171.519V10.8065C171.339 10.8678 171.171 10.9184 171.012 10.9583C170.857 10.9951 170.684 11.0135 170.491 11.0135C170.181 11.0135 169.941 10.943 169.77 10.8019C169.6 10.6577 169.515 10.4507 169.515 10.1807V8.86949H169.933V10.1209C169.933 10.2988 169.98 10.4323 170.073 10.5212C170.169 10.6071 170.322 10.65 170.533 10.65C170.716 10.65 170.881 10.6331 171.026 10.5994C171.172 10.5657 171.337 10.5197 171.519 10.4614V8.86949H171.938V12.1545ZM173.721 8.86949C174.155 8.86949 174.471 8.95383 174.67 9.12254C174.868 9.29125 174.967 9.52894 174.967 9.83567C174.967 9.97062 174.944 10.101 174.898 10.2267C174.854 10.3494 174.781 10.4599 174.679 10.558C174.577 10.6561 174.44 10.7344 174.27 10.7927C174.099 10.8479 173.89 10.8755 173.642 10.8755H173.26V12.1545H172.842V8.86949H173.721ZM173.684 9.22376H173.26V10.5212H173.595C173.806 10.5212 173.981 10.4997 174.121 10.4568C174.26 10.4108 174.364 10.3387 174.432 10.2405C174.5 10.1424 174.535 10.0136 174.535 9.85408C174.535 9.64244 174.466 9.48448 174.33 9.38019C174.193 9.27589 173.978 9.22376 173.684 9.22376ZM177.514 12.1545H175.658V8.86949H177.514V9.23296H176.076V10.259H177.43V10.6178H176.076V11.791H177.514V12.1545ZM179.131 10.466L177.843 8.86949H178.308L179.578 10.4614V8.86949H179.978V10.4614L181.248 8.86949H181.713L180.424 10.4614L181.755 12.1545H181.276L179.978 10.489V12.1545H179.578V10.489L178.275 12.1545H177.796L179.131 10.466ZM184.45 8.86949V11.7864H184.873V13.0195H184.473V12.1545H182.19V13.0195H181.79V11.7864H182.045C182.157 11.5963 182.263 11.3831 182.362 11.1469C182.464 10.9108 182.554 10.6638 182.631 10.4062C182.709 10.1455 182.772 9.88476 182.822 9.62403C182.872 9.36331 182.903 9.11181 182.915 8.86949H184.45ZM183.283 9.24216C183.27 9.42007 183.239 9.62096 183.19 9.84488C183.143 10.0688 183.083 10.2988 183.008 10.535C182.937 10.7681 182.856 10.9936 182.766 11.2113C182.679 11.4291 182.586 11.6208 182.487 11.7864H184.036V9.24216H183.283ZM187.285 12.1545H185.429V8.86949H187.285V9.23296H185.848V10.259H187.201V10.6178H185.848V11.791H187.285V12.1545ZM190.553 12.1545H190.135V10.6224H188.432V12.1545H188.014V8.86949H188.432V10.259H190.135V8.86949H190.553V12.1545ZM191.466 8.86949H191.857V10.673C191.857 10.7497 191.855 10.8341 191.852 10.9261C191.852 11.015 191.851 11.104 191.848 11.1929C191.844 11.2819 191.84 11.3616 191.834 11.4322C191.831 11.4997 191.827 11.5518 191.824 11.5886H191.843L193.671 8.86949H194.136V12.1545H193.746V10.3694C193.746 10.2866 193.747 10.1976 193.75 10.1025C193.753 10.0044 193.756 9.91081 193.759 9.82187C193.766 9.72985 193.77 9.64856 193.773 9.57803C193.776 9.50749 193.78 9.45533 193.783 9.4216H193.764L191.931 12.1545H191.466V8.86949ZM196.888 12.1545H195.032V8.86949H196.888V9.23296H195.451V10.259H196.804V10.6178H195.451V11.791H196.888V12.1545ZM201.397 12.1545H200.978V10.6224H199.275V12.1545H198.857V8.86949H199.275V10.259H200.978V8.86949H201.397V12.1545ZM204.389 12.1545L203.989 11.1377H202.672L202.277 12.1545H201.853L203.151 8.85569H203.528L204.821 12.1545H204.389ZM203.491 9.77586C203.482 9.75133 203.466 9.70685 203.444 9.64244C203.423 9.57803 203.401 9.51209 203.379 9.4446C203.361 9.37406 203.345 9.32038 203.333 9.28357C203.317 9.34491 203.3 9.40779 203.282 9.4722C203.266 9.53354 203.249 9.5903 203.23 9.64244C203.215 9.69457 203.201 9.73905 203.189 9.77586L202.812 10.7696H203.863L203.491 9.77586ZM206.666 11.2205C206.567 11.4383 206.466 11.6208 206.364 11.768C206.265 11.9122 206.147 12.0211 206.01 12.0947C205.874 12.1652 205.7 12.2005 205.489 12.2005C205.403 12.2005 205.32 12.1944 205.243 12.1821C205.168 12.1698 205.1 12.153 205.038 12.1315V11.722C205.1 11.7496 205.167 11.7726 205.238 11.791C205.31 11.8064 205.384 11.814 205.461 11.814C205.576 11.814 205.674 11.7987 205.754 11.768C205.838 11.7343 205.911 11.6806 205.973 11.607C206.038 11.5334 206.099 11.4352 206.155 11.3125L204.875 8.86949H205.336L206.262 10.6776C206.274 10.6991 206.287 10.7252 206.299 10.7558C206.311 10.7835 206.324 10.8126 206.336 10.8433C206.352 10.8739 206.364 10.9031 206.373 10.9307H206.392C206.401 10.9092 206.41 10.8847 206.42 10.8571C206.432 10.8264 206.443 10.7973 206.452 10.7696C206.465 10.739 206.475 10.7129 206.485 10.6914L207.285 8.86949H207.727L206.666 11.2205ZM210.602 12.1545H210.099L208.597 10.489V12.1545H208.178V8.86949H208.597V10.4614L210.062 8.86949H210.537L209.095 10.466L210.602 12.1545ZM211.058 8.86949H211.449V10.673C211.449 10.7497 211.447 10.8341 211.444 10.9261C211.444 11.015 211.443 11.104 211.44 11.1929C211.437 11.2819 211.432 11.3616 211.426 11.4322C211.423 11.4997 211.42 11.5518 211.416 11.5886H211.435L213.263 8.86949H213.728V12.1545H213.337V10.3694C213.337 10.2866 213.339 10.1976 213.342 10.1025C213.345 10.0044 213.348 9.91081 213.351 9.82187C213.358 9.72985 213.362 9.64856 213.365 9.57803C213.369 9.50749 213.372 9.45533 213.375 9.4216H213.356L211.523 12.1545H211.058V8.86949Z" fill="white"/>
<path d="M57.84 14.6344V15.2417C58.3842 15.2555 58.8168 15.3498 59.1377 15.5246C59.4634 15.6949 59.6959 15.9157 59.8355 16.1872C59.9797 16.4586 60.0518 16.7554 60.0518 17.0774C60.0518 17.2845 60.0146 17.4961 59.9401 17.7123C59.8704 17.9286 59.7494 18.1287 59.5773 18.3128C59.4099 18.4922 59.1843 18.6394 58.9005 18.7544C58.6168 18.8695 58.2632 18.9316 57.84 18.9408V19.6999H56.891V18.9408C56.4631 18.9316 56.1049 18.8695 55.8165 18.7544C55.5328 18.6394 55.3072 18.4899 55.1397 18.3059C54.9722 18.1218 54.8536 17.924 54.7839 17.7123C54.7141 17.4961 54.6792 17.2845 54.6792 17.0774C54.6792 16.8382 54.7187 16.6104 54.7978 16.3942C54.8769 16.178 55.0025 15.9847 55.1746 15.8145C55.3467 15.6443 55.5746 15.5085 55.8584 15.4073C56.1421 15.3061 56.4863 15.2509 56.891 15.2417V14.6344H57.84ZM56.891 16.056C56.5887 16.0698 56.3468 16.1227 56.1654 16.2148C55.9886 16.3022 55.8607 16.4195 55.7816 16.5667C55.7072 16.714 55.67 16.8819 55.67 17.0705C55.67 17.2776 55.7119 17.4593 55.7956 17.6157C55.884 17.7676 56.0165 17.8895 56.1933 17.9815C56.3747 18.0689 56.6073 18.1195 56.891 18.1333V16.056ZM57.84 18.1333C58.1237 18.1195 58.354 18.0689 58.5307 17.9815C58.7121 17.8895 58.8447 17.7676 58.9284 17.6157C59.0168 17.4593 59.061 17.2776 59.061 17.0705C59.061 16.8819 59.0215 16.714 58.9424 16.5667C58.868 16.4195 58.74 16.3022 58.5586 16.2148C58.3819 16.1227 58.1423 16.0698 57.84 16.056V18.1333ZM63.8638 19.6309H60.9961V14.7034H63.8638V15.5591H62.0496V16.6426H63.7382V17.4984H62.0496V18.7682H63.8638V19.6309ZM68.8008 14.7034V18.7613H69.4637V21.0664H68.445V19.6309H65.3261V21.0664H64.3074V18.7613H64.6912C64.8214 18.5037 64.947 18.2322 65.0679 17.947C65.1889 17.6617 65.3005 17.3558 65.4029 17.0291C65.5098 16.7025 65.6052 16.3482 65.6889 15.9663C65.7727 15.5798 65.8424 15.1589 65.8983 14.7034H68.8008ZM66.7355 15.5729C66.703 15.8122 66.6565 16.0675 66.596 16.339C66.5355 16.6058 66.4634 16.8796 66.3797 17.1602C66.3006 17.4409 66.2122 17.7169 66.1146 17.9884C66.0169 18.2598 65.9122 18.5175 65.8006 18.7613H67.7473V15.5729H66.7355ZM73.0966 19.6309H70.2289V14.7034H73.0966V15.5591H71.2825V16.6426H72.971V17.4984H71.2825V18.7682H73.0966V19.6309ZM75.7241 14.7034C76.3661 14.7034 76.8336 14.8414 77.1266 15.1175C77.4243 15.3889 77.5732 15.7639 77.5732 16.2424C77.5732 16.4586 77.5406 16.6656 77.4755 16.8635C77.4104 17.0567 77.301 17.2316 77.1475 17.388C76.9987 17.5398 76.801 17.6594 76.5545 17.7468C76.3079 17.8343 76.0032 17.878 75.6404 17.878H75.1869V19.6309H74.1333V14.7034H75.7241ZM75.6683 15.5591H75.1869V17.0222H75.5358C75.7358 17.0222 75.9079 16.9969 76.0521 16.9463C76.1963 16.8957 76.3079 16.8152 76.387 16.7048C76.4661 16.5943 76.5056 16.4517 76.5056 16.2769C76.5056 16.033 76.4382 15.8536 76.3033 15.7386C76.1684 15.619 75.9567 15.5591 75.6683 15.5591ZM81.2162 19.6309L80.8534 18.4577H79.0393L78.6765 19.6309H77.5391L79.2974 14.6827H80.5883L82.3535 19.6309H81.2162ZM80.2394 16.4356C80.2161 16.3574 80.1859 16.2585 80.1487 16.1389C80.1115 16.0192 80.0743 15.8973 80.0371 15.7731C79.9998 15.6489 79.9696 15.5407 79.9463 15.4487C79.9231 15.5407 79.8905 15.6558 79.8487 15.7938C79.8114 15.9272 79.7742 16.056 79.737 16.1803C79.7045 16.2999 79.6789 16.385 79.6603 16.4356L79.3044 17.5812H80.6022L80.2394 16.4356ZM86.9266 19.6309H85.8731V15.5729H84.652C84.6241 15.7846 84.5939 16.0146 84.5613 16.2631C84.5334 16.5115 84.5008 16.7646 84.4636 17.0222C84.4311 17.2753 84.3962 17.5168 84.359 17.7468C84.3217 17.9723 84.2845 18.1724 84.2473 18.3473C84.1868 18.6325 84.1054 18.8764 84.0031 19.0788C83.9054 19.2812 83.7682 19.4354 83.5914 19.5412C83.4193 19.647 83.1937 19.6999 82.9146 19.6999C82.8216 19.6999 82.7332 19.693 82.6495 19.6792C82.5658 19.6654 82.4867 19.647 82.4123 19.624V18.7682C82.4727 18.7866 82.5309 18.8027 82.5867 18.8165C82.6472 18.8304 82.7123 18.8373 82.7821 18.8373C82.8751 18.8373 82.9518 18.8073 83.0123 18.7475C83.0728 18.6877 83.1263 18.5865 83.1728 18.4439C83.2193 18.2967 83.2658 18.0942 83.3123 17.8366C83.3356 17.7261 83.3635 17.5697 83.3961 17.3673C83.4286 17.1602 83.4658 16.9187 83.5077 16.6426C83.5542 16.362 83.6007 16.0583 83.6473 15.7317C83.6938 15.4004 83.738 15.0576 83.7798 14.7034H86.9266V19.6309ZM88.1834 19.6309V14.7034H89.237V16.5943H89.6557C90.1255 16.5943 90.5092 16.6587 90.8069 16.7876C91.1093 16.9164 91.3326 17.0935 91.4768 17.319C91.621 17.5444 91.6931 17.8021 91.6931 18.0919C91.6931 18.414 91.621 18.69 91.4768 18.9201C91.3326 19.1501 91.1093 19.3272 90.8069 19.4515C90.5046 19.5711 90.1138 19.6309 89.6347 19.6309H88.1834ZM89.5929 18.7751C89.9138 18.7751 90.165 18.7245 90.3464 18.6233C90.5325 18.5221 90.6255 18.345 90.6255 18.0919C90.6255 17.9171 90.579 17.7837 90.486 17.6916C90.3976 17.5996 90.2697 17.5375 90.1022 17.5053C89.9394 17.4685 89.7417 17.4501 89.5091 17.4501H89.237V18.7751H89.5929ZM96.7147 19.6309H95.6612V17.5053H93.6866V19.6309H92.633V14.7034H93.6866V16.6357H95.6612V14.7034H96.7147V19.6309ZM97.9681 19.6309V14.7034H99.0216V16.5943H99.3635C99.824 16.5943 100.203 16.6587 100.501 16.7876C100.799 16.9164 101.017 17.0935 101.157 17.319C101.301 17.5444 101.373 17.8021 101.373 18.0919C101.373 18.414 101.301 18.69 101.157 18.9201C101.013 19.1501 100.789 19.3272 100.487 19.4515C100.189 19.5711 99.8031 19.6309 99.3286 19.6309H97.9681ZM99.3007 18.7751C99.6124 18.7751 99.8566 18.7245 100.033 18.6233C100.215 18.5221 100.305 18.345 100.305 18.0919C100.305 17.9171 100.264 17.7837 100.18 17.6916C100.101 17.5996 99.9822 17.5375 99.824 17.5053C99.6659 17.4685 99.4752 17.4501 99.2519 17.4501H99.0216V18.7751H99.3007ZM101.98 19.6309V14.7034H103.034V19.6309H101.98ZM108.303 13.0816C108.28 13.3208 108.213 13.5325 108.101 13.7165C107.989 13.8959 107.815 14.0363 107.578 14.1375C107.34 14.2387 107.022 14.2893 106.622 14.2893C106.212 14.2893 105.891 14.241 105.659 14.1444C105.431 14.0432 105.268 13.9028 105.17 13.7234C105.073 13.544 105.015 13.33 104.996 13.0816H105.924C105.947 13.3346 106.012 13.5026 106.119 13.5854C106.226 13.6682 106.401 13.7096 106.643 13.7096C106.843 13.7096 107.006 13.6659 107.131 13.5785C107.261 13.4865 107.338 13.3208 107.361 13.0816H108.303ZM104.291 14.7034H105.24V17.0843C105.24 17.1993 105.238 17.3282 105.233 17.4708C105.229 17.6134 105.224 17.7538 105.219 17.8918C105.215 18.0252 105.21 18.1425 105.205 18.2437C105.201 18.3404 105.196 18.4071 105.191 18.4439H105.212L107.515 14.7034H108.778V19.6309H107.836V17.2638C107.836 17.1395 107.838 17.0038 107.843 16.8566C107.847 16.7048 107.852 16.5598 107.857 16.4218C107.866 16.2838 107.873 16.1642 107.878 16.0629C107.887 15.9571 107.894 15.8881 107.899 15.8559H107.871L105.561 19.6309H104.291V14.7034ZM111.221 14.7034H112.17V17.0843C112.17 17.1993 112.168 17.3282 112.163 17.4708C112.158 17.6134 112.154 17.7538 112.149 17.8918C112.144 18.0252 112.14 18.1425 112.135 18.2437C112.13 18.3404 112.126 18.4071 112.121 18.4439H112.142L114.445 14.7034H115.707V19.6309H114.766V17.2638C114.766 17.1395 114.768 17.0038 114.773 16.8566C114.777 16.7048 114.782 16.5598 114.786 16.4218C114.796 16.2838 114.803 16.1642 114.807 16.0629C114.817 15.9571 114.824 15.8881 114.828 15.8559H114.8L112.491 19.6309H111.221V14.7034ZM119.079 15.5039C118.879 15.5039 118.7 15.543 118.542 15.6213C118.389 15.6995 118.258 15.8122 118.151 15.9594C118.044 16.102 117.963 16.2769 117.907 16.4839C117.856 16.691 117.83 16.9233 117.83 17.1809C117.83 17.5306 117.872 17.8297 117.956 18.0781C118.044 18.322 118.182 18.5083 118.368 18.6371C118.554 18.7659 118.791 18.8304 119.079 18.8304C119.284 18.8304 119.486 18.8073 119.686 18.7613C119.891 18.7153 120.112 18.6509 120.349 18.5681V19.4446C120.131 19.532 119.914 19.5964 119.7 19.6378C119.486 19.6792 119.247 19.6999 118.982 19.6999C118.47 19.6999 118.047 19.5964 117.712 19.3894C117.381 19.1777 117.137 18.8833 116.979 18.506C116.821 18.1241 116.742 17.6801 116.742 17.174C116.742 16.8014 116.793 16.4609 116.895 16.1527C116.998 15.8398 117.147 15.5706 117.342 15.3452C117.542 15.1198 117.786 14.9449 118.075 14.8207C118.368 14.6965 118.703 14.6344 119.079 14.6344C119.326 14.6344 119.572 14.6666 119.819 14.731C120.07 14.7908 120.31 14.8736 120.538 14.9794L120.196 15.8283C120.01 15.7409 119.821 15.665 119.631 15.6005C119.444 15.5361 119.261 15.5039 119.079 15.5039ZM123.386 15.5039C123.186 15.5039 123.007 15.543 122.849 15.6213C122.695 15.6995 122.565 15.8122 122.458 15.9594C122.351 16.102 122.269 16.2769 122.214 16.4839C122.162 16.691 122.137 16.9233 122.137 17.1809C122.137 17.5306 122.179 17.8297 122.262 18.0781C122.351 18.322 122.488 18.5083 122.674 18.6371C122.86 18.7659 123.097 18.8304 123.386 18.8304C123.59 18.8304 123.793 18.8073 123.993 18.7613C124.197 18.7153 124.418 18.6509 124.656 18.5681V19.4446C124.437 19.532 124.221 19.5964 124.007 19.6378C123.793 19.6792 123.553 19.6999 123.288 19.6999C122.776 19.6999 122.353 19.5964 122.018 19.3894C121.688 19.1777 121.444 18.8833 121.286 18.506C121.127 18.1241 121.048 17.6801 121.048 17.174C121.048 16.8014 121.1 16.4609 121.202 16.1527C121.304 15.8398 121.453 15.5706 121.648 15.3452C121.848 15.1198 122.093 14.9449 122.381 14.8207C122.674 14.6965 123.009 14.6344 123.386 14.6344C123.632 14.6344 123.879 14.6666 124.125 14.731C124.377 14.7908 124.616 14.8736 124.844 14.9794L124.502 15.8283C124.316 15.7409 124.128 15.665 123.937 15.6005C123.751 15.5361 123.567 15.5039 123.386 15.5039ZM129.656 19.6309H128.603V15.5729H127.382C127.354 15.7846 127.324 16.0146 127.291 16.2631C127.263 16.5115 127.231 16.7646 127.193 17.0222C127.161 17.2753 127.126 17.5168 127.089 17.7468C127.052 17.9723 127.014 18.1724 126.977 18.3473C126.917 18.6325 126.835 18.8764 126.733 19.0788C126.635 19.2812 126.498 19.4354 126.321 19.5412C126.149 19.647 125.924 19.6999 125.644 19.6999C125.551 19.6999 125.463 19.693 125.379 19.6792C125.296 19.6654 125.216 19.647 125.142 19.624V18.7682C125.203 18.7866 125.261 18.8027 125.316 18.8165C125.377 18.8304 125.442 18.8373 125.512 18.8373C125.605 18.8373 125.682 18.8073 125.742 18.7475C125.803 18.6877 125.856 18.5865 125.903 18.4439C125.949 18.2967 125.996 18.0942 126.042 17.8366C126.065 17.7261 126.093 17.5697 126.126 17.3673C126.158 17.1602 126.196 16.9187 126.238 16.6426C126.284 16.362 126.331 16.0583 126.377 15.7317C126.424 15.4004 126.468 15.0576 126.51 14.7034H129.656V19.6309ZM133.781 19.6309H130.913V14.7034H133.781V15.5591H131.967V16.6426H133.655V17.4984H131.967V18.7682H133.781V19.6309ZM138.718 14.7034V18.7613H139.381V21.0664H138.362V19.6309H135.243V21.0664H134.224V18.7613H134.608C134.738 18.5037 134.864 18.2322 134.985 17.947C135.106 17.6617 135.217 17.3558 135.32 17.0291C135.427 16.7025 135.522 16.3482 135.606 15.9663C135.69 15.5798 135.759 15.1589 135.815 14.7034H138.718ZM136.652 15.5729C136.62 15.8122 136.573 16.0675 136.513 16.339C136.452 16.6058 136.38 16.8796 136.297 17.1602C136.217 17.4409 136.129 17.7169 136.031 17.9884C135.934 18.2598 135.829 18.5175 135.717 18.7613H137.664V15.5729H136.652ZM144.667 17.1602C144.667 17.5421 144.618 17.8895 144.521 18.2023C144.428 18.5106 144.283 18.7774 144.088 19.0029C143.897 19.2283 143.651 19.4009 143.348 19.5205C143.051 19.6401 142.699 19.6999 142.295 19.6999C141.89 19.6999 141.537 19.6401 141.234 19.5205C140.937 19.3963 140.69 19.2237 140.495 19.0029C140.304 18.7774 140.16 18.5083 140.062 18.1954C139.969 17.8826 139.922 17.5352 139.922 17.1533C139.922 16.6426 140.006 16.1987 140.174 15.8214C140.346 15.4441 140.606 15.152 140.955 14.9449C141.309 14.7333 141.758 14.6275 142.302 14.6275C142.841 14.6275 143.286 14.7333 143.634 14.9449C143.983 15.152 144.241 15.4464 144.409 15.8283C144.581 16.2056 144.667 16.6495 144.667 17.1602ZM141.032 17.1602C141.032 17.5053 141.076 17.8021 141.164 18.0505C141.253 18.299 141.39 18.4899 141.576 18.6233C141.762 18.7567 142.002 18.8235 142.295 18.8235C142.597 18.8235 142.839 18.7567 143.02 18.6233C143.207 18.4899 143.341 18.299 143.425 18.0505C143.514 17.8021 143.558 17.5053 143.558 17.1602C143.558 16.6403 143.46 16.2332 143.265 15.9387C143.069 15.6443 142.748 15.497 142.302 15.497C142.004 15.497 141.762 15.5637 141.576 15.6972C141.39 15.8306 141.253 16.0215 141.164 16.27C141.076 16.5184 141.032 16.8152 141.032 17.1602ZM147.248 14.7034C147.69 14.7034 148.06 14.7448 148.358 14.8276C148.66 14.9058 148.886 15.0369 149.034 15.221C149.188 15.4004 149.265 15.6443 149.265 15.9525C149.265 16.1365 149.234 16.3045 149.174 16.4563C149.113 16.6081 149.025 16.7324 148.909 16.829C148.797 16.9256 148.66 16.9877 148.497 17.0153V17.0498C148.665 17.082 148.816 17.1395 148.951 17.2224C149.086 17.3052 149.193 17.4248 149.272 17.5812C149.351 17.7376 149.39 17.9447 149.39 18.2023C149.39 18.5014 149.316 18.759 149.167 18.9753C149.023 19.1869 148.813 19.3503 148.539 19.4653C148.265 19.5757 147.939 19.6309 147.562 19.6309H145.699V14.7034H147.248ZM147.367 16.6564C147.674 16.6564 147.885 16.6081 148.002 16.5115C148.123 16.4149 148.183 16.2746 148.183 16.0905C148.183 15.9019 148.113 15.7662 147.974 15.6834C147.834 15.6006 147.613 15.5591 147.311 15.5591H146.753V16.6564H147.367ZM146.753 17.4846V18.7682H147.444C147.76 18.7682 147.981 18.7084 148.106 18.5888C148.232 18.4646 148.295 18.3013 148.295 18.0988C148.295 17.9746 148.267 17.8665 148.211 17.7745C148.16 17.6824 148.069 17.6111 147.939 17.5605C147.809 17.5099 147.632 17.4846 147.409 17.4846H146.753ZM153.436 19.6309L153.073 18.4577H151.259L150.896 19.6309H149.759L151.517 14.6827H152.808L154.574 19.6309H153.436ZM152.459 16.4356C152.436 16.3574 152.406 16.2585 152.369 16.1389C152.331 16.0192 152.294 15.8973 152.257 15.7731C152.22 15.6489 152.19 15.5407 152.166 15.4487C152.143 15.5407 152.111 15.6558 152.069 15.7938C152.031 15.9272 151.994 16.056 151.957 16.1803C151.924 16.2999 151.899 16.385 151.88 16.4356L151.524 17.5812H152.822L152.459 16.4356ZM156.633 19.6309H155.579V15.5729H154.226V14.7034H157.986V15.5729H156.633V19.6309ZM161.622 19.6309H158.754V14.7034H161.622V15.5591H159.808V16.6426H161.497V17.4984H159.808V18.7682H161.622V19.6309ZM166.601 19.6309H165.548V15.5729H164.326C164.299 15.7846 164.268 16.0146 164.236 16.2631C164.208 16.5115 164.175 16.7646 164.138 17.0222C164.106 17.2753 164.071 17.5168 164.033 17.7468C163.996 17.9723 163.959 18.1724 163.922 18.3473C163.861 18.6325 163.78 18.8764 163.678 19.0788C163.58 19.2812 163.443 19.4354 163.266 19.5412C163.094 19.647 162.868 19.6999 162.589 19.6999C162.496 19.6999 162.408 19.693 162.324 19.6792C162.24 19.6654 162.161 19.647 162.087 19.624V18.7682C162.147 18.7866 162.205 18.8027 162.261 18.8165C162.322 18.8304 162.387 18.8373 162.457 18.8373C162.55 18.8373 162.626 18.8073 162.687 18.7475C162.747 18.6877 162.801 18.5865 162.847 18.4439C162.894 18.2967 162.94 18.0942 162.987 17.8366C163.01 17.7261 163.038 17.5697 163.071 17.3673C163.103 17.1602 163.14 16.9187 163.182 16.6426C163.229 16.362 163.275 16.0583 163.322 15.7317C163.368 15.4004 163.412 15.0576 163.454 14.7034H166.601V19.6309ZM167.858 19.6309V14.7034H168.911V16.5943H169.33C169.8 16.5943 170.184 16.6587 170.481 16.7876C170.784 16.9164 171.007 17.0935 171.151 17.319C171.295 17.5444 171.368 17.8021 171.368 18.0919C171.368 18.414 171.295 18.69 171.151 18.9201C171.007 19.1501 170.784 19.3272 170.481 19.4515C170.179 19.5711 169.788 19.6309 169.309 19.6309H167.858ZM169.267 18.7751C169.588 18.7751 169.839 18.7245 170.021 18.6233C170.207 18.5221 170.3 18.345 170.3 18.0919C170.3 17.9171 170.253 17.7837 170.16 17.6916C170.072 17.5996 169.944 17.5375 169.777 17.5053C169.614 17.4685 169.416 17.4501 169.184 17.4501H168.911V18.7751H169.267ZM174.421 15.5039C174.221 15.5039 174.042 15.543 173.884 15.6213C173.731 15.6995 173.6 15.8122 173.493 15.9594C173.386 16.102 173.305 16.2769 173.249 16.4839C173.198 16.691 173.172 16.9233 173.172 17.1809C173.172 17.5306 173.214 17.8297 173.298 18.0781C173.386 18.322 173.524 18.5083 173.71 18.6371C173.896 18.7659 174.133 18.8304 174.421 18.8304C174.626 18.8304 174.828 18.8073 175.028 18.7613C175.233 18.7153 175.454 18.6509 175.691 18.5681V19.4446C175.473 19.532 175.256 19.5964 175.042 19.6378C174.828 19.6792 174.589 19.6999 174.324 19.6999C173.812 19.6999 173.389 19.5964 173.054 19.3894C172.723 19.1777 172.479 18.8833 172.321 18.506C172.163 18.1241 172.084 17.6801 172.084 17.174C172.084 16.8014 172.135 16.4609 172.237 16.1527C172.34 15.8398 172.489 15.5706 172.684 15.3452C172.884 15.1198 173.128 14.9449 173.417 14.8207C173.71 14.6965 174.045 14.6344 174.421 14.6344C174.668 14.6344 174.914 14.6666 175.161 14.731C175.412 14.7908 175.652 14.8736 175.88 14.9794L175.538 15.8283C175.352 15.7409 175.163 15.665 174.972 15.6005C174.786 15.5361 174.603 15.5039 174.421 15.5039ZM180.811 19.6309H179.611L177.804 17.1326V19.6309H176.75V14.7034H177.804V17.0912L179.59 14.7034H180.713L178.899 17.0705L180.811 19.6309ZM181.438 14.7034H182.387V17.0843C182.387 17.1993 182.385 17.3282 182.38 17.4708C182.375 17.6134 182.371 17.7538 182.366 17.8918C182.361 18.0252 182.357 18.1425 182.352 18.2437C182.347 18.3404 182.343 18.4071 182.338 18.4439H182.359L184.661 14.7034H185.924V19.6309H184.982V17.2638C184.982 17.1395 184.985 17.0038 184.989 16.8566C184.994 16.7048 184.999 16.5598 185.003 16.4218C185.013 16.2838 185.02 16.1642 185.024 16.0629C185.034 15.9571 185.041 15.8881 185.045 15.8559H185.017L182.708 19.6309H181.438V14.7034ZM191.194 13.0816C191.171 13.3208 191.103 13.5325 190.992 13.7165C190.88 13.8959 190.706 14.0363 190.468 14.1375C190.231 14.2387 189.913 14.2893 189.512 14.2893C189.103 14.2893 188.782 14.241 188.55 14.1444C188.322 14.0432 188.159 13.9028 188.061 13.7234C187.964 13.544 187.905 13.33 187.887 13.0816H188.815C188.838 13.3346 188.903 13.5026 189.01 13.5854C189.117 13.6682 189.292 13.7096 189.533 13.7096C189.733 13.7096 189.896 13.6659 190.022 13.5785C190.152 13.4865 190.229 13.3208 190.252 13.0816H191.194ZM187.182 14.7034H188.131V17.0843C188.131 17.1993 188.129 17.3282 188.124 17.4708C188.119 17.6134 188.115 17.7538 188.11 17.8918C188.105 18.0252 188.101 18.1425 188.096 18.2437C188.091 18.3404 188.087 18.4071 188.082 18.4439H188.103L190.406 14.7034H191.669V19.6309H190.727V17.2638C190.727 17.1395 190.729 17.0038 190.734 16.8566C190.738 16.7048 190.743 16.5598 190.747 16.4218C190.757 16.2838 190.764 16.1642 190.768 16.0629C190.778 15.9571 190.785 15.8881 190.789 15.8559H190.761L188.452 19.6309H187.182V14.7034ZM199.979 18.8027V21.0664H198.96V19.6309H195.297V14.7034H196.351V18.7613H198.186V14.7034H199.24V18.8027H199.979ZM203.616 19.6309H200.748V14.7034H203.616V15.5591H201.802V16.6426H203.491V17.4984H201.802V18.7682H203.616V19.6309ZM208.734 19.6309H207.681V17.5053H205.706V19.6309H204.653V14.7034H205.706V16.6357H207.681V14.7034H208.734V19.6309ZM211.907 19.6309H210.853V15.5729H209.499V14.7034H213.26V15.5729H211.907V19.6309ZM215.619 14.7034C216.261 14.7034 216.729 14.8414 217.022 15.1175C217.319 15.3889 217.468 15.7639 217.468 16.2424C217.468 16.4586 217.436 16.6656 217.371 16.8635C217.305 17.0567 217.196 17.2316 217.043 17.388C216.894 17.5398 216.696 17.6594 216.45 17.7468C216.203 17.8343 215.898 17.878 215.536 17.878H215.082V19.6309H214.028V14.7034H215.619ZM215.563 15.5591H215.082V17.0222H215.431C215.631 17.0222 215.803 16.9969 215.947 16.9463C216.091 16.8957 216.203 16.8152 216.282 16.7048C216.361 16.5943 216.401 16.4517 216.401 16.2769C216.401 16.033 216.333 15.8536 216.198 15.7386C216.063 15.619 215.852 15.5591 215.563 15.5591Z" fill="white"/>
<path d="M57.8614 34.5837H54.9937V29.6562H57.8614V30.5119H56.0472V31.5954H57.7358V32.4512H56.0472V33.721H57.8614V34.5837ZM62.7984 29.6562V33.7141H63.4613V36.0192H62.4426V34.5837H59.3237V36.0192H58.305V33.7141H58.6888C58.819 33.4565 58.9446 33.185 59.0655 32.8998C59.1865 32.6145 59.2981 32.3086 59.4004 31.9819C59.5074 31.6552 59.6028 31.301 59.6865 30.9191C59.7703 30.5326 59.84 30.1117 59.8958 29.6562H62.7984ZM60.7331 30.5257C60.7006 30.765 60.6541 31.0203 60.5936 31.2918C60.5331 31.5586 60.461 31.8324 60.3773 32.113C60.2982 32.3937 60.2098 32.6697 60.1121 32.9412C60.0145 33.2126 59.9098 33.4703 59.7982 33.7141H61.7449V30.5257H60.7331ZM64.2265 29.6562H65.1754V32.0371C65.1754 32.1521 65.1731 32.281 65.1684 32.4236C65.1638 32.5662 65.1591 32.7065 65.1545 32.8446C65.1498 32.978 65.1452 33.0953 65.1405 33.1965C65.1359 33.2931 65.1312 33.3599 65.1266 33.3967H65.1475L67.45 29.6562H68.7129V34.5837H67.771V32.2165C67.771 32.0923 67.7733 31.9566 67.778 31.8094C67.7826 31.6575 67.7873 31.5126 67.7919 31.3746C67.8012 31.2366 67.8082 31.1169 67.8128 31.0157C67.8222 30.9099 67.8291 30.8409 67.8338 30.8087H67.8059L65.4964 34.5837H64.2265V29.6562ZM74.0524 34.5837H72.9988V32.4581H71.0242V34.5837H69.9706V29.6562H71.0242V31.5885H72.9988V29.6562H74.0524V34.5837ZM78.3548 34.5837L77.992 33.4105H76.1779L75.815 34.5837H74.6777L76.436 29.6355H77.7268L79.4921 34.5837H78.3548ZM77.378 31.3884C77.3547 31.3102 77.3245 31.2113 77.2873 31.0916C77.25 30.972 77.2128 30.8501 77.1756 30.7259C77.1384 30.6016 77.1082 30.4935 77.0849 30.4015C77.0617 30.4935 77.0291 30.6085 76.9872 30.7466C76.95 30.88 76.9128 31.0088 76.8756 31.133C76.843 31.2527 76.8175 31.3378 76.7988 31.3884L76.443 32.534H77.7408L77.378 31.3884ZM81.7979 32.6927L80.6326 34.5837H79.4601L80.8768 32.4167C80.7419 32.3615 80.607 32.281 80.4722 32.1751C80.3373 32.0647 80.2256 31.9198 80.1372 31.7404C80.0489 31.5563 80.0047 31.3309 80.0047 31.064C80.0047 30.6085 80.1698 30.2612 80.5001 30.0219C80.8303 29.7781 81.2932 29.6562 81.8886 29.6562H83.5073V34.5837H82.4537V32.6927H81.7979ZM81.9304 30.5119C81.749 30.5119 81.5932 30.5326 81.4629 30.574C81.3373 30.6154 81.2397 30.6822 81.1699 30.7742C81.1048 30.8662 81.0722 30.9881 81.0722 31.1399C81.0722 31.3562 81.1443 31.5287 81.2882 31.6575C81.4374 31.7818 81.6606 31.8439 81.9583 31.8439H82.4537V30.5119H81.9304ZM89.0959 29.6562V30.5188H87.0027V34.5837H85.9491V29.6562H89.0959ZM92.7279 34.5837H89.8602V29.6562H92.7279V30.5119H90.9138V31.5954H92.6023V32.4512H90.9138V33.721H92.7279V34.5837ZM98.2857 32.113C98.2857 32.4949 98.2369 32.8423 98.1392 33.1551C98.0461 33.4634 97.9019 33.7302 97.7066 33.9557C97.5159 34.1811 97.2693 34.3536 96.967 34.4733C96.6693 34.5929 96.3181 34.6527 95.9134 34.6527C95.5087 34.6527 95.1552 34.5929 94.8528 34.4733C94.5551 34.349 94.3086 34.1765 94.1132 33.9557C93.9225 33.7302 93.7783 33.4611 93.6806 33.1482C93.5876 32.8354 93.5411 32.488 93.5411 32.1061C93.5411 31.5954 93.6248 31.1514 93.7923 30.7742C93.9644 30.3969 94.2249 30.1048 94.5737 29.8977C94.9273 29.6861 95.3761 29.5803 95.9204 29.5803C96.46 29.5803 96.9042 29.6861 97.2531 29.8977C97.6019 30.1048 97.8601 30.3992 98.0275 30.7811C98.1997 31.1583 98.2857 31.6023 98.2857 32.113ZM94.6505 32.113C94.6505 32.4581 94.6947 32.7548 94.7831 33.0033C94.8714 33.2517 95.0087 33.4427 95.1947 33.5761C95.3808 33.7095 95.6203 33.7762 95.9134 33.7762C96.2157 33.7762 96.4576 33.7095 96.639 33.5761C96.8251 33.4427 96.96 33.2517 97.0437 33.0033C97.1321 32.7548 97.1763 32.4581 97.1763 32.113C97.1763 31.5931 97.0786 31.186 96.8833 30.8915C96.6879 30.597 96.3669 30.4498 95.9204 30.4498C95.6227 30.4498 95.3808 30.5165 95.1947 30.65C95.0087 30.7834 94.8714 30.9743 94.7831 31.2228C94.6947 31.4712 94.6505 31.768 94.6505 32.113ZM102.165 29.5872V30.1945C102.709 30.2083 103.141 30.3026 103.462 30.4774C103.788 30.6477 104.021 30.8685 104.16 31.1399C104.304 31.4114 104.376 31.7082 104.376 32.0302C104.376 32.2372 104.339 32.4489 104.265 32.6651C104.195 32.8814 104.074 33.0815 103.902 33.2655C103.734 33.445 103.509 33.5922 103.225 33.7072C102.941 33.8222 102.588 33.8844 102.165 33.8936V34.6527H101.216V33.8936C100.788 33.8844 100.43 33.8222 100.141 33.7072C99.8574 33.5922 99.6318 33.4427 99.4643 33.2586C99.2968 33.0746 99.1782 32.8768 99.1085 32.6651C99.0387 32.4489 99.0038 32.2372 99.0038 32.0302C99.0038 31.791 99.0433 31.5632 99.1224 31.347C99.2015 31.1307 99.3271 30.9375 99.4992 30.7673C99.6713 30.597 99.8992 30.4613 100.183 30.3601C100.467 30.2589 100.811 30.2037 101.216 30.1945V29.5872H102.165ZM101.216 31.0088C100.913 31.0226 100.671 31.0755 100.49 31.1675C100.313 31.255 100.185 31.3723 100.106 31.5195C100.032 31.6667 99.9946 31.8347 99.9946 32.0233C99.9946 32.2303 100.036 32.4121 100.12 32.5685C100.209 32.7203 100.341 32.8423 100.518 32.9343C100.699 33.0217 100.932 33.0723 101.216 33.0861V31.0088ZM102.165 33.0861C102.448 33.0723 102.679 33.0217 102.855 32.9343C103.037 32.8423 103.169 32.7203 103.253 32.5685C103.341 32.4121 103.386 32.2303 103.386 32.0233C103.386 31.8347 103.346 31.6667 103.267 31.5195C103.193 31.3723 103.065 31.255 102.883 31.1675C102.706 31.0755 102.467 31.0226 102.165 31.0088V33.0861ZM105.321 29.6562H106.27V32.0371C106.27 32.1521 106.267 32.281 106.263 32.4236C106.258 32.5662 106.253 32.7065 106.249 32.8446C106.244 32.978 106.239 33.0953 106.235 33.1965C106.23 33.2931 106.225 33.3599 106.221 33.3967H106.242L108.544 29.6562H109.807V34.5837H108.865V32.2165C108.865 32.0923 108.867 31.9566 108.872 31.8094C108.877 31.6575 108.881 31.5126 108.886 31.3746C108.895 31.2366 108.902 31.1169 108.907 31.0157C108.916 30.9099 108.923 30.8409 108.928 30.8087H108.9L106.591 34.5837H105.321V29.6562ZM114.505 30.8087C114.505 31.1399 114.386 31.4068 114.149 31.6092C113.912 31.8117 113.609 31.9382 113.242 31.9888V32.0095C113.698 32.0555 114.046 32.182 114.288 32.3891C114.535 32.5915 114.658 32.8561 114.658 33.1827C114.658 33.468 114.579 33.7233 114.421 33.9488C114.263 34.1696 114.028 34.3421 113.716 34.4664C113.405 34.5906 113.018 34.6527 112.558 34.6527C112.181 34.6527 111.846 34.6297 111.553 34.5837C111.265 34.5377 111.014 34.471 110.8 34.3836V33.5071C110.944 33.5761 111.107 33.6359 111.288 33.6865C111.469 33.7325 111.653 33.7693 111.839 33.7969C112.025 33.8199 112.197 33.8314 112.356 33.8314C112.798 33.8314 113.116 33.7693 113.312 33.6451C113.512 33.5163 113.612 33.3369 113.612 33.1068C113.612 32.8722 113.467 32.7019 113.179 32.5961C112.891 32.4857 112.502 32.4305 112.014 32.4305H111.546V31.6161H111.965C112.36 31.6161 112.667 31.5908 112.886 31.5402C113.104 31.4896 113.258 31.416 113.346 31.3194C113.435 31.2228 113.479 31.1077 113.479 30.9743C113.479 30.8041 113.402 30.6707 113.249 30.574C113.1 30.4728 112.874 30.4222 112.572 30.4222C112.316 30.4222 112.074 30.459 111.846 30.5326C111.623 30.6062 111.414 30.7029 111.218 30.8225L110.758 30.1255C110.93 30.015 111.111 29.9207 111.302 29.8425C111.497 29.7597 111.711 29.6976 111.944 29.6562C112.177 29.6102 112.435 29.5872 112.718 29.5872C113.095 29.5872 113.416 29.6401 113.681 29.7459C113.946 29.8517 114.149 29.9966 114.288 30.1807C114.433 30.3601 114.505 30.5694 114.505 30.8087ZM115.589 29.6562H116.538V32.0371C116.538 32.1521 116.536 32.281 116.531 32.4236C116.527 32.5662 116.522 32.7065 116.517 32.8446C116.513 32.978 116.508 33.0953 116.503 33.1965C116.499 33.2931 116.494 33.3599 116.489 33.3967H116.51L118.813 29.6562H120.076V34.5837H119.134V32.2165C119.134 32.0923 119.136 31.9566 119.141 31.8094C119.145 31.6575 119.15 31.5126 119.155 31.3746C119.164 31.2366 119.171 31.1169 119.176 31.0157C119.185 30.9099 119.192 30.8409 119.197 30.8087H119.169L116.859 34.5837H115.589V29.6562ZM125.157 34.5837H124.103V32.6789C123.81 32.7802 123.541 32.8561 123.294 32.9067C123.052 32.9573 122.808 32.9826 122.561 32.9826C122.096 32.9826 121.731 32.8722 121.466 32.6513C121.206 32.4259 121.075 32.1061 121.075 31.692V29.6562H122.129V31.3953C122.129 31.6345 122.185 31.814 122.296 31.9336C122.408 32.0532 122.596 32.113 122.862 32.113C123.057 32.113 123.252 32.0923 123.448 32.0509C123.643 32.0095 123.862 31.9474 124.103 31.8646V29.6562H125.157V34.5837ZM129.277 34.5837H126.41V29.6562H129.277V30.5119H127.463V31.5954H129.152V32.4512H127.463V33.721H129.277V34.5837ZM132.428 30.4567C132.228 30.4567 132.049 30.4958 131.891 30.574C131.737 30.6523 131.607 30.765 131.5 30.9122C131.393 31.0548 131.312 31.2297 131.256 31.4367C131.205 31.6437 131.179 31.8761 131.179 32.1337C131.179 32.4834 131.221 32.7825 131.305 33.0309C131.393 33.2747 131.53 33.4611 131.716 33.5899C131.902 33.7187 132.14 33.7831 132.428 33.7831C132.633 33.7831 132.835 33.7601 133.035 33.7141C133.24 33.6681 133.461 33.6037 133.698 33.5209V34.3974C133.479 34.4848 133.263 34.5492 133.049 34.5906C132.835 34.632 132.596 34.6527 132.33 34.6527C131.819 34.6527 131.395 34.5492 131.061 34.3421C130.73 34.1305 130.486 33.836 130.328 33.4588C130.17 33.0769 130.091 32.6329 130.091 32.1268C130.091 31.7542 130.142 31.4137 130.244 31.1054C130.346 30.7926 130.495 30.5234 130.691 30.298C130.891 30.0725 131.135 29.8977 131.423 29.7735C131.716 29.6493 132.051 29.5872 132.428 29.5872C132.675 29.5872 132.921 29.6194 133.168 29.6838C133.419 29.7436 133.658 29.8264 133.886 29.9322L133.544 30.7811C133.358 30.6937 133.17 30.6177 132.979 30.5533C132.793 30.4889 132.609 30.4567 132.428 30.4567ZM138.817 34.5837H137.617L135.81 32.0854V34.5837H134.756V29.6562H135.81V32.044L137.596 29.6562H138.72L136.906 32.0233L138.817 34.5837ZM142.494 34.5837L142.131 33.4105H140.317L139.954 34.5837H138.816L140.575 29.6355H141.866L143.631 34.5837H142.494ZM141.517 31.3884C141.493 31.3102 141.463 31.2113 141.426 31.0916C141.389 30.972 141.352 30.8501 141.314 30.7259C141.277 30.6016 141.247 30.4935 141.224 30.4015C141.2 30.4935 141.168 30.6085 141.126 30.7466C141.089 30.88 141.052 31.0088 141.014 31.133C140.982 31.2527 140.956 31.3378 140.938 31.3884L140.582 32.534H141.88L141.517 31.3884ZM145.937 32.6927L144.771 34.5837H143.599L145.016 32.4167C144.881 32.3615 144.746 32.281 144.611 32.1751C144.476 32.0647 144.364 31.9198 144.276 31.7404C144.188 31.5563 144.143 31.3309 144.143 31.064C144.143 30.6085 144.309 30.2612 144.639 30.0219C144.969 29.7781 145.432 29.6562 146.027 29.6562H147.646V34.5837H146.592V32.6927H145.937ZM146.069 30.5119C145.888 30.5119 145.732 30.5326 145.602 30.574C145.476 30.6154 145.378 30.6822 145.309 30.7742C145.243 30.8662 145.211 30.9881 145.211 31.1399C145.211 31.3562 145.283 31.5287 145.427 31.6575C145.576 31.7818 145.799 31.8439 146.097 31.8439H146.592V30.5119H146.069ZM152.202 30.4567C152.002 30.4567 151.823 30.4958 151.665 30.574C151.511 30.6523 151.381 30.765 151.274 30.9122C151.167 31.0548 151.086 31.2297 151.03 31.4367C150.979 31.6437 150.953 31.8761 150.953 32.1337C150.953 32.4834 150.995 32.7825 151.079 33.0309C151.167 33.2747 151.304 33.4611 151.49 33.5899C151.676 33.7187 151.914 33.7831 152.202 33.7831C152.407 33.7831 152.609 33.7601 152.809 33.7141C153.014 33.6681 153.235 33.6037 153.472 33.5209V34.3974C153.253 34.4848 153.037 34.5492 152.823 34.5906C152.609 34.632 152.369 34.6527 152.104 34.6527C151.593 34.6527 151.169 34.5492 150.834 34.3421C150.504 34.1305 150.26 33.836 150.102 33.4588C149.944 33.0769 149.865 32.6329 149.865 32.1268C149.865 31.7542 149.916 31.4137 150.018 31.1054C150.12 30.7926 150.269 30.5234 150.465 30.298C150.665 30.0725 150.909 29.8977 151.197 29.7735C151.49 29.6493 151.825 29.5872 152.202 29.5872C152.449 29.5872 152.695 29.6194 152.942 29.6838C153.193 29.7436 153.432 29.8264 153.66 29.9322L153.318 30.7811C153.132 30.6937 152.944 30.6177 152.753 30.5533C152.567 30.4889 152.383 30.4567 152.202 30.4567ZM158.473 34.5837H157.419V30.5257H156.198C156.17 30.7374 156.14 30.9674 156.107 31.2159C156.079 31.4643 156.047 31.7174 156.01 31.975C155.977 32.228 155.942 32.4696 155.905 32.6996C155.868 32.9251 155.831 33.1252 155.793 33.3C155.733 33.5853 155.651 33.8291 155.549 34.0316C155.451 34.234 155.314 34.3882 155.137 34.494C154.965 34.5998 154.74 34.6527 154.461 34.6527C154.368 34.6527 154.279 34.6458 154.195 34.632C154.112 34.6182 154.033 34.5998 153.958 34.5768V33.721C154.019 33.7394 154.077 33.7555 154.133 33.7693C154.193 33.7831 154.258 33.79 154.328 33.79C154.421 33.79 154.498 33.7601 154.558 33.7003C154.619 33.6405 154.672 33.5393 154.719 33.3967C154.765 33.2494 154.812 33.047 154.858 32.7894C154.882 32.6789 154.909 32.5225 154.942 32.3201C154.975 32.113 155.012 31.8715 155.054 31.5954C155.1 31.3148 155.147 31.0111 155.193 30.6845C155.24 30.3532 155.284 30.0104 155.326 29.6562H158.473V34.5837ZM162.185 33.1413C162.046 33.4542 161.897 33.7256 161.739 33.9557C161.585 34.1811 161.388 34.3536 161.146 34.4733C160.904 34.5929 160.588 34.6527 160.197 34.6527C160.076 34.6527 159.943 34.6435 159.799 34.6251C159.655 34.6067 159.522 34.5814 159.401 34.5492V33.652C159.513 33.698 159.636 33.7302 159.771 33.7486C159.906 33.767 160.032 33.7762 160.148 33.7762C160.302 33.7762 160.425 33.7509 160.518 33.7003C160.616 33.6497 160.692 33.5807 160.748 33.4933C160.809 33.4013 160.857 33.3023 160.895 33.1965L159.171 29.6562H160.288L161.216 31.7887C161.239 31.8347 161.267 31.8945 161.299 31.9681C161.332 32.0417 161.364 32.1176 161.397 32.1958C161.43 32.2741 161.455 32.3431 161.474 32.4029H161.509C161.527 32.3477 161.551 32.281 161.578 32.2027C161.611 32.1199 161.644 32.0371 161.676 31.9543C161.713 31.8669 161.746 31.791 161.774 31.7266L162.639 29.6562H163.727L162.185 33.1413ZM165.5 32.0233L163.826 29.6562H164.914L166.526 32.044V29.6562H167.51V32.044L169.122 29.6562H170.21L168.535 32.0233L170.308 34.5837H169.177L167.51 32.0854V34.5837H166.526V32.0854L164.858 34.5837H163.728L165.5 32.0233ZM170.938 34.5837V29.6562H174.085V30.5188H171.992V31.5471H172.411C172.88 31.5471 173.264 31.6115 173.562 31.7404C173.864 31.8692 174.087 32.0463 174.232 32.2718C174.376 32.4972 174.448 32.7548 174.448 33.0447C174.448 33.3668 174.376 33.6428 174.232 33.8729C174.087 34.1029 173.864 34.28 173.562 34.4043C173.259 34.5239 172.869 34.5837 172.39 34.5837H170.938ZM172.348 33.7279C172.669 33.7279 172.92 33.6773 173.101 33.5761C173.287 33.4749 173.38 33.2977 173.38 33.0447C173.38 32.8699 173.334 32.7364 173.241 32.6444C173.152 32.5524 173.025 32.4903 172.857 32.4581C172.694 32.4213 172.497 32.4029 172.264 32.4029H171.992V33.7279H172.348ZM178.437 34.5837L178.074 33.4105H176.26L175.897 34.5837H174.76L176.518 29.6355H177.809L179.574 34.5837H178.437ZM177.46 31.3884C177.437 31.3102 177.406 31.2113 177.369 31.0916C177.332 30.972 177.295 30.8501 177.257 30.7259C177.22 30.6016 177.19 30.4935 177.167 30.4015C177.144 30.4935 177.111 30.6085 177.069 30.7466C177.032 30.88 176.995 31.0088 176.957 31.133C176.925 31.2527 176.899 31.3378 176.881 31.3884L176.525 32.534H177.823L177.46 31.3884ZM182.982 29.6562C183.623 29.6562 184.091 29.7942 184.384 30.0702C184.682 30.3417 184.831 30.7167 184.831 31.1952C184.831 31.4114 184.798 31.6184 184.733 31.8163C184.668 32.0095 184.558 32.1843 184.405 32.3408C184.256 32.4926 184.058 32.6122 183.812 32.6996C183.565 32.7871 183.261 32.8308 182.898 32.8308H182.444V34.5837H181.391V29.6562H182.982ZM182.926 30.5119H182.444V31.975H182.793C182.993 31.975 183.165 31.9497 183.309 31.8991C183.454 31.8485 183.565 31.768 183.644 31.6575C183.723 31.5471 183.763 31.4045 183.763 31.2297C183.763 30.9858 183.696 30.8064 183.561 30.6914C183.426 30.5717 183.214 30.5119 182.926 30.5119ZM190.293 32.113C190.293 32.4949 190.244 32.8423 190.147 33.1551C190.054 33.4634 189.91 33.7302 189.714 33.9557C189.523 34.1811 189.277 34.3536 188.975 34.4733C188.677 34.5929 188.326 34.6527 187.921 34.6527C187.516 34.6527 187.163 34.5929 186.86 34.4733C186.563 34.349 186.316 34.1765 186.121 33.9557C185.93 33.7302 185.786 33.4611 185.688 33.1482C185.595 32.8354 185.549 32.488 185.549 32.1061C185.549 31.5954 185.632 31.1514 185.8 30.7742C185.972 30.3969 186.232 30.1048 186.581 29.8977C186.935 29.6861 187.384 29.5803 187.928 29.5803C188.468 29.5803 188.912 29.6861 189.261 29.8977C189.609 30.1048 189.868 30.3992 190.035 30.7811C190.207 31.1583 190.293 31.6023 190.293 32.113ZM186.658 32.113C186.658 32.4581 186.702 32.7548 186.791 33.0033C186.879 33.2517 187.016 33.4427 187.202 33.5761C187.388 33.7095 187.628 33.7762 187.921 33.7762C188.223 33.7762 188.465 33.7095 188.647 33.5761C188.833 33.4427 188.968 33.2517 189.051 33.0033C189.14 32.7548 189.184 32.4581 189.184 32.113C189.184 31.5931 189.086 31.186 188.891 30.8915C188.695 30.597 188.374 30.4498 187.928 30.4498C187.63 30.4498 187.388 30.5165 187.202 30.65C187.016 30.7834 186.879 30.9743 186.791 31.2228C186.702 31.4712 186.658 31.768 186.658 32.113ZM193.439 30.4567C193.239 30.4567 193.06 30.4958 192.902 30.574C192.749 30.6523 192.618 30.765 192.511 30.9122C192.405 31.0548 192.323 31.2297 192.267 31.4367C192.216 31.6437 192.191 31.8761 192.191 32.1337C192.191 32.4834 192.232 32.7825 192.316 33.0309C192.405 33.2747 192.542 33.4611 192.728 33.5899C192.914 33.7187 193.151 33.7831 193.439 33.7831C193.644 33.7831 193.847 33.7601 194.047 33.7141C194.251 33.6681 194.472 33.6037 194.709 33.5209V34.3974C194.491 34.4848 194.274 34.5492 194.06 34.5906C193.846 34.632 193.607 34.6527 193.342 34.6527C192.83 34.6527 192.407 34.5492 192.072 34.3421C191.742 34.1305 191.497 33.836 191.339 33.4588C191.181 33.0769 191.102 32.6329 191.102 32.1268C191.102 31.7542 191.153 31.4137 191.256 31.1054C191.358 30.7926 191.507 30.5234 191.702 30.298C191.902 30.0725 192.146 29.8977 192.435 29.7735C192.728 29.6493 193.063 29.5872 193.439 29.5872C193.686 29.5872 193.933 29.6194 194.179 29.6838C194.43 29.7436 194.67 29.8264 194.898 29.9322L194.556 30.7811C194.37 30.6937 194.181 30.6177 193.991 30.5533C193.805 30.4889 193.621 30.4567 193.439 30.4567ZM197.746 30.4567C197.546 30.4567 197.367 30.4958 197.208 30.574C197.055 30.6523 196.925 30.765 196.818 30.9122C196.711 31.0548 196.629 31.2297 196.574 31.4367C196.522 31.6437 196.497 31.8761 196.497 32.1337C196.497 32.4834 196.539 32.7825 196.622 33.0309C196.711 33.2747 196.848 33.4611 197.034 33.5899C197.22 33.7187 197.457 33.7831 197.746 33.7831C197.95 33.7831 198.153 33.7601 198.353 33.7141C198.557 33.6681 198.778 33.6037 199.016 33.5209V34.3974C198.797 34.4848 198.581 34.5492 198.367 34.5906C198.153 34.632 197.913 34.6527 197.648 34.6527C197.136 34.6527 196.713 34.5492 196.378 34.3421C196.048 34.1305 195.804 33.836 195.646 33.4588C195.487 33.0769 195.408 32.6329 195.408 32.1268C195.408 31.7542 195.459 31.4137 195.562 31.1054C195.664 30.7926 195.813 30.5234 196.008 30.298C196.208 30.0725 196.453 29.8977 196.741 29.7735C197.034 29.6493 197.369 29.5872 197.746 29.5872C197.992 29.5872 198.239 29.6194 198.485 29.6838C198.736 29.7436 198.976 29.8264 199.204 29.9322L198.862 30.7811C198.676 30.6937 198.488 30.6177 198.297 30.5533C198.111 30.4889 197.927 30.4567 197.746 30.4567ZM200.074 29.6562H201.023V32.0371C201.023 32.1521 201.021 32.281 201.016 32.4236C201.011 32.5662 201.007 32.7065 201.002 32.8446C200.997 32.978 200.993 33.0953 200.988 33.1965C200.984 33.2931 200.979 33.3599 200.974 33.3967H200.995L203.298 29.6562H204.561V34.5837H203.619V32.2165C203.619 32.0923 203.621 31.9566 203.626 31.8094C203.63 31.6575 203.635 31.5126 203.64 31.3746C203.649 31.2366 203.656 31.1169 203.66 31.0157C203.67 30.9099 203.677 30.8409 203.681 30.8087H203.654L201.344 34.5837H200.074V29.6562ZM209.83 28.0344C209.807 28.2736 209.74 28.4853 209.628 28.6693C209.516 28.8487 209.342 28.989 209.105 29.0903C208.867 29.1915 208.549 29.2421 208.149 29.2421C207.739 29.2421 207.418 29.1938 207.186 29.0972C206.958 28.9959 206.795 28.8556 206.697 28.6762C206.6 28.4968 206.542 28.2828 206.523 28.0344H207.451C207.474 28.2874 207.539 28.4553 207.646 28.5382C207.753 28.621 207.928 28.6624 208.17 28.6624C208.37 28.6624 208.532 28.6187 208.658 28.5313C208.788 28.4392 208.865 28.2736 208.888 28.0344H209.83ZM205.818 29.6562H206.767V32.0371C206.767 32.1521 206.765 32.281 206.76 32.4236C206.756 32.5662 206.751 32.7065 206.746 32.8446C206.742 32.978 206.737 33.0953 206.732 33.1965C206.728 33.2931 206.723 33.3599 206.718 33.3967H206.739L209.042 29.6562H210.305V34.5837H209.363V32.2165C209.363 32.0923 209.365 31.9566 209.37 31.8094C209.374 31.6575 209.379 31.5126 209.384 31.3746C209.393 31.2366 209.4 31.1169 209.405 31.0157C209.414 30.9099 209.421 30.8409 209.426 30.8087H209.398L207.088 34.5837H205.818V29.6562ZM213.677 30.4567C213.476 30.4567 213.297 30.4958 213.139 30.574C212.986 30.6523 212.856 30.765 212.749 30.9122C212.642 31.0548 212.56 31.2297 212.504 31.4367C212.453 31.6437 212.428 31.8761 212.428 32.1337C212.428 32.4834 212.469 32.7825 212.553 33.0309C212.642 33.2747 212.779 33.4611 212.965 33.5899C213.151 33.7187 213.388 33.7831 213.677 33.7831C213.881 33.7831 214.084 33.7601 214.284 33.7141C214.488 33.6681 214.709 33.6037 214.946 33.5209V34.3974C214.728 34.4848 214.511 34.5492 214.297 34.5906C214.084 34.632 213.844 34.6527 213.579 34.6527C213.067 34.6527 212.644 34.5492 212.309 34.3421C211.979 34.1305 211.734 33.836 211.576 33.4588C211.418 33.0769 211.339 32.6329 211.339 32.1268C211.339 31.7542 211.39 31.4137 211.493 31.1054C211.595 30.7926 211.744 30.5234 211.939 30.298C212.139 30.0725 212.383 29.8977 212.672 29.7735C212.965 29.6493 213.3 29.5872 213.677 29.5872C213.923 29.5872 214.17 29.6194 214.416 29.6838C214.667 29.7436 214.907 29.8264 215.135 29.9322L214.793 30.7811C214.607 30.6937 214.418 30.6177 214.228 30.5533C214.042 30.4889 213.858 30.4567 213.677 30.4567ZM220.066 34.5837H218.866L217.059 32.0854V34.5837H216.005V29.6562H217.059V32.044L218.845 29.6562H219.968L218.154 32.0233L220.066 34.5837ZM225.078 32.113C225.078 32.4949 225.029 32.8423 224.931 33.1551C224.838 33.4634 224.694 33.7302 224.499 33.9557C224.308 34.1811 224.061 34.3536 223.759 34.4733C223.461 34.5929 223.11 34.6527 222.706 34.6527C222.301 34.6527 221.947 34.5929 221.645 34.4733C221.347 34.349 221.101 34.1765 220.905 33.9557C220.715 33.7302 220.57 33.4611 220.473 33.1482C220.38 32.8354 220.333 32.488 220.333 32.1061C220.333 31.5954 220.417 31.1514 220.584 30.7742C220.757 30.3969 221.017 30.1048 221.366 29.8977C221.719 29.6861 222.168 29.5803 222.713 29.5803C223.252 29.5803 223.696 29.6861 224.045 29.8977C224.394 30.1048 224.652 30.3992 224.82 30.7811C224.992 31.1583 225.078 31.6023 225.078 32.113ZM221.443 32.113C221.443 32.4581 221.487 32.7548 221.575 33.0033C221.664 33.2517 221.801 33.4427 221.987 33.5761C222.173 33.7095 222.412 33.7762 222.706 33.7762C223.008 33.7762 223.25 33.7095 223.431 33.5761C223.617 33.4427 223.752 33.2517 223.836 33.0033C223.924 32.7548 223.968 32.4581 223.968 32.113C223.968 31.5931 223.871 31.186 223.675 30.8915C223.48 30.597 223.159 30.4498 222.713 30.4498C222.415 30.4498 222.173 30.5165 221.987 30.65C221.801 30.7834 221.664 30.9743 221.575 31.2228C221.487 31.4712 221.443 31.768 221.443 32.113ZM230.122 28.0344C230.099 28.2736 230.031 28.4853 229.92 28.6693C229.808 28.8487 229.634 28.989 229.396 29.0903C229.159 29.1915 228.84 29.2421 228.44 29.2421C228.031 29.2421 227.71 29.1938 227.478 29.0972C227.25 28.9959 227.087 28.8556 226.989 28.6762C226.891 28.4968 226.833 28.2828 226.815 28.0344H227.743C227.766 28.2874 227.831 28.4553 227.938 28.5382C228.045 28.621 228.219 28.6624 228.461 28.6624C228.661 28.6624 228.824 28.6187 228.95 28.5313C229.08 28.4392 229.157 28.2736 229.18 28.0344H230.122ZM226.11 29.6562H227.059V32.0371C227.059 32.1521 227.057 32.281 227.052 32.4236C227.047 32.5662 227.043 32.7065 227.038 32.8446C227.033 32.978 227.029 33.0953 227.024 33.1965C227.019 33.2931 227.015 33.3599 227.01 33.3967H227.031L229.333 29.6562H230.596V34.5837H229.654V32.2165C229.654 32.0923 229.657 31.9566 229.661 31.8094C229.666 31.6575 229.671 31.5126 229.675 31.3746C229.685 31.2366 229.692 31.1169 229.696 31.0157C229.706 30.9099 229.713 30.8409 229.717 30.8087H229.689L227.38 34.5837H226.11V29.6562ZM236.089 34.5837L235.726 33.4105H233.912L233.549 34.5837H232.412L234.17 29.6355H235.461L237.226 34.5837H236.089ZM235.112 31.3884C235.089 31.3102 235.058 31.2113 235.021 31.0916C234.984 30.972 234.947 30.8501 234.91 30.7259C234.872 30.6016 234.842 30.4935 234.819 30.4015C234.796 30.4935 234.763 30.6085 234.721 30.7466C234.684 30.88 234.647 31.0088 234.61 31.133C234.577 31.2527 234.551 31.3378 234.533 31.3884L234.177 32.534H235.475L235.112 31.3884ZM241.918 34.5837H240.718L238.911 32.0854V34.5837H237.857V29.6562H238.911V32.044L240.697 29.6562H241.82L240.006 32.0233L241.918 34.5837ZM245.594 34.5837L245.231 33.4105H243.417L243.054 34.5837H241.917L243.675 29.6355H244.966L246.731 34.5837H245.594ZM244.617 31.3884C244.594 31.3102 244.564 31.2113 244.526 31.0916C244.489 30.972 244.452 30.8501 244.415 30.7259C244.378 30.6016 244.347 30.4935 244.324 30.4015C244.301 30.4935 244.268 30.6085 244.226 30.7466C244.189 30.88 244.152 31.0088 244.115 31.133C244.082 31.2527 244.057 31.3378 244.038 31.3884L243.682 32.534H244.98L244.617 31.3884ZM251.263 29.6562V33.7141H251.926V36.0192H250.907V34.5837H247.788V36.0192H246.769V33.7141H247.153C247.283 33.4565 247.409 33.185 247.53 32.8998C247.651 32.6145 247.762 32.3086 247.865 31.9819C247.972 31.6552 248.067 31.301 248.151 30.9191C248.235 30.5326 248.304 30.1117 248.36 29.6562H251.263ZM249.198 30.5257C249.165 30.765 249.118 31.0203 249.058 31.2918C248.997 31.5586 248.925 31.8324 248.842 32.113C248.763 32.3937 248.674 32.6697 248.576 32.9412C248.479 33.2126 248.374 33.4703 248.263 33.7141H250.209V30.5257H249.198ZM255.559 34.5837H252.691V29.6562H255.559V30.5119H253.744V31.5954H255.433V32.4512H253.744V33.721H255.559V34.5837ZM258.702 34.5837L257.502 30.719H257.474C257.479 30.811 257.486 30.949 257.495 31.133C257.504 31.3171 257.514 31.5149 257.523 31.7266C257.532 31.9336 257.537 32.1222 257.537 32.2925V34.5837H256.595V29.6562H258.032L259.211 33.4243H259.232L260.481 29.6562H261.919V34.5837H260.935V32.2511C260.935 32.0946 260.937 31.9152 260.942 31.7128C260.951 31.5103 260.958 31.3194 260.963 31.1399C260.972 30.9559 260.979 30.8179 260.984 30.7259H260.956L259.672 34.5837H258.702ZM263.177 29.6562H264.126V32.0371C264.126 32.1521 264.124 32.281 264.119 32.4236C264.115 32.5662 264.11 32.7065 264.105 32.8446C264.101 32.978 264.096 33.0953 264.091 33.1965C264.087 33.2931 264.082 33.3599 264.077 33.3967H264.098L266.401 29.6562H267.664V34.5837H266.722V32.2165C266.722 32.0923 266.724 31.9566 266.729 31.8094C266.733 31.6575 266.738 31.5126 266.743 31.3746C266.752 31.2366 266.759 31.1169 266.764 31.0157C266.773 30.9099 266.78 30.8409 266.785 30.8087H266.757L264.447 34.5837H263.177V29.6562ZM268.921 29.6562H269.87V32.0371C269.87 32.1521 269.868 32.281 269.863 32.4236C269.859 32.5662 269.854 32.7065 269.849 32.8446C269.845 32.978 269.84 33.0953 269.835 33.1965C269.831 33.2931 269.826 33.3599 269.821 33.3967H269.842L272.145 29.6562H273.408V34.5837H272.466V32.2165C272.466 32.0923 272.468 31.9566 272.473 31.8094C272.478 31.6575 272.482 31.5126 272.487 31.3746C272.496 31.2366 272.503 31.1169 272.508 31.0157C272.517 30.9099 272.524 30.8409 272.529 30.8087H272.501L270.191 34.5837H268.921V29.6562ZM279.933 34.5837H278.879V32.4581H276.905V34.5837H275.851V29.6562H276.905V31.5885H278.879V29.6562H279.933V34.5837ZM284.235 34.5837L283.872 33.4105H282.058L281.696 34.5837H280.558L282.317 29.6355H283.607L285.373 34.5837H284.235ZM283.258 31.3884C283.235 31.3102 283.205 31.2113 283.168 31.0916C283.131 30.972 283.093 30.8501 283.056 30.7259C283.019 30.6016 282.989 30.4935 282.965 30.4015C282.942 30.4935 282.91 30.6085 282.868 30.7466C282.831 30.88 282.793 31.0088 282.756 31.133C282.724 31.2527 282.698 31.3378 282.679 31.3884L282.324 32.534H283.621L283.258 31.3884ZM288.46 33.1413C288.32 33.4542 288.171 33.7256 288.013 33.9557C287.86 34.1811 287.662 34.3536 287.42 34.4733C287.178 34.5929 286.862 34.6527 286.471 34.6527C286.35 34.6527 286.218 34.6435 286.074 34.6251C285.929 34.6067 285.797 34.5814 285.676 34.5492V33.652C285.787 33.698 285.911 33.7302 286.046 33.7486C286.181 33.767 286.306 33.7762 286.422 33.7762C286.576 33.7762 286.699 33.7509 286.792 33.7003C286.89 33.6497 286.967 33.5807 287.022 33.4933C287.083 33.4013 287.132 33.3023 287.169 33.1965L285.446 29.6562H286.562L287.49 31.7887C287.513 31.8347 287.541 31.8945 287.574 31.9681C287.606 32.0417 287.639 32.1176 287.671 32.1958C287.704 32.2741 287.73 32.3431 287.748 32.4029H287.783C287.802 32.3477 287.825 32.281 287.853 32.2027C287.885 32.1199 287.918 32.0371 287.95 31.9543C287.988 31.8669 288.02 31.791 288.048 31.7266L288.913 29.6562H290.002L288.46 33.1413ZM294.69 34.5837H293.492L291.684 32.0854V34.5837H290.63V29.6562H291.684V32.044L293.469 29.6562H294.594L292.78 32.0233L294.69 34.5837Z" fill="white"/>
</g>
<defs>
<clipPath id="clip0_105_49">
<rect width="320" height="43" fill="white"/>
</clipPath>
</defs>
</svg>
